0
SECTION
2
HEADER
9
$INSUNITS
70
4
9
$ACADVER
1
AC1014
9
$HANDSEED
5
FFFF
0
ENDSEC
0
SECTION
2
TABLES
0
TABLE
2
VPORT
5
8
100
AcDbSymbolTable
0
ENDTAB
0
TABLE
2
LTYPE
5
5
100
AcDbSymbolTable
0
LTYPE
5
14
100
AcDbSymbolTableRecord
100
AcDbLinetypeTableRecord
2
BYBLOCK
70
0
0
LTYPE
5
15
100
AcDbSymbolTableRecord
100
AcDbLinetypeTableRecord
2
BYLAYER
70
0
0
LTYPE
5
16
100
AcDbSymbolTableRecord
100
AcDbLinetypeTableRecord
2
DASHED
70
0
3
Dashed __ __ __ __ __ __ __ __ __ __ __ __ __ _
72
65
73
2
40
0.75
49
0.5
74
0
49
-0.25
74
0
0
ENDTAB
0
TABLE
2
LAYER
5
2
100
AcDbSymbolTable
70
2
0
LAYER
5
50
100
AcDbSymbolTableRecord
100
AcDbLayerTableRecord
2
0
70
0
62
7
6
CONTINUOUS
0
ENDTAB
0
TABLE
2
STYLE
5
3
100
AcDbSymbolTable
70
1
0
STYLE
5
11
100
AcDbSymbolTableRecord
100
AcDbTextStyleTableRecord
2
STANDARD
70
0
0
ENDTAB
0
TABLE
2
VIEW
5
6
100
AcDbSymbolTable
70
0
0
ENDTAB
0
TABLE
2
UCS
5
7
100
AcDbSymbolTable
70
0
0
ENDTAB
0
TABLE
2
APPID
5
9
100
AcDbSymbolTable
70
2
0
APPID
5
12
100
AcDbSymbolTableRecord
100
AcDbRegAppTableRecord
2
ACAD
70
0
0
ENDTAB
0
TABLE
2
DIMSTYLE
5
A
100
AcDbSymbolTable
70
1
0
ENDTAB
0
TABLE
2
BLOCK_RECORD
5
1
100
AcDbSymbolTable
70
1
0
BLOCK_RECORD
5
1F
100
AcDbSymbolTableRecord
100
AcDbBlockTableRecord
2
*MODEL_SPACE
0
BLOCK_RECORD
5
1B
100
AcDbSymbolTableRecord
100
AcDbBlockTableRecord
2
*PAPER_SPACE
0
ENDTAB
0
ENDSEC
0
SECTION
2
BLOCKS
0
BLOCK
5
20
100
AcDbEntity
100
AcDbBlockBegin
2
*MODEL_SPACE
0
ENDBLK
5
21
100
AcDbEntity
100
AcDbBlockEnd
0
BLOCK
5
1C
100
AcDbEntity
100
AcDbBlockBegin
2
*PAPER_SPACE
0
ENDBLK
5
1D
100
AcDbEntity
100
AcDbBlockEnd
0
ENDSEC
0
SECTION
2
ENTITIES
0
LWPOLYLINE
5
100
100
AcDbEntity
8
0
100
AcDbPolyline
90
4
70
1
43
0.0
10
-306.89499999999998
20
-121.05800000000001
10
1.9049154000000001
20
-121.05800000000001
10
1.9049154000000001
20
5.2423070000000038
10
-306.89499999999998
20
5.2423069999999896
0
LWPOLYLINE
5
101
100
AcDbEntity
8
0
100
AcDbPolyline
90
52
70
1
43
0.0
10
-259.79500000000002
20
-92.983099999999993
10
-273.79400000000004
20
-92.983099999999993
10
-273.79400000000004
20
-91.982600000000019
10
-274.59500000000003
20
-91.982600000000019
10
-274.59500000000003
20
-88.883399999999995
10
-273.79400000000004
20
-88.883399999999995
10
-273.79400000000004
20
-88.282600000000002
10
-275.31999999999999
20
-88.282600000000002
10
-275.31999999999999
20
-91.512699999999995
10
-282.06900000000007
20
-91.512699999999995
10
-282.06900000000007
20
-88.282600000000002
10
-282.89499999999998
20
-88.282600000000002
10
-282.89499999999998
20
-85.483699999999999
10
-282.06900000000007
20
-85.483699999999999
10
-282.06900000000007
20
-79.213800000000006
10
-280.34399999999999
20
-79.213800000000006
10
-280.34399999999999
20
-78.013599999999997
10
-277.04500000000002
20
-78.013599999999997
10
-277.04500000000002
20
-79.213800000000006
10
-275.31999999999999
20
-79.213800000000006
10
-275.31999999999999
20
-83.6828
10
-273.79400000000004
20
-83.6828
10
-273.79400000000004
20
-83.083399999999997
10
-274.59500000000003
20
-83.083399999999997
10
-274.59500000000003
20
-79.982799999999997
10
-273.79400000000004
20
-79.982799999999997
10
-273.79400000000004
20
-78.983800000000002
10
-259.79500000000002
20
-78.983800000000002
10
-259.79500000000002
20
-79.982799999999997
10
-258.99400000000003
20
-79.982799999999997
10
-258.99400000000003
20
-83.083399999999997
10
-259.79500000000002
20
-83.083399999999997
10
-259.79500000000002
20
-83.6828
10
-258.26900000000001
20
-83.6828
10
-258.26900000000001
20
-79.213800000000006
10
-256.54400000000004
20
-79.213800000000006
10
-256.54400000000004
20
-78.013599999999997
10
-253.24299999999999
20
-78.013599999999997
10
-253.24299999999999
20
-79.213800000000006
10
-251.52000000000001
20
-79.213800000000006
10
-251.52000000000001
20
-85.483699999999999
10
-250.69400000000002
20
-85.483699999999999
10
-250.69400000000002
20
-88.282600000000002
10
-251.52000000000001
20
-88.282600000000002
10
-251.52000000000001
20
-91.512699999999995
10
-258.26900000000001
20
-91.512699999999995
10
-258.26900000000001
20
-88.282600000000002
10
-259.79500000000002
20
-88.282600000000002
10
-259.79500000000002
20
-88.883399999999995
10
-258.99400000000003
20
-88.883399999999995
10
-258.99400000000003
20
-91.982600000000019
10
-259.79500000000002
20
-91.982600000000019
0
LWPOLYLINE
5
102
100
AcDbEntity
8
0
100
AcDbPolyline
90
20
70
1
43
0.0
10
-21.669699999999992
20
-92.983099999999993
10
-35.669000000000004
20
-92.983099999999993
10
-35.669000000000004
20
-91.982600000000019
10
-36.469799999999992
20
-91.982600000000019
10
-36.469799999999992
20
-88.883399999999995
10
-35.669000000000004
20
-88.883399999999995
10
-35.669000000000004
20
-83.083399999999997
10
-36.469799999999992
20
-83.083399999999997
10
-36.469799999999992
20
-79.982799999999997
10
-35.669000000000004
20
-79.982799999999997
10
-35.669000000000004
20
-78.983800000000002
10
-21.669699999999992
20
-78.983800000000002
10
-21.669699999999992
20
-79.982799999999997
10
-20.869
20
-79.982799999999997
10
-20.869
20
-83.083399999999997
10
-21.669699999999992
20
-83.083399999999997
10
-21.669699999999992
20
-88.883399999999995
10
-20.869
20
-88.883399999999995
10
-20.869
20
-91.982600000000019
10
-21.669699999999992
20
-91.982600000000019
0
LWPOLYLINE
5
103
100
AcDbEntity
8
0
100
AcDbPolyline
90
20
70
1
43
0.0
10
-59.769700000000014
20
-112.03299999999999
10
-73.768999999999991
20
-112.03299999999999
10
-73.768999999999991
20
-111.03299999999999
10
-74.569800000000015
20
-111.03299999999999
10
-74.569800000000015
20
-107.93300000000001
10
-73.768999999999991
20
-107.93300000000001
10
-73.768999999999991
20
-102.13300000000001
10
-74.569800000000015
20
-102.13300000000001
10
-74.569800000000015
20
-99.032800000000009
10
-73.768999999999991
20
-99.032800000000009
10
-73.768999999999991
20
-98.033800000000014
10
-59.769700000000014
20
-98.033800000000014
10
-59.769700000000014
20
-99.032800000000009
10
-58.968899999999991
20
-99.032800000000009
10
-58.968899999999991
20
-102.13300000000001
10
-59.769700000000014
20
-102.13300000000001
10
-59.769700000000014
20
-107.93300000000001
10
-58.968899999999991
20
-107.93300000000001
10
-58.968899999999991
20
-111.03299999999999
10
-59.769700000000014
20
-111.03299999999999
0
LWPOLYLINE
5
104
100
AcDbEntity
8
0
100
AcDbPolyline
90
20
70
1
43
0.0
10
-93.107200000000034
20
-54.883099999999999
10
-107.10700000000003
20
-54.883099999999999
10
-107.10700000000003
20
-53.882599999999996
10
-107.90600000000001
20
-53.882599999999996
10
-107.90600000000001
20
-50.784799999999997
10
-107.10700000000003
20
-50.784799999999997
10
-107.10700000000003
20
-44.983400000000003
10
-107.90600000000001
20
-44.983400000000003
10
-107.90600000000001
20
-41.882800000000003
10
-107.10700000000003
20
-41.882800000000003
10
-107.10700000000003
20
-40.883800000000001
10
-93.107200000000034
20
-40.883800000000001
10
-93.107200000000034
20
-41.882800000000003
10
-92.306400000000011
20
-41.882800000000003
10
-92.306400000000011
20
-44.983400000000003
10
-93.107200000000034
20
-44.983400000000003
10
-93.107200000000034
20
-50.784799999999997
10
-92.306400000000011
20
-50.784799999999997
10
-92.306400000000011
20
-53.882599999999996
10
-93.107200000000034
20
-53.882599999999996
0
LWPOLYLINE
5
105
100
AcDbEntity
8
0
100
AcDbPolyline
90
20
70
1
43
0.0
10
-288.37
20
-92.983099999999993
10
-302.36900000000003
20
-92.983099999999993
10
-302.36900000000003
20
-91.982600000000019
10
-303.17000000000002
20
-91.982600000000019
10
-303.17000000000002
20
-88.883399999999995
10
-302.36900000000003
20
-88.883399999999995
10
-302.36900000000003
20
-83.083399999999997
10
-303.17000000000002
20
-83.083399999999997
10
-303.17000000000002
20
-79.982799999999997
10
-302.36900000000003
20
-79.982799999999997
10
-302.36900000000003
20
-78.983800000000002
10
-288.37
20
-78.983800000000002
10
-288.37
20
-79.982799999999997
10
-287.56900000000002
20
-79.982799999999997
10
-287.56900000000002
20
-83.083399999999997
10
-288.37
20
-83.083399999999997
10
-288.37
20
-88.883399999999995
10
-287.56900000000002
20
-88.883399999999995
10
-287.56900000000002
20
-91.982600000000019
10
-288.37
20
-91.982600000000019
0
LWPOLYLINE
5
106
100
AcDbEntity
8
0
100
AcDbPolyline
90
20
70
1
43
0.0
10
-7.3821600000000132
20
-73.933099999999996
10
-21.381699999999988
20
-73.933099999999996
10
-21.381699999999988
20
-72.932600000000008
10
-22.180900000000001
20
-72.932600000000008
10
-22.180900000000001
20
-69.833399999999997
10
-21.381699999999988
20
-69.833399999999997
10
-21.381699999999988
20
-64.0334
10
-22.180900000000001
20
-64.0334
10
-22.180900000000001
20
-60.9328
10
-21.381699999999988
20
-60.9328
10
-21.381699999999988
20
-59.933800000000005
10
-7.3821600000000132
20
-59.933800000000005
10
-7.3821600000000132
20
-60.9328
10
-6.5815299999999866
20
-60.9328
10
-6.5815299999999866
20
-64.0334
10
-7.3821600000000132
20
-64.0334
10
-7.3821600000000132
20
-69.833399999999997
10
-6.5815299999999866
20
-69.833399999999997
10
-6.5815299999999866
20
-72.932600000000008
10
-7.3821600000000132
20
-72.932600000000008
0
LWPOLYLINE
5
107
100
AcDbEntity
8
0
100
AcDbPolyline
90
20
70
1
43
0.0
10
-126.44500000000001
20
-73.933099999999996
10
-140.44399999999999
20
-73.933099999999996
10
-140.44399999999999
20
-72.932600000000008
10
-141.245
20
-72.932600000000008
10
-141.245
20
-69.833399999999997
10
-140.44399999999999
20
-69.833399999999997
10
-140.44399999999999
20
-64.0334
10
-141.245
20
-64.0334
10
-141.245
20
-60.9328
10
-140.44399999999999
20
-60.9328
10
-140.44399999999999
20
-59.933800000000005
10
-126.44500000000001
20
-59.933800000000005
10
-126.44500000000001
20
-60.9328
10
-125.64399999999999
20
-60.9328
10
-125.64399999999999
20
-64.0334
10
-126.44500000000001
20
-64.0334
10
-126.44500000000001
20
-69.833399999999997
10
-125.64399999999999
20
-69.833399999999997
10
-125.64399999999999
20
-72.932600000000008
10
-126.44500000000001
20
-72.932600000000008
0
LWPOLYLINE
5
108
100
AcDbEntity
8
0
100
AcDbPolyline
90
20
70
1
43
0.0
10
-226.45700000000002
20
-54.883099999999999
10
-240.45699999999999
20
-54.883099999999999
10
-240.45699999999999
20
-53.882599999999996
10
-241.25599999999997
20
-53.882599999999996
10
-241.25599999999997
20
-50.784799999999997
10
-240.45699999999999
20
-50.784799999999997
10
-240.45699999999999
20
-44.983400000000003
10
-241.25599999999997
20
-44.983400000000003
10
-241.25599999999997
20
-41.882800000000003
10
-240.45699999999999
20
-41.882800000000003
10
-240.45699999999999
20
-40.883800000000001
10
-226.45700000000002
20
-40.883800000000001
10
-226.45700000000002
20
-41.882800000000003
10
-225.65600000000001
20
-41.882800000000003
10
-225.65600000000001
20
-44.983400000000003
10
-226.45700000000002
20
-44.983400000000003
10
-226.45700000000002
20
-50.784799999999997
10
-225.65600000000001
20
-50.784799999999997
10
-225.65600000000001
20
-53.882599999999996
10
-226.45700000000002
20
-53.882599999999996
0
LWPOLYLINE
5
109
100
AcDbEntity
8
0
100
AcDbPolyline
90
20
70
1
43
0.0
10
-288.37
20
-35.832999999999998
10
-302.36900000000003
20
-35.832999999999998
10
-302.36900000000003
20
-34.83270000000001
10
-303.17000000000002
20
-34.83270000000001
10
-303.17000000000002
20
-31.734799999999996
10
-302.36900000000003
20
-31.734799999999996
10
-302.36900000000003
20
-25.933299999999999
10
-303.17000000000002
20
-25.933299999999999
10
-303.17000000000002
20
-22.832699999999999
10
-302.36900000000003
20
-22.832699999999999
10
-302.36900000000003
20
-21.833600000000004
10
-288.37
20
-21.833600000000004
10
-288.37
20
-22.832699999999999
10
-287.56900000000002
20
-22.832699999999999
10
-287.56900000000002
20
-25.933299999999999
10
-288.37
20
-25.933299999999999
10
-288.37
20
-31.734799999999996
10
-287.56900000000002
20
-31.734799999999996
10
-287.56900000000002
20
-34.83270000000001
10
-288.37
20
-34.83270000000001
0
LWPOLYLINE
5
110
100
AcDbEntity
8
0
100
AcDbPolyline
90
20
70
1
43
0.0
10
-155.02000000000004
20
-92.983099999999993
10
-169.01900000000001
20
-92.983099999999993
10
-169.01900000000001
20
-91.982600000000019
10
-169.81999999999999
20
-91.982600000000019
10
-169.81999999999999
20
-88.883399999999995
10
-169.01900000000001
20
-88.883399999999995
10
-169.01900000000001
20
-83.083399999999997
10
-169.81999999999999
20
-83.083399999999997
10
-169.81999999999999
20
-79.982799999999997
10
-169.01900000000001
20
-79.982799999999997
10
-169.01900000000001
20
-78.983800000000002
10
-155.02000000000004
20
-78.983800000000002
10
-155.02000000000004
20
-79.982799999999997
10
-154.21899999999999
20
-79.982799999999997
10
-154.21899999999999
20
-83.083399999999997
10
-155.02000000000004
20
-83.083399999999997
10
-155.02000000000004
20
-88.883399999999995
10
-154.21899999999999
20
-88.883399999999995
10
-154.21899999999999
20
-91.982600000000019
10
-155.02000000000004
20
-91.982600000000019
0
LWPOLYLINE
5
111
100
AcDbEntity
8
0
100
AcDbPolyline
90
20
70
1
43
0.0
10
-50.244700000000009
20
-73.933099999999996
10
-64.243999999999986
20
-73.933099999999996
10
-64.243999999999986
20
-72.932600000000008
10
-65.044800000000009
20
-72.932600000000008
10
-65.044800000000009
20
-69.833399999999997
10
-64.243999999999986
20
-69.833399999999997
10
-64.243999999999986
20
-64.0334
10
-65.044800000000009
20
-64.0334
10
-65.044800000000009
20
-60.9328
10
-64.243999999999986
20
-60.9328
10
-64.243999999999986
20
-59.933800000000005
10
-50.244700000000009
20
-59.933800000000005
10
-50.244700000000009
20
-60.9328
10
-49.443899999999985
20
-60.9328
10
-49.443899999999985
20
-64.0334
10
-50.244700000000009
20
-64.0334
10
-50.244700000000009
20
-69.833399999999997
10
-49.443899999999985
20
-69.833399999999997
10
-49.443899999999985
20
-72.932600000000008
10
-50.244700000000009
20
-72.932600000000008
0
LWPOLYLINE
5
112
100
AcDbEntity
8
0
100
AcDbPolyline
90
20
70
1
43
0.0
10
-64.532200000000017
20
-35.832999999999998
10
-78.531499999999994
20
-35.832999999999998
10
-78.531499999999994
20
-34.83270000000001
10
-79.3309
20
-34.83270000000001
10
-79.3309
20
-31.734799999999996
10
-78.531499999999994
20
-31.734799999999996
10
-78.531499999999994
20
-25.933299999999999
10
-79.3309
20
-25.933299999999999
10
-79.3309
20
-22.832699999999999
10
-78.531499999999994
20
-22.832699999999999
10
-78.531499999999994
20
-21.833600000000004
10
-64.532200000000017
20
-21.833600000000004
10
-64.532200000000017
20
-22.832699999999999
10
-63.731399999999994
20
-22.832699999999999
10
-63.731399999999994
20
-25.933299999999999
10
-64.532200000000017
20
-25.933299999999999
10
-64.532200000000017
20
-31.734799999999996
10
-63.731399999999994
20
-31.734799999999996
10
-63.731399999999994
20
-34.83270000000001
10
-64.532200000000017
20
-34.83270000000001
0
LWPOLYLINE
5
113
100
AcDbEntity
8
0
100
AcDbPolyline
90
20
70
1
43
0.0
10
-243.126
20
-35.832999999999998
10
-257.125
20
-35.832999999999998
10
-257.125
20
-34.83270000000001
10
-257.92599999999999
20
-34.83270000000001
10
-257.92599999999999
20
-31.734799999999996
10
-257.125
20
-31.734799999999996
10
-257.125
20
-25.933299999999999
10
-257.92599999999999
20
-25.933299999999999
10
-257.92599999999999
20
-22.832699999999999
10
-257.125
20
-22.832699999999999
10
-257.125
20
-21.833600000000004
10
-243.126
20
-21.833600000000004
10
-243.126
20
-22.832699999999999
10
-242.32500000000002
20
-22.832699999999999
10
-242.32500000000002
20
-25.933299999999999
10
-243.126
20
-25.933299999999999
10
-243.126
20
-31.734799999999996
10
-242.32500000000002
20
-31.734799999999996
10
-242.32500000000002
20
-34.83270000000001
10
-243.126
20
-34.83270000000001
0
LWPOLYLINE
5
114
100
AcDbEntity
8
0
100
AcDbPolyline
90
20
70
1
43
0.0
10
-216.93200000000004
20
-35.832999999999998
10
-230.93200000000002
20
-35.832999999999998
10
-230.93200000000002
20
-34.83270000000001
10
-231.73100000000002
20
-34.83270000000001
10
-231.73100000000002
20
-31.734799999999996
10
-230.93200000000002
20
-31.734799999999996
10
-230.93200000000002
20
-25.933299999999999
10
-231.73100000000002
20
-25.933299999999999
10
-231.73100000000002
20
-22.832699999999999
10
-230.93200000000002
20
-22.832699999999999
10
-230.93200000000002
20
-21.833600000000004
10
-216.93200000000004
20
-21.833600000000004
10
-216.93200000000004
20
-22.832699999999999
10
-216.131
20
-22.832699999999999
10
-216.131
20
-25.933299999999999
10
-216.93200000000004
20
-25.933299999999999
10
-216.93200000000004
20
-31.734799999999996
10
-216.131
20
-31.734799999999996
10
-216.131
20
-34.83270000000001
10
-216.93200000000004
20
-34.83270000000001
0
LWPOLYLINE
5
115
100
AcDbEntity
8
0
100
AcDbPolyline
90
52
70
1
43
0.0
10
-257.41200000000003
20
-54.883099999999999
10
-271.41300000000001
20
-54.883099999999999
10
-271.41300000000001
20
-53.882599999999996
10
-272.21199999999999
20
-53.882599999999996
10
-272.21199999999999
20
-50.784799999999997
10
-271.41300000000001
20
-50.784799999999997
10
-271.41300000000001
20
-50.182600000000008
10
-272.93700000000001
20
-50.182600000000008
10
-272.93700000000001
20
-53.412700000000008
10
-279.68799999999999
20
-53.412700000000008
10
-279.68799999999999
20
-50.182600000000008
10
-280.512
20
-50.182600000000008
10
-280.512
20
-47.383699999999997
10
-279.68799999999999
20
-47.383699999999997
10
-279.68799999999999
20
-41.113799999999998
10
-277.96299999999997
20
-41.113799999999998
10
-277.96299999999997
20
-39.913600000000002
10
-274.66200000000003
20
-39.913600000000002
10
-274.66200000000003
20
-41.113799999999998
10
-272.93700000000001
20
-41.113799999999998
10
-272.93700000000001
20
-45.582799999999999
10
-271.41300000000001
20
-45.582799999999999
10
-271.41300000000001
20
-44.983400000000003
10
-272.21199999999999
20
-44.983400000000003
10
-272.21199999999999
20
-41.882800000000003
10
-271.41300000000001
20
-41.882800000000003
10
-271.41300000000001
20
-40.883800000000001
10
-257.41200000000003
20
-40.883800000000001
10
-257.41200000000003
20
-41.882800000000003
10
-256.61099999999999
20
-41.882800000000003
10
-256.61099999999999
20
-44.983400000000003
10
-257.41200000000003
20
-44.983400000000003
10
-257.41200000000003
20
-45.582799999999999
10
-255.88800000000003
20
-45.582799999999999
10
-255.88800000000003
20
-41.113799999999998
10
-254.161
20
-41.113799999999998
10
-254.161
20
-39.913600000000002
10
-250.86200000000002
20
-39.913600000000002
10
-250.86200000000002
20
-41.113799999999998
10
-249.13700000000003
20
-41.113799999999998
10
-249.13700000000003
20
-47.383699999999997
10
-248.31299999999999
20
-47.383699999999997
10
-248.31299999999999
20
-50.182600000000008
10
-249.13700000000003
20
-50.182600000000008
10
-249.13700000000003
20
-53.412700000000008
10
-255.88800000000003
20
-53.412700000000008
10
-255.88800000000003
20
-50.182600000000008
10
-257.41200000000003
20
-50.182600000000008
10
-257.41200000000003
20
-50.784799999999997
10
-256.61099999999999
20
-50.784799999999997
10
-256.61099999999999
20
-53.882599999999996
10
-257.41200000000003
20
-53.882599999999996
0
LWPOLYLINE
5
116
100
AcDbEntity
8
0
100
AcDbPolyline
90
20
70
1
43
0.0
10
-40.719700000000003
20
-112.03299999999999
10
-54.71899999999998
20
-112.03299999999999
10
-54.71899999999998
20
-111.03299999999999
10
-55.519800000000004
20
-111.03299999999999
10
-55.519800000000004
20
-107.93300000000001
10
-54.71899999999998
20
-107.93300000000001
10
-54.71899999999998
20
-102.13300000000001
10
-55.519800000000004
20
-102.13300000000001
10
-55.519800000000004
20
-99.032800000000009
10
-54.71899999999998
20
-99.032800000000009
10
-54.71899999999998
20
-98.033800000000014
10
-40.719700000000003
20
-98.033800000000014
10
-40.719700000000003
20
-99.032800000000009
10
-39.918900000000015
20
-99.032800000000009
10
-39.918900000000015
20
-102.13300000000001
10
-40.719700000000003
20
-102.13300000000001
10
-40.719700000000003
20
-107.93300000000001
10
-39.918900000000015
20
-107.93300000000001
10
-39.918900000000015
20
-111.03299999999999
10
-40.719700000000003
20
-111.03299999999999
0
LWPOLYLINE
5
117
100
AcDbEntity
8
0
100
AcDbPolyline
90
20
70
1
43
0.0
10
-231.22
20
-112.03299999999999
10
-245.21900000000002
20
-112.03299999999999
10
-245.21900000000002
20
-111.03299999999999
10
-246.02000000000004
20
-111.03299999999999
10
-246.02000000000004
20
-107.93300000000001
10
-245.21900000000002
20
-107.93300000000001
10
-245.21900000000002
20
-102.13300000000001
10
-246.02000000000004
20
-102.13300000000001
10
-246.02000000000004
20
-99.032800000000009
10
-245.21900000000002
20
-99.032800000000009
10
-245.21900000000002
20
-98.033800000000014
10
-231.22
20
-98.033800000000014
10
-231.22
20
-99.032800000000009
10
-230.41900000000001
20
-99.032800000000009
10
-230.41900000000001
20
-102.13300000000001
10
-231.22
20
-102.13300000000001
10
-231.22
20
-107.93300000000001
10
-230.41900000000001
20
-107.93300000000001
10
-230.41900000000001
20
-111.03299999999999
10
-231.22
20
-111.03299999999999
0
LWPOLYLINE
5
118
100
AcDbEntity
8
0
100
AcDbPolyline
90
20
70
1
43
0.0
10
-31.194699999999997
20
-73.933099999999996
10
-45.19400000000001
20
-73.933099999999996
10
-45.19400000000001
20
-72.932600000000008
10
-45.994799999999998
20
-72.932600000000008
10
-45.994799999999998
20
-69.833399999999997
10
-45.19400000000001
20
-69.833399999999997
10
-45.19400000000001
20
-64.0334
10
-45.994799999999998
20
-64.0334
10
-45.994799999999998
20
-60.9328
10
-45.19400000000001
20
-60.9328
10
-45.19400000000001
20
-59.933800000000005
10
-31.194699999999997
20
-59.933800000000005
10
-31.194699999999997
20
-60.9328
10
-30.394000000000005
20
-60.9328
10
-30.394000000000005
20
-64.0334
10
-31.194699999999997
20
-64.0334
10
-31.194699999999997
20
-69.833399999999997
10
-30.394000000000005
20
-69.833399999999997
10
-30.394000000000005
20
-72.932600000000008
10
-31.194699999999997
20
-72.932600000000008
0
LWPOLYLINE
5
119
100
AcDbEntity
8
0
100
AcDbPolyline
90
20
70
1
43
0.0
10
-212.16999999999999
20
-112.03299999999999
10
-226.16900000000001
20
-112.03299999999999
10
-226.16900000000001
20
-111.03299999999999
10
-226.97000000000003
20
-111.03299999999999
10
-226.97000000000003
20
-107.93300000000001
10
-226.16900000000001
20
-107.93300000000001
10
-226.16900000000001
20
-102.13300000000001
10
-226.97000000000003
20
-102.13300000000001
10
-226.97000000000003
20
-99.032800000000009
10
-226.16900000000001
20
-99.032800000000009
10
-226.16900000000001
20
-98.033800000000014
10
-212.16999999999999
20
-98.033800000000014
10
-212.16999999999999
20
-99.032800000000009
10
-211.36900000000003
20
-99.032800000000009
10
-211.36900000000003
20
-102.13300000000001
10
-212.16999999999999
20
-102.13300000000001
10
-212.16999999999999
20
-107.93300000000001
10
-211.36900000000003
20
-107.93300000000001
10
-211.36900000000003
20
-111.03299999999999
10
-212.16999999999999
20
-111.03299999999999
0
LWPOLYLINE
5
120
100
AcDbEntity
8
0
100
AcDbPolyline
90
20
70
1
43
0.0
10
-240.745
20
-73.933099999999996
10
-254.74400000000003
20
-73.933099999999996
10
-254.74400000000003
20
-72.932600000000008
10
-255.54500000000002
20
-72.932600000000008
10
-255.54500000000002
20
-69.833399999999997
10
-254.74400000000003
20
-69.833399999999997
10
-254.74400000000003
20
-64.0334
10
-255.54500000000002
20
-64.0334
10
-255.54500000000002
20
-60.9328
10
-254.74400000000003
20
-60.9328
10
-254.74400000000003
20
-59.933800000000005
10
-240.745
20
-59.933800000000005
10
-240.745
20
-60.9328
10
-239.94400000000002
20
-60.9328
10
-239.94400000000002
20
-64.0334
10
-240.745
20
-64.0334
10
-240.745
20
-69.833399999999997
10
-239.94400000000002
20
-69.833399999999997
10
-239.94400000000002
20
-72.932600000000008
10
-240.745
20
-72.932600000000008
0
LWPOLYLINE
5
121
100
AcDbEntity
8
0
100
AcDbPolyline
90
20
70
1
43
0.0
10
-21.669699999999992
20
-112.03299999999999
10
-35.669000000000004
20
-112.03299999999999
10
-35.669000000000004
20
-111.03299999999999
10
-36.469799999999992
20
-111.03299999999999
10
-36.469799999999992
20
-107.93300000000001
10
-35.669000000000004
20
-107.93300000000001
10
-35.669000000000004
20
-102.13300000000001
10
-36.469799999999992
20
-102.13300000000001
10
-36.469799999999992
20
-99.032800000000009
10
-35.669000000000004
20
-99.032800000000009
10
-35.669000000000004
20
-98.033800000000014
10
-21.669699999999992
20
-98.033800000000014
10
-21.669699999999992
20
-99.032800000000009
10
-20.869
20
-99.032800000000009
10
-20.869
20
-102.13300000000001
10
-21.669699999999992
20
-102.13300000000001
10
-21.669699999999992
20
-107.93300000000001
10
-20.869
20
-107.93300000000001
10
-20.869
20
-111.03299999999999
10
-21.669699999999992
20
-111.03299999999999
0
LWPOLYLINE
5
122
100
AcDbEntity
8
0
100
AcDbPolyline
90
20
70
1
43
0.0
10
-288.37
20
-54.883099999999999
10
-302.36900000000003
20
-54.883099999999999
10
-302.36900000000003
20
-53.882599999999996
10
-303.17000000000002
20
-53.882599999999996
10
-303.17000000000002
20
-50.784799999999997
10
-302.36900000000003
20
-50.784799999999997
10
-302.36900000000003
20
-44.983400000000003
10
-303.17000000000002
20
-44.983400000000003
10
-303.17000000000002
20
-41.882800000000003
10
-302.36900000000003
20
-41.882800000000003
10
-302.36900000000003
20
-40.883800000000001
10
-288.37
20
-40.883800000000001
10
-288.37
20
-41.882800000000003
10
-287.56900000000002
20
-41.882800000000003
10
-287.56900000000002
20
-44.983400000000003
10
-288.37
20
-44.983400000000003
10
-288.37
20
-50.784799999999997
10
-287.56900000000002
20
-50.784799999999997
10
-287.56900000000002
20
-53.882599999999996
10
-288.37
20
-53.882599999999996
0
LWPOLYLINE
5
123
100
AcDbEntity
8
0
100
AcDbPolyline
90
20
70
1
43
0.0
10
-40.719700000000003
20
-92.983099999999993
10
-54.71899999999998
20
-92.983099999999993
10
-54.71899999999998
20
-91.982600000000019
10
-55.519800000000004
20
-91.982600000000019
10
-55.519800000000004
20
-88.883399999999995
10
-54.71899999999998
20
-88.883399999999995
10
-54.71899999999998
20
-83.083399999999997
10
-55.519800000000004
20
-83.083399999999997
10
-55.519800000000004
20
-79.982799999999997
10
-54.71899999999998
20
-79.982799999999997
10
-54.71899999999998
20
-78.983800000000002
10
-40.719700000000003
20
-78.983800000000002
10
-40.719700000000003
20
-79.982799999999997
10
-39.918900000000015
20
-79.982799999999997
10
-39.918900000000015
20
-83.083399999999997
10
-40.719700000000003
20
-83.083399999999997
10
-40.719700000000003
20
-88.883399999999995
10
-39.918900000000015
20
-88.883399999999995
10
-39.918900000000015
20
-91.982600000000019
10
-40.719700000000003
20
-91.982600000000019
0
LWPOLYLINE
5
124
100
AcDbEntity
8
0
100
AcDbPolyline
90
20
70
1
43
0.0
10
-231.22
20
-92.983099999999993
10
-245.21900000000002
20
-92.983099999999993
10
-245.21900000000002
20
-91.982600000000019
10
-246.02000000000004
20
-91.982600000000019
10
-246.02000000000004
20
-88.883399999999995
10
-245.21900000000002
20
-88.883399999999995
10
-245.21900000000002
20
-83.083399999999997
10
-246.02000000000004
20
-83.083399999999997
10
-246.02000000000004
20
-79.982799999999997
10
-245.21900000000002
20
-79.982799999999997
10
-245.21900000000002
20
-78.983800000000002
10
-231.22
20
-78.983800000000002
10
-231.22
20
-79.982799999999997
10
-230.41900000000001
20
-79.982799999999997
10
-230.41900000000001
20
-83.083399999999997
10
-231.22
20
-83.083399999999997
10
-231.22
20
-88.883399999999995
10
-230.41900000000001
20
-88.883399999999995
10
-230.41900000000001
20
-91.982600000000019
10
-231.22
20
-91.982600000000019
0
LWPOLYLINE
5
125
100
AcDbEntity
8
0
100
AcDbPolyline
90
20
70
1
43
0.0
10
-193.12
20
-16.784499999999998
10
-207.11900000000003
20
-16.784499999999998
10
-207.11900000000003
20
-15.784099999999999
10
-207.92000000000002
20
-15.784099999999999
10
-207.92000000000002
20
-12.684800000000003
10
-207.11900000000003
20
-12.684800000000003
10
-207.11900000000003
20
-6.8832899999999952
10
-207.92000000000002
20
-6.8832899999999952
10
-207.92000000000002
20
-3.7841099999999983
10
-207.11900000000003
20
-3.7841099999999983
10
-207.11900000000003
20
-2.7836399999999983
10
-193.12
20
-2.7836399999999983
10
-193.12
20
-3.7841099999999983
10
-192.31900000000002
20
-3.7841099999999983
10
-192.31900000000002
20
-6.8832899999999952
10
-193.12
20
-6.8832899999999952
10
-193.12
20
-12.684800000000003
10
-192.31900000000002
20
-12.684800000000003
10
-192.31900000000002
20
-15.784099999999999
10
-193.12
20
-15.784099999999999
0
LWPOLYLINE
5
126
100
AcDbEntity
8
0
100
AcDbPolyline
90
20
70
1
43
0.0
10
-212.16999999999999
20
-92.983099999999993
10
-226.16900000000001
20
-92.983099999999993
10
-226.16900000000001
20
-91.982600000000019
10
-226.97000000000003
20
-91.982600000000019
10
-226.97000000000003
20
-88.883399999999995
10
-226.16900000000001
20
-88.883399999999995
10
-226.16900000000001
20
-83.083399999999997
10
-226.97000000000003
20
-83.083399999999997
10
-226.97000000000003
20
-79.982799999999997
10
-226.16900000000001
20
-79.982799999999997
10
-226.16900000000001
20
-78.983800000000002
10
-212.16999999999999
20
-78.983800000000002
10
-212.16999999999999
20
-79.982799999999997
10
-211.36900000000003
20
-79.982799999999997
10
-211.36900000000003
20
-83.083399999999997
10
-212.16999999999999
20
-83.083399999999997
10
-212.16999999999999
20
-88.883399999999995
10
-211.36900000000003
20
-88.883399999999995
10
-211.36900000000003
20
-91.982600000000019
10
-212.16999999999999
20
-91.982600000000019
0
LWPOLYLINE
5
127
100
AcDbEntity
8
0
100
AcDbPolyline
90
20
70
1
43
0.0
10
-212.16999999999999
20
-16.784499999999998
10
-226.16900000000001
20
-16.784499999999998
10
-226.16900000000001
20
-15.784099999999999
10
-226.97000000000003
20
-15.784099999999999
10
-226.97000000000003
20
-12.684800000000003
10
-226.16900000000001
20
-12.684800000000003
10
-226.16900000000001
20
-6.8832899999999952
10
-226.97000000000003
20
-6.8832899999999952
10
-226.97000000000003
20
-3.7841099999999983
10
-226.16900000000001
20
-3.7841099999999983
10
-226.16900000000001
20
-2.7836399999999983
10
-212.16999999999999
20
-2.7836399999999983
10
-212.16999999999999
20
-3.7841099999999983
10
-211.36900000000003
20
-3.7841099999999983
10
-211.36900000000003
20
-6.8832899999999952
10
-212.16999999999999
20
-6.8832899999999952
10
-212.16999999999999
20
-12.684800000000003
10
-211.36900000000003
20
-12.684800000000003
10
-211.36900000000003
20
-15.784099999999999
10
-212.16999999999999
20
-15.784099999999999
0
LWPOLYLINE
5
128
100
AcDbEntity
8
0
100
AcDbPolyline
90
20
70
1
43
0.0
10
-35.9572
20
-54.883099999999999
10
-49.956500000000013
20
-54.883099999999999
10
-49.956500000000013
20
-53.882599999999996
10
-50.755899999999983
20
-53.882599999999996
10
-50.755899999999983
20
-50.784799999999997
10
-49.956500000000013
20
-50.784799999999997
10
-49.956500000000013
20
-44.983400000000003
10
-50.755899999999983
20
-44.983400000000003
10
-50.755899999999983
20
-41.882800000000003
10
-49.956500000000013
20
-41.882800000000003
10
-49.956500000000013
20
-40.883800000000001
10
-35.9572
20
-40.883800000000001
10
-35.9572
20
-41.882800000000003
10
-35.156500000000008
20
-41.882800000000003
10
-35.156500000000008
20
-44.983400000000003
10
-35.9572
20
-44.983400000000003
10
-35.9572
20
-50.784799999999997
10
-35.156500000000008
20
-50.784799999999997
10
-35.156500000000008
20
-53.882599999999996
10
-35.9572
20
-53.882599999999996
0
LWPOLYLINE
5
129
100
AcDbEntity
8
0
100
AcDbPolyline
90
20
70
1
43
0.0
10
-155.02000000000004
20
-112.03299999999999
10
-169.01900000000001
20
-112.03299999999999
10
-169.01900000000001
20
-111.03299999999999
10
-169.81999999999999
20
-111.03299999999999
10
-169.81999999999999
20
-107.93300000000001
10
-169.01900000000001
20
-107.93300000000001
10
-169.01900000000001
20
-102.13300000000001
10
-169.81999999999999
20
-102.13300000000001
10
-169.81999999999999
20
-99.032800000000009
10
-169.01900000000001
20
-99.032800000000009
10
-169.01900000000001
20
-98.033800000000014
10
-155.02000000000004
20
-98.033800000000014
10
-155.02000000000004
20
-99.032800000000009
10
-154.21899999999999
20
-99.032800000000009
10
-154.21899999999999
20
-102.13300000000001
10
-155.02000000000004
20
-102.13300000000001
10
-155.02000000000004
20
-107.93300000000001
10
-154.21899999999999
20
-107.93300000000001
10
-154.21899999999999
20
-111.03299999999999
10
-155.02000000000004
20
-111.03299999999999
0
LWPOLYLINE
5
130
100
AcDbEntity
8
0
100
AcDbPolyline
90
20
70
1
43
0.0
10
-83.582200000000029
20
-35.832999999999998
10
-97.581500000000005
20
-35.832999999999998
10
-97.581500000000005
20
-34.83270000000001
10
-98.380900000000011
20
-34.83270000000001
10
-98.380900000000011
20
-31.734799999999996
10
-97.581500000000005
20
-31.734799999999996
10
-97.581500000000005
20
-25.933299999999999
10
-98.380900000000011
20
-25.933299999999999
10
-98.380900000000011
20
-22.832699999999999
10
-97.581500000000005
20
-22.832699999999999
10
-97.581500000000005
20
-21.833600000000004
10
-83.582200000000029
20
-21.833600000000004
10
-83.582200000000029
20
-22.832699999999999
10
-82.781400000000005
20
-22.832699999999999
10
-82.781400000000005
20
-25.933299999999999
10
-83.582200000000029
20
-25.933299999999999
10
-83.582200000000029
20
-31.734799999999996
10
-82.781400000000005
20
-31.734799999999996
10
-82.781400000000005
20
-34.83270000000001
10
-83.582200000000029
20
-34.83270000000001
0
LWPOLYLINE
5
131
100
AcDbEntity
8
0
100
AcDbPolyline
90
20
70
1
43
0.0
10
-174.06999999999999
20
-112.03299999999999
10
-188.06900000000002
20
-112.03299999999999
10
-188.06900000000002
20
-111.03299999999999
10
-188.87
20
-111.03299999999999
10
-188.87
20
-107.93300000000001
10
-188.06900000000002
20
-107.93300000000001
10
-188.06900000000002
20
-102.13300000000001
10
-188.87
20
-102.13300000000001
10
-188.87
20
-99.032800000000009
10
-188.06900000000002
20
-99.032800000000009
10
-188.06900000000002
20
-98.033800000000014
10
-174.06999999999999
20
-98.033800000000014
10
-174.06999999999999
20
-99.032800000000009
10
-173.26900000000001
20
-99.032800000000009
10
-173.26900000000001
20
-102.13300000000001
10
-174.06999999999999
20
-102.13300000000001
10
-174.06999999999999
20
-107.93300000000001
10
-173.26900000000001
20
-107.93300000000001
10
-173.26900000000001
20
-111.03299999999999
10
-174.06999999999999
20
-111.03299999999999
0
LWPOLYLINE
5
132
100
AcDbEntity
8
0
100
AcDbPolyline
90
20
70
1
43
0.0
10
-250.27000000000001
20
-112.03299999999999
10
-264.26900000000001
20
-112.03299999999999
10
-264.26900000000001
20
-111.03299999999999
10
-265.06999999999999
20
-111.03299999999999
10
-265.06999999999999
20
-107.93300000000001
10
-264.26900000000001
20
-107.93300000000001
10
-264.26900000000001
20
-102.13300000000001
10
-265.06999999999999
20
-102.13300000000001
10
-265.06999999999999
20
-99.032800000000009
10
-264.26900000000001
20
-99.032800000000009
10
-264.26900000000001
20
-98.033800000000014
10
-250.27000000000001
20
-98.033800000000014
10
-250.27000000000001
20
-99.032800000000009
10
-249.46900000000002
20
-99.032800000000009
10
-249.46900000000002
20
-102.13300000000001
10
-250.27000000000001
20
-102.13300000000001
10
-250.27000000000001
20
-107.93300000000001
10
-249.46900000000002
20
-107.93300000000001
10
-249.46900000000002
20
-111.03299999999999
10
-250.27000000000001
20
-111.03299999999999
0
LWPOLYLINE
5
133
100
AcDbEntity
8
0
100
AcDbPolyline
90
20
70
1
43
0.0
10
-207.40700000000004
20
-54.883099999999999
10
-221.40700000000004
20
-54.883099999999999
10
-221.40700000000004
20
-53.882599999999996
10
-222.20600000000002
20
-53.882599999999996
10
-222.20600000000002
20
-50.784799999999997
10
-221.40700000000004
20
-50.784799999999997
10
-221.40700000000004
20
-44.983400000000003
10
-222.20600000000002
20
-44.983400000000003
10
-222.20600000000002
20
-41.882800000000003
10
-221.40700000000004
20
-41.882800000000003
10
-221.40700000000004
20
-40.883800000000001
10
-207.40700000000004
20
-40.883800000000001
10
-207.40700000000004
20
-41.882800000000003
10
-206.60600000000002
20
-41.882800000000003
10
-206.60600000000002
20
-44.983400000000003
10
-207.40700000000004
20
-44.983400000000003
10
-207.40700000000004
20
-50.784799999999997
10
-206.60600000000002
20
-50.784799999999997
10
-206.60600000000002
20
-53.882599999999996
10
-207.40700000000004
20
-53.882599999999996
0
LWPOLYLINE
5
134
100
AcDbEntity
8
0
100
AcDbPolyline
90
20
70
1
43
0.0
10
-107.395
20
-73.933099999999996
10
-121.39400000000001
20
-73.933099999999996
10
-121.39400000000001
20
-72.932600000000008
10
-122.19499999999999
20
-72.932600000000008
10
-122.19499999999999
20
-69.833399999999997
10
-121.39400000000001
20
-69.833399999999997
10
-121.39400000000001
20
-64.0334
10
-122.19499999999999
20
-64.0334
10
-122.19499999999999
20
-60.9328
10
-121.39400000000001
20
-60.9328
10
-121.39400000000001
20
-59.933800000000005
10
-107.395
20
-59.933800000000005
10
-107.395
20
-60.9328
10
-106.59399999999999
20
-60.9328
10
-106.59399999999999
20
-64.0334
10
-107.395
20
-64.0334
10
-107.395
20
-69.833399999999997
10
-106.59399999999999
20
-69.833399999999997
10
-106.59399999999999
20
-72.932600000000008
10
-107.395
20
-72.932600000000008
0
LWPOLYLINE
5
135
100
AcDbEntity
8
0
100
AcDbPolyline
90
20
70
1
43
0.0
10
-188.357
20
-54.883099999999999
10
-202.35700000000003
20
-54.883099999999999
10
-202.35700000000003
20
-53.882599999999996
10
-203.15600000000001
20
-53.882599999999996
10
-203.15600000000001
20
-50.784799999999997
10
-202.35700000000003
20
-50.784799999999997
10
-202.35700000000003
20
-44.983400000000003
10
-203.15600000000001
20
-44.983400000000003
10
-203.15600000000001
20
-41.882800000000003
10
-202.35700000000003
20
-41.882800000000003
10
-202.35700000000003
20
-40.883800000000001
10
-188.357
20
-40.883800000000001
10
-188.357
20
-41.882800000000003
10
-187.55599999999998
20
-41.882800000000003
10
-187.55599999999998
20
-44.983400000000003
10
-188.357
20
-44.983400000000003
10
-188.357
20
-50.784799999999997
10
-187.55599999999998
20
-50.784799999999997
10
-187.55599999999998
20
-53.882599999999996
10
-188.357
20
-53.882599999999996
0
LWPOLYLINE
5
136
100
AcDbEntity
8
0
100
AcDbPolyline
90
20
70
1
43
0.0
10
-264.55700000000002
20
-73.933099999999996
10
-278.55700000000002
20
-73.933099999999996
10
-278.55700000000002
20
-72.932600000000008
10
-279.35599999999999
20
-72.932600000000008
10
-279.35599999999999
20
-69.833399999999997
10
-278.55700000000002
20
-69.833399999999997
10
-278.55700000000002
20
-64.0334
10
-279.35599999999999
20
-64.0334
10
-279.35599999999999
20
-60.9328
10
-278.55700000000002
20
-60.9328
10
-278.55700000000002
20
-59.933800000000005
10
-264.55700000000002
20
-59.933800000000005
10
-264.55700000000002
20
-60.9328
10
-263.75599999999997
20
-60.9328
10
-263.75599999999997
20
-64.0334
10
-264.55700000000002
20
-64.0334
10
-264.55700000000002
20
-69.833399999999997
10
-263.75599999999997
20
-69.833399999999997
10
-263.75599999999997
20
-72.932600000000008
10
-264.55700000000002
20
-72.932600000000008
0
LWPOLYLINE
5
137
100
AcDbEntity
8
0
100
AcDbPolyline
90
20
70
1
43
0.0
10
-52.625999999999991
20
-16.784499999999998
10
-66.62530000000001
20
-16.784499999999998
10
-66.62530000000001
20
-15.784099999999999
10
-67.426099999999991
20
-15.784099999999999
10
-67.426099999999991
20
-12.684800000000003
10
-66.62530000000001
20
-12.684800000000003
10
-66.62530000000001
20
-6.8832899999999952
10
-67.426099999999991
20
-6.8832899999999952
10
-67.426099999999991
20
-3.7841099999999983
10
-66.62530000000001
20
-3.7841099999999983
10
-66.62530000000001
20
-2.7836399999999983
10
-52.625999999999991
20
-2.7836399999999983
10
-52.625999999999991
20
-3.7841099999999983
10
-51.825200000000002
20
-3.7841099999999983
10
-51.825200000000002
20
-6.8832899999999952
10
-52.625999999999991
20
-6.8832899999999952
10
-52.625999999999991
20
-12.684800000000003
10
-51.825200000000002
20
-12.684800000000003
10
-51.825200000000002
20
-15.784099999999999
10
-52.625999999999991
20
-15.784099999999999
0
LWPOLYLINE
5
138
100
AcDbEntity
8
0
100
AcDbPolyline
90
20
70
1
43
0.0
10
-59.769700000000014
20
-92.983099999999993
10
-73.768999999999991
20
-92.983099999999993
10
-73.768999999999991
20
-91.982600000000019
10
-74.569800000000015
20
-91.982600000000019
10
-74.569800000000015
20
-88.883399999999995
10
-73.768999999999991
20
-88.883399999999995
10
-73.768999999999991
20
-83.083399999999997
10
-74.569800000000015
20
-83.083399999999997
10
-74.569800000000015
20
-79.982799999999997
10
-73.768999999999991
20
-79.982799999999997
10
-73.768999999999991
20
-78.983800000000002
10
-59.769700000000014
20
-78.983800000000002
10
-59.769700000000014
20
-79.982799999999997
10
-58.968899999999991
20
-79.982799999999997
10
-58.968899999999991
20
-83.083399999999997
10
-59.769700000000014
20
-83.083399999999997
10
-59.769700000000014
20
-88.883399999999995
10
-58.968899999999991
20
-88.883399999999995
10
-58.968899999999991
20
-91.982600000000019
10
-59.769700000000014
20
-91.982600000000019
0
LWPOLYLINE
5
139
100
AcDbEntity
8
0
100
AcDbPolyline
90
20
70
1
43
0.0
10
-78.819699999999983
20
-112.03299999999999
10
-92.819000000000003
20
-112.03299999999999
10
-92.819000000000003
20
-111.03299999999999
10
-93.618400000000008
20
-111.03299999999999
10
-93.618400000000008
20
-107.93300000000001
10
-92.819000000000003
20
-107.93300000000001
10
-92.819000000000003
20
-102.13300000000001
10
-93.618400000000008
20
-102.13300000000001
10
-93.618400000000008
20
-99.032800000000009
10
-92.819000000000003
20
-99.032800000000009
10
-92.819000000000003
20
-98.033800000000014
10
-78.819699999999983
20
-98.033800000000014
10
-78.819699999999983
20
-99.032800000000009
10
-78.018900000000002
20
-99.032800000000009
10
-78.018900000000002
20
-102.13300000000001
10
-78.819699999999983
20
-102.13300000000001
10
-78.819699999999983
20
-107.93300000000001
10
-78.018900000000002
20
-107.93300000000001
10
-78.018900000000002
20
-111.03299999999999
10
-78.819699999999983
20
-111.03299999999999
0
LWPOLYLINE
5
140
100
AcDbEntity
8
0
100
AcDbPolyline
90
20
70
1
43
0.0
10
-269.32000000000005
20
-16.784499999999998
10
-283.31900000000007
20
-16.784499999999998
10
-283.31900000000007
20
-15.784099999999999
10
-284.12
20
-15.784099999999999
10
-284.12
20
-12.684800000000003
10
-283.31900000000007
20
-12.684800000000003
10
-283.31900000000007
20
-6.8832899999999952
10
-284.12
20
-6.8832899999999952
10
-284.12
20
-3.7841099999999983
10
-283.31900000000007
20
-3.7841099999999983
10
-283.31900000000007
20
-2.7836399999999983
10
-269.32000000000005
20
-2.7836399999999983
10
-269.32000000000005
20
-3.7841099999999983
10
-268.51900000000001
20
-3.7841099999999983
10
-268.51900000000001
20
-6.8832899999999952
10
-269.32000000000005
20
-6.8832899999999952
10
-269.32000000000005
20
-12.684800000000003
10
-268.51900000000001
20
-12.684800000000003
10
-268.51900000000001
20
-15.784099999999999
10
-269.32000000000005
20
-15.784099999999999
0
LWPOLYLINE
5
141
100
AcDbEntity
8
0
100
AcDbPolyline
90
20
70
1
43
0.0
10
-231.22
20
-16.784499999999998
10
-245.21900000000002
20
-16.784499999999998
10
-245.21900000000002
20
-15.784099999999999
10
-246.02000000000004
20
-15.784099999999999
10
-246.02000000000004
20
-12.684800000000003
10
-245.21900000000002
20
-12.684800000000003
10
-245.21900000000002
20
-6.8832899999999952
10
-246.02000000000004
20
-6.8832899999999952
10
-246.02000000000004
20
-3.7841099999999983
10
-245.21900000000002
20
-3.7841099999999983
10
-245.21900000000002
20
-2.7836399999999983
10
-231.22
20
-2.7836399999999983
10
-231.22
20
-3.7841099999999983
10
-230.41900000000001
20
-3.7841099999999983
10
-230.41900000000001
20
-6.8832899999999952
10
-231.22
20
-6.8832899999999952
10
-231.22
20
-12.684800000000003
10
-230.41900000000001
20
-12.684800000000003
10
-230.41900000000001
20
-15.784099999999999
10
-231.22
20
-15.784099999999999
0
LWPOLYLINE
5
142
100
AcDbEntity
8
0
100
AcDbPolyline
90
20
70
1
43
0.0
10
-97.868300000000019
20
-92.983099999999993
10
-111.86900000000001
20
-92.983099999999993
10
-111.86900000000001
20
-91.982600000000019
10
-112.66800000000001
20
-91.982600000000019
10
-112.66800000000001
20
-88.883399999999995
10
-111.86900000000001
20
-88.883399999999995
10
-111.86900000000001
20
-83.083399999999997
10
-112.66800000000001
20
-83.083399999999997
10
-112.66800000000001
20
-79.982799999999997
10
-111.86900000000001
20
-79.982799999999997
10
-111.86900000000001
20
-78.983800000000002
10
-97.868300000000019
20
-78.983800000000002
10
-97.868300000000019
20
-79.982799999999997
10
-97.068900000000014
20
-79.982799999999997
10
-97.068900000000014
20
-83.083399999999997
10
-97.868300000000019
20
-83.083399999999997
10
-97.868300000000019
20
-88.883399999999995
10
-97.068900000000014
20
-88.883399999999995
10
-97.068900000000014
20
-91.982600000000019
10
-97.868300000000019
20
-91.982600000000019
0
LWPOLYLINE
5
143
100
AcDbEntity
8
0
100
AcDbPolyline
90
20
70
1
43
0.0
10
-135.97000000000003
20
-92.983099999999993
10
-149.96899999999999
20
-92.983099999999993
10
-149.96899999999999
20
-91.982600000000019
10
-150.77000000000001
20
-91.982600000000019
10
-150.77000000000001
20
-88.883399999999995
10
-149.96899999999999
20
-88.883399999999995
10
-149.96899999999999
20
-83.083399999999997
10
-150.77000000000001
20
-83.083399999999997
10
-150.77000000000001
20
-79.982799999999997
10
-149.96899999999999
20
-79.982799999999997
10
-149.96899999999999
20
-78.983800000000002
10
-135.97000000000003
20
-78.983800000000002
10
-135.97000000000003
20
-79.982799999999997
10
-135.16899999999998
20
-79.982799999999997
10
-135.16899999999998
20
-83.083399999999997
10
-135.97000000000003
20
-83.083399999999997
10
-135.97000000000003
20
-88.883399999999995
10
-135.16899999999998
20
-88.883399999999995
10
-135.16899999999998
20
-91.982600000000019
10
-135.97000000000003
20
-91.982600000000019
0
LWPOLYLINE
5
144
100
AcDbEntity
8
0
100
AcDbPolyline
90
20
70
1
43
0.0
10
-269.32000000000005
20
-35.832999999999998
10
-283.31900000000007
20
-35.832999999999998
10
-283.31900000000007
20
-34.83270000000001
10
-284.12
20
-34.83270000000001
10
-284.12
20
-31.734799999999996
10
-283.31900000000007
20
-31.734799999999996
10
-283.31900000000007
20
-25.933299999999999
10
-284.12
20
-25.933299999999999
10
-284.12
20
-22.832699999999999
10
-283.31900000000007
20
-22.832699999999999
10
-283.31900000000007
20
-21.833600000000004
10
-269.32000000000005
20
-21.833600000000004
10
-269.32000000000005
20
-22.832699999999999
10
-268.51900000000001
20
-22.832699999999999
10
-268.51900000000001
20
-25.933299999999999
10
-269.32000000000005
20
-25.933299999999999
10
-269.32000000000005
20
-31.734799999999996
10
-268.51900000000001
20
-31.734799999999996
10
-268.51900000000001
20
-34.83270000000001
10
-269.32000000000005
20
-34.83270000000001
0
LWPOLYLINE
5
145
100
AcDbEntity
8
0
100
AcDbPolyline
90
20
70
1
43
0.0
10
-97.868300000000019
20
-112.03299999999999
10
-111.86900000000001
20
-112.03299999999999
10
-111.86900000000001
20
-111.03299999999999
10
-112.66800000000001
20
-111.03299999999999
10
-112.66800000000001
20
-107.93300000000001
10
-111.86900000000001
20
-107.93300000000001
10
-111.86900000000001
20
-102.13300000000001
10
-112.66800000000001
20
-102.13300000000001
10
-112.66800000000001
20
-99.032800000000009
10
-111.86900000000001
20
-99.032800000000009
10
-111.86900000000001
20
-98.033800000000014
10
-97.868300000000019
20
-98.033800000000014
10
-97.868300000000019
20
-99.032800000000009
10
-97.068900000000014
20
-99.032800000000009
10
-97.068900000000014
20
-102.13300000000001
10
-97.868300000000019
20
-102.13300000000001
10
-97.868300000000019
20
-107.93300000000001
10
-97.068900000000014
20
-107.93300000000001
10
-97.068900000000014
20
-111.03299999999999
10
-97.868300000000019
20
-111.03299999999999
0
LWPOLYLINE
5
146
100
AcDbEntity
8
0
100
AcDbPolyline
90
20
70
1
43
0.0
10
-193.12
20
-92.983099999999993
10
-207.11900000000003
20
-92.983099999999993
10
-207.11900000000003
20
-91.982600000000019
10
-207.92000000000002
20
-91.982600000000019
10
-207.92000000000002
20
-88.883399999999995
10
-207.11900000000003
20
-88.883399999999995
10
-207.11900000000003
20
-83.083399999999997
10
-207.92000000000002
20
-83.083399999999997
10
-207.92000000000002
20
-79.982799999999997
10
-207.11900000000003
20
-79.982799999999997
10
-207.11900000000003
20
-78.983800000000002
10
-193.12
20
-78.983800000000002
10
-193.12
20
-79.982799999999997
10
-192.31900000000002
20
-79.982799999999997
10
-192.31900000000002
20
-83.083399999999997
10
-193.12
20
-83.083399999999997
10
-193.12
20
-88.883399999999995
10
-192.31900000000002
20
-88.883399999999995
10
-192.31900000000002
20
-91.982600000000019
10
-193.12
20
-91.982600000000019
0
LWPOLYLINE
5
147
100
AcDbEntity
8
0
100
AcDbPolyline
90
20
70
1
43
0.0
10
-288.37
20
-16.784499999999998
10
-302.36900000000003
20
-16.784499999999998
10
-302.36900000000003
20
-15.784099999999999
10
-303.17000000000002
20
-15.784099999999999
10
-303.17000000000002
20
-12.684800000000003
10
-302.36900000000003
20
-12.684800000000003
10
-302.36900000000003
20
-6.8832899999999952
10
-303.17000000000002
20
-6.8832899999999952
10
-303.17000000000002
20
-3.7841099999999983
10
-302.36900000000003
20
-3.7841099999999983
10
-302.36900000000003
20
-2.7836399999999983
10
-288.37
20
-2.7836399999999983
10
-288.37
20
-3.7841099999999983
10
-287.56900000000002
20
-3.7841099999999983
10
-287.56900000000002
20
-6.8832899999999952
10
-288.37
20
-6.8832899999999952
10
-288.37
20
-12.684800000000003
10
-287.56900000000002
20
-12.684800000000003
10
-287.56900000000002
20
-15.784099999999999
10
-288.37
20
-15.784099999999999
0
LWPOLYLINE
5
148
100
AcDbEntity
8
0
100
AcDbPolyline
90
20
70
1
43
0.0
10
-183.595
20
-73.933099999999996
10
-197.59400000000002
20
-73.933099999999996
10
-197.59400000000002
20
-72.932600000000008
10
-198.39500000000001
20
-72.932600000000008
10
-198.39500000000001
20
-69.833399999999997
10
-197.59400000000002
20
-69.833399999999997
10
-197.59400000000002
20
-64.0334
10
-198.39500000000001
20
-64.0334
10
-198.39500000000001
20
-60.9328
10
-197.59400000000002
20
-60.9328
10
-197.59400000000002
20
-59.933800000000005
10
-183.595
20
-59.933800000000005
10
-183.595
20
-60.9328
10
-182.79400000000004
20
-60.9328
10
-182.79400000000004
20
-64.0334
10
-183.595
20
-64.0334
10
-183.595
20
-69.833399999999997
10
-182.79400000000004
20
-69.833399999999997
10
-182.79400000000004
20
-72.932600000000008
10
-183.595
20
-72.932600000000008
0
LWPOLYLINE
5
149
100
AcDbEntity
8
0
100
AcDbPolyline
90
20
70
1
43
0.0
10
-150.25700000000001
20
-54.883099999999999
10
-164.25700000000003
20
-54.883099999999999
10
-164.25700000000003
20
-53.882599999999996
10
-165.05599999999998
20
-53.882599999999996
10
-165.05599999999998
20
-50.784799999999997
10
-164.25700000000003
20
-50.784799999999997
10
-164.25700000000003
20
-44.983400000000003
10
-165.05599999999998
20
-44.983400000000003
10
-165.05599999999998
20
-41.882800000000003
10
-164.25700000000003
20
-41.882800000000003
10
-164.25700000000003
20
-40.883800000000001
10
-150.25700000000001
20
-40.883800000000001
10
-150.25700000000001
20
-41.882800000000003
10
-149.45600000000002
20
-41.882800000000003
10
-149.45600000000002
20
-44.983400000000003
10
-150.25700000000001
20
-44.983400000000003
10
-150.25700000000001
20
-50.784799999999997
10
-149.45600000000002
20
-50.784799999999997
10
-149.45600000000002
20
-53.882599999999996
10
-150.25700000000001
20
-53.882599999999996
0
LWPOLYLINE
5
150
100
AcDbEntity
8
0
100
AcDbPolyline
90
20
70
1
43
0.0
10
-269.32000000000005
20
-112.03299999999999
10
-283.31900000000007
20
-112.03299999999999
10
-283.31900000000007
20
-111.03299999999999
10
-284.12
20
-111.03299999999999
10
-284.12
20
-107.93300000000001
10
-283.31900000000007
20
-107.93300000000001
10
-283.31900000000007
20
-102.13300000000001
10
-284.12
20
-102.13300000000001
10
-284.12
20
-99.032800000000009
10
-283.31900000000007
20
-99.032800000000009
10
-283.31900000000007
20
-98.033800000000014
10
-269.32000000000005
20
-98.033800000000014
10
-269.32000000000005
20
-99.032800000000009
10
-268.51900000000001
20
-99.032800000000009
10
-268.51900000000001
20
-102.13300000000001
10
-269.32000000000005
20
-102.13300000000001
10
-269.32000000000005
20
-107.93300000000001
10
-268.51900000000001
20
-107.93300000000001
10
-268.51900000000001
20
-111.03299999999999
10
-269.32000000000005
20
-111.03299999999999
0
LWPOLYLINE
5
151
100
AcDbEntity
8
0
100
AcDbPolyline
90
20
70
1
43
0.0
10
-288.37
20
-112.03299999999999
10
-302.36900000000003
20
-112.03299999999999
10
-302.36900000000003
20
-111.03299999999999
10
-303.17000000000002
20
-111.03299999999999
10
-303.17000000000002
20
-107.93300000000001
10
-302.36900000000003
20
-107.93300000000001
10
-302.36900000000003
20
-102.13300000000001
10
-303.17000000000002
20
-102.13300000000001
10
-303.17000000000002
20
-99.032800000000009
10
-302.36900000000003
20
-99.032800000000009
10
-302.36900000000003
20
-98.033800000000014
10
-288.37
20
-98.033800000000014
10
-288.37
20
-99.032800000000009
10
-287.56900000000002
20
-99.032800000000009
10
-287.56900000000002
20
-102.13300000000001
10
-288.37
20
-102.13300000000001
10
-288.37
20
-107.93300000000001
10
-287.56900000000002
20
-107.93300000000001
10
-287.56900000000002
20
-111.03299999999999
10
-288.37
20
-111.03299999999999
0
LWPOLYLINE
5
152
100
AcDbEntity
8
0
100
AcDbPolyline
90
20
70
1
43
0.0
10
-221.69499999999999
20
-73.933099999999996
10
-235.69400000000002
20
-73.933099999999996
10
-235.69400000000002
20
-72.932600000000008
10
-236.49500000000003
20
-72.932600000000008
10
-236.49500000000003
20
-69.833399999999997
10
-235.69400000000002
20
-69.833399999999997
10
-235.69400000000002
20
-64.0334
10
-236.49500000000003
20
-64.0334
10
-236.49500000000003
20
-60.9328
10
-235.69400000000002
20
-60.9328
10
-235.69400000000002
20
-59.933800000000005
10
-221.69499999999999
20
-59.933800000000005
10
-221.69499999999999
20
-60.9328
10
-220.89400000000001
20
-60.9328
10
-220.89400000000001
20
-64.0334
10
-221.69499999999999
20
-64.0334
10
-221.69499999999999
20
-69.833399999999997
10
-220.89400000000001
20
-69.833399999999997
10
-220.89400000000001
20
-72.932600000000008
10
-221.69499999999999
20
-72.932600000000008
0
LWPOLYLINE
5
153
100
AcDbEntity
8
0
100
AcDbPolyline
90
20
70
1
43
0.0
10
-135.97000000000003
20
-112.03299999999999
10
-149.96899999999999
20
-112.03299999999999
10
-149.96899999999999
20
-111.03299999999999
10
-150.77000000000001
20
-111.03299999999999
10
-150.77000000000001
20
-107.93300000000001
10
-149.96899999999999
20
-107.93300000000001
10
-149.96899999999999
20
-102.13300000000001
10
-150.77000000000001
20
-102.13300000000001
10
-150.77000000000001
20
-99.032800000000009
10
-149.96899999999999
20
-99.032800000000009
10
-149.96899999999999
20
-98.033800000000014
10
-135.97000000000003
20
-98.033800000000014
10
-135.97000000000003
20
-99.032800000000009
10
-135.16899999999998
20
-99.032800000000009
10
-135.16899999999998
20
-102.13300000000001
10
-135.97000000000003
20
-102.13300000000001
10
-135.97000000000003
20
-107.93300000000001
10
-135.16899999999998
20
-107.93300000000001
10
-135.16899999999998
20
-111.03299999999999
10
-135.97000000000003
20
-111.03299999999999
0
LWPOLYLINE
5
154
100
AcDbEntity
8
0
100
AcDbPolyline
90
20
70
1
43
0.0
10
-112.15700000000001
20
-54.883099999999999
10
-126.15700000000002
20
-54.883099999999999
10
-126.15700000000002
20
-53.882599999999996
10
-126.956
20
-53.882599999999996
10
-126.956
20
-50.784799999999997
10
-126.15700000000002
20
-50.784799999999997
10
-126.15700000000002
20
-44.983400000000003
10
-126.956
20
-44.983400000000003
10
-126.956
20
-41.882800000000003
10
-126.15700000000002
20
-41.882800000000003
10
-126.15700000000002
20
-40.883800000000001
10
-112.15700000000001
20
-40.883800000000001
10
-112.15700000000001
20
-41.882800000000003
10
-111.35600000000002
20
-41.882800000000003
10
-111.35600000000002
20
-44.983400000000003
10
-112.15700000000001
20
-44.983400000000003
10
-112.15700000000001
20
-50.784799999999997
10
-111.35600000000002
20
-50.784799999999997
10
-111.35600000000002
20
-53.882599999999996
10
-112.15700000000001
20
-53.882599999999996
0
LWPOLYLINE
5
155
100
AcDbEntity
8
0
100
AcDbPolyline
90
20
70
1
43
0.0
10
-164.54499999999999
20
-73.933099999999996
10
-178.54400000000001
20
-73.933099999999996
10
-178.54400000000001
20
-72.932600000000008
10
-179.345
20
-72.932600000000008
10
-179.345
20
-69.833399999999997
10
-178.54400000000001
20
-69.833399999999997
10
-178.54400000000001
20
-64.0334
10
-179.345
20
-64.0334
10
-179.345
20
-60.9328
10
-178.54400000000001
20
-60.9328
10
-178.54400000000001
20
-59.933800000000005
10
-164.54499999999999
20
-59.933800000000005
10
-164.54499999999999
20
-60.9328
10
-163.74400000000003
20
-60.9328
10
-163.74400000000003
20
-64.0334
10
-164.54499999999999
20
-64.0334
10
-164.54499999999999
20
-69.833399999999997
10
-163.74400000000003
20
-69.833399999999997
10
-163.74400000000003
20
-72.932600000000008
10
-164.54499999999999
20
-72.932600000000008
0
LWPOLYLINE
5
156
100
AcDbEntity
8
0
100
AcDbPolyline
90
20
70
1
43
0.0
10
-55.007200000000012
20
-54.883099999999999
10
-69.006499999999988
20
-54.883099999999999
10
-69.006499999999988
20
-53.882599999999996
10
-69.805899999999994
20
-53.882599999999996
10
-69.805899999999994
20
-50.784799999999997
10
-69.006499999999988
20
-50.784799999999997
10
-69.006499999999988
20
-44.983400000000003
10
-69.805899999999994
20
-44.983400000000003
10
-69.805899999999994
20
-41.882800000000003
10
-69.006499999999988
20
-41.882800000000003
10
-69.006499999999988
20
-40.883800000000001
10
-55.007200000000012
20
-40.883800000000001
10
-55.007200000000012
20
-41.882800000000003
10
-54.206399999999988
20
-41.882800000000003
10
-54.206399999999988
20
-44.983400000000003
10
-55.007200000000012
20
-44.983400000000003
10
-55.007200000000012
20
-50.784799999999997
10
-54.206399999999988
20
-50.784799999999997
10
-54.206399999999988
20
-53.882599999999996
10
-55.007200000000012
20
-53.882599999999996
0
LWPOLYLINE
5
157
100
AcDbEntity
8
0
100
AcDbPolyline
90
20
70
1
43
0.0
10
-5.0009100000000117
20
-16.784499999999998
10
-19.000400000000006
20
-16.784499999999998
10
-19.000400000000006
20
-15.784099999999999
10
-19.801000000000002
20
-15.784099999999999
10
-19.801000000000002
20
-12.684800000000003
10
-19.000400000000006
20
-12.684800000000003
10
-19.000400000000006
20
-6.8832899999999952
10
-19.801000000000002
20
-6.8832899999999952
10
-19.801000000000002
20
-3.7841099999999983
10
-19.000400000000006
20
-3.7841099999999983
10
-19.000400000000006
20
-2.7836399999999983
10
-5.0009100000000117
20
-2.7836399999999983
10
-5.0009100000000117
20
-3.7841099999999983
10
-4.2002799999999851
20
-3.7841099999999983
10
-4.2002799999999851
20
-6.8832899999999952
10
-5.0009100000000117
20
-6.8832899999999952
10
-5.0009100000000117
20
-12.684800000000003
10
-4.2002799999999851
20
-12.684800000000003
10
-4.2002799999999851
20
-15.784099999999999
10
-5.0009100000000117
20
-15.784099999999999
0
LWPOLYLINE
5
158
100
AcDbEntity
8
0
100
AcDbPolyline
90
20
70
1
43
0.0
10
-116.91800000000001
20
-112.03299999999999
10
-130.91899999999998
20
-112.03299999999999
10
-130.91899999999998
20
-111.03299999999999
10
-131.72
20
-111.03299999999999
10
-131.72
20
-107.93300000000001
10
-130.91899999999998
20
-107.93300000000001
10
-130.91899999999998
20
-102.13300000000001
10
-131.72
20
-102.13300000000001
10
-131.72
20
-99.032800000000009
10
-130.91899999999998
20
-99.032800000000009
10
-130.91899999999998
20
-98.033800000000014
10
-116.91800000000001
20
-98.033800000000014
10
-116.91800000000001
20
-99.032800000000009
10
-116.119
20
-99.032800000000009
10
-116.119
20
-102.13300000000001
10
-116.91800000000001
20
-102.13300000000001
10
-116.91800000000001
20
-107.93300000000001
10
-116.119
20
-107.93300000000001
10
-116.119
20
-111.03299999999999
10
-116.91800000000001
20
-111.03299999999999
0
LWPOLYLINE
5
159
100
AcDbEntity
8
0
100
AcDbPolyline
90
20
70
1
43
0.0
10
-250.27000000000001
20
-16.784499999999998
10
-264.26900000000001
20
-16.784499999999998
10
-264.26900000000001
20
-15.784099999999999
10
-265.06999999999999
20
-15.784099999999999
10
-265.06999999999999
20
-12.684800000000003
10
-264.26900000000001
20
-12.684800000000003
10
-264.26900000000001
20
-6.8832899999999952
10
-265.06999999999999
20
-6.8832899999999952
10
-265.06999999999999
20
-3.7841099999999983
10
-264.26900000000001
20
-3.7841099999999983
10
-264.26900000000001
20
-2.7836399999999983
10
-250.27000000000001
20
-2.7836399999999983
10
-250.27000000000001
20
-3.7841099999999983
10
-249.46900000000002
20
-3.7841099999999983
10
-249.46900000000002
20
-6.8832899999999952
10
-250.27000000000001
20
-6.8832899999999952
10
-250.27000000000001
20
-12.684800000000003
10
-249.46900000000002
20
-12.684800000000003
10
-249.46900000000002
20
-15.784099999999999
10
-250.27000000000001
20
-15.784099999999999
0
LWPOLYLINE
5
160
100
AcDbEntity
8
0
100
AcDbPolyline
90
20
70
1
43
0.0
10
-174.06999999999999
20
-92.983099999999993
10
-188.06900000000002
20
-92.983099999999993
10
-188.06900000000002
20
-91.982600000000019
10
-188.87
20
-91.982600000000019
10
-188.87
20
-88.883399999999995
10
-188.06900000000002
20
-88.883399999999995
10
-188.06900000000002
20
-83.083399999999997
10
-188.87
20
-83.083399999999997
10
-188.87
20
-79.982799999999997
10
-188.06900000000002
20
-79.982799999999997
10
-188.06900000000002
20
-78.983800000000002
10
-174.06999999999999
20
-78.983800000000002
10
-174.06999999999999
20
-79.982799999999997
10
-173.26900000000001
20
-79.982799999999997
10
-173.26900000000001
20
-83.083399999999997
10
-174.06999999999999
20
-83.083399999999997
10
-174.06999999999999
20
-88.883399999999995
10
-173.26900000000001
20
-88.883399999999995
10
-173.26900000000001
20
-91.982600000000019
10
-174.06999999999999
20
-91.982600000000019
0
LWPOLYLINE
5
161
100
AcDbEntity
8
0
100
AcDbPolyline
90
20
70
1
43
0.0
10
-116.91800000000001
20
-92.983099999999993
10
-130.91899999999998
20
-92.983099999999993
10
-130.91899999999998
20
-91.982600000000019
10
-131.72
20
-91.982600000000019
10
-131.72
20
-88.883399999999995
10
-130.91899999999998
20
-88.883399999999995
10
-130.91899999999998
20
-83.083399999999997
10
-131.72
20
-83.083399999999997
10
-131.72
20
-79.982799999999997
10
-130.91899999999998
20
-79.982799999999997
10
-130.91899999999998
20
-78.983800000000002
10
-116.91800000000001
20
-78.983800000000002
10
-116.91800000000001
20
-79.982799999999997
10
-116.119
20
-79.982799999999997
10
-116.119
20
-83.083399999999997
10
-116.91800000000001
20
-83.083399999999997
10
-116.91800000000001
20
-88.883399999999995
10
-116.119
20
-88.883399999999995
10
-116.119
20
-91.982600000000019
10
-116.91800000000001
20
-91.982600000000019
0
LWPOLYLINE
5
162
100
AcDbEntity
8
0
100
AcDbPolyline
90
20
70
1
43
0.0
10
-169.30700000000002
20
-54.883099999999999
10
-183.30700000000004
20
-54.883099999999999
10
-183.30700000000004
20
-53.882599999999996
10
-184.10599999999999
20
-53.882599999999996
10
-184.10599999999999
20
-50.784799999999997
10
-183.30700000000004
20
-50.784799999999997
10
-183.30700000000004
20
-44.983400000000003
10
-184.10599999999999
20
-44.983400000000003
10
-184.10599999999999
20
-41.882800000000003
10
-183.30700000000004
20
-41.882800000000003
10
-183.30700000000004
20
-40.883800000000001
10
-169.30700000000002
20
-40.883800000000001
10
-169.30700000000002
20
-41.882800000000003
10
-168.50599999999997
20
-41.882800000000003
10
-168.50599999999997
20
-44.983400000000003
10
-169.30700000000002
20
-44.983400000000003
10
-169.30700000000002
20
-50.784799999999997
10
-168.50599999999997
20
-50.784799999999997
10
-168.50599999999997
20
-53.882599999999996
10
-169.30700000000002
20
-53.882599999999996
0
LWPOLYLINE
5
163
100
AcDbEntity
8
0
100
AcDbPolyline
90
20
70
1
43
0.0
10
-69.29470000000002
20
-73.933099999999996
10
-83.293999999999997
20
-73.933099999999996
10
-83.293999999999997
20
-72.932600000000008
10
-84.094800000000021
20
-72.932600000000008
10
-84.094800000000021
20
-69.833399999999997
10
-83.293999999999997
20
-69.833399999999997
10
-83.293999999999997
20
-64.0334
10
-84.094800000000021
20
-64.0334
10
-84.094800000000021
20
-60.9328
10
-83.293999999999997
20
-60.9328
10
-83.293999999999997
20
-59.933800000000005
10
-69.29470000000002
20
-59.933800000000005
10
-69.29470000000002
20
-60.9328
10
-68.493899999999996
20
-60.9328
10
-68.493899999999996
20
-64.0334
10
-69.29470000000002
20
-64.0334
10
-69.29470000000002
20
-69.833399999999997
10
-68.493899999999996
20
-69.833399999999997
10
-68.493899999999996
20
-72.932600000000008
10
-69.29470000000002
20
-72.932600000000008
0
LWPOLYLINE
5
164
100
AcDbEntity
8
0
100
AcDbPolyline
90
20
70
1
43
0.0
10
-2.61965
20
-112.03299999999999
10
-16.619199999999985
20
-112.03299999999999
10
-16.619199999999985
20
-111.03299999999999
10
-17.419799999999981
20
-111.03299999999999
10
-17.419799999999981
20
-107.93300000000001
10
-16.619199999999985
20
-107.93300000000001
10
-16.619199999999985
20
-102.13300000000001
10
-17.419799999999981
20
-102.13300000000001
10
-17.419799999999981
20
-99.032800000000009
10
-16.619199999999985
20
-99.032800000000009
10
-16.619199999999985
20
-98.033800000000014
10
-2.61965
20
-98.033800000000014
10
-2.61965
20
-99.032800000000009
10
-1.8190099999999987
20
-99.032800000000009
10
-1.8190099999999987
20
-102.13300000000001
10
-2.61965
20
-102.13300000000001
10
-2.61965
20
-107.93300000000001
10
-1.8190099999999987
20
-107.93300000000001
10
-1.8190099999999987
20
-111.03299999999999
10
-2.61965
20
-111.03299999999999
0
LWPOLYLINE
5
165
100
AcDbEntity
8
0
100
AcDbPolyline
90
20
70
1
43
0.0
10
-193.12
20
-112.03299999999999
10
-207.11900000000003
20
-112.03299999999999
10
-207.11900000000003
20
-111.03299999999999
10
-207.92000000000002
20
-111.03299999999999
10
-207.92000000000002
20
-107.93300000000001
10
-207.11900000000003
20
-107.93300000000001
10
-207.11900000000003
20
-102.13300000000001
10
-207.92000000000002
20
-102.13300000000001
10
-207.92000000000002
20
-99.032800000000009
10
-207.11900000000003
20
-99.032800000000009
10
-207.11900000000003
20
-98.033800000000014
10
-193.12
20
-98.033800000000014
10
-193.12
20
-99.032800000000009
10
-192.31900000000002
20
-99.032800000000009
10
-192.31900000000002
20
-102.13300000000001
10
-193.12
20
-102.13300000000001
10
-193.12
20
-107.93300000000001
10
-192.31900000000002
20
-107.93300000000001
10
-192.31900000000002
20
-111.03299999999999
10
-193.12
20
-111.03299999999999
0
LWPOLYLINE
5
166
100
AcDbEntity
8
0
100
AcDbPolyline
90
52
70
1
43
0.0
10
-124.06200000000001
20
-16.784499999999998
10
-138.06299999999999
20
-16.784499999999998
10
-138.06299999999999
20
-15.784099999999999
10
-138.86199999999999
20
-15.784099999999999
10
-138.86199999999999
20
-12.684800000000003
10
-138.06299999999999
20
-12.684800000000003
10
-138.06299999999999
20
-12.08260000000001
10
-177.68700000000001
20
-12.08260000000001
10
-177.68700000000001
20
-15.314199999999998
10
-184.43799999999999
20
-15.314199999999998
10
-184.43799999999999
20
-12.08260000000001
10
-185.262
20
-12.08260000000001
10
-185.262
20
-9.2838399999999943
10
-184.43799999999999
20
-9.2838399999999943
10
-184.43799999999999
20
-3.0137700000000045
10
-182.71299999999999
20
-3.0137700000000045
10
-182.71299999999999
20
-1.8148799999999987
10
-179.41200000000003
20
-1.8148799999999987
10
-179.41200000000003
20
-3.0137700000000045
10
-177.68700000000001
20
-3.0137700000000045
10
-177.68700000000001
20
-7.4841100000000083
10
-138.06299999999999
20
-7.4841100000000083
10
-138.06299999999999
20
-6.8832899999999952
10
-138.86199999999999
20
-6.8832899999999952
10
-138.86199999999999
20
-3.7841099999999983
10
-138.06299999999999
20
-3.7841099999999983
10
-138.06299999999999
20
-2.7836399999999983
10
-124.06200000000001
20
-2.7836399999999983
10
-124.06200000000001
20
-3.7841099999999983
10
-123.26300000000001
20
-3.7841099999999983
10
-123.26300000000001
20
-6.8832899999999952
10
-124.06200000000001
20
-6.8832899999999952
10
-124.06200000000001
20
-7.4841100000000083
10
-84.438099999999991
20
-7.4841100000000083
10
-84.438099999999991
20
-3.0137700000000045
10
-82.712599999999981
20
-3.0137700000000045
10
-82.712599999999981
20
-1.8148799999999987
10
-79.411999999999978
20
-1.8148799999999987
10
-79.411999999999978
20
-3.0137700000000045
10
-77.686999999999983
20
-3.0137700000000045
10
-77.686999999999983
20
-9.2838399999999943
10
-76.862899999999996
20
-9.2838399999999943
10
-76.862899999999996
20
-12.08260000000001
10
-77.686999999999983
20
-12.08260000000001
10
-77.686999999999983
20
-15.314199999999998
10
-84.438099999999991
20
-15.314199999999998
10
-84.438099999999991
20
-12.08260000000001
10
-124.06200000000001
20
-12.08260000000001
10
-124.06200000000001
20
-12.684800000000003
10
-123.26300000000001
20
-12.684800000000003
10
-123.26300000000001
20
-15.784099999999999
10
-124.06200000000001
20
-15.784099999999999
0
LWPOLYLINE
5
167
100
AcDbEntity
8
0
100
AcDbPolyline
90
20
70
1
43
0.0
10
-28.811999999999998
20
-16.784499999999998
10
-42.812800000000024
20
-16.784499999999998
10
-42.812800000000024
20
-15.784099999999999
10
-43.612199999999994
20
-15.784099999999999
10
-43.612199999999994
20
-12.684800000000003
10
-42.812800000000024
20
-12.684800000000003
10
-42.812800000000024
20
-6.8832899999999952
10
-43.612199999999994
20
-6.8832899999999952
10
-43.612199999999994
20
-3.7841099999999983
10
-42.812800000000024
20
-3.7841099999999983
10
-42.812800000000024
20
-2.7836399999999983
10
-28.811999999999998
20
-2.7836399999999983
10
-28.811999999999998
20
-3.7841099999999983
10
-28.012799999999984
20
-3.7841099999999983
10
-28.012799999999984
20
-6.8832899999999952
10
-28.811999999999998
20
-6.8832899999999952
10
-28.811999999999998
20
-12.684800000000003
10
-28.012799999999984
20
-12.684800000000003
10
-28.012799999999984
20
-15.784099999999999
10
-28.811999999999998
20
-15.784099999999999
0
LWPOLYLINE
5
168
100
AcDbEntity
8
0
100
AcDbPolyline
90
20
70
1
43
0.0
10
-202.64500000000001
20
-73.933099999999996
10
-216.64400000000001
20
-73.933099999999996
10
-216.64400000000001
20
-72.932600000000008
10
-217.44500000000002
20
-72.932600000000008
10
-217.44500000000002
20
-69.833399999999997
10
-216.64400000000001
20
-69.833399999999997
10
-216.64400000000001
20
-64.0334
10
-217.44500000000002
20
-64.0334
10
-217.44500000000002
20
-60.9328
10
-216.64400000000001
20
-60.9328
10
-216.64400000000001
20
-59.933800000000005
10
-202.64500000000001
20
-59.933800000000005
10
-202.64500000000001
20
-60.9328
10
-201.84400000000005
20
-60.9328
10
-201.84400000000005
20
-64.0334
10
-202.64500000000001
20
-64.0334
10
-202.64500000000001
20
-69.833399999999997
10
-201.84400000000005
20
-69.833399999999997
10
-201.84400000000005
20
-72.932600000000008
10
-202.64500000000001
20
-72.932600000000008
0
LWPOLYLINE
5
169
100
AcDbEntity
8
0
100
AcDbPolyline
90
20
70
1
43
0.0
10
-178.83199999999999
20
-35.832999999999998
10
-192.83199999999999
20
-35.832999999999998
10
-192.83199999999999
20
-34.83270000000001
10
-193.631
20
-34.83270000000001
10
-193.631
20
-31.734799999999996
10
-192.83199999999999
20
-31.734799999999996
10
-192.83199999999999
20
-25.933299999999999
10
-193.631
20
-25.933299999999999
10
-193.631
20
-22.832699999999999
10
-192.83199999999999
20
-22.832699999999999
10
-192.83199999999999
20
-21.833600000000004
10
-178.83199999999999
20
-21.833600000000004
10
-178.83199999999999
20
-22.832699999999999
10
-178.03099999999998
20
-22.832699999999999
10
-178.03099999999998
20
-25.933299999999999
10
-178.83199999999999
20
-25.933299999999999
10
-178.83199999999999
20
-31.734799999999996
10
-178.03099999999998
20
-31.734799999999996
10
-178.03099999999998
20
-34.83270000000001
10
-178.83199999999999
20
-34.83270000000001
0
LWPOLYLINE
5
170
100
AcDbEntity
8
0
100
AcDbPolyline
90
20
70
1
43
0.0
10
-121.682
20
-35.832999999999998
10
-135.68200000000002
20
-35.832999999999998
10
-135.68200000000002
20
-34.83270000000001
10
-136.48099999999999
20
-34.83270000000001
10
-136.48099999999999
20
-31.734799999999996
10
-135.68200000000002
20
-31.734799999999996
10
-135.68200000000002
20
-25.933299999999999
10
-136.48099999999999
20
-25.933299999999999
10
-136.48099999999999
20
-22.832699999999999
10
-135.68200000000002
20
-22.832699999999999
10
-135.68200000000002
20
-21.833600000000004
10
-121.682
20
-21.833600000000004
10
-121.682
20
-22.832699999999999
10
-120.881
20
-22.832699999999999
10
-120.881
20
-25.933299999999999
10
-121.682
20
-25.933299999999999
10
-121.682
20
-31.734799999999996
10
-120.881
20
-31.734799999999996
10
-120.881
20
-34.83270000000001
10
-121.682
20
-34.83270000000001
0
LWPOLYLINE
5
171
100
AcDbEntity
8
0
100
AcDbPolyline
90
20
70
1
43
0.0
10
-159.78200000000001
20
-35.832999999999998
10
-173.78200000000004
20
-35.832999999999998
10
-173.78200000000004
20
-34.83270000000001
10
-174.58099999999999
20
-34.83270000000001
10
-174.58099999999999
20
-31.734799999999996
10
-173.78200000000004
20
-31.734799999999996
10
-173.78200000000004
20
-25.933299999999999
10
-174.58099999999999
20
-25.933299999999999
10
-174.58099999999999
20
-22.832699999999999
10
-173.78200000000004
20
-22.832699999999999
10
-173.78200000000004
20
-21.833600000000004
10
-159.78200000000001
20
-21.833600000000004
10
-159.78200000000001
20
-22.832699999999999
10
-158.98099999999999
20
-22.832699999999999
10
-158.98099999999999
20
-25.933299999999999
10
-159.78200000000001
20
-25.933299999999999
10
-159.78200000000001
20
-31.734799999999996
10
-158.98099999999999
20
-31.734799999999996
10
-158.98099999999999
20
-34.83270000000001
10
-159.78200000000001
20
-34.83270000000001
0
LWPOLYLINE
5
172
100
AcDbEntity
8
0
100
AcDbPolyline
90
20
70
1
43
0.0
10
-9.7620300000000171
20
-54.883099999999999
10
-23.762900000000009
20
-54.883099999999999
10
-23.762900000000009
20
-53.882599999999996
10
-24.562200000000018
20
-53.882599999999996
10
-24.562200000000018
20
-50.784799999999997
10
-23.762900000000009
20
-50.784799999999997
10
-23.762900000000009
20
-44.983400000000003
10
-24.562200000000018
20
-44.983400000000003
10
-24.562200000000018
20
-41.882800000000003
10
-23.762900000000009
20
-41.882800000000003
10
-23.762900000000009
20
-40.883800000000001
10
-9.7620300000000171
20
-40.883800000000001
10
-9.7620300000000171
20
-41.882800000000003
10
-8.962779999999988
20
-41.882800000000003
10
-8.962779999999988
20
-44.983400000000003
10
-9.7620300000000171
20
-44.983400000000003
10
-9.7620300000000171
20
-50.784799999999997
10
-8.962779999999988
20
-50.784799999999997
10
-8.962779999999988
20
-53.882599999999996
10
-9.7620300000000171
20
-53.882599999999996
0
LWPOLYLINE
5
173
100
AcDbEntity
8
0
100
AcDbPolyline
90
20
70
1
43
0.0
10
-74.057199999999995
20
-54.883099999999999
10
-88.0565
20
-54.883099999999999
10
-88.0565
20
-53.882599999999996
10
-88.855900000000005
20
-53.882599999999996
10
-88.855900000000005
20
-50.784799999999997
10
-88.0565
20
-50.784799999999997
10
-88.0565
20
-44.983400000000003
10
-88.855900000000005
20
-44.983400000000003
10
-88.855900000000005
20
-41.882800000000003
10
-88.0565
20
-41.882800000000003
10
-88.0565
20
-40.883800000000001
10
-74.057199999999995
20
-40.883800000000001
10
-74.057199999999995
20
-41.882800000000003
10
-73.256399999999999
20
-41.882800000000003
10
-73.256399999999999
20
-44.983400000000003
10
-74.057199999999995
20
-44.983400000000003
10
-74.057199999999995
20
-50.784799999999997
10
-73.256399999999999
20
-50.784799999999997
10
-73.256399999999999
20
-53.882599999999996
10
-74.057199999999995
20
-53.882599999999996
0
LWPOLYLINE
5
174
100
AcDbEntity
8
0
100
AcDbPolyline
90
20
70
1
43
0.0
10
-102.63200000000001
20
-35.832999999999998
10
-116.63200000000002
20
-35.832999999999998
10
-116.63200000000002
20
-34.83270000000001
10
-117.431
20
-34.83270000000001
10
-117.431
20
-31.734799999999996
10
-116.63200000000002
20
-31.734799999999996
10
-116.63200000000002
20
-25.933299999999999
10
-117.431
20
-25.933299999999999
10
-117.431
20
-22.832699999999999
10
-116.63200000000002
20
-22.832699999999999
10
-116.63200000000002
20
-21.833600000000004
10
-102.63200000000001
20
-21.833600000000004
10
-102.63200000000001
20
-22.832699999999999
10
-101.83100000000002
20
-22.832699999999999
10
-101.83100000000002
20
-25.933299999999999
10
-102.63200000000001
20
-25.933299999999999
10
-102.63200000000001
20
-31.734799999999996
10
-101.83100000000002
20
-31.734799999999996
10
-101.83100000000002
20
-34.83270000000001
10
-102.63200000000001
20
-34.83270000000001
0
LWPOLYLINE
5
175
100
AcDbEntity
8
0
100
AcDbPolyline
90
20
70
1
43
0.0
10
-88.344700000000032
20
-73.933099999999996
10
-102.34400000000001
20
-73.933099999999996
10
-102.34400000000001
20
-72.932600000000008
10
-103.14500000000001
20
-72.932600000000008
10
-103.14500000000001
20
-69.833399999999997
10
-102.34400000000001
20
-69.833399999999997
10
-102.34400000000001
20
-64.0334
10
-103.14500000000001
20
-64.0334
10
-103.14500000000001
20
-60.9328
10
-102.34400000000001
20
-60.9328
10
-102.34400000000001
20
-59.933800000000005
10
-88.344700000000032
20
-59.933800000000005
10
-88.344700000000032
20
-60.9328
10
-87.543900000000008
20
-60.9328
10
-87.543900000000008
20
-64.0334
10
-88.344700000000032
20
-64.0334
10
-88.344700000000032
20
-69.833399999999997
10
-87.543900000000008
20
-69.833399999999997
10
-87.543900000000008
20
-72.932600000000008
10
-88.344700000000032
20
-72.932600000000008
0
LWPOLYLINE
5
176
100
AcDbEntity
8
0
100
AcDbPolyline
90
52
70
1
43
0.0
10
-14.525900000000007
20
-35.832999999999998
10
-28.525400000000012
20
-35.832999999999998
10
-28.525400000000012
20
-34.83270000000001
10
-29.326000000000008
20
-34.83270000000001
10
-29.326000000000008
20
-31.734799999999996
10
-28.525400000000012
20
-31.734799999999996
10
-28.525400000000012
20
-31.132600000000004
10
-30.050899999999992
20
-31.132600000000004
10
-30.050899999999992
20
-34.3628
10
-36.800400000000018
20
-34.3628
10
-36.800400000000018
20
-31.132600000000004
10
-37.625899999999994
20
-31.132600000000004
10
-37.625899999999994
20
-28.3338
10
-36.800400000000018
20
-28.3338
10
-36.800400000000018
20
-22.063800000000001
10
-35.075199999999995
20
-22.063800000000001
10
-35.075199999999995
20
-20.863499999999995
10
-31.774799999999992
20
-20.863499999999995
10
-31.774799999999992
20
-22.063800000000001
10
-30.050899999999992
20
-22.063800000000001
10
-30.050899999999992
20
-26.534100000000002
10
-28.525400000000012
20
-26.534100000000002
10
-28.525400000000012
20
-25.933299999999999
10
-29.326000000000008
20
-25.933299999999999
10
-29.326000000000008
20
-22.832699999999999
10
-28.525400000000012
20
-22.832699999999999
10
-28.525400000000012
20
-21.833600000000004
10
-14.525900000000007
20
-21.833600000000004
10
-14.525900000000007
20
-22.832699999999999
10
-13.725300000000011
20
-22.832699999999999
10
-13.725300000000011
20
-25.933299999999999
10
-14.525900000000007
20
-25.933299999999999
10
-14.525900000000007
20
-26.534100000000002
10
-13.000399999999992
20
-26.534100000000002
10
-13.000399999999992
20
-22.063800000000001
10
-11.275100000000009
20
-22.063800000000001
10
-11.275100000000009
20
-20.863499999999995
10
-7.9760900000000134
20
-20.863499999999995
10
-7.9760900000000134
20
-22.063800000000001
10
-6.2508000000000052
20
-22.063800000000001
10
-6.2508000000000052
20
-28.3338
10
-5.4253299999999882
20
-28.3338
10
-5.4253299999999882
20
-31.132600000000004
10
-6.2508000000000052
20
-31.132600000000004
10
-6.2508000000000052
20
-34.3628
10
-13.000399999999992
20
-34.3628
10
-13.000399999999992
20
-31.132600000000004
10
-14.525900000000007
20
-31.132600000000004
10
-14.525900000000007
20
-31.734799999999996
10
-13.725300000000011
20
-31.734799999999996
10
-13.725300000000011
20
-34.83270000000001
10
-14.525900000000007
20
-34.83270000000001
0
LWPOLYLINE
5
177
100
AcDbEntity
8
0
100
AcDbPolyline
90
20
70
1
43
0.0
10
-131.20699999999999
20
-54.883099999999999
10
-145.20699999999999
20
-54.883099999999999
10
-145.20699999999999
20
-53.882599999999996
10
-146.006
20
-53.882599999999996
10
-146.006
20
-50.784799999999997
10
-145.20699999999999
20
-50.784799999999997
10
-145.20699999999999
20
-44.983400000000003
10
-146.006
20
-44.983400000000003
10
-146.006
20
-41.882800000000003
10
-145.20699999999999
20
-41.882800000000003
10
-145.20699999999999
20
-40.883800000000001
10
-131.20699999999999
20
-40.883800000000001
10
-131.20699999999999
20
-41.882800000000003
10
-130.40600000000001
20
-41.882800000000003
10
-130.40600000000001
20
-44.983400000000003
10
-131.20699999999999
20
-44.983400000000003
10
-131.20699999999999
20
-50.784799999999997
10
-130.40600000000001
20
-50.784799999999997
10
-130.40600000000001
20
-53.882599999999996
10
-131.20699999999999
20
-53.882599999999996
0
LWPOLYLINE
5
178
100
AcDbEntity
8
0
100
AcDbPolyline
90
20
70
1
43
0.0
10
-78.819699999999983
20
-92.983099999999993
10
-92.819000000000003
20
-92.983099999999993
10
-92.819000000000003
20
-91.982600000000019
10
-93.618400000000008
20
-91.982600000000019
10
-93.618400000000008
20
-88.883399999999995
10
-92.819000000000003
20
-88.883399999999995
10
-92.819000000000003
20
-83.083399999999997
10
-93.618400000000008
20
-83.083399999999997
10
-93.618400000000008
20
-79.982799999999997
10
-92.819000000000003
20
-79.982799999999997
10
-92.819000000000003
20
-78.983800000000002
10
-78.819699999999983
20
-78.983800000000002
10
-78.819699999999983
20
-79.982799999999997
10
-78.018900000000002
20
-79.982799999999997
10
-78.018900000000002
20
-83.083399999999997
10
-78.819699999999983
20
-83.083399999999997
10
-78.819699999999983
20
-88.883399999999995
10
-78.018900000000002
20
-88.883399999999995
10
-78.018900000000002
20
-91.982600000000019
10
-78.819699999999983
20
-91.982600000000019
0
LWPOLYLINE
5
179
100
AcDbEntity
8
0
100
AcDbPolyline
90
20
70
1
43
0.0
10
-288.37
20
-73.933099999999996
10
-302.36900000000003
20
-73.933099999999996
10
-302.36900000000003
20
-72.932600000000008
10
-303.17000000000002
20
-72.932600000000008
10
-303.17000000000002
20
-69.833399999999997
10
-302.36900000000003
20
-69.833399999999997
10
-302.36900000000003
20
-64.0334
10
-303.17000000000002
20
-64.0334
10
-303.17000000000002
20
-60.9328
10
-302.36900000000003
20
-60.9328
10
-302.36900000000003
20
-59.933800000000005
10
-288.37
20
-59.933800000000005
10
-288.37
20
-60.9328
10
-287.56900000000002
20
-60.9328
10
-287.56900000000002
20
-64.0334
10
-288.37
20
-64.0334
10
-288.37
20
-69.833399999999997
10
-287.56900000000002
20
-69.833399999999997
10
-287.56900000000002
20
-72.932600000000008
10
-288.37
20
-72.932600000000008
0
LWPOLYLINE
5
180
100
AcDbEntity
8
0
100
AcDbPolyline
90
20
70
1
43
0.0
10
-197.88200000000003
20
-35.832999999999998
10
-211.88200000000001
20
-35.832999999999998
10
-211.88200000000001
20
-34.83270000000001
10
-212.68100000000001
20
-34.83270000000001
10
-212.68100000000001
20
-31.734799999999996
10
-211.88200000000001
20
-31.734799999999996
10
-211.88200000000001
20
-25.933299999999999
10
-212.68100000000001
20
-25.933299999999999
10
-212.68100000000001
20
-22.832699999999999
10
-211.88200000000001
20
-22.832699999999999
10
-211.88200000000001
20
-21.833600000000004
10
-197.88200000000003
20
-21.833600000000004
10
-197.88200000000003
20
-22.832699999999999
10
-197.08100000000002
20
-22.832699999999999
10
-197.08100000000002
20
-25.933299999999999
10
-197.88200000000003
20
-25.933299999999999
10
-197.88200000000003
20
-31.734799999999996
10
-197.08100000000002
20
-31.734799999999996
10
-197.08100000000002
20
-34.83270000000001
10
-197.88200000000003
20
-34.83270000000001
0
LWPOLYLINE
5
181
100
AcDbEntity
8
0
100
AcDbPolyline
90
20
70
1
43
0.0
10
-45.482200000000006
20
-35.832999999999998
10
-59.481499999999983
20
-35.832999999999998
10
-59.481499999999983
20
-34.83270000000001
10
-60.280899999999988
20
-34.83270000000001
10
-60.280899999999988
20
-31.734799999999996
10
-59.481499999999983
20
-31.734799999999996
10
-59.481499999999983
20
-25.933299999999999
10
-60.280899999999988
20
-25.933299999999999
10
-60.280899999999988
20
-22.832699999999999
10
-59.481499999999983
20
-22.832699999999999
10
-59.481499999999983
20
-21.833600000000004
10
-45.482200000000006
20
-21.833600000000004
10
-45.482200000000006
20
-22.832699999999999
10
-44.681399999999982
20
-22.832699999999999
10
-44.681399999999982
20
-25.933299999999999
10
-45.482200000000006
20
-25.933299999999999
10
-45.482200000000006
20
-31.734799999999996
10
-44.681399999999982
20
-31.734799999999996
10
-44.681399999999982
20
-34.83270000000001
10
-45.482200000000006
20
-34.83270000000001
0
LWPOLYLINE
5
182
100
AcDbEntity
8
0
100
AcDbPolyline
90
20
70
1
43
0.0
10
-145.495
20
-73.933099999999996
10
-159.494
20
-73.933099999999996
10
-159.494
20
-72.932600000000008
10
-160.29499999999999
20
-72.932600000000008
10
-160.29499999999999
20
-69.833399999999997
10
-159.494
20
-69.833399999999997
10
-159.494
20
-64.0334
10
-160.29499999999999
20
-64.0334
10
-160.29499999999999
20
-60.9328
10
-159.494
20
-60.9328
10
-159.494
20
-59.933800000000005
10
-145.495
20
-59.933800000000005
10
-145.495
20
-60.9328
10
-144.69400000000002
20
-60.9328
10
-144.69400000000002
20
-64.0334
10
-145.495
20
-64.0334
10
-145.495
20
-69.833399999999997
10
-144.69400000000002
20
-69.833399999999997
10
-144.69400000000002
20
-72.932600000000008
10
-145.495
20
-72.932600000000008
0
LWPOLYLINE
5
183
100
AcDbEntity
8
0
100
AcDbPolyline
90
20
70
1
43
0.0
10
-140.732
20
-35.832999999999998
10
-154.732
20
-35.832999999999998
10
-154.732
20
-34.83270000000001
10
-155.53100000000001
20
-34.83270000000001
10
-155.53100000000001
20
-31.734799999999996
10
-154.732
20
-31.734799999999996
10
-154.732
20
-25.933299999999999
10
-155.53100000000001
20
-25.933299999999999
10
-155.53100000000001
20
-22.832699999999999
10
-154.732
20
-22.832699999999999
10
-154.732
20
-21.833600000000004
10
-140.732
20
-21.833600000000004
10
-140.732
20
-22.832699999999999
10
-139.93100000000001
20
-22.832699999999999
10
-139.93100000000001
20
-25.933299999999999
10
-140.732
20
-25.933299999999999
10
-140.732
20
-31.734799999999996
10
-139.93100000000001
20
-31.734799999999996
10
-139.93100000000001
20
-34.83270000000001
10
-140.732
20
-34.83270000000001
0
LWPOLYLINE
5
184
100
AcDbEntity
8
0
100
AcDbPolyline
90
20
70
1
43
0.0
10
-2.61965
20
-92.983099999999993
10
-16.619199999999985
20
-92.983099999999993
10
-16.619199999999985
20
-91.982600000000019
10
-17.419799999999981
20
-91.982600000000019
10
-17.419799999999981
20
-88.883399999999995
10
-16.619199999999985
20
-88.883399999999995
10
-16.619199999999985
20
-83.083399999999997
10
-17.419799999999981
20
-83.083399999999997
10
-17.419799999999981
20
-79.982799999999997
10
-16.619199999999985
20
-79.982799999999997
10
-16.619199999999985
20
-78.983800000000002
10
-2.61965
20
-78.983800000000002
10
-2.61965
20
-79.982799999999997
10
-1.8190099999999987
20
-79.982799999999997
10
-1.8190099999999987
20
-83.083399999999997
10
-2.61965
20
-83.083399999999997
10
-2.61965
20
-88.883399999999995
10
-1.8190099999999987
20
-88.883399999999995
10
-1.8190099999999987
20
-91.982600000000019
10
-2.61965
20
-91.982600000000019
0
ENDSEC
0
SECTION
2
OBJECTS
0
DICTIONARY
5
C
100
AcDbDictionary
3
ACAD_GROUP
350
D
3
ACAD_MLINESTYLE
350
17
0
DICTIONARY
5
D
100
AcDbDictionary
0
DICTIONARY
5
1A
330
C
100
AcDbDictionary
0
DICTIONARY
5
17
100
AcDbDictionary
0
ENDSEC
0
EOF
