%TF.GenerationSoftware,KiCad,Pcbnew,10.0.6*%
%TF.CreationDate,2026-09-21T13:05:56-04:00*%
%TF.ProjectId,KBoard,4b426f61-7264-42e6-9b69-6361645f7063,rev?*%
%TF.SameCoordinates,Original*%
%TF.FileFunction,Other,ECO2*%
%FSLAX46Y46*%
G04 Gerber Fmt 4.6, Leading zero omitted, Abs format (unit mm)*
G04 Created by KiCad (PCBNEW 10.0.6) date 2026-09-21 13:05:56*
%MOMM*%
%LPD*%
G01*
G04 APERTURE LIST*
%ADD10C,0.050000*%
G04 APERTURE END LIST*
%TO.C,SW31*%
D10*
X316850000Y-63650000D02*
X316850000Y-50650000D01*
X317350000Y-50150000D02*
X330350000Y-50150000D01*
X330350000Y-64150000D02*
X317350000Y-64150000D01*
X330850000Y-50650000D02*
X330850000Y-63650000D01*
X316850000Y-50650000D02*
G75*
G02*
X317350000Y-50150000I500000J0D01*
G01*
X317350000Y-64150000D02*
G75*
G02*
X316850000Y-63650000I0J500000D01*
G01*
X330350000Y-50150000D02*
G75*
G02*
X330850000Y-50650000I-1J-500001D01*
G01*
X330847236Y-63648884D02*
G75*
G02*
X330347236Y-64148884I-500001J1D01*
G01*
%TO.C,SW82*%
X278750000Y-139850000D02*
X278750000Y-126850000D01*
X279250000Y-126350000D02*
X292250000Y-126350000D01*
X292250000Y-140350000D02*
X279250000Y-140350000D01*
X292750000Y-126850000D02*
X292750000Y-139850000D01*
X278750000Y-126850000D02*
G75*
G02*
X279250000Y-126350000I500000J0D01*
G01*
X279250000Y-140350000D02*
G75*
G02*
X278750000Y-139850000I0J500000D01*
G01*
X292250000Y-126350000D02*
G75*
G02*
X292750000Y-126850000I-1J-500001D01*
G01*
X292747236Y-139848884D02*
G75*
G02*
X292247236Y-140348884I-500001J1D01*
G01*
%TO.C,SW15*%
X297800000Y-44600000D02*
X297800000Y-31600000D01*
X298300000Y-31100000D02*
X311300000Y-31100000D01*
X311300000Y-45100000D02*
X298300000Y-45100000D01*
X311800000Y-31600000D02*
X311800000Y-44600000D01*
X297800000Y-31600000D02*
G75*
G02*
X298300000Y-31100000I500000J0D01*
G01*
X298300000Y-45100000D02*
G75*
G02*
X297800000Y-44600000I0J500000D01*
G01*
X311300000Y-31100000D02*
G75*
G02*
X311800000Y-31600000I-1J-500001D01*
G01*
X311797236Y-44598884D02*
G75*
G02*
X311297236Y-45098884I-500001J1D01*
G01*
%TO.C,SW53*%
X159687500Y-101750000D02*
X159687500Y-88750000D01*
X160187500Y-88250000D02*
X173187500Y-88250000D01*
X173187500Y-102250000D02*
X160187500Y-102250000D01*
X173687500Y-88750000D02*
X173687500Y-101750000D01*
X159687500Y-88750000D02*
G75*
G02*
X160187500Y-88250000I500000J0D01*
G01*
X160187500Y-102250000D02*
G75*
G02*
X159687500Y-101750000I0J500000D01*
G01*
X173187500Y-88250000D02*
G75*
G02*
X173687500Y-88750000I-1J-500001D01*
G01*
X173684736Y-101748884D02*
G75*
G02*
X173184736Y-102248884I-500001J1D01*
G01*
%TO.C,SW10*%
X202550000Y-44600000D02*
X202550000Y-31600000D01*
X203050000Y-31100000D02*
X216050000Y-31100000D01*
X216050000Y-45100000D02*
X203050000Y-45100000D01*
X216550000Y-31600000D02*
X216550000Y-44600000D01*
X202550000Y-31600000D02*
G75*
G02*
X203050000Y-31100000I500000J0D01*
G01*
X203050000Y-45100000D02*
G75*
G02*
X202550000Y-44600000I0J500000D01*
G01*
X216050000Y-31100000D02*
G75*
G02*
X216550000Y-31600000I-1J-500001D01*
G01*
X216547236Y-44598884D02*
G75*
G02*
X216047236Y-45098884I-500001J1D01*
G01*
%TO.C,SW5*%
X107300000Y-44600000D02*
X107300000Y-31600000D01*
X107800000Y-31100000D02*
X120800000Y-31100000D01*
X120800000Y-45100000D02*
X107800000Y-45100000D01*
X121300000Y-31600000D02*
X121300000Y-44600000D01*
X107300000Y-31600000D02*
G75*
G02*
X107800000Y-31100000I500000J0D01*
G01*
X107800000Y-45100000D02*
G75*
G02*
X107300000Y-44600000I0J500000D01*
G01*
X120800000Y-31100000D02*
G75*
G02*
X121300000Y-31600000I-1J-500001D01*
G01*
X121297236Y-44598884D02*
G75*
G02*
X120797236Y-45098884I-500001J1D01*
G01*
%TO.C,SW14*%
X278750000Y-44600000D02*
X278750000Y-31600000D01*
X279250000Y-31100000D02*
X292250000Y-31100000D01*
X292250000Y-45100000D02*
X279250000Y-45100000D01*
X292750000Y-31600000D02*
X292750000Y-44600000D01*
X278750000Y-31600000D02*
G75*
G02*
X279250000Y-31100000I500000J0D01*
G01*
X279250000Y-45100000D02*
G75*
G02*
X278750000Y-44600000I0J500000D01*
G01*
X292250000Y-31100000D02*
G75*
G02*
X292750000Y-31600000I-1J-500001D01*
G01*
X292747236Y-44598884D02*
G75*
G02*
X292247236Y-45098884I-500001J1D01*
G01*
%TO.C,SW22*%
X126350000Y-63650000D02*
X126350000Y-50650000D01*
X126850000Y-50150000D02*
X139850000Y-50150000D01*
X139850000Y-64150000D02*
X126850000Y-64150000D01*
X140350000Y-50650000D02*
X140350000Y-63650000D01*
X126350000Y-50650000D02*
G75*
G02*
X126850000Y-50150000I500000J0D01*
G01*
X126850000Y-64150000D02*
G75*
G02*
X126350000Y-63650000I0J500000D01*
G01*
X139850000Y-50150000D02*
G75*
G02*
X140350000Y-50650000I-1J-500001D01*
G01*
X140347236Y-63648884D02*
G75*
G02*
X139847236Y-64148884I-500001J1D01*
G01*
%TO.C,SW44*%
X269225000Y-82700000D02*
X269225000Y-69700000D01*
X269725000Y-69200000D02*
X282725000Y-69200000D01*
X282725000Y-83200000D02*
X269725000Y-83200000D01*
X283225000Y-69700000D02*
X283225000Y-82700000D01*
X269225000Y-69700000D02*
G75*
G02*
X269725000Y-69200000I500000J0D01*
G01*
X269725000Y-83200000D02*
G75*
G02*
X269225000Y-82700000I0J500000D01*
G01*
X282725000Y-69200000D02*
G75*
G02*
X283225000Y-69700000I-1J-500001D01*
G01*
X283222236Y-82698884D02*
G75*
G02*
X282722236Y-83198884I-500001J1D01*
G01*
%TO.C,SW52*%
X140637500Y-101750000D02*
X140637500Y-88750000D01*
X141137500Y-88250000D02*
X154137500Y-88250000D01*
X154137500Y-102250000D02*
X141137500Y-102250000D01*
X154637500Y-88750000D02*
X154637500Y-101750000D01*
X140637500Y-88750000D02*
G75*
G02*
X141137500Y-88250000I500000J0D01*
G01*
X141137500Y-102250000D02*
G75*
G02*
X140637500Y-101750000I0J500000D01*
G01*
X154137500Y-88250000D02*
G75*
G02*
X154637500Y-88750000I-1J-500001D01*
G01*
X154634736Y-101748884D02*
G75*
G02*
X154134736Y-102248884I-500001J1D01*
G01*
%TO.C,SW38*%
X154925000Y-82700000D02*
X154925000Y-69700000D01*
X155425000Y-69200000D02*
X168425000Y-69200000D01*
X168425000Y-83200000D02*
X155425000Y-83200000D01*
X168925000Y-69700000D02*
X168925000Y-82700000D01*
X154925000Y-69700000D02*
G75*
G02*
X155425000Y-69200000I500000J0D01*
G01*
X155425000Y-83200000D02*
G75*
G02*
X154925000Y-82700000I0J500000D01*
G01*
X168425000Y-69200000D02*
G75*
G02*
X168925000Y-69700000I-1J-500001D01*
G01*
X168922236Y-82698884D02*
G75*
G02*
X168422236Y-83198884I-500001J1D01*
G01*
%TO.C,SW56*%
X216837500Y-101750000D02*
X216837500Y-88750000D01*
X217337500Y-88250000D02*
X230337500Y-88250000D01*
X230337500Y-102250000D02*
X217337500Y-102250000D01*
X230837500Y-88750000D02*
X230837500Y-101750000D01*
X216837500Y-88750000D02*
G75*
G02*
X217337500Y-88250000I500000J0D01*
G01*
X217337500Y-102250000D02*
G75*
G02*
X216837500Y-101750000I0J500000D01*
G01*
X230337500Y-88250000D02*
G75*
G02*
X230837500Y-88750000I-1J-500001D01*
G01*
X230834736Y-101748884D02*
G75*
G02*
X230334736Y-102248884I-500001J1D01*
G01*
%TO.C,SW26*%
X202550000Y-63650000D02*
X202550000Y-50650000D01*
X203050000Y-50150000D02*
X216050000Y-50150000D01*
X216050000Y-64150000D02*
X203050000Y-64150000D01*
X216550000Y-50650000D02*
X216550000Y-63650000D01*
X202550000Y-50650000D02*
G75*
G02*
X203050000Y-50150000I500000J0D01*
G01*
X203050000Y-64150000D02*
G75*
G02*
X202550000Y-63650000I0J500000D01*
G01*
X216050000Y-50150000D02*
G75*
G02*
X216550000Y-50650000I-1J-500001D01*
G01*
X216547236Y-63648884D02*
G75*
G02*
X216047236Y-64148884I-500001J1D01*
G01*
%TO.C,SW80*%
X240650000Y-139850000D02*
X240650000Y-126850000D01*
X241150000Y-126350000D02*
X254150000Y-126350000D01*
X254150000Y-140350000D02*
X241150000Y-140350000D01*
X254650000Y-126850000D02*
X254650000Y-139850000D01*
X240650000Y-126850000D02*
G75*
G02*
X241150000Y-126350000I500000J0D01*
G01*
X241150000Y-140350000D02*
G75*
G02*
X240650000Y-139850000I0J500000D01*
G01*
X254150000Y-126350000D02*
G75*
G02*
X254650000Y-126850000I-1J-500001D01*
G01*
X254647236Y-139848884D02*
G75*
G02*
X254147236Y-140348884I-500001J1D01*
G01*
%TO.C,SW54*%
X178737500Y-101750000D02*
X178737500Y-88750000D01*
X179237500Y-88250000D02*
X192237500Y-88250000D01*
X192237500Y-102250000D02*
X179237500Y-102250000D01*
X192737500Y-88750000D02*
X192737500Y-101750000D01*
X178737500Y-88750000D02*
G75*
G02*
X179237500Y-88250000I500000J0D01*
G01*
X179237500Y-102250000D02*
G75*
G02*
X178737500Y-101750000I0J500000D01*
G01*
X192237500Y-88250000D02*
G75*
G02*
X192737500Y-88750000I-1J-500001D01*
G01*
X192734736Y-101748884D02*
G75*
G02*
X192234736Y-102248884I-500001J1D01*
G01*
%TO.C,SW20*%
X88250000Y-63650000D02*
X88250000Y-50650000D01*
X88750000Y-50150000D02*
X101750000Y-50150000D01*
X101750000Y-64150000D02*
X88750000Y-64150000D01*
X102250000Y-50650000D02*
X102250000Y-63650000D01*
X88250000Y-50650000D02*
G75*
G02*
X88750000Y-50150000I500000J0D01*
G01*
X88750000Y-64150000D02*
G75*
G02*
X88250000Y-63650000I0J500000D01*
G01*
X101750000Y-50150000D02*
G75*
G02*
X102250000Y-50650000I-1J-500001D01*
G01*
X102247236Y-63648884D02*
G75*
G02*
X101747236Y-64148884I-500001J1D01*
G01*
%TO.C,SW70*%
X226362500Y-120800000D02*
X226362500Y-107800000D01*
X226862500Y-107300000D02*
X239862500Y-107300000D01*
X239862500Y-121300000D02*
X226862500Y-121300000D01*
X240362500Y-107800000D02*
X240362500Y-120800000D01*
X226362500Y-107800000D02*
G75*
G02*
X226862500Y-107300000I500000J0D01*
G01*
X226862500Y-121300000D02*
G75*
G02*
X226362500Y-120800000I0J500000D01*
G01*
X239862500Y-107300000D02*
G75*
G02*
X240362500Y-107800000I-1J-500001D01*
G01*
X240359736Y-120798884D02*
G75*
G02*
X239859736Y-121298884I-500001J1D01*
G01*
%TO.C,SW37*%
X135875000Y-82700000D02*
X135875000Y-69700000D01*
X136375000Y-69200000D02*
X149375000Y-69200000D01*
X149375000Y-83200000D02*
X136375000Y-83200000D01*
X149875000Y-69700000D02*
X149875000Y-82700000D01*
X135875000Y-69700000D02*
G75*
G02*
X136375000Y-69200000I500000J0D01*
G01*
X136375000Y-83200000D02*
G75*
G02*
X135875000Y-82700000I0J500000D01*
G01*
X149375000Y-69200000D02*
G75*
G02*
X149875000Y-69700000I-1J-500001D01*
G01*
X149872236Y-82698884D02*
G75*
G02*
X149372236Y-83198884I-500001J1D01*
G01*
%TO.C,SW35*%
X97775000Y-82700000D02*
X97775000Y-69700000D01*
X98275000Y-69200000D02*
X111275000Y-69200000D01*
X111275000Y-83200000D02*
X98275000Y-83200000D01*
X111775000Y-69700000D02*
X111775000Y-82700000D01*
X97775000Y-69700000D02*
G75*
G02*
X98275000Y-69200000I500000J0D01*
G01*
X98275000Y-83200000D02*
G75*
G02*
X97775000Y-82700000I0J500000D01*
G01*
X111275000Y-69200000D02*
G75*
G02*
X111775000Y-69700000I-1J-500001D01*
G01*
X111772236Y-82698884D02*
G75*
G02*
X111272236Y-83198884I-500001J1D01*
G01*
%TO.C,SW11*%
X221600000Y-44600000D02*
X221600000Y-31600000D01*
X222100000Y-31100000D02*
X235100000Y-31100000D01*
X235100000Y-45100000D02*
X222100000Y-45100000D01*
X235600000Y-31600000D02*
X235600000Y-44600000D01*
X221600000Y-31600000D02*
G75*
G02*
X222100000Y-31100000I500000J0D01*
G01*
X222100000Y-45100000D02*
G75*
G02*
X221600000Y-44600000I0J500000D01*
G01*
X235100000Y-31100000D02*
G75*
G02*
X235600000Y-31600000I-1J-500001D01*
G01*
X235597236Y-44598884D02*
G75*
G02*
X235097236Y-45098884I-500001J1D01*
G01*
%TO.C,SW36*%
X116825000Y-82700000D02*
X116825000Y-69700000D01*
X117325000Y-69200000D02*
X130325000Y-69200000D01*
X130325000Y-83200000D02*
X117325000Y-83200000D01*
X130825000Y-69700000D02*
X130825000Y-82700000D01*
X116825000Y-69700000D02*
G75*
G02*
X117325000Y-69200000I500000J0D01*
G01*
X117325000Y-83200000D02*
G75*
G02*
X116825000Y-82700000I0J500000D01*
G01*
X130325000Y-69200000D02*
G75*
G02*
X130825000Y-69700000I-1J-500001D01*
G01*
X130822236Y-82698884D02*
G75*
G02*
X130322236Y-83198884I-500001J1D01*
G01*
%TO.C,SW60*%
X316850000Y-101750000D02*
X316850000Y-88750000D01*
X317350000Y-88250000D02*
X330350000Y-88250000D01*
X330350000Y-102250000D02*
X317350000Y-102250000D01*
X330850000Y-88750000D02*
X330850000Y-101750000D01*
X316850000Y-88750000D02*
G75*
G02*
X317350000Y-88250000I500000J0D01*
G01*
X317350000Y-102250000D02*
G75*
G02*
X316850000Y-101750000I0J500000D01*
G01*
X330350000Y-88250000D02*
G75*
G02*
X330850000Y-88750000I-1J-500001D01*
G01*
X330847236Y-101748884D02*
G75*
G02*
X330347236Y-102248884I-500001J1D01*
G01*
%TO.C,SW9*%
X183500000Y-44600000D02*
X183500000Y-31600000D01*
X184000000Y-31100000D02*
X197000000Y-31100000D01*
X197000000Y-45100000D02*
X184000000Y-45100000D01*
X197500000Y-31600000D02*
X197500000Y-44600000D01*
X183500000Y-31600000D02*
G75*
G02*
X184000000Y-31100000I500000J0D01*
G01*
X184000000Y-45100000D02*
G75*
G02*
X183500000Y-44600000I0J500000D01*
G01*
X197000000Y-31100000D02*
G75*
G02*
X197500000Y-31600000I-1J-500001D01*
G01*
X197497236Y-44598884D02*
G75*
G02*
X196997236Y-45098884I-500001J1D01*
G01*
%TO.C,SW13*%
X259700000Y-44600000D02*
X259700000Y-31600000D01*
X260200000Y-31100000D02*
X273200000Y-31100000D01*
X273200000Y-45100000D02*
X260200000Y-45100000D01*
X273700000Y-31600000D02*
X273700000Y-44600000D01*
X259700000Y-31600000D02*
G75*
G02*
X260200000Y-31100000I500000J0D01*
G01*
X260200000Y-45100000D02*
G75*
G02*
X259700000Y-44600000I0J500000D01*
G01*
X273200000Y-31100000D02*
G75*
G02*
X273700000Y-31600000I-1J-500001D01*
G01*
X273697236Y-44598884D02*
G75*
G02*
X273197236Y-45098884I-500001J1D01*
G01*
%TO.C,SW45*%
X293037500Y-82700000D02*
X293037500Y-69700000D01*
X293537500Y-69200000D02*
X306537500Y-69200000D01*
X306537500Y-83200000D02*
X293537500Y-83200000D01*
X307037500Y-69700000D02*
X307037500Y-82700000D01*
X293037500Y-69700000D02*
G75*
G02*
X293537500Y-69200000I500000J0D01*
G01*
X293537500Y-83200000D02*
G75*
G02*
X293037500Y-82700000I0J500000D01*
G01*
X306537500Y-69200000D02*
G75*
G02*
X307037500Y-69700000I-1J-500001D01*
G01*
X307034736Y-82698884D02*
G75*
G02*
X306534736Y-83198884I-500001J1D01*
G01*
%TO.C,SW81*%
X259700000Y-139850000D02*
X259700000Y-126850000D01*
X260200000Y-126350000D02*
X273200000Y-126350000D01*
X273200000Y-140350000D02*
X260200000Y-140350000D01*
X273700000Y-126850000D02*
X273700000Y-139850000D01*
X259700000Y-126850000D02*
G75*
G02*
X260200000Y-126350000I500000J0D01*
G01*
X260200000Y-140350000D02*
G75*
G02*
X259700000Y-139850000I0J500000D01*
G01*
X273200000Y-126350000D02*
G75*
G02*
X273700000Y-126850000I-1J-500001D01*
G01*
X273697236Y-139848884D02*
G75*
G02*
X273197236Y-140348884I-500001J1D01*
G01*
%TO.C,SW12*%
X240650000Y-44600000D02*
X240650000Y-31600000D01*
X241150000Y-31100000D02*
X254150000Y-31100000D01*
X254150000Y-45100000D02*
X241150000Y-45100000D01*
X254650000Y-31600000D02*
X254650000Y-44600000D01*
X240650000Y-31600000D02*
G75*
G02*
X241150000Y-31100000I500000J0D01*
G01*
X241150000Y-45100000D02*
G75*
G02*
X240650000Y-44600000I0J500000D01*
G01*
X254150000Y-31100000D02*
G75*
G02*
X254650000Y-31600000I-1J-500001D01*
G01*
X254647236Y-44598884D02*
G75*
G02*
X254147236Y-45098884I-500001J1D01*
G01*
%TO.C,SW58*%
X254937500Y-101750000D02*
X254937500Y-88750000D01*
X255437500Y-88250000D02*
X268437500Y-88250000D01*
X268437500Y-102250000D02*
X255437500Y-102250000D01*
X268937500Y-88750000D02*
X268937500Y-101750000D01*
X254937500Y-88750000D02*
G75*
G02*
X255437500Y-88250000I500000J0D01*
G01*
X255437500Y-102250000D02*
G75*
G02*
X254937500Y-101750000I0J500000D01*
G01*
X268437500Y-88250000D02*
G75*
G02*
X268937500Y-88750000I-1J-500001D01*
G01*
X268934736Y-101748884D02*
G75*
G02*
X268434736Y-102248884I-500001J1D01*
G01*
%TO.C,SW79*%
X221600000Y-139850000D02*
X221600000Y-126850000D01*
X222100000Y-126350000D02*
X235100000Y-126350000D01*
X235100000Y-140350000D02*
X222100000Y-140350000D01*
X235600000Y-126850000D02*
X235600000Y-139850000D01*
X221600000Y-126850000D02*
G75*
G02*
X222100000Y-126350000I500000J0D01*
G01*
X222100000Y-140350000D02*
G75*
G02*
X221600000Y-139850000I0J500000D01*
G01*
X235100000Y-126350000D02*
G75*
G02*
X235600000Y-126850000I-1J-500001D01*
G01*
X235597236Y-139848884D02*
G75*
G02*
X235097236Y-140348884I-500001J1D01*
G01*
%TO.C,SW47*%
X38243750Y-101750000D02*
X38243750Y-88750000D01*
X38743750Y-88250000D02*
X51743750Y-88250000D01*
X51743750Y-102250000D02*
X38743750Y-102250000D01*
X52243750Y-88750000D02*
X52243750Y-101750000D01*
X38243750Y-88750000D02*
G75*
G02*
X38743750Y-88250000I500000J0D01*
G01*
X38743750Y-102250000D02*
G75*
G02*
X38243750Y-101750000I0J500000D01*
G01*
X51743750Y-88250000D02*
G75*
G02*
X52243750Y-88750000I-1J-500001D01*
G01*
X52240986Y-101748884D02*
G75*
G02*
X51740986Y-102248884I-500001J1D01*
G01*
%TO.C,SW24*%
X164450000Y-63650000D02*
X164450000Y-50650000D01*
X164950000Y-50150000D02*
X177950000Y-50150000D01*
X177950000Y-64150000D02*
X164950000Y-64150000D01*
X178450000Y-50650000D02*
X178450000Y-63650000D01*
X164450000Y-50650000D02*
G75*
G02*
X164950000Y-50150000I500000J0D01*
G01*
X164950000Y-64150000D02*
G75*
G02*
X164450000Y-63650000I0J500000D01*
G01*
X177950000Y-50150000D02*
G75*
G02*
X178450000Y-50650000I-1J-500001D01*
G01*
X178447236Y-63648884D02*
G75*
G02*
X177947236Y-64148884I-500001J1D01*
G01*
%TO.C,SW50*%
X102537500Y-101750000D02*
X102537500Y-88750000D01*
X103037500Y-88250000D02*
X116037500Y-88250000D01*
X116037500Y-102250000D02*
X103037500Y-102250000D01*
X116537500Y-88750000D02*
X116537500Y-101750000D01*
X102537500Y-88750000D02*
G75*
G02*
X103037500Y-88250000I500000J0D01*
G01*
X103037500Y-102250000D02*
G75*
G02*
X102537500Y-101750000I0J500000D01*
G01*
X116037500Y-88250000D02*
G75*
G02*
X116537500Y-88750000I-1J-500001D01*
G01*
X116534736Y-101748884D02*
G75*
G02*
X116034736Y-102248884I-500001J1D01*
G01*
%TO.C,SW6*%
X126350000Y-44600000D02*
X126350000Y-31600000D01*
X126850000Y-31100000D02*
X139850000Y-31100000D01*
X139850000Y-45100000D02*
X126850000Y-45100000D01*
X140350000Y-31600000D02*
X140350000Y-44600000D01*
X126350000Y-31600000D02*
G75*
G02*
X126850000Y-31100000I500000J0D01*
G01*
X126850000Y-45100000D02*
G75*
G02*
X126350000Y-44600000I0J500000D01*
G01*
X139850000Y-31100000D02*
G75*
G02*
X140350000Y-31600000I-1J-500001D01*
G01*
X140347236Y-44598884D02*
G75*
G02*
X139847236Y-45098884I-500001J1D01*
G01*
%TO.C,SW43*%
X250175000Y-82700000D02*
X250175000Y-69700000D01*
X250675000Y-69200000D02*
X263675000Y-69200000D01*
X263675000Y-83200000D02*
X250675000Y-83200000D01*
X264175000Y-69700000D02*
X264175000Y-82700000D01*
X250175000Y-69700000D02*
G75*
G02*
X250675000Y-69200000I500000J0D01*
G01*
X250675000Y-83200000D02*
G75*
G02*
X250175000Y-82700000I0J500000D01*
G01*
X263675000Y-69200000D02*
G75*
G02*
X264175000Y-69700000I-1J-500001D01*
G01*
X264172236Y-82698884D02*
G75*
G02*
X263672236Y-83198884I-500001J1D01*
G01*
%TO.C,SW63*%
X93012500Y-120800000D02*
X93012500Y-107800000D01*
X93512500Y-107300000D02*
X106512500Y-107300000D01*
X106512500Y-121300000D02*
X93512500Y-121300000D01*
X107012500Y-107800000D02*
X107012500Y-120800000D01*
X93012500Y-107800000D02*
G75*
G02*
X93512500Y-107300000I500000J0D01*
G01*
X93512500Y-121300000D02*
G75*
G02*
X93012500Y-120800000I0J500000D01*
G01*
X106512500Y-107300000D02*
G75*
G02*
X107012500Y-107800000I-1J-500001D01*
G01*
X107009736Y-120798884D02*
G75*
G02*
X106509736Y-121298884I-500001J1D01*
G01*
%TO.C,SW55*%
X197787500Y-101750000D02*
X197787500Y-88750000D01*
X198287500Y-88250000D02*
X211287500Y-88250000D01*
X211287500Y-102250000D02*
X198287500Y-102250000D01*
X211787500Y-88750000D02*
X211787500Y-101750000D01*
X197787500Y-88750000D02*
G75*
G02*
X198287500Y-88250000I500000J0D01*
G01*
X198287500Y-102250000D02*
G75*
G02*
X197787500Y-101750000I0J500000D01*
G01*
X211287500Y-88250000D02*
G75*
G02*
X211787500Y-88750000I-1J-500001D01*
G01*
X211784736Y-101748884D02*
G75*
G02*
X211284736Y-102248884I-500001J1D01*
G01*
%TO.C,SW59*%
X285893750Y-101750000D02*
X285893750Y-88750000D01*
X286393750Y-88250000D02*
X299393750Y-88250000D01*
X299393750Y-102250000D02*
X286393750Y-102250000D01*
X299893750Y-88750000D02*
X299893750Y-101750000D01*
X285893750Y-88750000D02*
G75*
G02*
X286393750Y-88250000I500000J0D01*
G01*
X286393750Y-102250000D02*
G75*
G02*
X285893750Y-101750000I0J500000D01*
G01*
X299393750Y-88250000D02*
G75*
G02*
X299893750Y-88750000I-1J-500001D01*
G01*
X299890986Y-101748884D02*
G75*
G02*
X299390986Y-102248884I-500001J1D01*
G01*
%TO.C,SW57*%
X235887500Y-101750000D02*
X235887500Y-88750000D01*
X236387500Y-88250000D02*
X249387500Y-88250000D01*
X249387500Y-102250000D02*
X236387500Y-102250000D01*
X249887500Y-88750000D02*
X249887500Y-101750000D01*
X235887500Y-88750000D02*
G75*
G02*
X236387500Y-88250000I500000J0D01*
G01*
X236387500Y-102250000D02*
G75*
G02*
X235887500Y-101750000I0J500000D01*
G01*
X249387500Y-88250000D02*
G75*
G02*
X249887500Y-88750000I-1J-500001D01*
G01*
X249884736Y-101748884D02*
G75*
G02*
X249384736Y-102248884I-500001J1D01*
G01*
%TO.C,SW61*%
X43006250Y-120800000D02*
X43006250Y-107800000D01*
X43506250Y-107300000D02*
X56506250Y-107300000D01*
X56506250Y-121300000D02*
X43506250Y-121300000D01*
X57006250Y-107800000D02*
X57006250Y-120800000D01*
X43006250Y-107800000D02*
G75*
G02*
X43506250Y-107300000I500000J0D01*
G01*
X43506250Y-121300000D02*
G75*
G02*
X43006250Y-120800000I0J500000D01*
G01*
X56506250Y-107300000D02*
G75*
G02*
X57006250Y-107800000I-1J-500001D01*
G01*
X57003486Y-120798884D02*
G75*
G02*
X56503486Y-121298884I-500001J1D01*
G01*
%TO.C,SW19*%
X69200000Y-63650000D02*
X69200000Y-50650000D01*
X69700000Y-50150000D02*
X82700000Y-50150000D01*
X82700000Y-64150000D02*
X69700000Y-64150000D01*
X83200000Y-50650000D02*
X83200000Y-63650000D01*
X69200000Y-50650000D02*
G75*
G02*
X69700000Y-50150000I500000J0D01*
G01*
X69700000Y-64150000D02*
G75*
G02*
X69200000Y-63650000I0J500000D01*
G01*
X82700000Y-50150000D02*
G75*
G02*
X83200000Y-50650000I-1J-500001D01*
G01*
X83197236Y-63648884D02*
G75*
G02*
X82697236Y-64148884I-500001J1D01*
G01*
%TO.C,SW42*%
X231125000Y-82700000D02*
X231125000Y-69700000D01*
X231625000Y-69200000D02*
X244625000Y-69200000D01*
X244625000Y-83200000D02*
X231625000Y-83200000D01*
X245125000Y-69700000D02*
X245125000Y-82700000D01*
X231125000Y-69700000D02*
G75*
G02*
X231625000Y-69200000I500000J0D01*
G01*
X231625000Y-83200000D02*
G75*
G02*
X231125000Y-82700000I0J500000D01*
G01*
X244625000Y-69200000D02*
G75*
G02*
X245125000Y-69700000I-1J-500001D01*
G01*
X245122236Y-82698884D02*
G75*
G02*
X244622236Y-83198884I-500001J1D01*
G01*
%TO.C,SW78*%
X152543750Y-139850000D02*
X152543750Y-126850000D01*
X153043750Y-126350000D02*
X166043750Y-126350000D01*
X166043750Y-140350000D02*
X153043750Y-140350000D01*
X166543750Y-126850000D02*
X166543750Y-139850000D01*
X152543750Y-126850000D02*
G75*
G02*
X153043750Y-126350000I500000J0D01*
G01*
X153043750Y-140350000D02*
G75*
G02*
X152543750Y-139850000I0J500000D01*
G01*
X166043750Y-126350000D02*
G75*
G02*
X166543750Y-126850000I-1J-500001D01*
G01*
X166540986Y-139848884D02*
G75*
G02*
X166040986Y-140348884I-500001J1D01*
G01*
%TO.C,SW3*%
X69200000Y-44600000D02*
X69200000Y-31600000D01*
X69700000Y-31100000D02*
X82700000Y-31100000D01*
X82700000Y-45100000D02*
X69700000Y-45100000D01*
X83200000Y-31600000D02*
X83200000Y-44600000D01*
X69200000Y-31600000D02*
G75*
G02*
X69700000Y-31100000I500000J0D01*
G01*
X69700000Y-45100000D02*
G75*
G02*
X69200000Y-44600000I0J500000D01*
G01*
X82700000Y-31100000D02*
G75*
G02*
X83200000Y-31600000I-1J-500001D01*
G01*
X83197236Y-44598884D02*
G75*
G02*
X82697236Y-45098884I-500001J1D01*
G01*
%TO.C,SW66*%
X150162500Y-120800000D02*
X150162500Y-107800000D01*
X150662500Y-107300000D02*
X163662500Y-107300000D01*
X163662500Y-121300000D02*
X150662500Y-121300000D01*
X164162500Y-107800000D02*
X164162500Y-120800000D01*
X150162500Y-107800000D02*
G75*
G02*
X150662500Y-107300000I500000J0D01*
G01*
X150662500Y-121300000D02*
G75*
G02*
X150162500Y-120800000I0J500000D01*
G01*
X163662500Y-107300000D02*
G75*
G02*
X164162500Y-107800000I-1J-500001D01*
G01*
X164159736Y-120798884D02*
G75*
G02*
X163659736Y-121298884I-500001J1D01*
G01*
%TO.C,SW83*%
X297800000Y-139850000D02*
X297800000Y-126850000D01*
X298300000Y-126350000D02*
X311300000Y-126350000D01*
X311300000Y-140350000D02*
X298300000Y-140350000D01*
X311800000Y-126850000D02*
X311800000Y-139850000D01*
X297800000Y-126850000D02*
G75*
G02*
X298300000Y-126350000I500000J0D01*
G01*
X298300000Y-140350000D02*
G75*
G02*
X297800000Y-139850000I0J500000D01*
G01*
X311300000Y-126350000D02*
G75*
G02*
X311800000Y-126850000I-1J-500001D01*
G01*
X311797236Y-139848884D02*
G75*
G02*
X311297236Y-140348884I-500001J1D01*
G01*
%TO.C,SW29*%
X259700000Y-63650000D02*
X259700000Y-50650000D01*
X260200000Y-50150000D02*
X273200000Y-50150000D01*
X273200000Y-64150000D02*
X260200000Y-64150000D01*
X273700000Y-50650000D02*
X273700000Y-63650000D01*
X259700000Y-50650000D02*
G75*
G02*
X260200000Y-50150000I500000J0D01*
G01*
X260200000Y-64150000D02*
G75*
G02*
X259700000Y-63650000I0J500000D01*
G01*
X273200000Y-50150000D02*
G75*
G02*
X273700000Y-50650000I-1J-500001D01*
G01*
X273697236Y-63648884D02*
G75*
G02*
X273197236Y-64148884I-500001J1D01*
G01*
%TO.C,SW27*%
X221600000Y-63650000D02*
X221600000Y-50650000D01*
X222100000Y-50150000D02*
X235100000Y-50150000D01*
X235100000Y-64150000D02*
X222100000Y-64150000D01*
X235600000Y-50650000D02*
X235600000Y-63650000D01*
X221600000Y-50650000D02*
G75*
G02*
X222100000Y-50150000I500000J0D01*
G01*
X222100000Y-64150000D02*
G75*
G02*
X221600000Y-63650000I0J500000D01*
G01*
X235100000Y-50150000D02*
G75*
G02*
X235600000Y-50650000I-1J-500001D01*
G01*
X235597236Y-63648884D02*
G75*
G02*
X235097236Y-64148884I-500001J1D01*
G01*
%TO.C,SW51*%
X121587500Y-101750000D02*
X121587500Y-88750000D01*
X122087500Y-88250000D02*
X135087500Y-88250000D01*
X135087500Y-102250000D02*
X122087500Y-102250000D01*
X135587500Y-88750000D02*
X135587500Y-101750000D01*
X121587500Y-88750000D02*
G75*
G02*
X122087500Y-88250000I500000J0D01*
G01*
X122087500Y-102250000D02*
G75*
G02*
X121587500Y-101750000I0J500000D01*
G01*
X135087500Y-88250000D02*
G75*
G02*
X135587500Y-88750000I-1J-500001D01*
G01*
X135584736Y-101748884D02*
G75*
G02*
X135084736Y-102248884I-500001J1D01*
G01*
%TO.C,SW67*%
X169212500Y-120800000D02*
X169212500Y-107800000D01*
X169712500Y-107300000D02*
X182712500Y-107300000D01*
X182712500Y-121300000D02*
X169712500Y-121300000D01*
X183212500Y-107800000D02*
X183212500Y-120800000D01*
X169212500Y-107800000D02*
G75*
G02*
X169712500Y-107300000I500000J0D01*
G01*
X169712500Y-121300000D02*
G75*
G02*
X169212500Y-120800000I0J500000D01*
G01*
X182712500Y-107300000D02*
G75*
G02*
X183212500Y-107800000I-1J-500001D01*
G01*
X183209736Y-120798884D02*
G75*
G02*
X182709736Y-121298884I-500001J1D01*
G01*
%TO.C,SW46*%
X316850000Y-82700000D02*
X316850000Y-69700000D01*
X317350000Y-69200000D02*
X330350000Y-69200000D01*
X330350000Y-83200000D02*
X317350000Y-83200000D01*
X330850000Y-69700000D02*
X330850000Y-82700000D01*
X316850000Y-69700000D02*
G75*
G02*
X317350000Y-69200000I500000J0D01*
G01*
X317350000Y-83200000D02*
G75*
G02*
X316850000Y-82700000I0J500000D01*
G01*
X330350000Y-69200000D02*
G75*
G02*
X330850000Y-69700000I-1J-500001D01*
G01*
X330847236Y-82698884D02*
G75*
G02*
X330347236Y-83198884I-500001J1D01*
G01*
%TO.C,SW28*%
X240650000Y-63650000D02*
X240650000Y-50650000D01*
X241150000Y-50150000D02*
X254150000Y-50150000D01*
X254150000Y-64150000D02*
X241150000Y-64150000D01*
X254650000Y-50650000D02*
X254650000Y-63650000D01*
X240650000Y-50650000D02*
G75*
G02*
X241150000Y-50150000I500000J0D01*
G01*
X241150000Y-64150000D02*
G75*
G02*
X240650000Y-63650000I0J500000D01*
G01*
X254150000Y-50150000D02*
G75*
G02*
X254650000Y-50650000I-1J-500001D01*
G01*
X254647236Y-63648884D02*
G75*
G02*
X254147236Y-64148884I-500001J1D01*
G01*
%TO.C,SW30*%
X288275000Y-63650000D02*
X288275000Y-50650000D01*
X288775000Y-50150000D02*
X301775000Y-50150000D01*
X301775000Y-64150000D02*
X288775000Y-64150000D01*
X302275000Y-50650000D02*
X302275000Y-63650000D01*
X288275000Y-50650000D02*
G75*
G02*
X288775000Y-50150000I500000J0D01*
G01*
X288775000Y-64150000D02*
G75*
G02*
X288275000Y-63650000I0J500000D01*
G01*
X301775000Y-50150000D02*
G75*
G02*
X302275000Y-50650000I-1J-500001D01*
G01*
X302272236Y-63648884D02*
G75*
G02*
X301772236Y-64148884I-500001J1D01*
G01*
%TO.C,SW18*%
X50150000Y-63650000D02*
X50150000Y-50650000D01*
X50650000Y-50150000D02*
X63650000Y-50150000D01*
X63650000Y-64150000D02*
X50650000Y-64150000D01*
X64150000Y-50650000D02*
X64150000Y-63650000D01*
X50150000Y-50650000D02*
G75*
G02*
X50650000Y-50150000I500000J0D01*
G01*
X50650000Y-64150000D02*
G75*
G02*
X50150000Y-63650000I0J500000D01*
G01*
X63650000Y-50150000D02*
G75*
G02*
X64150000Y-50650000I-1J-500001D01*
G01*
X64147236Y-63648884D02*
G75*
G02*
X63647236Y-64148884I-500001J1D01*
G01*
%TO.C,SW2*%
X50150000Y-44600000D02*
X50150000Y-31600000D01*
X50650000Y-31100000D02*
X63650000Y-31100000D01*
X63650000Y-45100000D02*
X50650000Y-45100000D01*
X64150000Y-31600000D02*
X64150000Y-44600000D01*
X50150000Y-31600000D02*
G75*
G02*
X50650000Y-31100000I500001J-1D01*
G01*
X50650000Y-45100000D02*
G75*
G02*
X50150000Y-44600000I0J500000D01*
G01*
X63648884Y-31102764D02*
G75*
G02*
X64148884Y-31602764I-1J-500001D01*
G01*
X64150000Y-44600000D02*
G75*
G02*
X63650000Y-45100000I-500000J0D01*
G01*
%TO.C,SW32*%
X35862500Y-82700000D02*
X35862500Y-69700000D01*
X36362500Y-69200000D02*
X49362500Y-69200000D01*
X49362500Y-83200000D02*
X36362500Y-83200000D01*
X49862500Y-69700000D02*
X49862500Y-82700000D01*
X35862500Y-69700000D02*
G75*
G02*
X36362500Y-69200000I500000J0D01*
G01*
X36362500Y-83200000D02*
G75*
G02*
X35862500Y-82700000I0J500000D01*
G01*
X49362500Y-69200000D02*
G75*
G02*
X49862500Y-69700000I-1J-500001D01*
G01*
X49859736Y-82698884D02*
G75*
G02*
X49359736Y-83198884I-500001J1D01*
G01*
%TO.C,SW33*%
X59675000Y-82700000D02*
X59675000Y-69700000D01*
X60175000Y-69200000D02*
X73175000Y-69200000D01*
X73175000Y-83200000D02*
X60175000Y-83200000D01*
X73675000Y-69700000D02*
X73675000Y-82700000D01*
X59675000Y-69700000D02*
G75*
G02*
X60175000Y-69200000I500000J0D01*
G01*
X60175000Y-83200000D02*
G75*
G02*
X59675000Y-82700000I0J500000D01*
G01*
X73175000Y-69200000D02*
G75*
G02*
X73675000Y-69700000I-1J-500001D01*
G01*
X73672236Y-82698884D02*
G75*
G02*
X73172236Y-83198884I-500001J1D01*
G01*
%TO.C,SW65*%
X131112500Y-120800000D02*
X131112500Y-107800000D01*
X131612500Y-107300000D02*
X144612500Y-107300000D01*
X144612500Y-121300000D02*
X131612500Y-121300000D01*
X145112500Y-107800000D02*
X145112500Y-120800000D01*
X131112500Y-107800000D02*
G75*
G02*
X131612500Y-107300000I500000J0D01*
G01*
X131612500Y-121300000D02*
G75*
G02*
X131112500Y-120800000I0J500000D01*
G01*
X144612500Y-107300000D02*
G75*
G02*
X145112500Y-107800000I-1J-500001D01*
G01*
X145109736Y-120798884D02*
G75*
G02*
X144609736Y-121298884I-500001J1D01*
G01*
%TO.C,SW7*%
X145400000Y-44600000D02*
X145400000Y-31600000D01*
X145900000Y-31100000D02*
X158900000Y-31100000D01*
X158900000Y-45100000D02*
X145900000Y-45100000D01*
X159400000Y-31600000D02*
X159400000Y-44600000D01*
X145400000Y-31600000D02*
G75*
G02*
X145900000Y-31100000I500000J0D01*
G01*
X145900000Y-45100000D02*
G75*
G02*
X145400000Y-44600000I0J500000D01*
G01*
X158900000Y-31100000D02*
G75*
G02*
X159400000Y-31600000I-1J-500001D01*
G01*
X159397236Y-44598884D02*
G75*
G02*
X158897236Y-45098884I-500001J1D01*
G01*
%TO.C,SW48*%
X64437500Y-101750000D02*
X64437500Y-88750000D01*
X64937500Y-88250000D02*
X77937500Y-88250000D01*
X77937500Y-102250000D02*
X64937500Y-102250000D01*
X78437500Y-88750000D02*
X78437500Y-101750000D01*
X64437500Y-88750000D02*
G75*
G02*
X64937500Y-88250000I500000J0D01*
G01*
X64937500Y-102250000D02*
G75*
G02*
X64437500Y-101750000I0J500000D01*
G01*
X77937500Y-88250000D02*
G75*
G02*
X78437500Y-88750000I-1J-500001D01*
G01*
X78434736Y-101748884D02*
G75*
G02*
X77934736Y-102248884I-500001J1D01*
G01*
%TO.C,SW68*%
X188262500Y-120800000D02*
X188262500Y-107800000D01*
X188762500Y-107300000D02*
X201762500Y-107300000D01*
X201762500Y-121300000D02*
X188762500Y-121300000D01*
X202262500Y-107800000D02*
X202262500Y-120800000D01*
X188262500Y-107800000D02*
G75*
G02*
X188762500Y-107300000I500000J0D01*
G01*
X188762500Y-121300000D02*
G75*
G02*
X188262500Y-120800000I0J500000D01*
G01*
X201762500Y-107300000D02*
G75*
G02*
X202262500Y-107800000I-1J-500001D01*
G01*
X202259736Y-120798884D02*
G75*
G02*
X201759736Y-121298884I-500001J1D01*
G01*
%TO.C,SW75*%
X33481250Y-139850000D02*
X33481250Y-126850000D01*
X33981250Y-126350000D02*
X46981250Y-126350000D01*
X46981250Y-140350000D02*
X33981250Y-140350000D01*
X47481250Y-126850000D02*
X47481250Y-139850000D01*
X33481250Y-126850000D02*
G75*
G02*
X33981250Y-126350000I500000J0D01*
G01*
X33981250Y-140350000D02*
G75*
G02*
X33481250Y-139850000I0J500000D01*
G01*
X46981250Y-126350000D02*
G75*
G02*
X47481250Y-126850000I-1J-500001D01*
G01*
X47478486Y-139848884D02*
G75*
G02*
X46978486Y-140348884I-500001J1D01*
G01*
%TO.C,SW21*%
X107300000Y-63650000D02*
X107300000Y-50650000D01*
X107800000Y-50150000D02*
X120800000Y-50150000D01*
X120800000Y-64150000D02*
X107800000Y-64150000D01*
X121300000Y-50650000D02*
X121300000Y-63650000D01*
X107300000Y-50650000D02*
G75*
G02*
X107800000Y-50150000I500000J0D01*
G01*
X107800000Y-64150000D02*
G75*
G02*
X107300000Y-63650000I0J500000D01*
G01*
X120800000Y-50150000D02*
G75*
G02*
X121300000Y-50650000I-1J-500001D01*
G01*
X121297236Y-63648884D02*
G75*
G02*
X120797236Y-64148884I-500001J1D01*
G01*
%TO.C,SW76*%
X57293750Y-139850000D02*
X57293750Y-126850000D01*
X57793750Y-126350000D02*
X70793750Y-126350000D01*
X70793750Y-140350000D02*
X57793750Y-140350000D01*
X71293750Y-126850000D02*
X71293750Y-139850000D01*
X57293750Y-126850000D02*
G75*
G02*
X57793750Y-126350000I500000J0D01*
G01*
X57793750Y-140350000D02*
G75*
G02*
X57293750Y-139850000I0J500000D01*
G01*
X70793750Y-126350000D02*
G75*
G02*
X71293750Y-126850000I-1J-500001D01*
G01*
X71290986Y-139848884D02*
G75*
G02*
X70790986Y-140348884I-500001J1D01*
G01*
%TO.C,SW16*%
X316850000Y-44600000D02*
X316850000Y-31600000D01*
X317350000Y-31100000D02*
X330350000Y-31100000D01*
X330350000Y-45100000D02*
X317350000Y-45100000D01*
X330850000Y-31600000D02*
X330850000Y-44600000D01*
X316850000Y-31600000D02*
G75*
G02*
X317350000Y-31100000I500000J0D01*
G01*
X317350000Y-45100000D02*
G75*
G02*
X316850000Y-44600000I0J500000D01*
G01*
X330350000Y-31100000D02*
G75*
G02*
X330850000Y-31600000I-1J-500001D01*
G01*
X330847236Y-44598884D02*
G75*
G02*
X330347236Y-45098884I-500001J1D01*
G01*
%TO.C,SW23*%
X145400000Y-63650000D02*
X145400000Y-50650000D01*
X145900000Y-50150000D02*
X158900000Y-50150000D01*
X158900000Y-64150000D02*
X145900000Y-64150000D01*
X159400000Y-50650000D02*
X159400000Y-63650000D01*
X145400000Y-50650000D02*
G75*
G02*
X145900000Y-50150000I500000J0D01*
G01*
X145900000Y-64150000D02*
G75*
G02*
X145400000Y-63650000I0J500000D01*
G01*
X158900000Y-50150000D02*
G75*
G02*
X159400000Y-50650000I-1J-500001D01*
G01*
X159397236Y-63648884D02*
G75*
G02*
X158897236Y-64148884I-500001J1D01*
G01*
%TO.C,SW74*%
X316850000Y-120800000D02*
X316850000Y-107800000D01*
X317350000Y-107300000D02*
X330350000Y-107300000D01*
X330350000Y-121300000D02*
X317350000Y-121300000D01*
X330850000Y-107800000D02*
X330850000Y-120800000D01*
X316850000Y-107800000D02*
G75*
G02*
X317350000Y-107300000I500000J0D01*
G01*
X317350000Y-121300000D02*
G75*
G02*
X316850000Y-120800000I0J500000D01*
G01*
X330350000Y-107300000D02*
G75*
G02*
X330850000Y-107800000I-1J-500001D01*
G01*
X330847236Y-120798884D02*
G75*
G02*
X330347236Y-121298884I-500001J1D01*
G01*
%TO.C,SW17*%
X31100000Y-63650000D02*
X31100000Y-50650000D01*
X31600000Y-50150000D02*
X44600000Y-50150000D01*
X44600000Y-64150000D02*
X31600000Y-64150000D01*
X45100000Y-50650000D02*
X45100000Y-63650000D01*
X31100000Y-50650000D02*
G75*
G02*
X31600000Y-50150000I500000J0D01*
G01*
X31600000Y-64150000D02*
G75*
G02*
X31100000Y-63650000I0J500000D01*
G01*
X44600000Y-50150000D02*
G75*
G02*
X45100000Y-50650000I-1J-500001D01*
G01*
X45097236Y-63648884D02*
G75*
G02*
X44597236Y-64148884I-500001J1D01*
G01*
%TO.C,SW40*%
X193025000Y-82700000D02*
X193025000Y-69700000D01*
X193525000Y-69200000D02*
X206525000Y-69200000D01*
X206525000Y-83200000D02*
X193525000Y-83200000D01*
X207025000Y-69700000D02*
X207025000Y-82700000D01*
X193025000Y-69700000D02*
G75*
G02*
X193525000Y-69200000I500000J0D01*
G01*
X193525000Y-83200000D02*
G75*
G02*
X193025000Y-82700000I0J500000D01*
G01*
X206525000Y-69200000D02*
G75*
G02*
X207025000Y-69700000I-1J-500001D01*
G01*
X207022236Y-82698884D02*
G75*
G02*
X206522236Y-83198884I-500001J1D01*
G01*
%TO.C,SW1*%
X31100000Y-44600000D02*
X31100000Y-31600000D01*
X31600000Y-31100000D02*
X44600000Y-31100000D01*
X44600000Y-45100000D02*
X31600000Y-45100000D01*
X45100000Y-31600000D02*
X45100000Y-44600000D01*
X31100000Y-31600000D02*
G75*
G02*
X31600000Y-31100000I500000J0D01*
G01*
X31600000Y-45100000D02*
G75*
G02*
X31100000Y-44600000I0J500000D01*
G01*
X44600000Y-31100000D02*
G75*
G02*
X45100000Y-31600000I-1J-500001D01*
G01*
X45097236Y-44598884D02*
G75*
G02*
X44597236Y-45098884I-500001J1D01*
G01*
%TO.C,SW62*%
X73962500Y-120800000D02*
X73962500Y-107800000D01*
X74462500Y-107300000D02*
X87462500Y-107300000D01*
X87462500Y-121300000D02*
X74462500Y-121300000D01*
X87962500Y-107800000D02*
X87962500Y-120800000D01*
X73962500Y-107800000D02*
G75*
G02*
X74462500Y-107300000I500000J0D01*
G01*
X74462500Y-121300000D02*
G75*
G02*
X73962500Y-120800000I0J500000D01*
G01*
X87462500Y-107300000D02*
G75*
G02*
X87962500Y-107800000I-1J-500001D01*
G01*
X87959736Y-120798884D02*
G75*
G02*
X87459736Y-121298884I-500001J1D01*
G01*
%TO.C,SW8*%
X164450000Y-44600000D02*
X164450000Y-31600000D01*
X164950000Y-31100000D02*
X177950000Y-31100000D01*
X177950000Y-45100000D02*
X164950000Y-45100000D01*
X178450000Y-31600000D02*
X178450000Y-44600000D01*
X164450000Y-31600000D02*
G75*
G02*
X164950000Y-31100000I500000J0D01*
G01*
X164950000Y-45100000D02*
G75*
G02*
X164450000Y-44600000I0J500000D01*
G01*
X177950000Y-31100000D02*
G75*
G02*
X178450000Y-31600000I-1J-500001D01*
G01*
X178447236Y-44598884D02*
G75*
G02*
X177947236Y-45098884I-500001J1D01*
G01*
%TO.C,SW69*%
X207312500Y-120800000D02*
X207312500Y-107800000D01*
X207812500Y-107300000D02*
X220812500Y-107300000D01*
X220812500Y-121300000D02*
X207812500Y-121300000D01*
X221312500Y-107800000D02*
X221312500Y-120800000D01*
X207312500Y-107800000D02*
G75*
G02*
X207812500Y-107300000I500000J0D01*
G01*
X207812500Y-121300000D02*
G75*
G02*
X207312500Y-120800000I0J500000D01*
G01*
X220812500Y-107300000D02*
G75*
G02*
X221312500Y-107800000I-1J-500001D01*
G01*
X221309736Y-120798884D02*
G75*
G02*
X220809736Y-121298884I-500001J1D01*
G01*
%TO.C,SW49*%
X83487500Y-101750000D02*
X83487500Y-88750000D01*
X83987500Y-88250000D02*
X96987500Y-88250000D01*
X96987500Y-102250000D02*
X83987500Y-102250000D01*
X97487500Y-88750000D02*
X97487500Y-101750000D01*
X83487500Y-88750000D02*
G75*
G02*
X83987500Y-88250000I500000J0D01*
G01*
X83987500Y-102250000D02*
G75*
G02*
X83487500Y-101750000I0J500000D01*
G01*
X96987500Y-88250000D02*
G75*
G02*
X97487500Y-88750000I-1J-500001D01*
G01*
X97484736Y-101748884D02*
G75*
G02*
X96984736Y-102248884I-500001J1D01*
G01*
%TO.C,SW73*%
X297800000Y-120800000D02*
X297800000Y-107800000D01*
X298300000Y-107300000D02*
X311300000Y-107300000D01*
X311300000Y-121300000D02*
X298300000Y-121300000D01*
X311800000Y-107800000D02*
X311800000Y-120800000D01*
X297800000Y-107800000D02*
G75*
G02*
X298300000Y-107300000I500000J0D01*
G01*
X298300000Y-121300000D02*
G75*
G02*
X297800000Y-120800000I0J500000D01*
G01*
X311300000Y-107300000D02*
G75*
G02*
X311800000Y-107800000I-1J-500001D01*
G01*
X311797236Y-120798884D02*
G75*
G02*
X311297236Y-121298884I-500001J1D01*
G01*
%TO.C,SW72*%
X271606250Y-120800000D02*
X271606250Y-107800000D01*
X272106250Y-107300000D02*
X285106250Y-107300000D01*
X285106250Y-121300000D02*
X272106250Y-121300000D01*
X285606250Y-107800000D02*
X285606250Y-120800000D01*
X271606250Y-107800000D02*
G75*
G02*
X272106250Y-107300000I500000J0D01*
G01*
X272106250Y-121300000D02*
G75*
G02*
X271606250Y-120800000I0J500000D01*
G01*
X285106250Y-107300000D02*
G75*
G02*
X285606250Y-107800000I-1J-500001D01*
G01*
X285603486Y-120798884D02*
G75*
G02*
X285103486Y-121298884I-500001J1D01*
G01*
%TO.C,SW34*%
X78725000Y-82700000D02*
X78725000Y-69700000D01*
X79225000Y-69200000D02*
X92225000Y-69200000D01*
X92225000Y-83200000D02*
X79225000Y-83200000D01*
X92725000Y-69700000D02*
X92725000Y-82700000D01*
X78725000Y-69700000D02*
G75*
G02*
X79225000Y-69200000I500000J0D01*
G01*
X79225000Y-83200000D02*
G75*
G02*
X78725000Y-82700000I0J500000D01*
G01*
X92225000Y-69200000D02*
G75*
G02*
X92725000Y-69700000I-1J-500001D01*
G01*
X92722236Y-82698884D02*
G75*
G02*
X92222236Y-83198884I-500001J1D01*
G01*
%TO.C,SW39*%
X173975000Y-82700000D02*
X173975000Y-69700000D01*
X174475000Y-69200000D02*
X187475000Y-69200000D01*
X187475000Y-83200000D02*
X174475000Y-83200000D01*
X187975000Y-69700000D02*
X187975000Y-82700000D01*
X173975000Y-69700000D02*
G75*
G02*
X174475000Y-69200000I500000J0D01*
G01*
X174475000Y-83200000D02*
G75*
G02*
X173975000Y-82700000I0J500000D01*
G01*
X187475000Y-69200000D02*
G75*
G02*
X187975000Y-69700000I-1J-500001D01*
G01*
X187972236Y-82698884D02*
G75*
G02*
X187472236Y-83198884I-500001J1D01*
G01*
%TO.C,SW41*%
X212075000Y-82700000D02*
X212075000Y-69700000D01*
X212575000Y-69200000D02*
X225575000Y-69200000D01*
X225575000Y-83200000D02*
X212575000Y-83200000D01*
X226075000Y-69700000D02*
X226075000Y-82700000D01*
X212075000Y-69700000D02*
G75*
G02*
X212575000Y-69200000I500000J0D01*
G01*
X212575000Y-83200000D02*
G75*
G02*
X212075000Y-82700000I0J500000D01*
G01*
X225575000Y-69200000D02*
G75*
G02*
X226075000Y-69700000I-1J-500001D01*
G01*
X226072236Y-82698884D02*
G75*
G02*
X225572236Y-83198884I-500001J1D01*
G01*
%TO.C,SW25*%
X183500000Y-63650000D02*
X183500000Y-50650000D01*
X184000000Y-50150000D02*
X197000000Y-50150000D01*
X197000000Y-64150000D02*
X184000000Y-64150000D01*
X197500000Y-50650000D02*
X197500000Y-63650000D01*
X183500000Y-50650000D02*
G75*
G02*
X184000000Y-50150000I500000J0D01*
G01*
X184000000Y-64150000D02*
G75*
G02*
X183500000Y-63650000I0J500000D01*
G01*
X197000000Y-50150000D02*
G75*
G02*
X197500000Y-50650000I-1J-500001D01*
G01*
X197497236Y-63648884D02*
G75*
G02*
X196997236Y-64148884I-500001J1D01*
G01*
%TO.C,SW64*%
X112062500Y-120800000D02*
X112062500Y-107800000D01*
X112562500Y-107300000D02*
X125562500Y-107300000D01*
X125562500Y-121300000D02*
X112562500Y-121300000D01*
X126062500Y-107800000D02*
X126062500Y-120800000D01*
X112062500Y-107800000D02*
G75*
G02*
X112562500Y-107300000I500000J0D01*
G01*
X112562500Y-121300000D02*
G75*
G02*
X112062500Y-120800000I0J500000D01*
G01*
X125562500Y-107300000D02*
G75*
G02*
X126062500Y-107800000I-1J-500001D01*
G01*
X126059736Y-120798884D02*
G75*
G02*
X125559736Y-121298884I-500001J1D01*
G01*
%TO.C,SW71*%
X245412500Y-120800000D02*
X245412500Y-107800000D01*
X245912500Y-107300000D02*
X258912500Y-107300000D01*
X258912500Y-121300000D02*
X245912500Y-121300000D01*
X259412500Y-107800000D02*
X259412500Y-120800000D01*
X245412500Y-107800000D02*
G75*
G02*
X245912500Y-107300000I500000J0D01*
G01*
X245912500Y-121300000D02*
G75*
G02*
X245412500Y-120800000I0J500000D01*
G01*
X258912500Y-107300000D02*
G75*
G02*
X259412500Y-107800000I-1J-500001D01*
G01*
X259409736Y-120798884D02*
G75*
G02*
X258909736Y-121298884I-500001J1D01*
G01*
%TO.C,SW84*%
X316850000Y-139850000D02*
X316850000Y-126850000D01*
X317350000Y-126350000D02*
X330350000Y-126350000D01*
X330350000Y-140350000D02*
X317350000Y-140350000D01*
X330850000Y-126850000D02*
X330850000Y-139850000D01*
X316850000Y-126850000D02*
G75*
G02*
X317350000Y-126350000I500000J0D01*
G01*
X317350000Y-140350000D02*
G75*
G02*
X316850000Y-139850000I0J500000D01*
G01*
X330350000Y-126350000D02*
G75*
G02*
X330850000Y-126850000I-1J-500001D01*
G01*
X330847236Y-139848884D02*
G75*
G02*
X330347236Y-140348884I-500001J1D01*
G01*
%TO.C,SW4*%
X88250000Y-44600000D02*
X88250000Y-31600000D01*
X88750000Y-31100000D02*
X101750000Y-31100000D01*
X101750000Y-45100000D02*
X88750000Y-45100000D01*
X102250000Y-31600000D02*
X102250000Y-44600000D01*
X88250000Y-31600000D02*
G75*
G02*
X88750000Y-31100000I500000J0D01*
G01*
X88750000Y-45100000D02*
G75*
G02*
X88250000Y-44600000I0J500000D01*
G01*
X101750000Y-31100000D02*
G75*
G02*
X102250000Y-31600000I-1J-500001D01*
G01*
X102247236Y-44598884D02*
G75*
G02*
X101747236Y-45098884I-500001J1D01*
G01*
%TO.C,SW77*%
X81106250Y-139850000D02*
X81106250Y-126850000D01*
X81606250Y-126350000D02*
X94606250Y-126350000D01*
X94606250Y-140350000D02*
X81606250Y-140350000D01*
X95106250Y-126850000D02*
X95106250Y-139850000D01*
X81106250Y-126850000D02*
G75*
G02*
X81606250Y-126350000I500000J0D01*
G01*
X81606250Y-140350000D02*
G75*
G02*
X81106250Y-139850000I0J500000D01*
G01*
X94606250Y-126350000D02*
G75*
G02*
X95106250Y-126850000I-1J-500001D01*
G01*
X95103486Y-139848884D02*
G75*
G02*
X94603486Y-140348884I-500001J1D01*
G01*
%TD*%
M02*
