M48
; DRILL file KiCad 10.0.6 date 2026-09-21T13:05:57
; FORMAT={-:-/ absolute / metric / decimal}
; #@! TF.CreationDate,2026-09-21T13:05:57-04:00
; #@! TF.GenerationSoftware,Kicad,Pcbnew,10.0.6
; #@! TF.FileFunction,MixedPlating,1,2
FMAT,2
METRIC
; #@! TA.AperFunction,Plated,PTH,ViaDrill
T1C0.300
; #@! TA.AperFunction,Plated,PTH,ComponentDrill
T2C0.600
; #@! TA.AperFunction,Plated,PTH,ComponentDrill
T3C2.200
; #@! TA.AperFunction,Plated,PTH,ComponentDrill
T4C3.000
; #@! TA.AperFunction,NonPlated,NPTH,ComponentDrill
T5C0.650
; #@! TA.AperFunction,NonPlated,NPTH,ComponentDrill
T6C1.750
; #@! TA.AperFunction,NonPlated,NPTH,ComponentDrill
T7C3.988
%
G90
G05
T1
X53.5Y-38.5
X54.5Y-30.0
X58.5Y-34.5
X59.5Y-32.5
X60.362Y-46.95
X62.484Y-35.772
X63.275Y-33.5
X64.775Y-44.5
X64.975Y-42.5
X68.5Y-32.5
X73.0Y-132.0
X96.0Y-131.5
X100.5Y-125.5
X100.5Y-140.0
X101.434Y-125.934
X102.0Y-123.0
X102.0Y-126.5
X102.712Y-124.657
X102.861Y-127.139
X103.312Y-125.257
X103.611Y-127.889
X104.028Y-125.972
X104.177Y-128.455
X104.5Y-132.5
X104.585Y-129.143
X104.765Y-139.843
X104.778Y-126.722
X104.875Y-133.802
X105.239Y-136.862
X105.343Y-127.288
X105.361Y-129.639
X105.932Y-130.21
X106.199Y-136.862
X107.5Y-145.0
X108.0Y-132.04
X109.0Y-129.0
X111.0Y-133.0
X111.9Y-140.5
X113.846Y-131.832
X114.0Y-129.5
X117.774Y-144.355
X118.0Y-139.0
X118.5Y-147.0
X119.5Y-134.5
X124.587Y-130.405
X128.0Y-130.9
X161.1Y-54.61
X171.0Y-73.66
X176.5Y-92.71
X177.5Y-130.81
X186.2Y-111.76
X201.912Y-117.05
X220.962Y-117.05
X240.012Y-117.05
T3
X36.0Y-27.0
X36.0Y-144.0
X182.0Y-27.5
X183.0Y-144.0
X184.5Y-85.5
X330.0Y-27.0
X330.0Y-144.0
T4
X34.29Y-35.56
X34.29Y-54.61
X36.671Y-130.81
X39.052Y-73.66
X40.64Y-33.02
X40.64Y-52.07
X41.434Y-92.71
X43.021Y-128.27
X45.402Y-71.12
X46.196Y-111.76
X47.784Y-90.17
X52.07Y-35.56
X52.546Y-109.22
X53.34Y-54.61
X54.61Y-41.91
X59.69Y-52.07
X60.484Y-130.81
X62.865Y-73.66
X66.834Y-128.27
X67.627Y-92.71
X69.215Y-71.12
X72.39Y-35.56
X72.39Y-54.61
X73.977Y-90.17
X77.153Y-111.76
X78.74Y-33.02
X78.74Y-52.07
X81.915Y-73.66
X83.502Y-109.22
X84.296Y-130.81
X86.677Y-92.71
X88.265Y-71.12
X90.646Y-128.27
X91.44Y-35.56
X91.44Y-54.61
X93.027Y-90.17
X96.203Y-111.76
X97.79Y-33.02
X97.79Y-52.07
X100.965Y-73.66
X102.552Y-109.22
X105.727Y-92.71
X107.315Y-71.12
X110.49Y-35.56
X110.49Y-54.61
X112.078Y-90.17
X115.252Y-111.76
X116.84Y-33.02
X116.84Y-52.07
X120.015Y-73.66
X121.602Y-109.22
X124.777Y-92.71
X126.365Y-71.12
X129.54Y-35.56
X129.54Y-54.61
X131.127Y-90.17
X134.302Y-111.76
X135.89Y-33.02
X135.89Y-52.07
X139.065Y-73.66
X140.653Y-109.22
X143.827Y-92.71
X145.415Y-71.12
X148.59Y-35.56
X148.59Y-54.61
X150.177Y-90.17
X153.352Y-111.76
X154.94Y-33.02
X154.94Y-52.07
X155.734Y-130.81
X158.115Y-73.66
X159.702Y-109.22
X162.084Y-128.27
X162.877Y-92.71
X164.465Y-71.12
X167.64Y-35.56
X167.64Y-54.61
X169.227Y-90.17
X172.403Y-111.76
X173.99Y-33.02
X173.99Y-52.07
X177.165Y-73.66
X178.752Y-109.22
X181.927Y-92.71
X183.515Y-71.12
X186.69Y-35.56
X186.69Y-54.61
X188.278Y-90.17
X191.452Y-111.76
X193.04Y-33.02
X193.04Y-52.07
X196.215Y-73.66
X197.802Y-109.22
X200.977Y-92.71
X202.565Y-71.12
X205.74Y-35.56
X205.74Y-54.61
X207.327Y-90.17
X210.502Y-111.76
X212.09Y-33.02
X212.09Y-52.07
X215.265Y-73.66
X216.852Y-109.22
X220.028Y-92.71
X221.615Y-71.12
X224.79Y-35.56
X224.79Y-54.61
X224.79Y-130.81
X226.377Y-90.17
X229.552Y-111.76
X231.14Y-33.02
X231.14Y-52.07
X231.14Y-128.27
X234.315Y-73.66
X235.903Y-109.22
X239.077Y-92.71
X240.665Y-71.12
X243.84Y-35.56
X243.84Y-54.61
X243.84Y-130.81
X245.427Y-90.17
X248.602Y-111.76
X250.19Y-33.02
X250.19Y-52.07
X250.19Y-128.27
X253.365Y-73.66
X254.952Y-109.22
X258.127Y-92.71
X259.715Y-71.12
X262.89Y-35.56
X262.89Y-54.61
X262.89Y-130.81
X264.477Y-90.17
X269.24Y-33.02
X269.24Y-52.07
X269.24Y-128.27
X272.415Y-73.66
X274.796Y-111.76
X278.765Y-71.12
X281.146Y-109.22
X281.94Y-35.56
X281.94Y-130.81
X288.29Y-33.02
X288.29Y-128.27
X289.084Y-92.71
X291.465Y-54.61
X295.434Y-90.17
X296.227Y-73.66
X297.815Y-52.07
X300.99Y-35.56
X300.99Y-111.76
X300.99Y-130.81
X302.577Y-71.12
X307.34Y-33.02
X307.34Y-109.22
X307.34Y-128.27
X320.04Y-35.56
X320.04Y-54.61
X320.04Y-73.66
X320.04Y-92.71
X320.04Y-111.76
X320.04Y-130.81
X326.39Y-33.02
X326.39Y-52.07
X326.39Y-71.12
X326.39Y-90.17
X326.39Y-109.22
X326.39Y-128.27
T5
X60.71Y-29.425
X66.49Y-29.425
T6
X33.02Y-38.1
X33.02Y-57.15
X35.401Y-133.35
X37.782Y-76.2
X40.164Y-95.25
X43.18Y-38.1
X43.18Y-57.15
X44.926Y-114.3
X45.561Y-133.35
X47.942Y-76.2
X50.324Y-95.25
X52.07Y-57.15
X55.086Y-114.3
X57.15Y-33.02
X57.15Y-43.18
X59.214Y-133.35
X61.595Y-76.2
X62.23Y-57.15
X66.358Y-95.25
X69.374Y-133.35
X71.12Y-38.1
X71.12Y-57.15
X71.755Y-76.2
X75.882Y-114.3
X76.517Y-95.25
X80.645Y-76.2
X81.28Y-38.1
X81.28Y-57.15
X83.026Y-133.35
X85.407Y-95.25
X86.042Y-114.3
X90.17Y-38.1
X90.17Y-57.15
X90.805Y-76.2
X93.186Y-133.35
X94.932Y-114.3
X95.567Y-95.25
X99.695Y-76.2
X100.33Y-38.1
X100.33Y-57.15
X104.457Y-95.25
X105.093Y-114.3
X109.22Y-38.1
X109.22Y-57.15
X109.855Y-76.2
X113.983Y-114.3
X114.617Y-95.25
X118.745Y-76.2
X119.38Y-38.1
X119.38Y-57.15
X123.507Y-95.25
X124.142Y-114.3
X128.27Y-38.1
X128.27Y-57.15
X128.905Y-76.2
X133.032Y-114.3
X133.667Y-95.25
X137.795Y-76.2
X138.43Y-38.1
X138.43Y-57.15
X142.558Y-95.25
X143.192Y-114.3
X147.32Y-38.1
X147.32Y-57.15
X147.955Y-76.2
X152.082Y-114.3
X152.718Y-95.25
X154.464Y-133.35
X156.845Y-76.2
X157.48Y-38.1
X157.48Y-57.15
X161.607Y-95.25
X162.243Y-114.3
X164.624Y-133.35
X166.37Y-38.1
X166.37Y-57.15
X167.005Y-76.2
X171.132Y-114.3
X171.767Y-95.25
X175.895Y-76.2
X176.53Y-38.1
X176.53Y-57.15
X180.657Y-95.25
X181.292Y-114.3
X185.42Y-38.1
X185.42Y-57.15
X186.055Y-76.2
X190.183Y-114.3
X190.817Y-95.25
X194.945Y-76.2
X195.58Y-38.1
X195.58Y-57.15
X199.707Y-95.25
X200.343Y-114.3
X204.47Y-38.1
X204.47Y-57.15
X205.105Y-76.2
X209.232Y-114.3
X209.867Y-95.25
X213.995Y-76.2
X214.63Y-38.1
X214.63Y-57.15
X218.757Y-95.25
X219.392Y-114.3
X223.52Y-38.1
X223.52Y-57.15
X223.52Y-133.35
X224.155Y-76.2
X228.282Y-114.3
X228.917Y-95.25
X233.045Y-76.2
X233.68Y-38.1
X233.68Y-57.15
X233.68Y-133.35
X237.807Y-95.25
X238.442Y-114.3
X242.57Y-38.1
X242.57Y-57.15
X242.57Y-133.35
X243.205Y-76.2
X247.332Y-114.3
X247.968Y-95.25
X252.095Y-76.2
X252.73Y-38.1
X252.73Y-57.15
X252.73Y-133.35
X256.858Y-95.25
X257.493Y-114.3
X261.62Y-38.1
X261.62Y-57.15
X261.62Y-133.35
X262.255Y-76.2
X267.017Y-95.25
X271.145Y-76.2
X271.78Y-38.1
X271.78Y-57.15
X271.78Y-133.35
X273.526Y-114.3
X280.67Y-38.1
X280.67Y-133.35
X281.305Y-76.2
X283.686Y-114.3
X287.814Y-95.25
X290.195Y-57.15
X290.83Y-38.1
X290.83Y-133.35
X294.957Y-76.2
X297.974Y-95.25
X299.72Y-38.1
X299.72Y-114.3
X299.72Y-133.35
X300.355Y-57.15
X305.118Y-76.2
X309.88Y-38.1
X309.88Y-114.3
X309.88Y-133.35
X318.77Y-38.1
X318.77Y-57.15
X318.77Y-76.2
X318.77Y-95.25
X318.77Y-114.3
X318.77Y-133.35
X328.93Y-38.1
X328.93Y-57.15
X328.93Y-76.2
X328.93Y-95.25
X328.93Y-114.3
X328.93Y-133.35
T7
X38.1Y-38.1
X38.1Y-57.15
X40.481Y-133.35
X42.862Y-76.2
X45.244Y-95.25
X50.006Y-114.3
X57.15Y-38.1
X57.15Y-57.15
X64.294Y-133.35
X66.675Y-76.2
X71.438Y-95.25
X76.2Y-38.1
X76.2Y-57.15
X80.962Y-114.3
X85.725Y-76.2
X88.106Y-133.35
X90.487Y-95.25
X95.25Y-38.1
X95.25Y-57.15
X100.012Y-114.3
X104.775Y-76.2
X109.537Y-95.25
X114.3Y-38.1
X114.3Y-57.15
X119.062Y-114.3
X123.825Y-76.2
X128.588Y-95.25
X133.35Y-38.1
X133.35Y-57.15
X138.112Y-114.3
X142.875Y-76.2
X147.637Y-95.25
X152.4Y-38.1
X152.4Y-57.15
X157.162Y-114.3
X159.544Y-133.35
X161.925Y-76.2
X166.688Y-95.25
X171.45Y-38.1
X171.45Y-57.15
X176.213Y-114.3
X180.975Y-76.2
X185.737Y-95.25
X190.5Y-38.1
X190.5Y-57.15
X195.262Y-114.3
X200.025Y-76.2
X204.787Y-95.25
X209.55Y-38.1
X209.55Y-57.15
X214.312Y-114.3
X219.075Y-76.2
X223.837Y-95.25
X228.6Y-38.1
X228.6Y-57.15
X228.6Y-133.35
X233.362Y-114.3
X238.125Y-76.2
X242.887Y-95.25
X247.65Y-38.1
X247.65Y-57.15
X247.65Y-133.35
X252.412Y-114.3
X257.175Y-76.2
X261.938Y-95.25
X266.7Y-38.1
X266.7Y-57.15
X266.7Y-133.35
X276.225Y-76.2
X278.606Y-114.3
X285.75Y-38.1
X285.75Y-133.35
X292.894Y-95.25
X295.275Y-57.15
X300.037Y-76.2
X304.8Y-38.1
X304.8Y-114.3
X304.8Y-133.35
X323.85Y-38.1
X323.85Y-57.15
X323.85Y-76.2
X323.85Y-95.25
X323.85Y-114.3
X323.85Y-133.35
T2
X59.28Y-25.345G85X59.28Y-26.145
G05
X59.28Y-29.375G85X59.28Y-30.475
G05
X67.92Y-25.345G85X67.92Y-26.145
G05
X67.92Y-29.375G85X67.92Y-30.475
G05
M30
