%TF.GenerationSoftware,KiCad,Pcbnew,10.0.6*%
%TF.CreationDate,2026-09-21T13:05:56-04:00*%
%TF.ProjectId,KBoard,4b426f61-7264-42e6-9b69-6361645f7063,rev?*%
%TF.SameCoordinates,Original*%
%TF.FileFunction,Soldermask,Bot*%
%TF.FilePolarity,Negative*%
%FSLAX46Y46*%
G04 Gerber Fmt 4.6, Leading zero omitted, Abs format (unit mm)*
G04 Created by KiCad (PCBNEW 10.0.6) date 2026-09-21 13:05:56*
%MOMM*%
%LPD*%
G01*
G04 APERTURE LIST*
G04 Aperture macros list*
%AMRoundRect*
0 Rectangle with rounded corners*
0 $1 Rounding radius*
0 $2 $3 $4 $5 $6 $7 $8 $9 X,Y pos of 4 corners*
0 Add a 4 corners polygon primitive as box body*
4,1,4,$2,$3,$4,$5,$6,$7,$8,$9,$2,$3,0*
0 Add four circle primitives for the rounded corners*
1,1,$1+$1,$2,$3*
1,1,$1+$1,$4,$5*
1,1,$1+$1,$6,$7*
1,1,$1+$1,$8,$9*
0 Add four rect primitives between the rounded corners*
20,1,$1+$1,$2,$3,$4,$5,0*
20,1,$1+$1,$4,$5,$6,$7,0*
20,1,$1+$1,$6,$7,$8,$9,0*
20,1,$1+$1,$8,$9,$2,$3,0*%
G04 Aperture macros list end*
%ADD10C,0.010000*%
%ADD11C,2.600000*%
%ADD12RoundRect,0.225000X0.225000X0.375000X-0.225000X0.375000X-0.225000X-0.375000X0.225000X-0.375000X0*%
%ADD13C,1.750000*%
%ADD14C,3.987800*%
%ADD15C,3.300000*%
%ADD16RoundRect,0.250000X1.025000X1.000000X-1.025000X1.000000X-1.025000X-1.000000X1.025000X-1.000000X0*%
%ADD17RoundRect,0.225000X-0.225000X-0.250000X0.225000X-0.250000X0.225000X0.250000X-0.225000X0.250000X0*%
%ADD18RoundRect,0.140000X0.021213X-0.219203X0.219203X-0.021213X-0.021213X0.219203X-0.219203X0.021213X0*%
%ADD19RoundRect,0.140000X0.140000X0.170000X-0.140000X0.170000X-0.140000X-0.170000X0.140000X-0.170000X0*%
%ADD20RoundRect,0.225000X0.225000X0.250000X-0.225000X0.250000X-0.225000X-0.250000X0.225000X-0.250000X0*%
%ADD21R,1.500000X1.500000*%
%ADD22RoundRect,0.140000X-0.170000X0.140000X-0.170000X-0.140000X0.170000X-0.140000X0.170000X0.140000X0*%
%ADD23C,0.650000*%
%ADD24O,1.204000X2.304000*%
%ADD25O,1.204000X2.004000*%
%ADD26RoundRect,0.162500X0.650000X0.162500X-0.650000X0.162500X-0.650000X-0.162500X0.650000X-0.162500X0*%
%ADD27RoundRect,0.140000X-0.140000X-0.170000X0.140000X-0.170000X0.140000X0.170000X-0.140000X0.170000X0*%
%ADD28RoundRect,0.140000X0.170000X-0.140000X0.170000X0.140000X-0.170000X0.140000X-0.170000X-0.140000X0*%
%ADD29RoundRect,0.050000X0.387500X0.050000X-0.387500X0.050000X-0.387500X-0.050000X0.387500X-0.050000X0*%
%ADD30RoundRect,0.050000X0.050000X0.387500X-0.050000X0.387500X-0.050000X-0.387500X0.050000X-0.387500X0*%
%ADD31R,3.200000X3.200000*%
%ADD32RoundRect,0.150000X0.512500X0.150000X-0.512500X0.150000X-0.512500X-0.150000X0.512500X-0.150000X0*%
%ADD33RoundRect,0.250000X-1.000000X1.025000X-1.000000X-1.025000X1.000000X-1.025000X1.000000X1.025000X0*%
%ADD34RoundRect,0.250000X-0.450000X-0.350000X0.450000X-0.350000X0.450000X0.350000X-0.450000X0.350000X0*%
%ADD35RoundRect,0.147500X0.147500X0.172500X-0.147500X0.172500X-0.147500X-0.172500X0.147500X-0.172500X0*%
%ADD36RoundRect,0.150000X-0.512500X-0.150000X0.512500X-0.150000X0.512500X0.150000X-0.512500X0.150000X0*%
G04 APERTURE END LIST*
D10*
%TO.C,J2*%
X60050000Y-31125000D02*
X60750000Y-31125000D01*
X60750000Y-29875000D01*
X60050000Y-29875000D01*
X60050000Y-31125000D01*
G36*
X60750000Y-31125000D02*
G01*
X60050000Y-31125000D01*
X60050000Y-29875000D01*
X60750000Y-29875000D01*
X60750000Y-31125000D01*
G37*
X60850000Y-31125000D02*
X61550000Y-31125000D01*
X61550000Y-29875000D01*
X60850000Y-29875000D01*
X60850000Y-31125000D01*
G36*
X61550000Y-31125000D02*
G01*
X60850000Y-31125000D01*
X60850000Y-29875000D01*
X61550000Y-29875000D01*
X61550000Y-31125000D01*
G37*
X61650000Y-31125000D02*
X62050000Y-31125000D01*
X62050000Y-29875000D01*
X61650000Y-29875000D01*
X61650000Y-31125000D01*
G36*
X62050000Y-31125000D02*
G01*
X61650000Y-31125000D01*
X61650000Y-29875000D01*
X62050000Y-29875000D01*
X62050000Y-31125000D01*
G37*
X62150000Y-31125000D02*
X62550000Y-31125000D01*
X62550000Y-29875000D01*
X62150000Y-29875000D01*
X62150000Y-31125000D01*
G36*
X62550000Y-31125000D02*
G01*
X62150000Y-31125000D01*
X62150000Y-29875000D01*
X62550000Y-29875000D01*
X62550000Y-31125000D01*
G37*
X62650000Y-31125000D02*
X63050000Y-31125000D01*
X63050000Y-29875000D01*
X62650000Y-29875000D01*
X62650000Y-31125000D01*
G36*
X63050000Y-31125000D02*
G01*
X62650000Y-31125000D01*
X62650000Y-29875000D01*
X63050000Y-29875000D01*
X63050000Y-31125000D01*
G37*
X63150000Y-31125000D02*
X63550000Y-31125000D01*
X63550000Y-29875000D01*
X63150000Y-29875000D01*
X63150000Y-31125000D01*
G36*
X63550000Y-31125000D02*
G01*
X63150000Y-31125000D01*
X63150000Y-29875000D01*
X63550000Y-29875000D01*
X63550000Y-31125000D01*
G37*
X63650000Y-31125000D02*
X64050000Y-31125000D01*
X64050000Y-29875000D01*
X63650000Y-29875000D01*
X63650000Y-31125000D01*
G36*
X64050000Y-31125000D02*
G01*
X63650000Y-31125000D01*
X63650000Y-29875000D01*
X64050000Y-29875000D01*
X64050000Y-31125000D01*
G37*
X64150000Y-31125000D02*
X64550000Y-31125000D01*
X64550000Y-29875000D01*
X64150000Y-29875000D01*
X64150000Y-31125000D01*
G36*
X64550000Y-31125000D02*
G01*
X64150000Y-31125000D01*
X64150000Y-29875000D01*
X64550000Y-29875000D01*
X64550000Y-31125000D01*
G37*
X64650000Y-31125000D02*
X65050000Y-31125000D01*
X65050000Y-29875000D01*
X64650000Y-29875000D01*
X64650000Y-31125000D01*
G36*
X65050000Y-31125000D02*
G01*
X64650000Y-31125000D01*
X64650000Y-29875000D01*
X65050000Y-29875000D01*
X65050000Y-31125000D01*
G37*
X65150000Y-31125000D02*
X65550000Y-31125000D01*
X65550000Y-29875000D01*
X65150000Y-29875000D01*
X65150000Y-31125000D01*
G36*
X65550000Y-31125000D02*
G01*
X65150000Y-31125000D01*
X65150000Y-29875000D01*
X65550000Y-29875000D01*
X65550000Y-31125000D01*
G37*
X65650000Y-31125000D02*
X66350000Y-31125000D01*
X66350000Y-29875000D01*
X65650000Y-29875000D01*
X65650000Y-31125000D01*
G36*
X66350000Y-31125000D02*
G01*
X65650000Y-31125000D01*
X65650000Y-29875000D01*
X66350000Y-29875000D01*
X66350000Y-31125000D01*
G37*
X66450000Y-31125000D02*
X67150000Y-31125000D01*
X67150000Y-29875000D01*
X66450000Y-29875000D01*
X66450000Y-31125000D01*
G36*
X67150000Y-31125000D02*
G01*
X66450000Y-31125000D01*
X66450000Y-29875000D01*
X67150000Y-29875000D01*
X67150000Y-31125000D01*
G37*
%TD*%
D11*
%TO.C,REF\u002A\u002A*%
X182000000Y-27500000D03*
%TD*%
%TO.C,REF\u002A\u002A*%
X36000000Y-144000000D03*
%TD*%
%TO.C,REF\u002A\u002A*%
X183000000Y-144000000D03*
%TD*%
%TO.C,REF\u002A\u002A*%
X330000000Y-144000000D03*
%TD*%
%TO.C,REF\u002A\u002A*%
X330000000Y-27000000D03*
%TD*%
%TO.C,REF\u002A\u002A*%
X36000000Y-27000000D03*
%TD*%
%TO.C,REF\u002A\u002A*%
X184500000Y-85500000D03*
%TD*%
D12*
%TO.C,D53*%
X78087500Y-98000000D03*
X74787500Y-98000000D03*
%TD*%
%TO.C,D10*%
X311450000Y-40850000D03*
X308150000Y-40850000D03*
%TD*%
D13*
%TO.C,SW31*%
X328930000Y-57150000D03*
D14*
X323850000Y-57150000D03*
D13*
X318770000Y-57150000D03*
D15*
X320040000Y-54610000D03*
D16*
X316490000Y-54610000D03*
X329940000Y-52070000D03*
D15*
X326390000Y-52070000D03*
%TD*%
D12*
%TO.C,D74*%
X330500000Y-117050000D03*
X327200000Y-117050000D03*
%TD*%
%TO.C,D84*%
X273350000Y-136100000D03*
X270050000Y-136100000D03*
%TD*%
%TO.C,D26*%
X120950000Y-59900000D03*
X117650000Y-59900000D03*
%TD*%
D13*
%TO.C,SW82*%
X290830000Y-133350000D03*
D14*
X285750000Y-133350000D03*
D13*
X280670000Y-133350000D03*
D15*
X281940000Y-130810000D03*
D16*
X278390000Y-130810000D03*
X291840000Y-128270000D03*
D15*
X288290000Y-128270000D03*
%TD*%
D12*
%TO.C,D65*%
X125712500Y-117050000D03*
X122412500Y-117050000D03*
%TD*%
%TO.C,D27*%
X101900000Y-59900000D03*
X98600000Y-59900000D03*
%TD*%
%TO.C,D3*%
X140000000Y-40850000D03*
X136700000Y-40850000D03*
%TD*%
D13*
%TO.C,SW15*%
X309880000Y-38100000D03*
D14*
X304800000Y-38100000D03*
D13*
X299720000Y-38100000D03*
D15*
X300990000Y-35560000D03*
D16*
X297440000Y-35560000D03*
X310890000Y-33020000D03*
D15*
X307340000Y-33020000D03*
%TD*%
D13*
%TO.C,SW53*%
X171767500Y-95250000D03*
D14*
X166687500Y-95250000D03*
D13*
X161607500Y-95250000D03*
D15*
X162877500Y-92710000D03*
D16*
X159327500Y-92710000D03*
X172777500Y-90170000D03*
D15*
X169227500Y-90170000D03*
%TD*%
D13*
%TO.C,SW10*%
X214630000Y-38100000D03*
D14*
X209550000Y-38100000D03*
D13*
X204470000Y-38100000D03*
D15*
X205740000Y-35560000D03*
D16*
X202190000Y-35560000D03*
X215640000Y-33020000D03*
D15*
X212090000Y-33020000D03*
%TD*%
D12*
%TO.C,D23*%
X178100000Y-59900000D03*
X174800000Y-59900000D03*
%TD*%
D13*
%TO.C,SW5*%
X119380000Y-38100000D03*
D14*
X114300000Y-38100000D03*
D13*
X109220000Y-38100000D03*
D15*
X110490000Y-35560000D03*
D16*
X106940000Y-35560000D03*
X120390000Y-33020000D03*
D15*
X116840000Y-33020000D03*
%TD*%
D12*
%TO.C,D43*%
X244775000Y-78950000D03*
X241475000Y-78950000D03*
%TD*%
D13*
%TO.C,SW14*%
X290830000Y-38100000D03*
D14*
X285750000Y-38100000D03*
D13*
X280670000Y-38100000D03*
D15*
X281940000Y-35560000D03*
D16*
X278390000Y-35560000D03*
X291840000Y-33020000D03*
D15*
X288290000Y-33020000D03*
%TD*%
D17*
%TO.C,C17*%
X63288575Y-44353394D03*
X64838575Y-44353394D03*
%TD*%
D13*
%TO.C,SW22*%
X138430000Y-57150000D03*
D14*
X133350000Y-57150000D03*
D13*
X128270000Y-57150000D03*
D15*
X129540000Y-54610000D03*
D16*
X125990000Y-54610000D03*
X139440000Y-52070000D03*
D15*
X135890000Y-52070000D03*
%TD*%
D12*
%TO.C,D1*%
X178100000Y-40850000D03*
X174800000Y-40850000D03*
%TD*%
%TO.C,D80*%
X254300000Y-136100000D03*
X251000000Y-136100000D03*
%TD*%
D13*
%TO.C,SW44*%
X281305000Y-76200000D03*
D14*
X276225000Y-76200000D03*
D13*
X271145000Y-76200000D03*
D15*
X272415000Y-73660000D03*
D16*
X268865000Y-73660000D03*
X282315000Y-71120000D03*
D15*
X278765000Y-71120000D03*
%TD*%
D18*
%TO.C,C9*%
X115742708Y-135122689D03*
X116421530Y-134443867D03*
%TD*%
D13*
%TO.C,SW52*%
X152717500Y-95250000D03*
D14*
X147637500Y-95250000D03*
D13*
X142557500Y-95250000D03*
D15*
X143827500Y-92710000D03*
D16*
X140277500Y-92710000D03*
X153727500Y-90170000D03*
D15*
X150177500Y-90170000D03*
%TD*%
D13*
%TO.C,SW38*%
X167005000Y-76200000D03*
D14*
X161925000Y-76200000D03*
D13*
X156845000Y-76200000D03*
D15*
X158115000Y-73660000D03*
D16*
X154565000Y-73660000D03*
X168015000Y-71120000D03*
D15*
X164465000Y-71120000D03*
%TD*%
D13*
%TO.C,SW56*%
X228917500Y-95250000D03*
D14*
X223837500Y-95250000D03*
D13*
X218757500Y-95250000D03*
D15*
X220027500Y-92710000D03*
D16*
X216477500Y-92710000D03*
X229927500Y-90170000D03*
D15*
X226377500Y-90170000D03*
%TD*%
D12*
%TO.C,D83*%
X292400000Y-136100000D03*
X289100000Y-136100000D03*
%TD*%
%TO.C,D20*%
X235250000Y-59900000D03*
X231950000Y-59900000D03*
%TD*%
%TO.C,D28*%
X82850000Y-59900000D03*
X79550000Y-59900000D03*
%TD*%
%TO.C,D58*%
X211437500Y-98000000D03*
X208137500Y-98000000D03*
%TD*%
D13*
%TO.C,SW26*%
X214630000Y-57150000D03*
D14*
X209550000Y-57150000D03*
D13*
X204470000Y-57150000D03*
D15*
X205740000Y-54610000D03*
D16*
X202190000Y-54610000D03*
X215640000Y-52070000D03*
D15*
X212090000Y-52070000D03*
%TD*%
D19*
%TO.C,C5*%
X106609048Y-132587749D03*
X105649048Y-132587749D03*
%TD*%
D13*
%TO.C,SW80*%
X252730000Y-133350000D03*
D14*
X247650000Y-133350000D03*
D13*
X242570000Y-133350000D03*
D15*
X243840000Y-130810000D03*
D16*
X240290000Y-130810000D03*
X253740000Y-128270000D03*
D15*
X250190000Y-128270000D03*
%TD*%
D13*
%TO.C,SW54*%
X190817500Y-95250000D03*
D14*
X185737500Y-95250000D03*
D13*
X180657500Y-95250000D03*
D15*
X181927500Y-92710000D03*
D16*
X178377500Y-92710000D03*
X191827500Y-90170000D03*
D15*
X188277500Y-90170000D03*
%TD*%
D13*
%TO.C,SW20*%
X100330000Y-57150000D03*
D14*
X95250000Y-57150000D03*
D13*
X90170000Y-57150000D03*
D15*
X91440000Y-54610000D03*
D16*
X87890000Y-54610000D03*
X101340000Y-52070000D03*
D15*
X97790000Y-52070000D03*
%TD*%
D12*
%TO.C,D16*%
X197150000Y-40850000D03*
X193850000Y-40850000D03*
%TD*%
%TO.C,D73*%
X311450000Y-117050000D03*
X308150000Y-117050000D03*
%TD*%
%TO.C,D40*%
X73325000Y-78950000D03*
X70025000Y-78950000D03*
%TD*%
%TO.C,D33*%
X206675000Y-78950000D03*
X203375000Y-78950000D03*
%TD*%
D20*
%TO.C,C6*%
X106424587Y-133802028D03*
X104874587Y-133802028D03*
%TD*%
D13*
%TO.C,SW70*%
X238442500Y-114300000D03*
D14*
X233362500Y-114300000D03*
D13*
X228282500Y-114300000D03*
D15*
X229552500Y-111760000D03*
D16*
X226002500Y-111760000D03*
X239452500Y-109220000D03*
D15*
X235902500Y-109220000D03*
%TD*%
D13*
%TO.C,SW37*%
X147955000Y-76200000D03*
D14*
X142875000Y-76200000D03*
D13*
X137795000Y-76200000D03*
D15*
X139065000Y-73660000D03*
D16*
X135515000Y-73660000D03*
X148965000Y-71120000D03*
D15*
X145415000Y-71120000D03*
%TD*%
D12*
%TO.C,D62*%
X182862500Y-117050000D03*
X179562500Y-117050000D03*
%TD*%
D21*
%TO.C,SW85*%
X128200000Y-126000000D03*
X136000000Y-126000000D03*
%TD*%
D12*
%TO.C,D25*%
X140000000Y-59900000D03*
X136700000Y-59900000D03*
%TD*%
%TO.C,D48*%
X173337500Y-98000000D03*
X170037500Y-98000000D03*
%TD*%
%TO.C,D70*%
X259062500Y-117050000D03*
X255762500Y-117050000D03*
%TD*%
D13*
%TO.C,SW35*%
X109855000Y-76200000D03*
D14*
X104775000Y-76200000D03*
D13*
X99695000Y-76200000D03*
D15*
X100965000Y-73660000D03*
D16*
X97415000Y-73660000D03*
X110865000Y-71120000D03*
D15*
X107315000Y-71120000D03*
%TD*%
D12*
%TO.C,D36*%
X149525000Y-78950000D03*
X146225000Y-78950000D03*
%TD*%
D13*
%TO.C,SW11*%
X233680000Y-38100000D03*
D14*
X228600000Y-38100000D03*
D13*
X223520000Y-38100000D03*
D15*
X224790000Y-35560000D03*
D16*
X221240000Y-35560000D03*
X234690000Y-33020000D03*
D15*
X231140000Y-33020000D03*
%TD*%
D13*
%TO.C,SW36*%
X128905000Y-76200000D03*
D14*
X123825000Y-76200000D03*
D13*
X118745000Y-76200000D03*
D15*
X120015000Y-73660000D03*
D16*
X116465000Y-73660000D03*
X129915000Y-71120000D03*
D15*
X126365000Y-71120000D03*
%TD*%
D12*
%TO.C,D59*%
X299543750Y-98000000D03*
X296243750Y-98000000D03*
%TD*%
D13*
%TO.C,SW60*%
X328930000Y-95250000D03*
D14*
X323850000Y-95250000D03*
D13*
X318770000Y-95250000D03*
D15*
X320040000Y-92710000D03*
D16*
X316490000Y-92710000D03*
X329940000Y-90170000D03*
D15*
X326390000Y-90170000D03*
%TD*%
D12*
%TO.C,D55*%
X268587500Y-98000000D03*
X265287500Y-98000000D03*
%TD*%
D13*
%TO.C,SW9*%
X195580000Y-38100000D03*
D14*
X190500000Y-38100000D03*
D13*
X185420000Y-38100000D03*
D15*
X186690000Y-35560000D03*
D16*
X183140000Y-35560000D03*
X196590000Y-33020000D03*
D15*
X193040000Y-33020000D03*
%TD*%
D13*
%TO.C,SW13*%
X271780000Y-38100000D03*
D14*
X266700000Y-38100000D03*
D13*
X261620000Y-38100000D03*
D15*
X262890000Y-35560000D03*
D16*
X259340000Y-35560000D03*
X272790000Y-33020000D03*
D15*
X269240000Y-33020000D03*
%TD*%
D12*
%TO.C,D38*%
X111425000Y-78950000D03*
X108125000Y-78950000D03*
%TD*%
%TO.C,D21*%
X216200000Y-59900000D03*
X212900000Y-59900000D03*
%TD*%
D22*
%TO.C,C15*%
X110194622Y-143272523D03*
X110194622Y-144232523D03*
%TD*%
D12*
%TO.C,D63*%
X163812500Y-117050000D03*
X160512500Y-117050000D03*
%TD*%
D22*
%TO.C,R2*%
X126500000Y-125520000D03*
X126500000Y-126480000D03*
%TD*%
D13*
%TO.C,SW45*%
X305117500Y-76200000D03*
D14*
X300037500Y-76200000D03*
D13*
X294957500Y-76200000D03*
D15*
X296227500Y-73660000D03*
D16*
X292677500Y-73660000D03*
X306127500Y-71120000D03*
D15*
X302577500Y-71120000D03*
%TD*%
D13*
%TO.C,SW81*%
X271780000Y-133350000D03*
D14*
X266700000Y-133350000D03*
D13*
X261620000Y-133350000D03*
D15*
X262890000Y-130810000D03*
D16*
X259340000Y-130810000D03*
X272790000Y-128270000D03*
D15*
X269240000Y-128270000D03*
%TD*%
D13*
%TO.C,SW12*%
X252730000Y-38100000D03*
D14*
X247650000Y-38100000D03*
D13*
X242570000Y-38100000D03*
D15*
X243840000Y-35560000D03*
D16*
X240290000Y-35560000D03*
X253740000Y-33020000D03*
D15*
X250190000Y-33020000D03*
%TD*%
D12*
%TO.C,D13*%
X254300000Y-40850000D03*
X251000000Y-40850000D03*
%TD*%
D13*
%TO.C,SW58*%
X267017500Y-95250000D03*
D14*
X261937500Y-95250000D03*
D13*
X256857500Y-95250000D03*
D15*
X258127500Y-92710000D03*
D16*
X254577500Y-92710000D03*
X268027500Y-90170000D03*
D15*
X264477500Y-90170000D03*
%TD*%
D13*
%TO.C,SW79*%
X233680000Y-133350000D03*
D14*
X228600000Y-133350000D03*
D13*
X223520000Y-133350000D03*
D15*
X224790000Y-130810000D03*
D16*
X221240000Y-130810000D03*
X234690000Y-128270000D03*
D15*
X231140000Y-128270000D03*
%TD*%
D13*
%TO.C,SW47*%
X50323750Y-95250000D03*
D14*
X45243750Y-95250000D03*
D13*
X40163750Y-95250000D03*
D15*
X41433750Y-92710000D03*
D16*
X37883750Y-92710000D03*
X51333750Y-90170000D03*
D15*
X47783750Y-90170000D03*
%TD*%
D13*
%TO.C,SW24*%
X176530000Y-57150000D03*
D14*
X171450000Y-57150000D03*
D13*
X166370000Y-57150000D03*
D15*
X167640000Y-54610000D03*
D16*
X164090000Y-54610000D03*
X177540000Y-52070000D03*
D15*
X173990000Y-52070000D03*
%TD*%
D17*
%TO.C,C7*%
X112296127Y-131832411D03*
X113846127Y-131832411D03*
%TD*%
D13*
%TO.C,SW50*%
X114617500Y-95250000D03*
D14*
X109537500Y-95250000D03*
D13*
X104457500Y-95250000D03*
D15*
X105727500Y-92710000D03*
D16*
X102177500Y-92710000D03*
X115627500Y-90170000D03*
D15*
X112077500Y-90170000D03*
%TD*%
D12*
%TO.C,D71*%
X240012500Y-117050000D03*
X236712500Y-117050000D03*
%TD*%
%TO.C,D19*%
X254300000Y-59900000D03*
X251000000Y-59900000D03*
%TD*%
D20*
%TO.C,C8*%
X58500000Y-45000000D03*
X56950000Y-45000000D03*
%TD*%
D23*
%TO.C,J2*%
X60710000Y-29425000D03*
X66490000Y-29425000D03*
D24*
X59280000Y-29925000D03*
X67920000Y-29925000D03*
D25*
X59280000Y-25745000D03*
X67920000Y-25745000D03*
%TD*%
D13*
%TO.C,SW6*%
X138430000Y-38100000D03*
D14*
X133350000Y-38100000D03*
D13*
X128270000Y-38100000D03*
D15*
X129540000Y-35560000D03*
D16*
X125990000Y-35560000D03*
X139440000Y-33020000D03*
D15*
X135890000Y-33020000D03*
%TD*%
D12*
%TO.C,D41*%
X49512500Y-78950000D03*
X46212500Y-78950000D03*
%TD*%
D26*
%TO.C,U2*%
X124587500Y-126595000D03*
X124587500Y-127865000D03*
X124587500Y-129135000D03*
X124587500Y-130405000D03*
X117412500Y-130405000D03*
X117412500Y-129135000D03*
X117412500Y-127865000D03*
X117412500Y-126595000D03*
%TD*%
D22*
%TO.C,R6*%
X65920995Y-34775271D03*
X65920995Y-35735271D03*
%TD*%
D27*
%TO.C,C10*%
X115540000Y-139000000D03*
X116500000Y-139000000D03*
%TD*%
D12*
%TO.C,D4*%
X120950000Y-40850000D03*
X117650000Y-40850000D03*
%TD*%
%TO.C,D44*%
X306687500Y-78950000D03*
X303387500Y-78950000D03*
%TD*%
%TO.C,D60*%
X330500000Y-98000000D03*
X327200000Y-98000000D03*
%TD*%
%TO.C,D52*%
X97137500Y-98000000D03*
X93837500Y-98000000D03*
%TD*%
D28*
%TO.C,C13*%
X108000000Y-133000000D03*
X108000000Y-132040000D03*
%TD*%
D13*
%TO.C,SW43*%
X262255000Y-76200000D03*
D14*
X257175000Y-76200000D03*
D13*
X252095000Y-76200000D03*
D15*
X253365000Y-73660000D03*
D16*
X249815000Y-73660000D03*
X263265000Y-71120000D03*
D15*
X259715000Y-71120000D03*
%TD*%
D12*
%TO.C,D14*%
X235250000Y-40850000D03*
X231950000Y-40850000D03*
%TD*%
%TO.C,D8*%
X44750000Y-40850000D03*
X41450000Y-40850000D03*
%TD*%
D13*
%TO.C,SW63*%
X105092500Y-114300000D03*
D14*
X100012500Y-114300000D03*
D13*
X94932500Y-114300000D03*
D15*
X96202500Y-111760000D03*
D16*
X92652500Y-111760000D03*
X106102500Y-109220000D03*
D15*
X102552500Y-109220000D03*
%TD*%
D12*
%TO.C,D66*%
X106662500Y-117050000D03*
X103362500Y-117050000D03*
%TD*%
D13*
%TO.C,SW55*%
X209867500Y-95250000D03*
D14*
X204787500Y-95250000D03*
D13*
X199707500Y-95250000D03*
D15*
X200977500Y-92710000D03*
D16*
X197427500Y-92710000D03*
X210877500Y-90170000D03*
D15*
X207327500Y-90170000D03*
%TD*%
D22*
%TO.C,R1*%
X111179769Y-143270321D03*
X111179769Y-144230321D03*
%TD*%
D13*
%TO.C,SW59*%
X297973750Y-95250000D03*
D14*
X292893750Y-95250000D03*
D13*
X287813750Y-95250000D03*
D15*
X289083750Y-92710000D03*
D16*
X285533750Y-92710000D03*
X298983750Y-90170000D03*
D15*
X295433750Y-90170000D03*
%TD*%
D12*
%TO.C,D82*%
X311450000Y-136100000D03*
X308150000Y-136100000D03*
%TD*%
%TO.C,D77*%
X94756250Y-136100000D03*
X91456250Y-136100000D03*
%TD*%
%TO.C,D34*%
X187625000Y-78950000D03*
X184325000Y-78950000D03*
%TD*%
D13*
%TO.C,SW57*%
X247967500Y-95250000D03*
D14*
X242887500Y-95250000D03*
D13*
X237807500Y-95250000D03*
D15*
X239077500Y-92710000D03*
D16*
X235527500Y-92710000D03*
X248977500Y-90170000D03*
D15*
X245427500Y-90170000D03*
%TD*%
D13*
%TO.C,SW61*%
X55086250Y-114300000D03*
D14*
X50006250Y-114300000D03*
D13*
X44926250Y-114300000D03*
D15*
X46196250Y-111760000D03*
D16*
X42646250Y-111760000D03*
X56096250Y-109220000D03*
D15*
X52546250Y-109220000D03*
%TD*%
D13*
%TO.C,SW19*%
X81280000Y-57150000D03*
D14*
X76200000Y-57150000D03*
D13*
X71120000Y-57150000D03*
D15*
X72390000Y-54610000D03*
D16*
X68840000Y-54610000D03*
X82290000Y-52070000D03*
D15*
X78740000Y-52070000D03*
%TD*%
D12*
%TO.C,D2*%
X159050000Y-40850000D03*
X155750000Y-40850000D03*
%TD*%
%TO.C,D30*%
X44750000Y-59900000D03*
X41450000Y-59900000D03*
%TD*%
D29*
%TO.C,U1*%
X114337500Y-135962500D03*
X114337500Y-136362500D03*
X114337500Y-136762500D03*
X114337500Y-137162500D03*
X114337500Y-137562500D03*
X114337500Y-137962500D03*
X114337500Y-138362500D03*
X114337500Y-138762500D03*
X114337500Y-139162500D03*
X114337500Y-139562500D03*
X114337500Y-139962500D03*
X114337500Y-140362500D03*
X114337500Y-140762500D03*
X114337500Y-141162500D03*
D30*
X113500000Y-142000000D03*
X113100000Y-142000000D03*
X112700000Y-142000000D03*
X112300000Y-142000000D03*
X111900000Y-142000000D03*
X111500000Y-142000000D03*
X111100000Y-142000000D03*
X110700000Y-142000000D03*
X110300000Y-142000000D03*
X109900000Y-142000000D03*
X109500000Y-142000000D03*
X109100000Y-142000000D03*
X108700000Y-142000000D03*
X108300000Y-142000000D03*
D29*
X107462500Y-141162500D03*
X107462500Y-140762500D03*
X107462500Y-140362500D03*
X107462500Y-139962500D03*
X107462500Y-139562500D03*
X107462500Y-139162500D03*
X107462500Y-138762500D03*
X107462500Y-138362500D03*
X107462500Y-137962500D03*
X107462500Y-137562500D03*
X107462500Y-137162500D03*
X107462500Y-136762500D03*
X107462500Y-136362500D03*
X107462500Y-135962500D03*
D30*
X108300000Y-135125000D03*
X108700000Y-135125000D03*
X109100000Y-135125000D03*
X109500000Y-135125000D03*
X109900000Y-135125000D03*
X110300000Y-135125000D03*
X110700000Y-135125000D03*
X111100000Y-135125000D03*
X111500000Y-135125000D03*
X111900000Y-135125000D03*
X112300000Y-135125000D03*
X112700000Y-135125000D03*
X113100000Y-135125000D03*
X113500000Y-135125000D03*
D31*
X110900000Y-138562500D03*
%TD*%
D12*
%TO.C,D46*%
X330500000Y-78950000D03*
X327200000Y-78950000D03*
%TD*%
%TO.C,D6*%
X82850000Y-40850000D03*
X79550000Y-40850000D03*
%TD*%
%TO.C,D18*%
X273350000Y-59900000D03*
X270050000Y-59900000D03*
%TD*%
D13*
%TO.C,SW42*%
X243205000Y-76200000D03*
D14*
X238125000Y-76200000D03*
D13*
X233045000Y-76200000D03*
D15*
X234315000Y-73660000D03*
D16*
X230765000Y-73660000D03*
X244215000Y-71120000D03*
D15*
X240665000Y-71120000D03*
%TD*%
D13*
%TO.C,SW78*%
X164623750Y-133350000D03*
D14*
X159543750Y-133350000D03*
D13*
X154463750Y-133350000D03*
D15*
X155733750Y-130810000D03*
D16*
X152183750Y-130810000D03*
X165633750Y-128270000D03*
D15*
X162083750Y-128270000D03*
%TD*%
D12*
%TO.C,D75*%
X47131250Y-136100000D03*
X43831250Y-136100000D03*
%TD*%
%TO.C,D29*%
X63800000Y-59900000D03*
X60500000Y-59900000D03*
%TD*%
D13*
%TO.C,SW3*%
X81280000Y-38100000D03*
D14*
X76200000Y-38100000D03*
D13*
X71120000Y-38100000D03*
D15*
X72390000Y-35560000D03*
D16*
X68840000Y-35560000D03*
X82290000Y-33020000D03*
D15*
X78740000Y-33020000D03*
%TD*%
D13*
%TO.C,SW66*%
X162242500Y-114300000D03*
D14*
X157162500Y-114300000D03*
D13*
X152082500Y-114300000D03*
D15*
X153352500Y-111760000D03*
D16*
X149802500Y-111760000D03*
X163252500Y-109220000D03*
D15*
X159702500Y-109220000D03*
%TD*%
D12*
%TO.C,D81*%
X330500000Y-136100000D03*
X327200000Y-136100000D03*
%TD*%
%TO.C,D22*%
X197150000Y-59900000D03*
X193850000Y-59900000D03*
%TD*%
%TO.C,D56*%
X249537500Y-98000000D03*
X246237500Y-98000000D03*
%TD*%
D13*
%TO.C,SW83*%
X309880000Y-133350000D03*
D14*
X304800000Y-133350000D03*
D13*
X299720000Y-133350000D03*
D15*
X300990000Y-130810000D03*
D16*
X297440000Y-130810000D03*
X310890000Y-128270000D03*
D15*
X307340000Y-128270000D03*
%TD*%
D13*
%TO.C,SW29*%
X271780000Y-57150000D03*
D14*
X266700000Y-57150000D03*
D13*
X261620000Y-57150000D03*
D15*
X262890000Y-54610000D03*
D16*
X259340000Y-54610000D03*
X272790000Y-52070000D03*
D15*
X269240000Y-52070000D03*
%TD*%
D12*
%TO.C,D50*%
X135237500Y-98000000D03*
X131937500Y-98000000D03*
%TD*%
D32*
%TO.C,U4*%
X65309726Y-36751902D03*
X65309726Y-37701902D03*
X65309726Y-38651902D03*
X63034726Y-38651902D03*
X63034726Y-37701902D03*
X63034726Y-36751902D03*
%TD*%
D19*
%TO.C,C11*%
X106198553Y-136862211D03*
X105238553Y-136862211D03*
%TD*%
D13*
%TO.C,SW27*%
X233680000Y-57150000D03*
D14*
X228600000Y-57150000D03*
D13*
X223520000Y-57150000D03*
D15*
X224790000Y-54610000D03*
D16*
X221240000Y-54610000D03*
X234690000Y-52070000D03*
D15*
X231140000Y-52070000D03*
%TD*%
D13*
%TO.C,SW51*%
X133667500Y-95250000D03*
D14*
X128587500Y-95250000D03*
D13*
X123507500Y-95250000D03*
D15*
X124777500Y-92710000D03*
D16*
X121227500Y-92710000D03*
X134677500Y-90170000D03*
D15*
X131127500Y-90170000D03*
%TD*%
D12*
%TO.C,D76*%
X70943750Y-136100000D03*
X67643750Y-136100000D03*
%TD*%
D13*
%TO.C,SW67*%
X181292500Y-114300000D03*
D14*
X176212500Y-114300000D03*
D13*
X171132500Y-114300000D03*
D15*
X172402500Y-111760000D03*
D16*
X168852500Y-111760000D03*
X182302500Y-109220000D03*
D15*
X178752500Y-109220000D03*
%TD*%
D12*
%TO.C,D42*%
X263825000Y-78950000D03*
X260525000Y-78950000D03*
%TD*%
D13*
%TO.C,SW46*%
X328930000Y-76200000D03*
D14*
X323850000Y-76200000D03*
D13*
X318770000Y-76200000D03*
D15*
X320040000Y-73660000D03*
D16*
X316490000Y-73660000D03*
X329940000Y-71120000D03*
D15*
X326390000Y-71120000D03*
%TD*%
D12*
%TO.C,D12*%
X273350000Y-40850000D03*
X270050000Y-40850000D03*
%TD*%
D13*
%TO.C,SW28*%
X252730000Y-57150000D03*
D14*
X247650000Y-57150000D03*
D13*
X242570000Y-57150000D03*
D15*
X243840000Y-54610000D03*
D16*
X240290000Y-54610000D03*
X253740000Y-52070000D03*
D15*
X250190000Y-52070000D03*
%TD*%
D12*
%TO.C,D57*%
X230487500Y-98000000D03*
X227187500Y-98000000D03*
%TD*%
%TO.C,D68*%
X56656250Y-117050000D03*
X53356250Y-117050000D03*
%TD*%
D13*
%TO.C,SW30*%
X300355000Y-57150000D03*
D14*
X295275000Y-57150000D03*
D13*
X290195000Y-57150000D03*
D15*
X291465000Y-54610000D03*
D16*
X287915000Y-54610000D03*
X301365000Y-52070000D03*
D15*
X297815000Y-52070000D03*
%TD*%
D12*
%TO.C,D5*%
X101900000Y-40850000D03*
X98600000Y-40850000D03*
%TD*%
%TO.C,D32*%
X225725000Y-78950000D03*
X222425000Y-78950000D03*
%TD*%
%TO.C,D79*%
X235250000Y-136100000D03*
X231950000Y-136100000D03*
%TD*%
%TO.C,D47*%
X192387500Y-98000000D03*
X189087500Y-98000000D03*
%TD*%
D28*
%TO.C,R5*%
X62484379Y-35771720D03*
X62484379Y-34811720D03*
%TD*%
D12*
%TO.C,D24*%
X159050000Y-59900000D03*
X155750000Y-59900000D03*
%TD*%
D13*
%TO.C,SW18*%
X62230000Y-57150000D03*
D14*
X57150000Y-57150000D03*
D13*
X52070000Y-57150000D03*
D15*
X53340000Y-54610000D03*
D16*
X49790000Y-54610000D03*
X63240000Y-52070000D03*
D15*
X59690000Y-52070000D03*
%TD*%
D19*
%TO.C,C4*%
X106672102Y-135035430D03*
X105712102Y-135035430D03*
%TD*%
D12*
%TO.C,D72*%
X220962500Y-117050000D03*
X217662500Y-117050000D03*
%TD*%
D13*
%TO.C,SW2*%
X57150000Y-33020000D03*
D14*
X57150000Y-38100000D03*
D13*
X57150000Y-43180000D03*
D15*
X54610000Y-41910000D03*
D33*
X54610000Y-45460000D03*
X52070000Y-32010000D03*
D15*
X52070000Y-35560000D03*
%TD*%
D13*
%TO.C,SW32*%
X47942500Y-76200000D03*
D14*
X42862500Y-76200000D03*
D13*
X37782500Y-76200000D03*
D15*
X39052500Y-73660000D03*
D16*
X35502500Y-73660000D03*
X48952500Y-71120000D03*
D15*
X45402500Y-71120000D03*
%TD*%
D12*
%TO.C,D49*%
X154287500Y-98000000D03*
X150987500Y-98000000D03*
%TD*%
D13*
%TO.C,SW33*%
X71755000Y-76200000D03*
D14*
X66675000Y-76200000D03*
D13*
X61595000Y-76200000D03*
D15*
X62865000Y-73660000D03*
D16*
X59315000Y-73660000D03*
X72765000Y-71120000D03*
D15*
X69215000Y-71120000D03*
%TD*%
D13*
%TO.C,SW65*%
X143192500Y-114300000D03*
D14*
X138112500Y-114300000D03*
D13*
X133032500Y-114300000D03*
D15*
X134302500Y-111760000D03*
D16*
X130752500Y-111760000D03*
X144202500Y-109220000D03*
D15*
X140652500Y-109220000D03*
%TD*%
D13*
%TO.C,SW7*%
X157480000Y-38100000D03*
D14*
X152400000Y-38100000D03*
D13*
X147320000Y-38100000D03*
D15*
X148590000Y-35560000D03*
D16*
X145040000Y-35560000D03*
X158490000Y-33020000D03*
D15*
X154940000Y-33020000D03*
%TD*%
D12*
%TO.C,D64*%
X144762500Y-117050000D03*
X141462500Y-117050000D03*
%TD*%
%TO.C,D17*%
X301925000Y-59900000D03*
X298625000Y-59900000D03*
%TD*%
D34*
%TO.C,Y1*%
X119300000Y-143300000D03*
X121500000Y-143300000D03*
X121500000Y-145000000D03*
X119300000Y-145000000D03*
%TD*%
D12*
%TO.C,D11*%
X292400000Y-40850000D03*
X289100000Y-40850000D03*
%TD*%
D13*
%TO.C,SW48*%
X76517500Y-95250000D03*
D14*
X71437500Y-95250000D03*
D13*
X66357500Y-95250000D03*
D15*
X67627500Y-92710000D03*
D16*
X64077500Y-92710000D03*
X77527500Y-90170000D03*
D15*
X73977500Y-90170000D03*
%TD*%
D12*
%TO.C,D54*%
X51893750Y-98000000D03*
X48593750Y-98000000D03*
%TD*%
D13*
%TO.C,SW68*%
X200342500Y-114300000D03*
D14*
X195262500Y-114300000D03*
D13*
X190182500Y-114300000D03*
D15*
X191452500Y-111760000D03*
D16*
X187902500Y-111760000D03*
X201352500Y-109220000D03*
D15*
X197802500Y-109220000D03*
%TD*%
D13*
%TO.C,SW75*%
X45561250Y-133350000D03*
D14*
X40481250Y-133350000D03*
D13*
X35401250Y-133350000D03*
D15*
X36671250Y-130810000D03*
D16*
X33121250Y-130810000D03*
X46571250Y-128270000D03*
D15*
X43021250Y-128270000D03*
%TD*%
D12*
%TO.C,D9*%
X330500000Y-40850000D03*
X327200000Y-40850000D03*
%TD*%
D13*
%TO.C,SW21*%
X119380000Y-57150000D03*
D14*
X114300000Y-57150000D03*
D13*
X109220000Y-57150000D03*
D15*
X110490000Y-54610000D03*
D16*
X106940000Y-54610000D03*
X120390000Y-52070000D03*
D15*
X116840000Y-52070000D03*
%TD*%
D13*
%TO.C,SW76*%
X69373750Y-133350000D03*
D14*
X64293750Y-133350000D03*
D13*
X59213750Y-133350000D03*
D15*
X60483750Y-130810000D03*
D16*
X56933750Y-130810000D03*
X70383750Y-128270000D03*
D15*
X66833750Y-128270000D03*
%TD*%
D13*
%TO.C,SW16*%
X328930000Y-38100000D03*
D14*
X323850000Y-38100000D03*
D13*
X318770000Y-38100000D03*
D15*
X320040000Y-35560000D03*
D16*
X316490000Y-35560000D03*
X329940000Y-33020000D03*
D15*
X326390000Y-33020000D03*
%TD*%
D13*
%TO.C,SW23*%
X157480000Y-57150000D03*
D14*
X152400000Y-57150000D03*
D13*
X147320000Y-57150000D03*
D15*
X148590000Y-54610000D03*
D16*
X145040000Y-54610000D03*
X158490000Y-52070000D03*
D15*
X154940000Y-52070000D03*
%TD*%
D12*
%TO.C,D67*%
X87612500Y-117050000D03*
X84312500Y-117050000D03*
%TD*%
D13*
%TO.C,SW74*%
X328930000Y-114300000D03*
D14*
X323850000Y-114300000D03*
D13*
X318770000Y-114300000D03*
D15*
X320040000Y-111760000D03*
D16*
X316490000Y-111760000D03*
X329940000Y-109220000D03*
D15*
X326390000Y-109220000D03*
%TD*%
D13*
%TO.C,SW17*%
X43180000Y-57150000D03*
D14*
X38100000Y-57150000D03*
D13*
X33020000Y-57150000D03*
D15*
X34290000Y-54610000D03*
D16*
X30740000Y-54610000D03*
X44190000Y-52070000D03*
D15*
X40640000Y-52070000D03*
%TD*%
D12*
%TO.C,D78*%
X166193750Y-136100000D03*
X162893750Y-136100000D03*
%TD*%
%TO.C,D37*%
X130475000Y-78950000D03*
X127175000Y-78950000D03*
%TD*%
D13*
%TO.C,SW40*%
X205105000Y-76200000D03*
D14*
X200025000Y-76200000D03*
D13*
X194945000Y-76200000D03*
D15*
X196215000Y-73660000D03*
D16*
X192665000Y-73660000D03*
X206115000Y-71120000D03*
D15*
X202565000Y-71120000D03*
%TD*%
D12*
%TO.C,D15*%
X216200000Y-40850000D03*
X212900000Y-40850000D03*
%TD*%
D13*
%TO.C,SW1*%
X43180000Y-38100000D03*
D14*
X38100000Y-38100000D03*
D13*
X33020000Y-38100000D03*
D15*
X34290000Y-35560000D03*
D16*
X30740000Y-35560000D03*
X44190000Y-33020000D03*
D15*
X40640000Y-33020000D03*
%TD*%
D13*
%TO.C,SW62*%
X86042500Y-114300000D03*
D14*
X80962500Y-114300000D03*
D13*
X75882500Y-114300000D03*
D15*
X77152500Y-111760000D03*
D16*
X73602500Y-111760000D03*
X87052500Y-109220000D03*
D15*
X83502500Y-109220000D03*
%TD*%
D19*
%TO.C,C12*%
X105724956Y-139843088D03*
X104764956Y-139843088D03*
%TD*%
D13*
%TO.C,SW8*%
X176530000Y-38100000D03*
D14*
X171450000Y-38100000D03*
D13*
X166370000Y-38100000D03*
D15*
X167640000Y-35560000D03*
D16*
X164090000Y-35560000D03*
X177540000Y-33020000D03*
D15*
X173990000Y-33020000D03*
%TD*%
D13*
%TO.C,SW69*%
X219392500Y-114300000D03*
D14*
X214312500Y-114300000D03*
D13*
X209232500Y-114300000D03*
D15*
X210502500Y-111760000D03*
D16*
X206952500Y-111760000D03*
X220402500Y-109220000D03*
D15*
X216852500Y-109220000D03*
%TD*%
D28*
%TO.C,C3*%
X123000000Y-144480000D03*
X123000000Y-143520000D03*
%TD*%
D13*
%TO.C,SW49*%
X95567500Y-95250000D03*
D14*
X90487500Y-95250000D03*
D13*
X85407500Y-95250000D03*
D15*
X86677500Y-92710000D03*
D16*
X83127500Y-92710000D03*
X96577500Y-90170000D03*
D15*
X93027500Y-90170000D03*
%TD*%
D13*
%TO.C,SW73*%
X309880000Y-114300000D03*
D14*
X304800000Y-114300000D03*
D13*
X299720000Y-114300000D03*
D15*
X300990000Y-111760000D03*
D16*
X297440000Y-111760000D03*
X310890000Y-109220000D03*
D15*
X307340000Y-109220000D03*
%TD*%
D13*
%TO.C,SW72*%
X283686250Y-114300000D03*
D14*
X278606250Y-114300000D03*
D13*
X273526250Y-114300000D03*
D15*
X274796250Y-111760000D03*
D16*
X271246250Y-111760000D03*
X284696250Y-109220000D03*
D15*
X281146250Y-109220000D03*
%TD*%
D13*
%TO.C,SW34*%
X90805000Y-76200000D03*
D14*
X85725000Y-76200000D03*
D13*
X80645000Y-76200000D03*
D15*
X81915000Y-73660000D03*
D16*
X78365000Y-73660000D03*
X91815000Y-71120000D03*
D15*
X88265000Y-71120000D03*
%TD*%
D13*
%TO.C,SW39*%
X186055000Y-76200000D03*
D14*
X180975000Y-76200000D03*
D13*
X175895000Y-76200000D03*
D15*
X177165000Y-73660000D03*
D16*
X173615000Y-73660000D03*
X187065000Y-71120000D03*
D15*
X183515000Y-71120000D03*
%TD*%
D22*
%TO.C,C2*%
X117773881Y-143394903D03*
X117773881Y-144354903D03*
%TD*%
D12*
%TO.C,D45*%
X282875000Y-78950000D03*
X279575000Y-78950000D03*
%TD*%
D18*
%TO.C,C14*%
X116663257Y-135587458D03*
X117342079Y-134908636D03*
%TD*%
D12*
%TO.C,D31*%
X330500000Y-59900000D03*
X327200000Y-59900000D03*
%TD*%
D13*
%TO.C,SW41*%
X224155000Y-76200000D03*
D14*
X219075000Y-76200000D03*
D13*
X213995000Y-76200000D03*
D15*
X215265000Y-73660000D03*
D16*
X211715000Y-73660000D03*
X225165000Y-71120000D03*
D15*
X221615000Y-71120000D03*
%TD*%
D12*
%TO.C,D51*%
X116187500Y-98000000D03*
X112887500Y-98000000D03*
%TD*%
D22*
%TO.C,R3*%
X109002894Y-132540000D03*
X109002894Y-133500000D03*
%TD*%
D12*
%TO.C,D61*%
X201912500Y-117050000D03*
X198612500Y-117050000D03*
%TD*%
D35*
%TO.C,F1*%
X61000000Y-35500000D03*
X60030000Y-35500000D03*
%TD*%
D22*
%TO.C,R4*%
X110000000Y-132290540D03*
X110000000Y-133250540D03*
%TD*%
D13*
%TO.C,SW25*%
X195580000Y-57150000D03*
D14*
X190500000Y-57150000D03*
D13*
X185420000Y-57150000D03*
D15*
X186690000Y-54610000D03*
D16*
X183140000Y-54610000D03*
X196590000Y-52070000D03*
D15*
X193040000Y-52070000D03*
%TD*%
D13*
%TO.C,SW64*%
X124142500Y-114300000D03*
D14*
X119062500Y-114300000D03*
D13*
X113982500Y-114300000D03*
D15*
X115252500Y-111760000D03*
D16*
X111702500Y-111760000D03*
X125152500Y-109220000D03*
D15*
X121602500Y-109220000D03*
%TD*%
D12*
%TO.C,D69*%
X285256250Y-117050000D03*
X281956250Y-117050000D03*
%TD*%
D36*
%TO.C,U3*%
X60362500Y-46950000D03*
X60362500Y-45050000D03*
X62637500Y-46000000D03*
%TD*%
D12*
%TO.C,D35*%
X168575000Y-78950000D03*
X165275000Y-78950000D03*
%TD*%
D17*
%TO.C,C16*%
X60225000Y-43500000D03*
X61775000Y-43500000D03*
%TD*%
D12*
%TO.C,D7*%
X63800000Y-41500000D03*
X60500000Y-41500000D03*
%TD*%
%TO.C,D39*%
X92375000Y-78950000D03*
X89075000Y-78950000D03*
%TD*%
D13*
%TO.C,SW71*%
X257492500Y-114300000D03*
D14*
X252412500Y-114300000D03*
D13*
X247332500Y-114300000D03*
D15*
X248602500Y-111760000D03*
D16*
X245052500Y-111760000D03*
X258502500Y-109220000D03*
D15*
X254952500Y-109220000D03*
%TD*%
D13*
%TO.C,SW84*%
X328930000Y-133350000D03*
D14*
X323850000Y-133350000D03*
D13*
X318770000Y-133350000D03*
D15*
X320040000Y-130810000D03*
D16*
X316490000Y-130810000D03*
X329940000Y-128270000D03*
D15*
X326390000Y-128270000D03*
%TD*%
D19*
%TO.C,C1*%
X117500000Y-125500000D03*
X116540000Y-125500000D03*
%TD*%
D13*
%TO.C,SW4*%
X100330000Y-38100000D03*
D14*
X95250000Y-38100000D03*
D13*
X90170000Y-38100000D03*
D15*
X91440000Y-35560000D03*
D16*
X87890000Y-35560000D03*
X101340000Y-33020000D03*
D15*
X97790000Y-33020000D03*
%TD*%
D13*
%TO.C,SW77*%
X93186250Y-133350000D03*
D14*
X88106250Y-133350000D03*
D13*
X83026250Y-133350000D03*
D15*
X84296250Y-130810000D03*
D16*
X80746250Y-130810000D03*
X94196250Y-128270000D03*
D15*
X90646250Y-128270000D03*
%TD*%
M02*
