%TF.GenerationSoftware,KiCad,Pcbnew,10.0.6*%
%TF.CreationDate,2026-09-21T13:05:56-04:00*%
%TF.ProjectId,KBoard,4b426f61-7264-42e6-9b69-6361645f7063,rev?*%
%TF.SameCoordinates,Original*%
%TF.FileFunction,Other,User*%
%FSLAX46Y46*%
G04 Gerber Fmt 4.6, Leading zero omitted, Abs format (unit mm)*
G04 Created by KiCad (PCBNEW 10.0.6) date 2026-09-21 13:05:56*
%MOMM*%
%LPD*%
G01*
G04 APERTURE LIST*
%ADD10C,0.050000*%
G04 APERTURE END LIST*
%TO.C,D53*%
D10*
X74087500Y-96850000D02*
X74087500Y-99150000D01*
X74087500Y-99150000D02*
X78787500Y-99150000D01*
X78787500Y-96850000D02*
X74087500Y-96850000D01*
X78787500Y-96850000D02*
X78787500Y-99150000D01*
%TO.C,D10*%
X307450000Y-39700000D02*
X307450000Y-42000000D01*
X307450000Y-42000000D02*
X312150000Y-42000000D01*
X312150000Y-39700000D02*
X307450000Y-39700000D01*
X312150000Y-39700000D02*
X312150000Y-42000000D01*
%TO.C,SW31*%
X315164824Y-53399780D02*
X315164824Y-55849780D01*
X315164824Y-55849780D02*
X317764824Y-55849780D01*
X317764824Y-53399780D02*
X315164824Y-53399780D01*
X317764824Y-53399780D02*
X317764824Y-52399780D01*
X317764824Y-55849780D02*
X317764824Y-56289780D01*
X317764824Y-56289780D02*
X321355678Y-56289780D01*
X319764824Y-50399780D02*
X328714824Y-50399780D01*
X328714824Y-50399780D02*
X328714824Y-50829780D01*
X328714824Y-53279780D02*
X328714824Y-54449780D01*
X328714824Y-53279780D02*
X331264824Y-53279780D01*
X328714824Y-54449780D02*
X323650000Y-54449780D01*
X331264824Y-50829780D02*
X328714824Y-50829780D01*
X331264824Y-53279780D02*
X331264824Y-50829780D01*
X317764824Y-52399780D02*
G75*
G02*
X319764824Y-50399780I2000004J-4D01*
G01*
X321355678Y-56289780D02*
G75*
G02*
X323650000Y-54449780I2294320J-510409D01*
G01*
%TO.C,D74*%
X326500000Y-115900000D02*
X326500000Y-118200000D01*
X326500000Y-118200000D02*
X331200000Y-118200000D01*
X331200000Y-115900000D02*
X326500000Y-115900000D01*
X331200000Y-115900000D02*
X331200000Y-118200000D01*
%TO.C,D84*%
X269350000Y-134950000D02*
X269350000Y-137250000D01*
X269350000Y-137250000D02*
X274050000Y-137250000D01*
X274050000Y-134950000D02*
X269350000Y-134950000D01*
X274050000Y-134950000D02*
X274050000Y-137250000D01*
%TO.C,D26*%
X116950000Y-58750000D02*
X116950000Y-61050000D01*
X116950000Y-61050000D02*
X121650000Y-61050000D01*
X121650000Y-58750000D02*
X116950000Y-58750000D01*
X121650000Y-58750000D02*
X121650000Y-61050000D01*
%TO.C,SW82*%
X277064824Y-129599780D02*
X277064824Y-132049780D01*
X277064824Y-132049780D02*
X279664824Y-132049780D01*
X279664824Y-129599780D02*
X277064824Y-129599780D01*
X279664824Y-129599780D02*
X279664824Y-128599780D01*
X279664824Y-132049780D02*
X279664824Y-132489780D01*
X279664824Y-132489780D02*
X283255678Y-132489780D01*
X281664824Y-126599780D02*
X290614824Y-126599780D01*
X290614824Y-126599780D02*
X290614824Y-127029780D01*
X290614824Y-129479780D02*
X290614824Y-130649780D01*
X290614824Y-129479780D02*
X293164824Y-129479780D01*
X290614824Y-130649780D02*
X285550000Y-130649780D01*
X293164824Y-127029780D02*
X290614824Y-127029780D01*
X293164824Y-129479780D02*
X293164824Y-127029780D01*
X279664824Y-128599780D02*
G75*
G02*
X281664824Y-126599780I2000004J-4D01*
G01*
X283255678Y-132489780D02*
G75*
G02*
X285550000Y-130649780I2294320J-510409D01*
G01*
%TO.C,D65*%
X121712500Y-115900000D02*
X121712500Y-118200000D01*
X121712500Y-118200000D02*
X126412500Y-118200000D01*
X126412500Y-115900000D02*
X121712500Y-115900000D01*
X126412500Y-115900000D02*
X126412500Y-118200000D01*
%TO.C,D27*%
X97900000Y-58750000D02*
X97900000Y-61050000D01*
X97900000Y-61050000D02*
X102600000Y-61050000D01*
X102600000Y-58750000D02*
X97900000Y-58750000D01*
X102600000Y-58750000D02*
X102600000Y-61050000D01*
%TO.C,D3*%
X136000000Y-39700000D02*
X136000000Y-42000000D01*
X136000000Y-42000000D02*
X140700000Y-42000000D01*
X140700000Y-39700000D02*
X136000000Y-39700000D01*
X140700000Y-39700000D02*
X140700000Y-42000000D01*
%TO.C,SW15*%
X296114824Y-34349780D02*
X296114824Y-36799780D01*
X296114824Y-36799780D02*
X298714824Y-36799780D01*
X298714824Y-34349780D02*
X296114824Y-34349780D01*
X298714824Y-34349780D02*
X298714824Y-33349780D01*
X298714824Y-36799780D02*
X298714824Y-37239780D01*
X298714824Y-37239780D02*
X302305678Y-37239780D01*
X300714824Y-31349780D02*
X309664824Y-31349780D01*
X309664824Y-31349780D02*
X309664824Y-31779780D01*
X309664824Y-34229780D02*
X309664824Y-35399780D01*
X309664824Y-34229780D02*
X312214824Y-34229780D01*
X309664824Y-35399780D02*
X304600000Y-35399780D01*
X312214824Y-31779780D02*
X309664824Y-31779780D01*
X312214824Y-34229780D02*
X312214824Y-31779780D01*
X298714824Y-33349780D02*
G75*
G02*
X300714824Y-31349780I2000004J-4D01*
G01*
X302305678Y-37239780D02*
G75*
G02*
X304600000Y-35399780I2294320J-510409D01*
G01*
%TO.C,SW53*%
X158002324Y-91499780D02*
X158002324Y-93949780D01*
X158002324Y-93949780D02*
X160602324Y-93949780D01*
X160602324Y-91499780D02*
X158002324Y-91499780D01*
X160602324Y-91499780D02*
X160602324Y-90499780D01*
X160602324Y-93949780D02*
X160602324Y-94389780D01*
X160602324Y-94389780D02*
X164193178Y-94389780D01*
X162602324Y-88499780D02*
X171552324Y-88499780D01*
X171552324Y-88499780D02*
X171552324Y-88929780D01*
X171552324Y-91379780D02*
X171552324Y-92549780D01*
X171552324Y-91379780D02*
X174102324Y-91379780D01*
X171552324Y-92549780D02*
X166487500Y-92549780D01*
X174102324Y-88929780D02*
X171552324Y-88929780D01*
X174102324Y-91379780D02*
X174102324Y-88929780D01*
X160602324Y-90499780D02*
G75*
G02*
X162602324Y-88499780I2000004J-4D01*
G01*
X164193178Y-94389780D02*
G75*
G02*
X166487500Y-92549780I2294320J-510409D01*
G01*
%TO.C,SW10*%
X200864824Y-34349780D02*
X200864824Y-36799780D01*
X200864824Y-36799780D02*
X203464824Y-36799780D01*
X203464824Y-34349780D02*
X200864824Y-34349780D01*
X203464824Y-34349780D02*
X203464824Y-33349780D01*
X203464824Y-36799780D02*
X203464824Y-37239780D01*
X203464824Y-37239780D02*
X207055678Y-37239780D01*
X205464824Y-31349780D02*
X214414824Y-31349780D01*
X214414824Y-31349780D02*
X214414824Y-31779780D01*
X214414824Y-34229780D02*
X214414824Y-35399780D01*
X214414824Y-34229780D02*
X216964824Y-34229780D01*
X214414824Y-35399780D02*
X209350000Y-35399780D01*
X216964824Y-31779780D02*
X214414824Y-31779780D01*
X216964824Y-34229780D02*
X216964824Y-31779780D01*
X203464824Y-33349780D02*
G75*
G02*
X205464824Y-31349780I2000004J-4D01*
G01*
X207055678Y-37239780D02*
G75*
G02*
X209350000Y-35399780I2294320J-510409D01*
G01*
%TO.C,D23*%
X174100000Y-58750000D02*
X174100000Y-61050000D01*
X174100000Y-61050000D02*
X178800000Y-61050000D01*
X178800000Y-58750000D02*
X174100000Y-58750000D01*
X178800000Y-58750000D02*
X178800000Y-61050000D01*
%TO.C,SW5*%
X105614824Y-34349780D02*
X105614824Y-36799780D01*
X105614824Y-36799780D02*
X108214824Y-36799780D01*
X108214824Y-34349780D02*
X105614824Y-34349780D01*
X108214824Y-34349780D02*
X108214824Y-33349780D01*
X108214824Y-36799780D02*
X108214824Y-37239780D01*
X108214824Y-37239780D02*
X111805678Y-37239780D01*
X110214824Y-31349780D02*
X119164824Y-31349780D01*
X119164824Y-31349780D02*
X119164824Y-31779780D01*
X119164824Y-34229780D02*
X119164824Y-35399780D01*
X119164824Y-34229780D02*
X121714824Y-34229780D01*
X119164824Y-35399780D02*
X114100000Y-35399780D01*
X121714824Y-31779780D02*
X119164824Y-31779780D01*
X121714824Y-34229780D02*
X121714824Y-31779780D01*
X108214824Y-33349780D02*
G75*
G02*
X110214824Y-31349780I2000004J-4D01*
G01*
X111805678Y-37239780D02*
G75*
G02*
X114100000Y-35399780I2294320J-510409D01*
G01*
%TO.C,D43*%
X240775000Y-77800000D02*
X240775000Y-80100000D01*
X240775000Y-80100000D02*
X245475000Y-80100000D01*
X245475000Y-77800000D02*
X240775000Y-77800000D01*
X245475000Y-77800000D02*
X245475000Y-80100000D01*
%TO.C,SW14*%
X277064824Y-34349780D02*
X277064824Y-36799780D01*
X277064824Y-36799780D02*
X279664824Y-36799780D01*
X279664824Y-34349780D02*
X277064824Y-34349780D01*
X279664824Y-34349780D02*
X279664824Y-33349780D01*
X279664824Y-36799780D02*
X279664824Y-37239780D01*
X279664824Y-37239780D02*
X283255678Y-37239780D01*
X281664824Y-31349780D02*
X290614824Y-31349780D01*
X290614824Y-31349780D02*
X290614824Y-31779780D01*
X290614824Y-34229780D02*
X290614824Y-35399780D01*
X290614824Y-34229780D02*
X293164824Y-34229780D01*
X290614824Y-35399780D02*
X285550000Y-35399780D01*
X293164824Y-31779780D02*
X290614824Y-31779780D01*
X293164824Y-34229780D02*
X293164824Y-31779780D01*
X279664824Y-33349780D02*
G75*
G02*
X281664824Y-31349780I2000004J-4D01*
G01*
X283255678Y-37239780D02*
G75*
G02*
X285550000Y-35399780I2294320J-510409D01*
G01*
%TO.C,C17*%
X62583575Y-43623394D02*
X65543575Y-43623394D01*
X65543575Y-45083394D01*
X62583575Y-45083394D01*
X62583575Y-43623394D01*
%TO.C,SW22*%
X124664824Y-53399780D02*
X124664824Y-55849780D01*
X124664824Y-55849780D02*
X127264824Y-55849780D01*
X127264824Y-53399780D02*
X124664824Y-53399780D01*
X127264824Y-53399780D02*
X127264824Y-52399780D01*
X127264824Y-55849780D02*
X127264824Y-56289780D01*
X127264824Y-56289780D02*
X130855678Y-56289780D01*
X129264824Y-50399780D02*
X138214824Y-50399780D01*
X138214824Y-50399780D02*
X138214824Y-50829780D01*
X138214824Y-53279780D02*
X138214824Y-54449780D01*
X138214824Y-53279780D02*
X140764824Y-53279780D01*
X138214824Y-54449780D02*
X133150000Y-54449780D01*
X140764824Y-50829780D02*
X138214824Y-50829780D01*
X140764824Y-53279780D02*
X140764824Y-50829780D01*
X127264824Y-52399780D02*
G75*
G02*
X129264824Y-50399780I2000004J-4D01*
G01*
X130855678Y-56289780D02*
G75*
G02*
X133150000Y-54449780I2294320J-510409D01*
G01*
%TO.C,D1*%
X174100000Y-39700000D02*
X174100000Y-42000000D01*
X174100000Y-42000000D02*
X178800000Y-42000000D01*
X178800000Y-39700000D02*
X174100000Y-39700000D01*
X178800000Y-39700000D02*
X178800000Y-42000000D01*
%TO.C,D80*%
X250300000Y-134950000D02*
X250300000Y-137250000D01*
X250300000Y-137250000D02*
X255000000Y-137250000D01*
X255000000Y-134950000D02*
X250300000Y-134950000D01*
X255000000Y-134950000D02*
X255000000Y-137250000D01*
%TO.C,SW44*%
X267539824Y-72449780D02*
X267539824Y-74899780D01*
X267539824Y-74899780D02*
X270139824Y-74899780D01*
X270139824Y-72449780D02*
X267539824Y-72449780D01*
X270139824Y-72449780D02*
X270139824Y-71449780D01*
X270139824Y-74899780D02*
X270139824Y-75339780D01*
X270139824Y-75339780D02*
X273730678Y-75339780D01*
X272139824Y-69449780D02*
X281089824Y-69449780D01*
X281089824Y-69449780D02*
X281089824Y-69879780D01*
X281089824Y-72329780D02*
X281089824Y-73499780D01*
X281089824Y-72329780D02*
X283639824Y-72329780D01*
X281089824Y-73499780D02*
X276025000Y-73499780D01*
X283639824Y-69879780D02*
X281089824Y-69879780D01*
X283639824Y-72329780D02*
X283639824Y-69879780D01*
X270139824Y-71449780D02*
G75*
G02*
X272139824Y-69449780I2000004J-4D01*
G01*
X273730678Y-75339780D02*
G75*
G02*
X276025000Y-73499780I2294320J-510409D01*
G01*
%TO.C,C9*%
X117050855Y-134465080D02*
X115763921Y-135752014D01*
X115113383Y-135101476D01*
X116400317Y-133814542D01*
X117050855Y-134465080D01*
%TO.C,SW52*%
X138952324Y-91499780D02*
X138952324Y-93949780D01*
X138952324Y-93949780D02*
X141552324Y-93949780D01*
X141552324Y-91499780D02*
X138952324Y-91499780D01*
X141552324Y-91499780D02*
X141552324Y-90499780D01*
X141552324Y-93949780D02*
X141552324Y-94389780D01*
X141552324Y-94389780D02*
X145143178Y-94389780D01*
X143552324Y-88499780D02*
X152502324Y-88499780D01*
X152502324Y-88499780D02*
X152502324Y-88929780D01*
X152502324Y-91379780D02*
X152502324Y-92549780D01*
X152502324Y-91379780D02*
X155052324Y-91379780D01*
X152502324Y-92549780D02*
X147437500Y-92549780D01*
X155052324Y-88929780D02*
X152502324Y-88929780D01*
X155052324Y-91379780D02*
X155052324Y-88929780D01*
X141552324Y-90499780D02*
G75*
G02*
X143552324Y-88499780I2000004J-4D01*
G01*
X145143178Y-94389780D02*
G75*
G02*
X147437500Y-92549780I2294320J-510409D01*
G01*
%TO.C,SW38*%
X153239824Y-72449780D02*
X153239824Y-74899780D01*
X153239824Y-74899780D02*
X155839824Y-74899780D01*
X155839824Y-72449780D02*
X153239824Y-72449780D01*
X155839824Y-72449780D02*
X155839824Y-71449780D01*
X155839824Y-74899780D02*
X155839824Y-75339780D01*
X155839824Y-75339780D02*
X159430678Y-75339780D01*
X157839824Y-69449780D02*
X166789824Y-69449780D01*
X166789824Y-69449780D02*
X166789824Y-69879780D01*
X166789824Y-72329780D02*
X166789824Y-73499780D01*
X166789824Y-72329780D02*
X169339824Y-72329780D01*
X166789824Y-73499780D02*
X161725000Y-73499780D01*
X169339824Y-69879780D02*
X166789824Y-69879780D01*
X169339824Y-72329780D02*
X169339824Y-69879780D01*
X155839824Y-71449780D02*
G75*
G02*
X157839824Y-69449780I2000004J-4D01*
G01*
X159430678Y-75339780D02*
G75*
G02*
X161725000Y-73499780I2294320J-510409D01*
G01*
%TO.C,SW56*%
X215152324Y-91499780D02*
X215152324Y-93949780D01*
X215152324Y-93949780D02*
X217752324Y-93949780D01*
X217752324Y-91499780D02*
X215152324Y-91499780D01*
X217752324Y-91499780D02*
X217752324Y-90499780D01*
X217752324Y-93949780D02*
X217752324Y-94389780D01*
X217752324Y-94389780D02*
X221343178Y-94389780D01*
X219752324Y-88499780D02*
X228702324Y-88499780D01*
X228702324Y-88499780D02*
X228702324Y-88929780D01*
X228702324Y-91379780D02*
X228702324Y-92549780D01*
X228702324Y-91379780D02*
X231252324Y-91379780D01*
X228702324Y-92549780D02*
X223637500Y-92549780D01*
X231252324Y-88929780D02*
X228702324Y-88929780D01*
X231252324Y-91379780D02*
X231252324Y-88929780D01*
X217752324Y-90499780D02*
G75*
G02*
X219752324Y-88499780I2000004J-4D01*
G01*
X221343178Y-94389780D02*
G75*
G02*
X223637500Y-92549780I2294320J-510409D01*
G01*
%TO.C,D83*%
X288400000Y-134950000D02*
X288400000Y-137250000D01*
X288400000Y-137250000D02*
X293100000Y-137250000D01*
X293100000Y-134950000D02*
X288400000Y-134950000D01*
X293100000Y-134950000D02*
X293100000Y-137250000D01*
%TO.C,D20*%
X231250000Y-58750000D02*
X231250000Y-61050000D01*
X231250000Y-61050000D02*
X235950000Y-61050000D01*
X235950000Y-58750000D02*
X231250000Y-58750000D01*
X235950000Y-58750000D02*
X235950000Y-61050000D01*
%TO.C,D28*%
X78850000Y-58750000D02*
X78850000Y-61050000D01*
X78850000Y-61050000D02*
X83550000Y-61050000D01*
X83550000Y-58750000D02*
X78850000Y-58750000D01*
X83550000Y-58750000D02*
X83550000Y-61050000D01*
%TO.C,D58*%
X207437500Y-96850000D02*
X207437500Y-99150000D01*
X207437500Y-99150000D02*
X212137500Y-99150000D01*
X212137500Y-96850000D02*
X207437500Y-96850000D01*
X212137500Y-96850000D02*
X212137500Y-99150000D01*
%TO.C,SW26*%
X200864824Y-53399780D02*
X200864824Y-55849780D01*
X200864824Y-55849780D02*
X203464824Y-55849780D01*
X203464824Y-53399780D02*
X200864824Y-53399780D01*
X203464824Y-53399780D02*
X203464824Y-52399780D01*
X203464824Y-55849780D02*
X203464824Y-56289780D01*
X203464824Y-56289780D02*
X207055678Y-56289780D01*
X205464824Y-50399780D02*
X214414824Y-50399780D01*
X214414824Y-50399780D02*
X214414824Y-50829780D01*
X214414824Y-53279780D02*
X214414824Y-54449780D01*
X214414824Y-53279780D02*
X216964824Y-53279780D01*
X214414824Y-54449780D02*
X209350000Y-54449780D01*
X216964824Y-50829780D02*
X214414824Y-50829780D01*
X216964824Y-53279780D02*
X216964824Y-50829780D01*
X203464824Y-52399780D02*
G75*
G02*
X205464824Y-50399780I2000004J-4D01*
G01*
X207055678Y-56289780D02*
G75*
G02*
X209350000Y-54449780I2294320J-510409D01*
G01*
%TO.C,C5*%
X105219048Y-132127749D02*
X107039048Y-132127749D01*
X107039048Y-133047749D01*
X105219048Y-133047749D01*
X105219048Y-132127749D01*
%TO.C,SW80*%
X238964824Y-129599780D02*
X238964824Y-132049780D01*
X238964824Y-132049780D02*
X241564824Y-132049780D01*
X241564824Y-129599780D02*
X238964824Y-129599780D01*
X241564824Y-129599780D02*
X241564824Y-128599780D01*
X241564824Y-132049780D02*
X241564824Y-132489780D01*
X241564824Y-132489780D02*
X245155678Y-132489780D01*
X243564824Y-126599780D02*
X252514824Y-126599780D01*
X252514824Y-126599780D02*
X252514824Y-127029780D01*
X252514824Y-129479780D02*
X252514824Y-130649780D01*
X252514824Y-129479780D02*
X255064824Y-129479780D01*
X252514824Y-130649780D02*
X247450000Y-130649780D01*
X255064824Y-127029780D02*
X252514824Y-127029780D01*
X255064824Y-129479780D02*
X255064824Y-127029780D01*
X241564824Y-128599780D02*
G75*
G02*
X243564824Y-126599780I2000004J-4D01*
G01*
X245155678Y-132489780D02*
G75*
G02*
X247450000Y-130649780I2294320J-510409D01*
G01*
%TO.C,SW54*%
X177052324Y-91499780D02*
X177052324Y-93949780D01*
X177052324Y-93949780D02*
X179652324Y-93949780D01*
X179652324Y-91499780D02*
X177052324Y-91499780D01*
X179652324Y-91499780D02*
X179652324Y-90499780D01*
X179652324Y-93949780D02*
X179652324Y-94389780D01*
X179652324Y-94389780D02*
X183243178Y-94389780D01*
X181652324Y-88499780D02*
X190602324Y-88499780D01*
X190602324Y-88499780D02*
X190602324Y-88929780D01*
X190602324Y-91379780D02*
X190602324Y-92549780D01*
X190602324Y-91379780D02*
X193152324Y-91379780D01*
X190602324Y-92549780D02*
X185537500Y-92549780D01*
X193152324Y-88929780D02*
X190602324Y-88929780D01*
X193152324Y-91379780D02*
X193152324Y-88929780D01*
X179652324Y-90499780D02*
G75*
G02*
X181652324Y-88499780I2000004J-4D01*
G01*
X183243178Y-94389780D02*
G75*
G02*
X185537500Y-92549780I2294320J-510409D01*
G01*
%TO.C,SW20*%
X86564824Y-53399780D02*
X86564824Y-55849780D01*
X86564824Y-55849780D02*
X89164824Y-55849780D01*
X89164824Y-53399780D02*
X86564824Y-53399780D01*
X89164824Y-53399780D02*
X89164824Y-52399780D01*
X89164824Y-55849780D02*
X89164824Y-56289780D01*
X89164824Y-56289780D02*
X92755678Y-56289780D01*
X91164824Y-50399780D02*
X100114824Y-50399780D01*
X100114824Y-50399780D02*
X100114824Y-50829780D01*
X100114824Y-53279780D02*
X100114824Y-54449780D01*
X100114824Y-53279780D02*
X102664824Y-53279780D01*
X100114824Y-54449780D02*
X95050000Y-54449780D01*
X102664824Y-50829780D02*
X100114824Y-50829780D01*
X102664824Y-53279780D02*
X102664824Y-50829780D01*
X89164824Y-52399780D02*
G75*
G02*
X91164824Y-50399780I2000004J-4D01*
G01*
X92755678Y-56289780D02*
G75*
G02*
X95050000Y-54449780I2294320J-510409D01*
G01*
%TO.C,D16*%
X193150000Y-39700000D02*
X193150000Y-42000000D01*
X193150000Y-42000000D02*
X197850000Y-42000000D01*
X197850000Y-39700000D02*
X193150000Y-39700000D01*
X197850000Y-39700000D02*
X197850000Y-42000000D01*
%TO.C,D73*%
X307450000Y-115900000D02*
X307450000Y-118200000D01*
X307450000Y-118200000D02*
X312150000Y-118200000D01*
X312150000Y-115900000D02*
X307450000Y-115900000D01*
X312150000Y-115900000D02*
X312150000Y-118200000D01*
%TO.C,D40*%
X69325000Y-77800000D02*
X69325000Y-80100000D01*
X69325000Y-80100000D02*
X74025000Y-80100000D01*
X74025000Y-77800000D02*
X69325000Y-77800000D01*
X74025000Y-77800000D02*
X74025000Y-80100000D01*
%TO.C,D33*%
X202675000Y-77800000D02*
X202675000Y-80100000D01*
X202675000Y-80100000D02*
X207375000Y-80100000D01*
X207375000Y-77800000D02*
X202675000Y-77800000D01*
X207375000Y-77800000D02*
X207375000Y-80100000D01*
%TO.C,C6*%
X104169587Y-133072028D02*
X107129587Y-133072028D01*
X107129587Y-134532028D01*
X104169587Y-134532028D01*
X104169587Y-133072028D01*
%TO.C,SW70*%
X224677324Y-110549780D02*
X224677324Y-112999780D01*
X224677324Y-112999780D02*
X227277324Y-112999780D01*
X227277324Y-110549780D02*
X224677324Y-110549780D01*
X227277324Y-110549780D02*
X227277324Y-109549780D01*
X227277324Y-112999780D02*
X227277324Y-113439780D01*
X227277324Y-113439780D02*
X230868178Y-113439780D01*
X229277324Y-107549780D02*
X238227324Y-107549780D01*
X238227324Y-107549780D02*
X238227324Y-107979780D01*
X238227324Y-110429780D02*
X238227324Y-111599780D01*
X238227324Y-110429780D02*
X240777324Y-110429780D01*
X238227324Y-111599780D02*
X233162500Y-111599780D01*
X240777324Y-107979780D02*
X238227324Y-107979780D01*
X240777324Y-110429780D02*
X240777324Y-107979780D01*
X227277324Y-109549780D02*
G75*
G02*
X229277324Y-107549780I2000004J-4D01*
G01*
X230868178Y-113439780D02*
G75*
G02*
X233162500Y-111599780I2294320J-510409D01*
G01*
%TO.C,SW37*%
X134189824Y-72449780D02*
X134189824Y-74899780D01*
X134189824Y-74899780D02*
X136789824Y-74899780D01*
X136789824Y-72449780D02*
X134189824Y-72449780D01*
X136789824Y-72449780D02*
X136789824Y-71449780D01*
X136789824Y-74899780D02*
X136789824Y-75339780D01*
X136789824Y-75339780D02*
X140380678Y-75339780D01*
X138789824Y-69449780D02*
X147739824Y-69449780D01*
X147739824Y-69449780D02*
X147739824Y-69879780D01*
X147739824Y-72329780D02*
X147739824Y-73499780D01*
X147739824Y-72329780D02*
X150289824Y-72329780D01*
X147739824Y-73499780D02*
X142675000Y-73499780D01*
X150289824Y-69879780D02*
X147739824Y-69879780D01*
X150289824Y-72329780D02*
X150289824Y-69879780D01*
X136789824Y-71449780D02*
G75*
G02*
X138789824Y-69449780I2000004J-4D01*
G01*
X140380678Y-75339780D02*
G75*
G02*
X142675000Y-73499780I2294320J-510409D01*
G01*
%TO.C,D62*%
X178862500Y-115900000D02*
X178862500Y-118200000D01*
X178862500Y-118200000D02*
X183562500Y-118200000D01*
X183562500Y-115900000D02*
X178862500Y-115900000D01*
X183562500Y-115900000D02*
X183562500Y-118200000D01*
%TO.C,SW85*%
X127200000Y-123950000D02*
X127200000Y-128050000D01*
X127200000Y-128050000D02*
X137000000Y-128050000D01*
X137000000Y-123950000D02*
X127200000Y-123950000D01*
X137000000Y-128050000D02*
X137000000Y-123950000D01*
%TO.C,D25*%
X136000000Y-58750000D02*
X136000000Y-61050000D01*
X136000000Y-61050000D02*
X140700000Y-61050000D01*
X140700000Y-58750000D02*
X136000000Y-58750000D01*
X140700000Y-58750000D02*
X140700000Y-61050000D01*
%TO.C,D48*%
X169337500Y-96850000D02*
X169337500Y-99150000D01*
X169337500Y-99150000D02*
X174037500Y-99150000D01*
X174037500Y-96850000D02*
X169337500Y-96850000D01*
X174037500Y-96850000D02*
X174037500Y-99150000D01*
%TO.C,D70*%
X255062500Y-115900000D02*
X255062500Y-118200000D01*
X255062500Y-118200000D02*
X259762500Y-118200000D01*
X259762500Y-115900000D02*
X255062500Y-115900000D01*
X259762500Y-115900000D02*
X259762500Y-118200000D01*
%TO.C,SW35*%
X96089824Y-72449780D02*
X96089824Y-74899780D01*
X96089824Y-74899780D02*
X98689824Y-74899780D01*
X98689824Y-72449780D02*
X96089824Y-72449780D01*
X98689824Y-72449780D02*
X98689824Y-71449780D01*
X98689824Y-74899780D02*
X98689824Y-75339780D01*
X98689824Y-75339780D02*
X102280678Y-75339780D01*
X100689824Y-69449780D02*
X109639824Y-69449780D01*
X109639824Y-69449780D02*
X109639824Y-69879780D01*
X109639824Y-72329780D02*
X109639824Y-73499780D01*
X109639824Y-72329780D02*
X112189824Y-72329780D01*
X109639824Y-73499780D02*
X104575000Y-73499780D01*
X112189824Y-69879780D02*
X109639824Y-69879780D01*
X112189824Y-72329780D02*
X112189824Y-69879780D01*
X98689824Y-71449780D02*
G75*
G02*
X100689824Y-69449780I2000004J-4D01*
G01*
X102280678Y-75339780D02*
G75*
G02*
X104575000Y-73499780I2294320J-510409D01*
G01*
%TO.C,D36*%
X145525000Y-77800000D02*
X145525000Y-80100000D01*
X145525000Y-80100000D02*
X150225000Y-80100000D01*
X150225000Y-77800000D02*
X145525000Y-77800000D01*
X150225000Y-77800000D02*
X150225000Y-80100000D01*
%TO.C,SW11*%
X219914824Y-34349780D02*
X219914824Y-36799780D01*
X219914824Y-36799780D02*
X222514824Y-36799780D01*
X222514824Y-34349780D02*
X219914824Y-34349780D01*
X222514824Y-34349780D02*
X222514824Y-33349780D01*
X222514824Y-36799780D02*
X222514824Y-37239780D01*
X222514824Y-37239780D02*
X226105678Y-37239780D01*
X224514824Y-31349780D02*
X233464824Y-31349780D01*
X233464824Y-31349780D02*
X233464824Y-31779780D01*
X233464824Y-34229780D02*
X233464824Y-35399780D01*
X233464824Y-34229780D02*
X236014824Y-34229780D01*
X233464824Y-35399780D02*
X228400000Y-35399780D01*
X236014824Y-31779780D02*
X233464824Y-31779780D01*
X236014824Y-34229780D02*
X236014824Y-31779780D01*
X222514824Y-33349780D02*
G75*
G02*
X224514824Y-31349780I2000004J-4D01*
G01*
X226105678Y-37239780D02*
G75*
G02*
X228400000Y-35399780I2294320J-510409D01*
G01*
%TO.C,SW36*%
X115139824Y-72449780D02*
X115139824Y-74899780D01*
X115139824Y-74899780D02*
X117739824Y-74899780D01*
X117739824Y-72449780D02*
X115139824Y-72449780D01*
X117739824Y-72449780D02*
X117739824Y-71449780D01*
X117739824Y-74899780D02*
X117739824Y-75339780D01*
X117739824Y-75339780D02*
X121330678Y-75339780D01*
X119739824Y-69449780D02*
X128689824Y-69449780D01*
X128689824Y-69449780D02*
X128689824Y-69879780D01*
X128689824Y-72329780D02*
X128689824Y-73499780D01*
X128689824Y-72329780D02*
X131239824Y-72329780D01*
X128689824Y-73499780D02*
X123625000Y-73499780D01*
X131239824Y-69879780D02*
X128689824Y-69879780D01*
X131239824Y-72329780D02*
X131239824Y-69879780D01*
X117739824Y-71449780D02*
G75*
G02*
X119739824Y-69449780I2000004J-4D01*
G01*
X121330678Y-75339780D02*
G75*
G02*
X123625000Y-73499780I2294320J-510409D01*
G01*
%TO.C,D59*%
X295543750Y-96850000D02*
X295543750Y-99150000D01*
X295543750Y-99150000D02*
X300243750Y-99150000D01*
X300243750Y-96850000D02*
X295543750Y-96850000D01*
X300243750Y-96850000D02*
X300243750Y-99150000D01*
%TO.C,SW60*%
X315164824Y-91499780D02*
X315164824Y-93949780D01*
X315164824Y-93949780D02*
X317764824Y-93949780D01*
X317764824Y-91499780D02*
X315164824Y-91499780D01*
X317764824Y-91499780D02*
X317764824Y-90499780D01*
X317764824Y-93949780D02*
X317764824Y-94389780D01*
X317764824Y-94389780D02*
X321355678Y-94389780D01*
X319764824Y-88499780D02*
X328714824Y-88499780D01*
X328714824Y-88499780D02*
X328714824Y-88929780D01*
X328714824Y-91379780D02*
X328714824Y-92549780D01*
X328714824Y-91379780D02*
X331264824Y-91379780D01*
X328714824Y-92549780D02*
X323650000Y-92549780D01*
X331264824Y-88929780D02*
X328714824Y-88929780D01*
X331264824Y-91379780D02*
X331264824Y-88929780D01*
X317764824Y-90499780D02*
G75*
G02*
X319764824Y-88499780I2000004J-4D01*
G01*
X321355678Y-94389780D02*
G75*
G02*
X323650000Y-92549780I2294320J-510409D01*
G01*
%TO.C,D55*%
X264587500Y-96850000D02*
X264587500Y-99150000D01*
X264587500Y-99150000D02*
X269287500Y-99150000D01*
X269287500Y-96850000D02*
X264587500Y-96850000D01*
X269287500Y-96850000D02*
X269287500Y-99150000D01*
%TO.C,SW9*%
X181814824Y-34349780D02*
X181814824Y-36799780D01*
X181814824Y-36799780D02*
X184414824Y-36799780D01*
X184414824Y-34349780D02*
X181814824Y-34349780D01*
X184414824Y-34349780D02*
X184414824Y-33349780D01*
X184414824Y-36799780D02*
X184414824Y-37239780D01*
X184414824Y-37239780D02*
X188005678Y-37239780D01*
X186414824Y-31349780D02*
X195364824Y-31349780D01*
X195364824Y-31349780D02*
X195364824Y-31779780D01*
X195364824Y-34229780D02*
X195364824Y-35399780D01*
X195364824Y-34229780D02*
X197914824Y-34229780D01*
X195364824Y-35399780D02*
X190300000Y-35399780D01*
X197914824Y-31779780D02*
X195364824Y-31779780D01*
X197914824Y-34229780D02*
X197914824Y-31779780D01*
X184414824Y-33349780D02*
G75*
G02*
X186414824Y-31349780I2000004J-4D01*
G01*
X188005678Y-37239780D02*
G75*
G02*
X190300000Y-35399780I2294320J-510409D01*
G01*
%TO.C,SW13*%
X258014824Y-34349780D02*
X258014824Y-36799780D01*
X258014824Y-36799780D02*
X260614824Y-36799780D01*
X260614824Y-34349780D02*
X258014824Y-34349780D01*
X260614824Y-34349780D02*
X260614824Y-33349780D01*
X260614824Y-36799780D02*
X260614824Y-37239780D01*
X260614824Y-37239780D02*
X264205678Y-37239780D01*
X262614824Y-31349780D02*
X271564824Y-31349780D01*
X271564824Y-31349780D02*
X271564824Y-31779780D01*
X271564824Y-34229780D02*
X271564824Y-35399780D01*
X271564824Y-34229780D02*
X274114824Y-34229780D01*
X271564824Y-35399780D02*
X266500000Y-35399780D01*
X274114824Y-31779780D02*
X271564824Y-31779780D01*
X274114824Y-34229780D02*
X274114824Y-31779780D01*
X260614824Y-33349780D02*
G75*
G02*
X262614824Y-31349780I2000004J-4D01*
G01*
X264205678Y-37239780D02*
G75*
G02*
X266500000Y-35399780I2294320J-510409D01*
G01*
%TO.C,D38*%
X107425000Y-77800000D02*
X107425000Y-80100000D01*
X107425000Y-80100000D02*
X112125000Y-80100000D01*
X112125000Y-77800000D02*
X107425000Y-77800000D01*
X112125000Y-77800000D02*
X112125000Y-80100000D01*
%TO.C,D21*%
X212200000Y-58750000D02*
X212200000Y-61050000D01*
X212200000Y-61050000D02*
X216900000Y-61050000D01*
X216900000Y-58750000D02*
X212200000Y-58750000D01*
X216900000Y-58750000D02*
X216900000Y-61050000D01*
%TO.C,C15*%
X109734622Y-142842523D02*
X110654622Y-142842523D01*
X110654622Y-144662523D01*
X109734622Y-144662523D01*
X109734622Y-142842523D01*
%TO.C,D63*%
X159812500Y-115900000D02*
X159812500Y-118200000D01*
X159812500Y-118200000D02*
X164512500Y-118200000D01*
X164512500Y-115900000D02*
X159812500Y-115900000D01*
X164512500Y-115900000D02*
X164512500Y-118200000D01*
%TO.C,R2*%
X126040000Y-125090000D02*
X126960000Y-125090000D01*
X126960000Y-126910000D01*
X126040000Y-126910000D01*
X126040000Y-125090000D01*
%TO.C,SW45*%
X291352324Y-72449780D02*
X291352324Y-74899780D01*
X291352324Y-74899780D02*
X293952324Y-74899780D01*
X293952324Y-72449780D02*
X291352324Y-72449780D01*
X293952324Y-72449780D02*
X293952324Y-71449780D01*
X293952324Y-74899780D02*
X293952324Y-75339780D01*
X293952324Y-75339780D02*
X297543178Y-75339780D01*
X295952324Y-69449780D02*
X304902324Y-69449780D01*
X304902324Y-69449780D02*
X304902324Y-69879780D01*
X304902324Y-72329780D02*
X304902324Y-73499780D01*
X304902324Y-72329780D02*
X307452324Y-72329780D01*
X304902324Y-73499780D02*
X299837500Y-73499780D01*
X307452324Y-69879780D02*
X304902324Y-69879780D01*
X307452324Y-72329780D02*
X307452324Y-69879780D01*
X293952324Y-71449780D02*
G75*
G02*
X295952324Y-69449780I2000004J-4D01*
G01*
X297543178Y-75339780D02*
G75*
G02*
X299837500Y-73499780I2294320J-510409D01*
G01*
%TO.C,SW81*%
X258014824Y-129599780D02*
X258014824Y-132049780D01*
X258014824Y-132049780D02*
X260614824Y-132049780D01*
X260614824Y-129599780D02*
X258014824Y-129599780D01*
X260614824Y-129599780D02*
X260614824Y-128599780D01*
X260614824Y-132049780D02*
X260614824Y-132489780D01*
X260614824Y-132489780D02*
X264205678Y-132489780D01*
X262614824Y-126599780D02*
X271564824Y-126599780D01*
X271564824Y-126599780D02*
X271564824Y-127029780D01*
X271564824Y-129479780D02*
X271564824Y-130649780D01*
X271564824Y-129479780D02*
X274114824Y-129479780D01*
X271564824Y-130649780D02*
X266500000Y-130649780D01*
X274114824Y-127029780D02*
X271564824Y-127029780D01*
X274114824Y-129479780D02*
X274114824Y-127029780D01*
X260614824Y-128599780D02*
G75*
G02*
X262614824Y-126599780I2000004J-4D01*
G01*
X264205678Y-132489780D02*
G75*
G02*
X266500000Y-130649780I2294320J-510409D01*
G01*
%TO.C,SW12*%
X238964824Y-34349780D02*
X238964824Y-36799780D01*
X238964824Y-36799780D02*
X241564824Y-36799780D01*
X241564824Y-34349780D02*
X238964824Y-34349780D01*
X241564824Y-34349780D02*
X241564824Y-33349780D01*
X241564824Y-36799780D02*
X241564824Y-37239780D01*
X241564824Y-37239780D02*
X245155678Y-37239780D01*
X243564824Y-31349780D02*
X252514824Y-31349780D01*
X252514824Y-31349780D02*
X252514824Y-31779780D01*
X252514824Y-34229780D02*
X252514824Y-35399780D01*
X252514824Y-34229780D02*
X255064824Y-34229780D01*
X252514824Y-35399780D02*
X247450000Y-35399780D01*
X255064824Y-31779780D02*
X252514824Y-31779780D01*
X255064824Y-34229780D02*
X255064824Y-31779780D01*
X241564824Y-33349780D02*
G75*
G02*
X243564824Y-31349780I2000004J-4D01*
G01*
X245155678Y-37239780D02*
G75*
G02*
X247450000Y-35399780I2294320J-510409D01*
G01*
%TO.C,D13*%
X250300000Y-39700000D02*
X250300000Y-42000000D01*
X250300000Y-42000000D02*
X255000000Y-42000000D01*
X255000000Y-39700000D02*
X250300000Y-39700000D01*
X255000000Y-39700000D02*
X255000000Y-42000000D01*
%TO.C,SW58*%
X253252324Y-91499780D02*
X253252324Y-93949780D01*
X253252324Y-93949780D02*
X255852324Y-93949780D01*
X255852324Y-91499780D02*
X253252324Y-91499780D01*
X255852324Y-91499780D02*
X255852324Y-90499780D01*
X255852324Y-93949780D02*
X255852324Y-94389780D01*
X255852324Y-94389780D02*
X259443178Y-94389780D01*
X257852324Y-88499780D02*
X266802324Y-88499780D01*
X266802324Y-88499780D02*
X266802324Y-88929780D01*
X266802324Y-91379780D02*
X266802324Y-92549780D01*
X266802324Y-91379780D02*
X269352324Y-91379780D01*
X266802324Y-92549780D02*
X261737500Y-92549780D01*
X269352324Y-88929780D02*
X266802324Y-88929780D01*
X269352324Y-91379780D02*
X269352324Y-88929780D01*
X255852324Y-90499780D02*
G75*
G02*
X257852324Y-88499780I2000004J-4D01*
G01*
X259443178Y-94389780D02*
G75*
G02*
X261737500Y-92549780I2294320J-510409D01*
G01*
%TO.C,SW79*%
X219914824Y-129599780D02*
X219914824Y-132049780D01*
X219914824Y-132049780D02*
X222514824Y-132049780D01*
X222514824Y-129599780D02*
X219914824Y-129599780D01*
X222514824Y-129599780D02*
X222514824Y-128599780D01*
X222514824Y-132049780D02*
X222514824Y-132489780D01*
X222514824Y-132489780D02*
X226105678Y-132489780D01*
X224514824Y-126599780D02*
X233464824Y-126599780D01*
X233464824Y-126599780D02*
X233464824Y-127029780D01*
X233464824Y-129479780D02*
X233464824Y-130649780D01*
X233464824Y-129479780D02*
X236014824Y-129479780D01*
X233464824Y-130649780D02*
X228400000Y-130649780D01*
X236014824Y-127029780D02*
X233464824Y-127029780D01*
X236014824Y-129479780D02*
X236014824Y-127029780D01*
X222514824Y-128599780D02*
G75*
G02*
X224514824Y-126599780I2000004J-4D01*
G01*
X226105678Y-132489780D02*
G75*
G02*
X228400000Y-130649780I2294320J-510409D01*
G01*
%TO.C,SW47*%
X36558574Y-91499780D02*
X36558574Y-93949780D01*
X36558574Y-93949780D02*
X39158574Y-93949780D01*
X39158574Y-91499780D02*
X36558574Y-91499780D01*
X39158574Y-91499780D02*
X39158574Y-90499780D01*
X39158574Y-93949780D02*
X39158574Y-94389780D01*
X39158574Y-94389780D02*
X42749428Y-94389780D01*
X41158574Y-88499780D02*
X50108574Y-88499780D01*
X50108574Y-88499780D02*
X50108574Y-88929780D01*
X50108574Y-91379780D02*
X50108574Y-92549780D01*
X50108574Y-91379780D02*
X52658574Y-91379780D01*
X50108574Y-92549780D02*
X45043750Y-92549780D01*
X52658574Y-88929780D02*
X50108574Y-88929780D01*
X52658574Y-91379780D02*
X52658574Y-88929780D01*
X39158574Y-90499780D02*
G75*
G02*
X41158574Y-88499780I2000004J-4D01*
G01*
X42749428Y-94389780D02*
G75*
G02*
X45043750Y-92549780I2294320J-510409D01*
G01*
%TO.C,SW24*%
X162764824Y-53399780D02*
X162764824Y-55849780D01*
X162764824Y-55849780D02*
X165364824Y-55849780D01*
X165364824Y-53399780D02*
X162764824Y-53399780D01*
X165364824Y-53399780D02*
X165364824Y-52399780D01*
X165364824Y-55849780D02*
X165364824Y-56289780D01*
X165364824Y-56289780D02*
X168955678Y-56289780D01*
X167364824Y-50399780D02*
X176314824Y-50399780D01*
X176314824Y-50399780D02*
X176314824Y-50829780D01*
X176314824Y-53279780D02*
X176314824Y-54449780D01*
X176314824Y-53279780D02*
X178864824Y-53279780D01*
X176314824Y-54449780D02*
X171250000Y-54449780D01*
X178864824Y-50829780D02*
X176314824Y-50829780D01*
X178864824Y-53279780D02*
X178864824Y-50829780D01*
X165364824Y-52399780D02*
G75*
G02*
X167364824Y-50399780I2000004J-4D01*
G01*
X168955678Y-56289780D02*
G75*
G02*
X171250000Y-54449780I2294320J-510409D01*
G01*
%TO.C,C7*%
X111591127Y-131102411D02*
X114551127Y-131102411D01*
X114551127Y-132562411D01*
X111591127Y-132562411D01*
X111591127Y-131102411D01*
%TO.C,SW50*%
X100852324Y-91499780D02*
X100852324Y-93949780D01*
X100852324Y-93949780D02*
X103452324Y-93949780D01*
X103452324Y-91499780D02*
X100852324Y-91499780D01*
X103452324Y-91499780D02*
X103452324Y-90499780D01*
X103452324Y-93949780D02*
X103452324Y-94389780D01*
X103452324Y-94389780D02*
X107043178Y-94389780D01*
X105452324Y-88499780D02*
X114402324Y-88499780D01*
X114402324Y-88499780D02*
X114402324Y-88929780D01*
X114402324Y-91379780D02*
X114402324Y-92549780D01*
X114402324Y-91379780D02*
X116952324Y-91379780D01*
X114402324Y-92549780D02*
X109337500Y-92549780D01*
X116952324Y-88929780D02*
X114402324Y-88929780D01*
X116952324Y-91379780D02*
X116952324Y-88929780D01*
X103452324Y-90499780D02*
G75*
G02*
X105452324Y-88499780I2000004J-4D01*
G01*
X107043178Y-94389780D02*
G75*
G02*
X109337500Y-92549780I2294320J-510409D01*
G01*
%TO.C,D71*%
X236012500Y-115900000D02*
X236012500Y-118200000D01*
X236012500Y-118200000D02*
X240712500Y-118200000D01*
X240712500Y-115900000D02*
X236012500Y-115900000D01*
X240712500Y-115900000D02*
X240712500Y-118200000D01*
%TO.C,D19*%
X250300000Y-58750000D02*
X250300000Y-61050000D01*
X250300000Y-61050000D02*
X255000000Y-61050000D01*
X255000000Y-58750000D02*
X250300000Y-58750000D01*
X255000000Y-58750000D02*
X255000000Y-61050000D01*
%TO.C,C8*%
X56245000Y-44270000D02*
X59205000Y-44270000D01*
X59205000Y-45730000D01*
X56245000Y-45730000D01*
X56245000Y-44270000D01*
%TO.C,J2*%
X58530000Y-22895000D02*
X68670000Y-22895000D01*
X58530000Y-31325000D02*
X58530000Y-22895000D01*
X68670000Y-22895000D02*
X68670000Y-31325000D01*
X68670000Y-31325000D02*
X58530000Y-31325000D01*
%TO.C,SW6*%
X124664824Y-34349780D02*
X124664824Y-36799780D01*
X124664824Y-36799780D02*
X127264824Y-36799780D01*
X127264824Y-34349780D02*
X124664824Y-34349780D01*
X127264824Y-34349780D02*
X127264824Y-33349780D01*
X127264824Y-36799780D02*
X127264824Y-37239780D01*
X127264824Y-37239780D02*
X130855678Y-37239780D01*
X129264824Y-31349780D02*
X138214824Y-31349780D01*
X138214824Y-31349780D02*
X138214824Y-31779780D01*
X138214824Y-34229780D02*
X138214824Y-35399780D01*
X138214824Y-34229780D02*
X140764824Y-34229780D01*
X138214824Y-35399780D02*
X133150000Y-35399780D01*
X140764824Y-31779780D02*
X138214824Y-31779780D01*
X140764824Y-34229780D02*
X140764824Y-31779780D01*
X127264824Y-33349780D02*
G75*
G02*
X129264824Y-31349780I2000004J-4D01*
G01*
X130855678Y-37239780D02*
G75*
G02*
X133150000Y-35399780I2294320J-510409D01*
G01*
%TO.C,D41*%
X45512500Y-77800000D02*
X45512500Y-80100000D01*
X45512500Y-80100000D02*
X50212500Y-80100000D01*
X50212500Y-77800000D02*
X45512500Y-77800000D01*
X50212500Y-77800000D02*
X50212500Y-80100000D01*
%TO.C,U2*%
X116350000Y-126020000D02*
X116350000Y-130980000D01*
X116350000Y-130980000D02*
X118100000Y-130980000D01*
X118100000Y-125600000D02*
X118100000Y-126020000D01*
X118100000Y-126020000D02*
X116350000Y-126020000D01*
X118100000Y-130980000D02*
X118100000Y-131400000D01*
X118100000Y-131400000D02*
X123900000Y-131400000D01*
X123900000Y-125600000D02*
X118100000Y-125600000D01*
X123900000Y-126020000D02*
X123900000Y-125600000D01*
X123900000Y-130980000D02*
X125650000Y-130980000D01*
X123900000Y-131400000D02*
X123900000Y-130980000D01*
X125650000Y-126020000D02*
X123900000Y-126020000D01*
X125650000Y-130980000D02*
X125650000Y-126020000D01*
%TO.C,R6*%
X65460995Y-34345271D02*
X66380995Y-34345271D01*
X66380995Y-36165271D01*
X65460995Y-36165271D01*
X65460995Y-34345271D01*
%TO.C,C10*%
X115110000Y-138540000D02*
X116930000Y-138540000D01*
X116930000Y-139460000D01*
X115110000Y-139460000D01*
X115110000Y-138540000D01*
%TO.C,D4*%
X116950000Y-39700000D02*
X116950000Y-42000000D01*
X116950000Y-42000000D02*
X121650000Y-42000000D01*
X121650000Y-39700000D02*
X116950000Y-39700000D01*
X121650000Y-39700000D02*
X121650000Y-42000000D01*
%TO.C,D44*%
X302687500Y-77800000D02*
X302687500Y-80100000D01*
X302687500Y-80100000D02*
X307387500Y-80100000D01*
X307387500Y-77800000D02*
X302687500Y-77800000D01*
X307387500Y-77800000D02*
X307387500Y-80100000D01*
%TO.C,D60*%
X326500000Y-96850000D02*
X326500000Y-99150000D01*
X326500000Y-99150000D02*
X331200000Y-99150000D01*
X331200000Y-96850000D02*
X326500000Y-96850000D01*
X331200000Y-96850000D02*
X331200000Y-99150000D01*
%TO.C,D52*%
X93137500Y-96850000D02*
X93137500Y-99150000D01*
X93137500Y-99150000D02*
X97837500Y-99150000D01*
X97837500Y-96850000D02*
X93137500Y-96850000D01*
X97837500Y-96850000D02*
X97837500Y-99150000D01*
%TO.C,C13*%
X107540000Y-131610000D02*
X108460000Y-131610000D01*
X108460000Y-133430000D01*
X107540000Y-133430000D01*
X107540000Y-131610000D01*
%TO.C,SW43*%
X248489824Y-72449780D02*
X248489824Y-74899780D01*
X248489824Y-74899780D02*
X251089824Y-74899780D01*
X251089824Y-72449780D02*
X248489824Y-72449780D01*
X251089824Y-72449780D02*
X251089824Y-71449780D01*
X251089824Y-74899780D02*
X251089824Y-75339780D01*
X251089824Y-75339780D02*
X254680678Y-75339780D01*
X253089824Y-69449780D02*
X262039824Y-69449780D01*
X262039824Y-69449780D02*
X262039824Y-69879780D01*
X262039824Y-72329780D02*
X262039824Y-73499780D01*
X262039824Y-72329780D02*
X264589824Y-72329780D01*
X262039824Y-73499780D02*
X256975000Y-73499780D01*
X264589824Y-69879780D02*
X262039824Y-69879780D01*
X264589824Y-72329780D02*
X264589824Y-69879780D01*
X251089824Y-71449780D02*
G75*
G02*
X253089824Y-69449780I2000004J-4D01*
G01*
X254680678Y-75339780D02*
G75*
G02*
X256975000Y-73499780I2294320J-510409D01*
G01*
%TO.C,D14*%
X231250000Y-39700000D02*
X231250000Y-42000000D01*
X231250000Y-42000000D02*
X235950000Y-42000000D01*
X235950000Y-39700000D02*
X231250000Y-39700000D01*
X235950000Y-39700000D02*
X235950000Y-42000000D01*
%TO.C,D8*%
X40750000Y-39700000D02*
X40750000Y-42000000D01*
X40750000Y-42000000D02*
X45450000Y-42000000D01*
X45450000Y-39700000D02*
X40750000Y-39700000D01*
X45450000Y-39700000D02*
X45450000Y-42000000D01*
%TO.C,SW63*%
X91327324Y-110549780D02*
X91327324Y-112999780D01*
X91327324Y-112999780D02*
X93927324Y-112999780D01*
X93927324Y-110549780D02*
X91327324Y-110549780D01*
X93927324Y-110549780D02*
X93927324Y-109549780D01*
X93927324Y-112999780D02*
X93927324Y-113439780D01*
X93927324Y-113439780D02*
X97518178Y-113439780D01*
X95927324Y-107549780D02*
X104877324Y-107549780D01*
X104877324Y-107549780D02*
X104877324Y-107979780D01*
X104877324Y-110429780D02*
X104877324Y-111599780D01*
X104877324Y-110429780D02*
X107427324Y-110429780D01*
X104877324Y-111599780D02*
X99812500Y-111599780D01*
X107427324Y-107979780D02*
X104877324Y-107979780D01*
X107427324Y-110429780D02*
X107427324Y-107979780D01*
X93927324Y-109549780D02*
G75*
G02*
X95927324Y-107549780I2000004J-4D01*
G01*
X97518178Y-113439780D02*
G75*
G02*
X99812500Y-111599780I2294320J-510409D01*
G01*
%TO.C,D66*%
X102662500Y-115900000D02*
X102662500Y-118200000D01*
X102662500Y-118200000D02*
X107362500Y-118200000D01*
X107362500Y-115900000D02*
X102662500Y-115900000D01*
X107362500Y-115900000D02*
X107362500Y-118200000D01*
%TO.C,SW55*%
X196102324Y-91499780D02*
X196102324Y-93949780D01*
X196102324Y-93949780D02*
X198702324Y-93949780D01*
X198702324Y-91499780D02*
X196102324Y-91499780D01*
X198702324Y-91499780D02*
X198702324Y-90499780D01*
X198702324Y-93949780D02*
X198702324Y-94389780D01*
X198702324Y-94389780D02*
X202293178Y-94389780D01*
X200702324Y-88499780D02*
X209652324Y-88499780D01*
X209652324Y-88499780D02*
X209652324Y-88929780D01*
X209652324Y-91379780D02*
X209652324Y-92549780D01*
X209652324Y-91379780D02*
X212202324Y-91379780D01*
X209652324Y-92549780D02*
X204587500Y-92549780D01*
X212202324Y-88929780D02*
X209652324Y-88929780D01*
X212202324Y-91379780D02*
X212202324Y-88929780D01*
X198702324Y-90499780D02*
G75*
G02*
X200702324Y-88499780I2000004J-4D01*
G01*
X202293178Y-94389780D02*
G75*
G02*
X204587500Y-92549780I2294320J-510409D01*
G01*
%TO.C,R1*%
X110719769Y-142840321D02*
X111639769Y-142840321D01*
X111639769Y-144660321D01*
X110719769Y-144660321D01*
X110719769Y-142840321D01*
%TO.C,SW59*%
X284208574Y-91499780D02*
X284208574Y-93949780D01*
X284208574Y-93949780D02*
X286808574Y-93949780D01*
X286808574Y-91499780D02*
X284208574Y-91499780D01*
X286808574Y-91499780D02*
X286808574Y-90499780D01*
X286808574Y-93949780D02*
X286808574Y-94389780D01*
X286808574Y-94389780D02*
X290399428Y-94389780D01*
X288808574Y-88499780D02*
X297758574Y-88499780D01*
X297758574Y-88499780D02*
X297758574Y-88929780D01*
X297758574Y-91379780D02*
X297758574Y-92549780D01*
X297758574Y-91379780D02*
X300308574Y-91379780D01*
X297758574Y-92549780D02*
X292693750Y-92549780D01*
X300308574Y-88929780D02*
X297758574Y-88929780D01*
X300308574Y-91379780D02*
X300308574Y-88929780D01*
X286808574Y-90499780D02*
G75*
G02*
X288808574Y-88499780I2000004J-4D01*
G01*
X290399428Y-94389780D02*
G75*
G02*
X292693750Y-92549780I2294320J-510409D01*
G01*
%TO.C,D82*%
X307450000Y-134950000D02*
X307450000Y-137250000D01*
X307450000Y-137250000D02*
X312150000Y-137250000D01*
X312150000Y-134950000D02*
X307450000Y-134950000D01*
X312150000Y-134950000D02*
X312150000Y-137250000D01*
%TO.C,D77*%
X90756250Y-134950000D02*
X90756250Y-137250000D01*
X90756250Y-137250000D02*
X95456250Y-137250000D01*
X95456250Y-134950000D02*
X90756250Y-134950000D01*
X95456250Y-134950000D02*
X95456250Y-137250000D01*
%TO.C,D34*%
X183625000Y-77800000D02*
X183625000Y-80100000D01*
X183625000Y-80100000D02*
X188325000Y-80100000D01*
X188325000Y-77800000D02*
X183625000Y-77800000D01*
X188325000Y-77800000D02*
X188325000Y-80100000D01*
%TO.C,SW57*%
X234202324Y-91499780D02*
X234202324Y-93949780D01*
X234202324Y-93949780D02*
X236802324Y-93949780D01*
X236802324Y-91499780D02*
X234202324Y-91499780D01*
X236802324Y-91499780D02*
X236802324Y-90499780D01*
X236802324Y-93949780D02*
X236802324Y-94389780D01*
X236802324Y-94389780D02*
X240393178Y-94389780D01*
X238802324Y-88499780D02*
X247752324Y-88499780D01*
X247752324Y-88499780D02*
X247752324Y-88929780D01*
X247752324Y-91379780D02*
X247752324Y-92549780D01*
X247752324Y-91379780D02*
X250302324Y-91379780D01*
X247752324Y-92549780D02*
X242687500Y-92549780D01*
X250302324Y-88929780D02*
X247752324Y-88929780D01*
X250302324Y-91379780D02*
X250302324Y-88929780D01*
X236802324Y-90499780D02*
G75*
G02*
X238802324Y-88499780I2000004J-4D01*
G01*
X240393178Y-94389780D02*
G75*
G02*
X242687500Y-92549780I2294320J-510409D01*
G01*
%TO.C,SW61*%
X41321074Y-110549780D02*
X41321074Y-112999780D01*
X41321074Y-112999780D02*
X43921074Y-112999780D01*
X43921074Y-110549780D02*
X41321074Y-110549780D01*
X43921074Y-110549780D02*
X43921074Y-109549780D01*
X43921074Y-112999780D02*
X43921074Y-113439780D01*
X43921074Y-113439780D02*
X47511928Y-113439780D01*
X45921074Y-107549780D02*
X54871074Y-107549780D01*
X54871074Y-107549780D02*
X54871074Y-107979780D01*
X54871074Y-110429780D02*
X54871074Y-111599780D01*
X54871074Y-110429780D02*
X57421074Y-110429780D01*
X54871074Y-111599780D02*
X49806250Y-111599780D01*
X57421074Y-107979780D02*
X54871074Y-107979780D01*
X57421074Y-110429780D02*
X57421074Y-107979780D01*
X43921074Y-109549780D02*
G75*
G02*
X45921074Y-107549780I2000004J-4D01*
G01*
X47511928Y-113439780D02*
G75*
G02*
X49806250Y-111599780I2294320J-510409D01*
G01*
%TO.C,SW19*%
X67514824Y-53399780D02*
X67514824Y-55849780D01*
X67514824Y-55849780D02*
X70114824Y-55849780D01*
X70114824Y-53399780D02*
X67514824Y-53399780D01*
X70114824Y-53399780D02*
X70114824Y-52399780D01*
X70114824Y-55849780D02*
X70114824Y-56289780D01*
X70114824Y-56289780D02*
X73705678Y-56289780D01*
X72114824Y-50399780D02*
X81064824Y-50399780D01*
X81064824Y-50399780D02*
X81064824Y-50829780D01*
X81064824Y-53279780D02*
X81064824Y-54449780D01*
X81064824Y-53279780D02*
X83614824Y-53279780D01*
X81064824Y-54449780D02*
X76000000Y-54449780D01*
X83614824Y-50829780D02*
X81064824Y-50829780D01*
X83614824Y-53279780D02*
X83614824Y-50829780D01*
X70114824Y-52399780D02*
G75*
G02*
X72114824Y-50399780I2000004J-4D01*
G01*
X73705678Y-56289780D02*
G75*
G02*
X76000000Y-54449780I2294320J-510409D01*
G01*
%TO.C,D2*%
X155050000Y-39700000D02*
X155050000Y-42000000D01*
X155050000Y-42000000D02*
X159750000Y-42000000D01*
X159750000Y-39700000D02*
X155050000Y-39700000D01*
X159750000Y-39700000D02*
X159750000Y-42000000D01*
%TO.C,D30*%
X40750000Y-58750000D02*
X40750000Y-61050000D01*
X40750000Y-61050000D02*
X45450000Y-61050000D01*
X45450000Y-58750000D02*
X40750000Y-58750000D01*
X45450000Y-58750000D02*
X45450000Y-61050000D01*
%TO.C,U1*%
X106770000Y-135612500D02*
X106770000Y-141512500D01*
X106770000Y-141512500D02*
X107150000Y-141512500D01*
X107150000Y-134812500D02*
X107150000Y-135612500D01*
X107150000Y-135612500D02*
X106770000Y-135612500D01*
X107150000Y-141512500D02*
X107150000Y-142312500D01*
X107150000Y-142312500D02*
X107950000Y-142312500D01*
X107950000Y-134432500D02*
X107950000Y-134812500D01*
X107950000Y-134812500D02*
X107150000Y-134812500D01*
X107950000Y-142312500D02*
X107950000Y-142692500D01*
X107950000Y-142692500D02*
X113850000Y-142692500D01*
X113850000Y-134432500D02*
X107950000Y-134432500D01*
X113850000Y-134812500D02*
X113850000Y-134432500D01*
X113850000Y-142312500D02*
X114650000Y-142312500D01*
X113850000Y-142692500D02*
X113850000Y-142312500D01*
X114650000Y-134812500D02*
X113850000Y-134812500D01*
X114650000Y-135612500D02*
X114650000Y-134812500D01*
X114650000Y-141512500D02*
X115030000Y-141512500D01*
X114650000Y-142312500D02*
X114650000Y-141512500D01*
X115030000Y-135612500D02*
X114650000Y-135612500D01*
X115030000Y-141512500D02*
X115030000Y-135612500D01*
%TO.C,D46*%
X326500000Y-77800000D02*
X326500000Y-80100000D01*
X326500000Y-80100000D02*
X331200000Y-80100000D01*
X331200000Y-77800000D02*
X326500000Y-77800000D01*
X331200000Y-77800000D02*
X331200000Y-80100000D01*
%TO.C,D6*%
X78850000Y-39700000D02*
X78850000Y-42000000D01*
X78850000Y-42000000D02*
X83550000Y-42000000D01*
X83550000Y-39700000D02*
X78850000Y-39700000D01*
X83550000Y-39700000D02*
X83550000Y-42000000D01*
%TO.C,D18*%
X269350000Y-58750000D02*
X269350000Y-61050000D01*
X269350000Y-61050000D02*
X274050000Y-61050000D01*
X274050000Y-58750000D02*
X269350000Y-58750000D01*
X274050000Y-58750000D02*
X274050000Y-61050000D01*
%TO.C,SW42*%
X229439824Y-72449780D02*
X229439824Y-74899780D01*
X229439824Y-74899780D02*
X232039824Y-74899780D01*
X232039824Y-72449780D02*
X229439824Y-72449780D01*
X232039824Y-72449780D02*
X232039824Y-71449780D01*
X232039824Y-74899780D02*
X232039824Y-75339780D01*
X232039824Y-75339780D02*
X235630678Y-75339780D01*
X234039824Y-69449780D02*
X242989824Y-69449780D01*
X242989824Y-69449780D02*
X242989824Y-69879780D01*
X242989824Y-72329780D02*
X242989824Y-73499780D01*
X242989824Y-72329780D02*
X245539824Y-72329780D01*
X242989824Y-73499780D02*
X237925000Y-73499780D01*
X245539824Y-69879780D02*
X242989824Y-69879780D01*
X245539824Y-72329780D02*
X245539824Y-69879780D01*
X232039824Y-71449780D02*
G75*
G02*
X234039824Y-69449780I2000004J-4D01*
G01*
X235630678Y-75339780D02*
G75*
G02*
X237925000Y-73499780I2294320J-510409D01*
G01*
%TO.C,SW78*%
X150858574Y-129599780D02*
X150858574Y-132049780D01*
X150858574Y-132049780D02*
X153458574Y-132049780D01*
X153458574Y-129599780D02*
X150858574Y-129599780D01*
X153458574Y-129599780D02*
X153458574Y-128599780D01*
X153458574Y-132049780D02*
X153458574Y-132489780D01*
X153458574Y-132489780D02*
X157049428Y-132489780D01*
X155458574Y-126599780D02*
X164408574Y-126599780D01*
X164408574Y-126599780D02*
X164408574Y-127029780D01*
X164408574Y-129479780D02*
X164408574Y-130649780D01*
X164408574Y-129479780D02*
X166958574Y-129479780D01*
X164408574Y-130649780D02*
X159343750Y-130649780D01*
X166958574Y-127029780D02*
X164408574Y-127029780D01*
X166958574Y-129479780D02*
X166958574Y-127029780D01*
X153458574Y-128599780D02*
G75*
G02*
X155458574Y-126599780I2000004J-4D01*
G01*
X157049428Y-132489780D02*
G75*
G02*
X159343750Y-130649780I2294320J-510409D01*
G01*
%TO.C,D75*%
X43131250Y-134950000D02*
X43131250Y-137250000D01*
X43131250Y-137250000D02*
X47831250Y-137250000D01*
X47831250Y-134950000D02*
X43131250Y-134950000D01*
X47831250Y-134950000D02*
X47831250Y-137250000D01*
%TO.C,D29*%
X59800000Y-58750000D02*
X59800000Y-61050000D01*
X59800000Y-61050000D02*
X64500000Y-61050000D01*
X64500000Y-58750000D02*
X59800000Y-58750000D01*
X64500000Y-58750000D02*
X64500000Y-61050000D01*
%TO.C,SW3*%
X67514824Y-34349780D02*
X67514824Y-36799780D01*
X67514824Y-36799780D02*
X70114824Y-36799780D01*
X70114824Y-34349780D02*
X67514824Y-34349780D01*
X70114824Y-34349780D02*
X70114824Y-33349780D01*
X70114824Y-36799780D02*
X70114824Y-37239780D01*
X70114824Y-37239780D02*
X73705678Y-37239780D01*
X72114824Y-31349780D02*
X81064824Y-31349780D01*
X81064824Y-31349780D02*
X81064824Y-31779780D01*
X81064824Y-34229780D02*
X81064824Y-35399780D01*
X81064824Y-34229780D02*
X83614824Y-34229780D01*
X81064824Y-35399780D02*
X76000000Y-35399780D01*
X83614824Y-31779780D02*
X81064824Y-31779780D01*
X83614824Y-34229780D02*
X83614824Y-31779780D01*
X70114824Y-33349780D02*
G75*
G02*
X72114824Y-31349780I2000004J-4D01*
G01*
X73705678Y-37239780D02*
G75*
G02*
X76000000Y-35399780I2294320J-510409D01*
G01*
%TO.C,SW66*%
X148477324Y-110549780D02*
X148477324Y-112999780D01*
X148477324Y-112999780D02*
X151077324Y-112999780D01*
X151077324Y-110549780D02*
X148477324Y-110549780D01*
X151077324Y-110549780D02*
X151077324Y-109549780D01*
X151077324Y-112999780D02*
X151077324Y-113439780D01*
X151077324Y-113439780D02*
X154668178Y-113439780D01*
X153077324Y-107549780D02*
X162027324Y-107549780D01*
X162027324Y-107549780D02*
X162027324Y-107979780D01*
X162027324Y-110429780D02*
X162027324Y-111599780D01*
X162027324Y-110429780D02*
X164577324Y-110429780D01*
X162027324Y-111599780D02*
X156962500Y-111599780D01*
X164577324Y-107979780D02*
X162027324Y-107979780D01*
X164577324Y-110429780D02*
X164577324Y-107979780D01*
X151077324Y-109549780D02*
G75*
G02*
X153077324Y-107549780I2000004J-4D01*
G01*
X154668178Y-113439780D02*
G75*
G02*
X156962500Y-111599780I2294320J-510409D01*
G01*
%TO.C,D81*%
X326500000Y-134950000D02*
X326500000Y-137250000D01*
X326500000Y-137250000D02*
X331200000Y-137250000D01*
X331200000Y-134950000D02*
X326500000Y-134950000D01*
X331200000Y-134950000D02*
X331200000Y-137250000D01*
%TO.C,D22*%
X193150000Y-58750000D02*
X193150000Y-61050000D01*
X193150000Y-61050000D02*
X197850000Y-61050000D01*
X197850000Y-58750000D02*
X193150000Y-58750000D01*
X197850000Y-58750000D02*
X197850000Y-61050000D01*
%TO.C,D56*%
X245537500Y-96850000D02*
X245537500Y-99150000D01*
X245537500Y-99150000D02*
X250237500Y-99150000D01*
X250237500Y-96850000D02*
X245537500Y-96850000D01*
X250237500Y-96850000D02*
X250237500Y-99150000D01*
%TO.C,SW83*%
X296114824Y-129599780D02*
X296114824Y-132049780D01*
X296114824Y-132049780D02*
X298714824Y-132049780D01*
X298714824Y-129599780D02*
X296114824Y-129599780D01*
X298714824Y-129599780D02*
X298714824Y-128599780D01*
X298714824Y-132049780D02*
X298714824Y-132489780D01*
X298714824Y-132489780D02*
X302305678Y-132489780D01*
X300714824Y-126599780D02*
X309664824Y-126599780D01*
X309664824Y-126599780D02*
X309664824Y-127029780D01*
X309664824Y-129479780D02*
X309664824Y-130649780D01*
X309664824Y-129479780D02*
X312214824Y-129479780D01*
X309664824Y-130649780D02*
X304600000Y-130649780D01*
X312214824Y-127029780D02*
X309664824Y-127029780D01*
X312214824Y-129479780D02*
X312214824Y-127029780D01*
X298714824Y-128599780D02*
G75*
G02*
X300714824Y-126599780I2000004J-4D01*
G01*
X302305678Y-132489780D02*
G75*
G02*
X304600000Y-130649780I2294320J-510409D01*
G01*
%TO.C,SW29*%
X258014824Y-53399780D02*
X258014824Y-55849780D01*
X258014824Y-55849780D02*
X260614824Y-55849780D01*
X260614824Y-53399780D02*
X258014824Y-53399780D01*
X260614824Y-53399780D02*
X260614824Y-52399780D01*
X260614824Y-55849780D02*
X260614824Y-56289780D01*
X260614824Y-56289780D02*
X264205678Y-56289780D01*
X262614824Y-50399780D02*
X271564824Y-50399780D01*
X271564824Y-50399780D02*
X271564824Y-50829780D01*
X271564824Y-53279780D02*
X271564824Y-54449780D01*
X271564824Y-53279780D02*
X274114824Y-53279780D01*
X271564824Y-54449780D02*
X266500000Y-54449780D01*
X274114824Y-50829780D02*
X271564824Y-50829780D01*
X274114824Y-53279780D02*
X274114824Y-50829780D01*
X260614824Y-52399780D02*
G75*
G02*
X262614824Y-50399780I2000004J-4D01*
G01*
X264205678Y-56289780D02*
G75*
G02*
X266500000Y-54449780I2294320J-510409D01*
G01*
%TO.C,D50*%
X131237500Y-96850000D02*
X131237500Y-99150000D01*
X131237500Y-99150000D02*
X135937500Y-99150000D01*
X135937500Y-96850000D02*
X131237500Y-96850000D01*
X135937500Y-96850000D02*
X135937500Y-99150000D01*
%TO.C,U4*%
X62122226Y-36201902D02*
X62122226Y-39201902D01*
X62122226Y-39201902D02*
X63122226Y-39201902D01*
X63122226Y-36001902D02*
X63122226Y-36201902D01*
X63122226Y-36201902D02*
X62122226Y-36201902D01*
X63122226Y-39201902D02*
X63122226Y-39401902D01*
X63122226Y-39401902D02*
X65222226Y-39401902D01*
X65222226Y-36001902D02*
X63122226Y-36001902D01*
X65222226Y-36201902D02*
X65222226Y-36001902D01*
X65222226Y-39201902D02*
X66222226Y-39201902D01*
X65222226Y-39401902D02*
X65222226Y-39201902D01*
X66222226Y-36201902D02*
X65222226Y-36201902D01*
X66222226Y-39201902D02*
X66222226Y-36201902D01*
%TO.C,C11*%
X104808553Y-136402211D02*
X106628553Y-136402211D01*
X106628553Y-137322211D01*
X104808553Y-137322211D01*
X104808553Y-136402211D01*
%TO.C,SW27*%
X219914824Y-53399780D02*
X219914824Y-55849780D01*
X219914824Y-55849780D02*
X222514824Y-55849780D01*
X222514824Y-53399780D02*
X219914824Y-53399780D01*
X222514824Y-53399780D02*
X222514824Y-52399780D01*
X222514824Y-55849780D02*
X222514824Y-56289780D01*
X222514824Y-56289780D02*
X226105678Y-56289780D01*
X224514824Y-50399780D02*
X233464824Y-50399780D01*
X233464824Y-50399780D02*
X233464824Y-50829780D01*
X233464824Y-53279780D02*
X233464824Y-54449780D01*
X233464824Y-53279780D02*
X236014824Y-53279780D01*
X233464824Y-54449780D02*
X228400000Y-54449780D01*
X236014824Y-50829780D02*
X233464824Y-50829780D01*
X236014824Y-53279780D02*
X236014824Y-50829780D01*
X222514824Y-52399780D02*
G75*
G02*
X224514824Y-50399780I2000004J-4D01*
G01*
X226105678Y-56289780D02*
G75*
G02*
X228400000Y-54449780I2294320J-510409D01*
G01*
%TO.C,SW51*%
X119902324Y-91499780D02*
X119902324Y-93949780D01*
X119902324Y-93949780D02*
X122502324Y-93949780D01*
X122502324Y-91499780D02*
X119902324Y-91499780D01*
X122502324Y-91499780D02*
X122502324Y-90499780D01*
X122502324Y-93949780D02*
X122502324Y-94389780D01*
X122502324Y-94389780D02*
X126093178Y-94389780D01*
X124502324Y-88499780D02*
X133452324Y-88499780D01*
X133452324Y-88499780D02*
X133452324Y-88929780D01*
X133452324Y-91379780D02*
X133452324Y-92549780D01*
X133452324Y-91379780D02*
X136002324Y-91379780D01*
X133452324Y-92549780D02*
X128387500Y-92549780D01*
X136002324Y-88929780D02*
X133452324Y-88929780D01*
X136002324Y-91379780D02*
X136002324Y-88929780D01*
X122502324Y-90499780D02*
G75*
G02*
X124502324Y-88499780I2000004J-4D01*
G01*
X126093178Y-94389780D02*
G75*
G02*
X128387500Y-92549780I2294320J-510409D01*
G01*
%TO.C,D76*%
X66943750Y-134950000D02*
X66943750Y-137250000D01*
X66943750Y-137250000D02*
X71643750Y-137250000D01*
X71643750Y-134950000D02*
X66943750Y-134950000D01*
X71643750Y-134950000D02*
X71643750Y-137250000D01*
%TO.C,SW67*%
X167527324Y-110549780D02*
X167527324Y-112999780D01*
X167527324Y-112999780D02*
X170127324Y-112999780D01*
X170127324Y-110549780D02*
X167527324Y-110549780D01*
X170127324Y-110549780D02*
X170127324Y-109549780D01*
X170127324Y-112999780D02*
X170127324Y-113439780D01*
X170127324Y-113439780D02*
X173718178Y-113439780D01*
X172127324Y-107549780D02*
X181077324Y-107549780D01*
X181077324Y-107549780D02*
X181077324Y-107979780D01*
X181077324Y-110429780D02*
X181077324Y-111599780D01*
X181077324Y-110429780D02*
X183627324Y-110429780D01*
X181077324Y-111599780D02*
X176012500Y-111599780D01*
X183627324Y-107979780D02*
X181077324Y-107979780D01*
X183627324Y-110429780D02*
X183627324Y-107979780D01*
X170127324Y-109549780D02*
G75*
G02*
X172127324Y-107549780I2000004J-4D01*
G01*
X173718178Y-113439780D02*
G75*
G02*
X176012500Y-111599780I2294320J-510409D01*
G01*
%TO.C,D42*%
X259825000Y-77800000D02*
X259825000Y-80100000D01*
X259825000Y-80100000D02*
X264525000Y-80100000D01*
X264525000Y-77800000D02*
X259825000Y-77800000D01*
X264525000Y-77800000D02*
X264525000Y-80100000D01*
%TO.C,SW46*%
X315164824Y-72449780D02*
X315164824Y-74899780D01*
X315164824Y-74899780D02*
X317764824Y-74899780D01*
X317764824Y-72449780D02*
X315164824Y-72449780D01*
X317764824Y-72449780D02*
X317764824Y-71449780D01*
X317764824Y-74899780D02*
X317764824Y-75339780D01*
X317764824Y-75339780D02*
X321355678Y-75339780D01*
X319764824Y-69449780D02*
X328714824Y-69449780D01*
X328714824Y-69449780D02*
X328714824Y-69879780D01*
X328714824Y-72329780D02*
X328714824Y-73499780D01*
X328714824Y-72329780D02*
X331264824Y-72329780D01*
X328714824Y-73499780D02*
X323650000Y-73499780D01*
X331264824Y-69879780D02*
X328714824Y-69879780D01*
X331264824Y-72329780D02*
X331264824Y-69879780D01*
X317764824Y-71449780D02*
G75*
G02*
X319764824Y-69449780I2000004J-4D01*
G01*
X321355678Y-75339780D02*
G75*
G02*
X323650000Y-73499780I2294320J-510409D01*
G01*
%TO.C,D12*%
X269350000Y-39700000D02*
X269350000Y-42000000D01*
X269350000Y-42000000D02*
X274050000Y-42000000D01*
X274050000Y-39700000D02*
X269350000Y-39700000D01*
X274050000Y-39700000D02*
X274050000Y-42000000D01*
%TO.C,SW28*%
X238964824Y-53399780D02*
X238964824Y-55849780D01*
X238964824Y-55849780D02*
X241564824Y-55849780D01*
X241564824Y-53399780D02*
X238964824Y-53399780D01*
X241564824Y-53399780D02*
X241564824Y-52399780D01*
X241564824Y-55849780D02*
X241564824Y-56289780D01*
X241564824Y-56289780D02*
X245155678Y-56289780D01*
X243564824Y-50399780D02*
X252514824Y-50399780D01*
X252514824Y-50399780D02*
X252514824Y-50829780D01*
X252514824Y-53279780D02*
X252514824Y-54449780D01*
X252514824Y-53279780D02*
X255064824Y-53279780D01*
X252514824Y-54449780D02*
X247450000Y-54449780D01*
X255064824Y-50829780D02*
X252514824Y-50829780D01*
X255064824Y-53279780D02*
X255064824Y-50829780D01*
X241564824Y-52399780D02*
G75*
G02*
X243564824Y-50399780I2000004J-4D01*
G01*
X245155678Y-56289780D02*
G75*
G02*
X247450000Y-54449780I2294320J-510409D01*
G01*
%TO.C,D57*%
X226487500Y-96850000D02*
X226487500Y-99150000D01*
X226487500Y-99150000D02*
X231187500Y-99150000D01*
X231187500Y-96850000D02*
X226487500Y-96850000D01*
X231187500Y-96850000D02*
X231187500Y-99150000D01*
%TO.C,D68*%
X52656250Y-115900000D02*
X52656250Y-118200000D01*
X52656250Y-118200000D02*
X57356250Y-118200000D01*
X57356250Y-115900000D02*
X52656250Y-115900000D01*
X57356250Y-115900000D02*
X57356250Y-118200000D01*
%TO.C,SW30*%
X286589824Y-53399780D02*
X286589824Y-55849780D01*
X286589824Y-55849780D02*
X289189824Y-55849780D01*
X289189824Y-53399780D02*
X286589824Y-53399780D01*
X289189824Y-53399780D02*
X289189824Y-52399780D01*
X289189824Y-55849780D02*
X289189824Y-56289780D01*
X289189824Y-56289780D02*
X292780678Y-56289780D01*
X291189824Y-50399780D02*
X300139824Y-50399780D01*
X300139824Y-50399780D02*
X300139824Y-50829780D01*
X300139824Y-53279780D02*
X300139824Y-54449780D01*
X300139824Y-53279780D02*
X302689824Y-53279780D01*
X300139824Y-54449780D02*
X295075000Y-54449780D01*
X302689824Y-50829780D02*
X300139824Y-50829780D01*
X302689824Y-53279780D02*
X302689824Y-50829780D01*
X289189824Y-52399780D02*
G75*
G02*
X291189824Y-50399780I2000004J-4D01*
G01*
X292780678Y-56289780D02*
G75*
G02*
X295075000Y-54449780I2294320J-510409D01*
G01*
%TO.C,D5*%
X97900000Y-39700000D02*
X97900000Y-42000000D01*
X97900000Y-42000000D02*
X102600000Y-42000000D01*
X102600000Y-39700000D02*
X97900000Y-39700000D01*
X102600000Y-39700000D02*
X102600000Y-42000000D01*
%TO.C,D32*%
X221725000Y-77800000D02*
X221725000Y-80100000D01*
X221725000Y-80100000D02*
X226425000Y-80100000D01*
X226425000Y-77800000D02*
X221725000Y-77800000D01*
X226425000Y-77800000D02*
X226425000Y-80100000D01*
%TO.C,D79*%
X231250000Y-134950000D02*
X231250000Y-137250000D01*
X231250000Y-137250000D02*
X235950000Y-137250000D01*
X235950000Y-134950000D02*
X231250000Y-134950000D01*
X235950000Y-134950000D02*
X235950000Y-137250000D01*
%TO.C,D47*%
X188387500Y-96850000D02*
X188387500Y-99150000D01*
X188387500Y-99150000D02*
X193087500Y-99150000D01*
X193087500Y-96850000D02*
X188387500Y-96850000D01*
X193087500Y-96850000D02*
X193087500Y-99150000D01*
%TO.C,R5*%
X62024379Y-34381720D02*
X62944379Y-34381720D01*
X62944379Y-36201720D01*
X62024379Y-36201720D01*
X62024379Y-34381720D01*
%TO.C,D24*%
X155050000Y-58750000D02*
X155050000Y-61050000D01*
X155050000Y-61050000D02*
X159750000Y-61050000D01*
X159750000Y-58750000D02*
X155050000Y-58750000D01*
X159750000Y-58750000D02*
X159750000Y-61050000D01*
%TO.C,SW18*%
X48464824Y-53399780D02*
X48464824Y-55849780D01*
X48464824Y-55849780D02*
X51064824Y-55849780D01*
X51064824Y-53399780D02*
X48464824Y-53399780D01*
X51064824Y-53399780D02*
X51064824Y-52399780D01*
X51064824Y-55849780D02*
X51064824Y-56289780D01*
X51064824Y-56289780D02*
X54655678Y-56289780D01*
X53064824Y-50399780D02*
X62014824Y-50399780D01*
X62014824Y-50399780D02*
X62014824Y-50829780D01*
X62014824Y-53279780D02*
X62014824Y-54449780D01*
X62014824Y-53279780D02*
X64564824Y-53279780D01*
X62014824Y-54449780D02*
X56950000Y-54449780D01*
X64564824Y-50829780D02*
X62014824Y-50829780D01*
X64564824Y-53279780D02*
X64564824Y-50829780D01*
X51064824Y-52399780D02*
G75*
G02*
X53064824Y-50399780I2000004J-4D01*
G01*
X54655678Y-56289780D02*
G75*
G02*
X56950000Y-54449780I2294320J-510409D01*
G01*
%TO.C,C4*%
X105282102Y-134575430D02*
X107102102Y-134575430D01*
X107102102Y-135495430D01*
X105282102Y-135495430D01*
X105282102Y-134575430D01*
%TO.C,D72*%
X216962500Y-115900000D02*
X216962500Y-118200000D01*
X216962500Y-118200000D02*
X221662500Y-118200000D01*
X221662500Y-115900000D02*
X216962500Y-115900000D01*
X221662500Y-115900000D02*
X221662500Y-118200000D01*
%TO.C,SW2*%
X50399780Y-33235176D02*
X50829780Y-33235176D01*
X50399780Y-42185176D02*
X50399780Y-33235176D01*
X50829780Y-30685176D02*
X50829780Y-33235176D01*
X53279780Y-30685176D02*
X50829780Y-30685176D01*
X53279780Y-33235176D02*
X53279780Y-30685176D01*
X53279780Y-33235176D02*
X54449780Y-33235176D01*
X53399780Y-44185176D02*
X52399780Y-44185176D01*
X53399780Y-44185176D02*
X53399780Y-46785176D01*
X53399780Y-46785176D02*
X55849780Y-46785176D01*
X54449780Y-33235176D02*
X54449780Y-38300000D01*
X55849780Y-44185176D02*
X56289780Y-44185176D01*
X55849780Y-46785176D02*
X55849780Y-44185176D01*
X56289780Y-44185176D02*
X56289780Y-40594322D01*
X52399780Y-44185176D02*
G75*
G02*
X50399780Y-42185176I4J2000004D01*
G01*
X56289780Y-40594322D02*
G75*
G02*
X54449780Y-38300000I510409J2294320D01*
G01*
%TO.C,SW32*%
X34177324Y-72449780D02*
X34177324Y-74899780D01*
X34177324Y-74899780D02*
X36777324Y-74899780D01*
X36777324Y-72449780D02*
X34177324Y-72449780D01*
X36777324Y-72449780D02*
X36777324Y-71449780D01*
X36777324Y-74899780D02*
X36777324Y-75339780D01*
X36777324Y-75339780D02*
X40368178Y-75339780D01*
X38777324Y-69449780D02*
X47727324Y-69449780D01*
X47727324Y-69449780D02*
X47727324Y-69879780D01*
X47727324Y-72329780D02*
X47727324Y-73499780D01*
X47727324Y-72329780D02*
X50277324Y-72329780D01*
X47727324Y-73499780D02*
X42662500Y-73499780D01*
X50277324Y-69879780D02*
X47727324Y-69879780D01*
X50277324Y-72329780D02*
X50277324Y-69879780D01*
X36777324Y-71449780D02*
G75*
G02*
X38777324Y-69449780I2000004J-4D01*
G01*
X40368178Y-75339780D02*
G75*
G02*
X42662500Y-73499780I2294320J-510409D01*
G01*
%TO.C,D49*%
X150287500Y-96850000D02*
X150287500Y-99150000D01*
X150287500Y-99150000D02*
X154987500Y-99150000D01*
X154987500Y-96850000D02*
X150287500Y-96850000D01*
X154987500Y-96850000D02*
X154987500Y-99150000D01*
%TO.C,SW33*%
X57989824Y-72449780D02*
X57989824Y-74899780D01*
X57989824Y-74899780D02*
X60589824Y-74899780D01*
X60589824Y-72449780D02*
X57989824Y-72449780D01*
X60589824Y-72449780D02*
X60589824Y-71449780D01*
X60589824Y-74899780D02*
X60589824Y-75339780D01*
X60589824Y-75339780D02*
X64180678Y-75339780D01*
X62589824Y-69449780D02*
X71539824Y-69449780D01*
X71539824Y-69449780D02*
X71539824Y-69879780D01*
X71539824Y-72329780D02*
X71539824Y-73499780D01*
X71539824Y-72329780D02*
X74089824Y-72329780D01*
X71539824Y-73499780D02*
X66475000Y-73499780D01*
X74089824Y-69879780D02*
X71539824Y-69879780D01*
X74089824Y-72329780D02*
X74089824Y-69879780D01*
X60589824Y-71449780D02*
G75*
G02*
X62589824Y-69449780I2000004J-4D01*
G01*
X64180678Y-75339780D02*
G75*
G02*
X66475000Y-73499780I2294320J-510409D01*
G01*
%TO.C,SW65*%
X129427324Y-110549780D02*
X129427324Y-112999780D01*
X129427324Y-112999780D02*
X132027324Y-112999780D01*
X132027324Y-110549780D02*
X129427324Y-110549780D01*
X132027324Y-110549780D02*
X132027324Y-109549780D01*
X132027324Y-112999780D02*
X132027324Y-113439780D01*
X132027324Y-113439780D02*
X135618178Y-113439780D01*
X134027324Y-107549780D02*
X142977324Y-107549780D01*
X142977324Y-107549780D02*
X142977324Y-107979780D01*
X142977324Y-110429780D02*
X142977324Y-111599780D01*
X142977324Y-110429780D02*
X145527324Y-110429780D01*
X142977324Y-111599780D02*
X137912500Y-111599780D01*
X145527324Y-107979780D02*
X142977324Y-107979780D01*
X145527324Y-110429780D02*
X145527324Y-107979780D01*
X132027324Y-109549780D02*
G75*
G02*
X134027324Y-107549780I2000004J-4D01*
G01*
X135618178Y-113439780D02*
G75*
G02*
X137912500Y-111599780I2294320J-510409D01*
G01*
%TO.C,SW7*%
X143714824Y-34349780D02*
X143714824Y-36799780D01*
X143714824Y-36799780D02*
X146314824Y-36799780D01*
X146314824Y-34349780D02*
X143714824Y-34349780D01*
X146314824Y-34349780D02*
X146314824Y-33349780D01*
X146314824Y-36799780D02*
X146314824Y-37239780D01*
X146314824Y-37239780D02*
X149905678Y-37239780D01*
X148314824Y-31349780D02*
X157264824Y-31349780D01*
X157264824Y-31349780D02*
X157264824Y-31779780D01*
X157264824Y-34229780D02*
X157264824Y-35399780D01*
X157264824Y-34229780D02*
X159814824Y-34229780D01*
X157264824Y-35399780D02*
X152200000Y-35399780D01*
X159814824Y-31779780D02*
X157264824Y-31779780D01*
X159814824Y-34229780D02*
X159814824Y-31779780D01*
X146314824Y-33349780D02*
G75*
G02*
X148314824Y-31349780I2000004J-4D01*
G01*
X149905678Y-37239780D02*
G75*
G02*
X152200000Y-35399780I2294320J-510409D01*
G01*
%TO.C,D64*%
X140762500Y-115900000D02*
X140762500Y-118200000D01*
X140762500Y-118200000D02*
X145462500Y-118200000D01*
X145462500Y-115900000D02*
X140762500Y-115900000D01*
X145462500Y-115900000D02*
X145462500Y-118200000D01*
%TO.C,D17*%
X297925000Y-58750000D02*
X297925000Y-61050000D01*
X297925000Y-61050000D02*
X302625000Y-61050000D01*
X302625000Y-58750000D02*
X297925000Y-58750000D01*
X302625000Y-58750000D02*
X302625000Y-61050000D01*
%TO.C,Y1*%
X118300000Y-142400000D02*
X122500000Y-142400000D01*
X122500000Y-145900000D01*
X118300000Y-145900000D01*
X118300000Y-142400000D01*
%TO.C,D11*%
X288400000Y-39700000D02*
X288400000Y-42000000D01*
X288400000Y-42000000D02*
X293100000Y-42000000D01*
X293100000Y-39700000D02*
X288400000Y-39700000D01*
X293100000Y-39700000D02*
X293100000Y-42000000D01*
%TO.C,SW48*%
X62752324Y-91499780D02*
X62752324Y-93949780D01*
X62752324Y-93949780D02*
X65352324Y-93949780D01*
X65352324Y-91499780D02*
X62752324Y-91499780D01*
X65352324Y-91499780D02*
X65352324Y-90499780D01*
X65352324Y-93949780D02*
X65352324Y-94389780D01*
X65352324Y-94389780D02*
X68943178Y-94389780D01*
X67352324Y-88499780D02*
X76302324Y-88499780D01*
X76302324Y-88499780D02*
X76302324Y-88929780D01*
X76302324Y-91379780D02*
X76302324Y-92549780D01*
X76302324Y-91379780D02*
X78852324Y-91379780D01*
X76302324Y-92549780D02*
X71237500Y-92549780D01*
X78852324Y-88929780D02*
X76302324Y-88929780D01*
X78852324Y-91379780D02*
X78852324Y-88929780D01*
X65352324Y-90499780D02*
G75*
G02*
X67352324Y-88499780I2000004J-4D01*
G01*
X68943178Y-94389780D02*
G75*
G02*
X71237500Y-92549780I2294320J-510409D01*
G01*
%TO.C,D54*%
X47893750Y-96850000D02*
X47893750Y-99150000D01*
X47893750Y-99150000D02*
X52593750Y-99150000D01*
X52593750Y-96850000D02*
X47893750Y-96850000D01*
X52593750Y-96850000D02*
X52593750Y-99150000D01*
%TO.C,SW68*%
X186577324Y-110549780D02*
X186577324Y-112999780D01*
X186577324Y-112999780D02*
X189177324Y-112999780D01*
X189177324Y-110549780D02*
X186577324Y-110549780D01*
X189177324Y-110549780D02*
X189177324Y-109549780D01*
X189177324Y-112999780D02*
X189177324Y-113439780D01*
X189177324Y-113439780D02*
X192768178Y-113439780D01*
X191177324Y-107549780D02*
X200127324Y-107549780D01*
X200127324Y-107549780D02*
X200127324Y-107979780D01*
X200127324Y-110429780D02*
X200127324Y-111599780D01*
X200127324Y-110429780D02*
X202677324Y-110429780D01*
X200127324Y-111599780D02*
X195062500Y-111599780D01*
X202677324Y-107979780D02*
X200127324Y-107979780D01*
X202677324Y-110429780D02*
X202677324Y-107979780D01*
X189177324Y-109549780D02*
G75*
G02*
X191177324Y-107549780I2000004J-4D01*
G01*
X192768178Y-113439780D02*
G75*
G02*
X195062500Y-111599780I2294320J-510409D01*
G01*
%TO.C,SW75*%
X31796074Y-129599780D02*
X31796074Y-132049780D01*
X31796074Y-132049780D02*
X34396074Y-132049780D01*
X34396074Y-129599780D02*
X31796074Y-129599780D01*
X34396074Y-129599780D02*
X34396074Y-128599780D01*
X34396074Y-132049780D02*
X34396074Y-132489780D01*
X34396074Y-132489780D02*
X37986928Y-132489780D01*
X36396074Y-126599780D02*
X45346074Y-126599780D01*
X45346074Y-126599780D02*
X45346074Y-127029780D01*
X45346074Y-129479780D02*
X45346074Y-130649780D01*
X45346074Y-129479780D02*
X47896074Y-129479780D01*
X45346074Y-130649780D02*
X40281250Y-130649780D01*
X47896074Y-127029780D02*
X45346074Y-127029780D01*
X47896074Y-129479780D02*
X47896074Y-127029780D01*
X34396074Y-128599780D02*
G75*
G02*
X36396074Y-126599780I2000004J-4D01*
G01*
X37986928Y-132489780D02*
G75*
G02*
X40281250Y-130649780I2294320J-510409D01*
G01*
%TO.C,D9*%
X326500000Y-39700000D02*
X326500000Y-42000000D01*
X326500000Y-42000000D02*
X331200000Y-42000000D01*
X331200000Y-39700000D02*
X326500000Y-39700000D01*
X331200000Y-39700000D02*
X331200000Y-42000000D01*
%TO.C,SW21*%
X105614824Y-53399780D02*
X105614824Y-55849780D01*
X105614824Y-55849780D02*
X108214824Y-55849780D01*
X108214824Y-53399780D02*
X105614824Y-53399780D01*
X108214824Y-53399780D02*
X108214824Y-52399780D01*
X108214824Y-55849780D02*
X108214824Y-56289780D01*
X108214824Y-56289780D02*
X111805678Y-56289780D01*
X110214824Y-50399780D02*
X119164824Y-50399780D01*
X119164824Y-50399780D02*
X119164824Y-50829780D01*
X119164824Y-53279780D02*
X119164824Y-54449780D01*
X119164824Y-53279780D02*
X121714824Y-53279780D01*
X119164824Y-54449780D02*
X114100000Y-54449780D01*
X121714824Y-50829780D02*
X119164824Y-50829780D01*
X121714824Y-53279780D02*
X121714824Y-50829780D01*
X108214824Y-52399780D02*
G75*
G02*
X110214824Y-50399780I2000004J-4D01*
G01*
X111805678Y-56289780D02*
G75*
G02*
X114100000Y-54449780I2294320J-510409D01*
G01*
%TO.C,SW76*%
X55608574Y-129599780D02*
X55608574Y-132049780D01*
X55608574Y-132049780D02*
X58208574Y-132049780D01*
X58208574Y-129599780D02*
X55608574Y-129599780D01*
X58208574Y-129599780D02*
X58208574Y-128599780D01*
X58208574Y-132049780D02*
X58208574Y-132489780D01*
X58208574Y-132489780D02*
X61799428Y-132489780D01*
X60208574Y-126599780D02*
X69158574Y-126599780D01*
X69158574Y-126599780D02*
X69158574Y-127029780D01*
X69158574Y-129479780D02*
X69158574Y-130649780D01*
X69158574Y-129479780D02*
X71708574Y-129479780D01*
X69158574Y-130649780D02*
X64093750Y-130649780D01*
X71708574Y-127029780D02*
X69158574Y-127029780D01*
X71708574Y-129479780D02*
X71708574Y-127029780D01*
X58208574Y-128599780D02*
G75*
G02*
X60208574Y-126599780I2000004J-4D01*
G01*
X61799428Y-132489780D02*
G75*
G02*
X64093750Y-130649780I2294320J-510409D01*
G01*
%TO.C,SW16*%
X315164824Y-34349780D02*
X315164824Y-36799780D01*
X315164824Y-36799780D02*
X317764824Y-36799780D01*
X317764824Y-34349780D02*
X315164824Y-34349780D01*
X317764824Y-34349780D02*
X317764824Y-33349780D01*
X317764824Y-36799780D02*
X317764824Y-37239780D01*
X317764824Y-37239780D02*
X321355678Y-37239780D01*
X319764824Y-31349780D02*
X328714824Y-31349780D01*
X328714824Y-31349780D02*
X328714824Y-31779780D01*
X328714824Y-34229780D02*
X328714824Y-35399780D01*
X328714824Y-34229780D02*
X331264824Y-34229780D01*
X328714824Y-35399780D02*
X323650000Y-35399780D01*
X331264824Y-31779780D02*
X328714824Y-31779780D01*
X331264824Y-34229780D02*
X331264824Y-31779780D01*
X317764824Y-33349780D02*
G75*
G02*
X319764824Y-31349780I2000004J-4D01*
G01*
X321355678Y-37239780D02*
G75*
G02*
X323650000Y-35399780I2294320J-510409D01*
G01*
%TO.C,SW23*%
X143714824Y-53399780D02*
X143714824Y-55849780D01*
X143714824Y-55849780D02*
X146314824Y-55849780D01*
X146314824Y-53399780D02*
X143714824Y-53399780D01*
X146314824Y-53399780D02*
X146314824Y-52399780D01*
X146314824Y-55849780D02*
X146314824Y-56289780D01*
X146314824Y-56289780D02*
X149905678Y-56289780D01*
X148314824Y-50399780D02*
X157264824Y-50399780D01*
X157264824Y-50399780D02*
X157264824Y-50829780D01*
X157264824Y-53279780D02*
X157264824Y-54449780D01*
X157264824Y-53279780D02*
X159814824Y-53279780D01*
X157264824Y-54449780D02*
X152200000Y-54449780D01*
X159814824Y-50829780D02*
X157264824Y-50829780D01*
X159814824Y-53279780D02*
X159814824Y-50829780D01*
X146314824Y-52399780D02*
G75*
G02*
X148314824Y-50399780I2000004J-4D01*
G01*
X149905678Y-56289780D02*
G75*
G02*
X152200000Y-54449780I2294320J-510409D01*
G01*
%TO.C,D67*%
X83612500Y-115900000D02*
X83612500Y-118200000D01*
X83612500Y-118200000D02*
X88312500Y-118200000D01*
X88312500Y-115900000D02*
X83612500Y-115900000D01*
X88312500Y-115900000D02*
X88312500Y-118200000D01*
%TO.C,SW74*%
X315164824Y-110549780D02*
X315164824Y-112999780D01*
X315164824Y-112999780D02*
X317764824Y-112999780D01*
X317764824Y-110549780D02*
X315164824Y-110549780D01*
X317764824Y-110549780D02*
X317764824Y-109549780D01*
X317764824Y-112999780D02*
X317764824Y-113439780D01*
X317764824Y-113439780D02*
X321355678Y-113439780D01*
X319764824Y-107549780D02*
X328714824Y-107549780D01*
X328714824Y-107549780D02*
X328714824Y-107979780D01*
X328714824Y-110429780D02*
X328714824Y-111599780D01*
X328714824Y-110429780D02*
X331264824Y-110429780D01*
X328714824Y-111599780D02*
X323650000Y-111599780D01*
X331264824Y-107979780D02*
X328714824Y-107979780D01*
X331264824Y-110429780D02*
X331264824Y-107979780D01*
X317764824Y-109549780D02*
G75*
G02*
X319764824Y-107549780I2000004J-4D01*
G01*
X321355678Y-113439780D02*
G75*
G02*
X323650000Y-111599780I2294320J-510409D01*
G01*
%TO.C,SW17*%
X29414824Y-53399780D02*
X29414824Y-55849780D01*
X29414824Y-55849780D02*
X32014824Y-55849780D01*
X32014824Y-53399780D02*
X29414824Y-53399780D01*
X32014824Y-53399780D02*
X32014824Y-52399780D01*
X32014824Y-55849780D02*
X32014824Y-56289780D01*
X32014824Y-56289780D02*
X35605678Y-56289780D01*
X34014824Y-50399780D02*
X42964824Y-50399780D01*
X42964824Y-50399780D02*
X42964824Y-50829780D01*
X42964824Y-53279780D02*
X42964824Y-54449780D01*
X42964824Y-53279780D02*
X45514824Y-53279780D01*
X42964824Y-54449780D02*
X37900000Y-54449780D01*
X45514824Y-50829780D02*
X42964824Y-50829780D01*
X45514824Y-53279780D02*
X45514824Y-50829780D01*
X32014824Y-52399780D02*
G75*
G02*
X34014824Y-50399780I2000004J-4D01*
G01*
X35605678Y-56289780D02*
G75*
G02*
X37900000Y-54449780I2294320J-510409D01*
G01*
%TO.C,D78*%
X162193750Y-134950000D02*
X162193750Y-137250000D01*
X162193750Y-137250000D02*
X166893750Y-137250000D01*
X166893750Y-134950000D02*
X162193750Y-134950000D01*
X166893750Y-134950000D02*
X166893750Y-137250000D01*
%TO.C,D37*%
X126475000Y-77800000D02*
X126475000Y-80100000D01*
X126475000Y-80100000D02*
X131175000Y-80100000D01*
X131175000Y-77800000D02*
X126475000Y-77800000D01*
X131175000Y-77800000D02*
X131175000Y-80100000D01*
%TO.C,SW40*%
X191339824Y-72449780D02*
X191339824Y-74899780D01*
X191339824Y-74899780D02*
X193939824Y-74899780D01*
X193939824Y-72449780D02*
X191339824Y-72449780D01*
X193939824Y-72449780D02*
X193939824Y-71449780D01*
X193939824Y-74899780D02*
X193939824Y-75339780D01*
X193939824Y-75339780D02*
X197530678Y-75339780D01*
X195939824Y-69449780D02*
X204889824Y-69449780D01*
X204889824Y-69449780D02*
X204889824Y-69879780D01*
X204889824Y-72329780D02*
X204889824Y-73499780D01*
X204889824Y-72329780D02*
X207439824Y-72329780D01*
X204889824Y-73499780D02*
X199825000Y-73499780D01*
X207439824Y-69879780D02*
X204889824Y-69879780D01*
X207439824Y-72329780D02*
X207439824Y-69879780D01*
X193939824Y-71449780D02*
G75*
G02*
X195939824Y-69449780I2000004J-4D01*
G01*
X197530678Y-75339780D02*
G75*
G02*
X199825000Y-73499780I2294320J-510409D01*
G01*
%TO.C,D15*%
X212200000Y-39700000D02*
X212200000Y-42000000D01*
X212200000Y-42000000D02*
X216900000Y-42000000D01*
X216900000Y-39700000D02*
X212200000Y-39700000D01*
X216900000Y-39700000D02*
X216900000Y-42000000D01*
%TO.C,SW1*%
X29414824Y-34349780D02*
X29414824Y-36799780D01*
X29414824Y-36799780D02*
X32014824Y-36799780D01*
X32014824Y-34349780D02*
X29414824Y-34349780D01*
X32014824Y-34349780D02*
X32014824Y-33349780D01*
X32014824Y-36799780D02*
X32014824Y-37239780D01*
X32014824Y-37239780D02*
X35605678Y-37239780D01*
X34014824Y-31349780D02*
X42964824Y-31349780D01*
X42964824Y-31349780D02*
X42964824Y-31779780D01*
X42964824Y-34229780D02*
X42964824Y-35399780D01*
X42964824Y-34229780D02*
X45514824Y-34229780D01*
X42964824Y-35399780D02*
X37900000Y-35399780D01*
X45514824Y-31779780D02*
X42964824Y-31779780D01*
X45514824Y-34229780D02*
X45514824Y-31779780D01*
X32014824Y-33349780D02*
G75*
G02*
X34014824Y-31349780I2000004J-4D01*
G01*
X35605678Y-37239780D02*
G75*
G02*
X37900000Y-35399780I2294320J-510409D01*
G01*
%TO.C,SW62*%
X72277324Y-110549780D02*
X72277324Y-112999780D01*
X72277324Y-112999780D02*
X74877324Y-112999780D01*
X74877324Y-110549780D02*
X72277324Y-110549780D01*
X74877324Y-110549780D02*
X74877324Y-109549780D01*
X74877324Y-112999780D02*
X74877324Y-113439780D01*
X74877324Y-113439780D02*
X78468178Y-113439780D01*
X76877324Y-107549780D02*
X85827324Y-107549780D01*
X85827324Y-107549780D02*
X85827324Y-107979780D01*
X85827324Y-110429780D02*
X85827324Y-111599780D01*
X85827324Y-110429780D02*
X88377324Y-110429780D01*
X85827324Y-111599780D02*
X80762500Y-111599780D01*
X88377324Y-107979780D02*
X85827324Y-107979780D01*
X88377324Y-110429780D02*
X88377324Y-107979780D01*
X74877324Y-109549780D02*
G75*
G02*
X76877324Y-107549780I2000004J-4D01*
G01*
X78468178Y-113439780D02*
G75*
G02*
X80762500Y-111599780I2294320J-510409D01*
G01*
%TO.C,C12*%
X104334956Y-139383088D02*
X106154956Y-139383088D01*
X106154956Y-140303088D01*
X104334956Y-140303088D01*
X104334956Y-139383088D01*
%TO.C,SW8*%
X162764824Y-34349780D02*
X162764824Y-36799780D01*
X162764824Y-36799780D02*
X165364824Y-36799780D01*
X165364824Y-34349780D02*
X162764824Y-34349780D01*
X165364824Y-34349780D02*
X165364824Y-33349780D01*
X165364824Y-36799780D02*
X165364824Y-37239780D01*
X165364824Y-37239780D02*
X168955678Y-37239780D01*
X167364824Y-31349780D02*
X176314824Y-31349780D01*
X176314824Y-31349780D02*
X176314824Y-31779780D01*
X176314824Y-34229780D02*
X176314824Y-35399780D01*
X176314824Y-34229780D02*
X178864824Y-34229780D01*
X176314824Y-35399780D02*
X171250000Y-35399780D01*
X178864824Y-31779780D02*
X176314824Y-31779780D01*
X178864824Y-34229780D02*
X178864824Y-31779780D01*
X165364824Y-33349780D02*
G75*
G02*
X167364824Y-31349780I2000004J-4D01*
G01*
X168955678Y-37239780D02*
G75*
G02*
X171250000Y-35399780I2294320J-510409D01*
G01*
%TO.C,SW69*%
X205627324Y-110549780D02*
X205627324Y-112999780D01*
X205627324Y-112999780D02*
X208227324Y-112999780D01*
X208227324Y-110549780D02*
X205627324Y-110549780D01*
X208227324Y-110549780D02*
X208227324Y-109549780D01*
X208227324Y-112999780D02*
X208227324Y-113439780D01*
X208227324Y-113439780D02*
X211818178Y-113439780D01*
X210227324Y-107549780D02*
X219177324Y-107549780D01*
X219177324Y-107549780D02*
X219177324Y-107979780D01*
X219177324Y-110429780D02*
X219177324Y-111599780D01*
X219177324Y-110429780D02*
X221727324Y-110429780D01*
X219177324Y-111599780D02*
X214112500Y-111599780D01*
X221727324Y-107979780D02*
X219177324Y-107979780D01*
X221727324Y-110429780D02*
X221727324Y-107979780D01*
X208227324Y-109549780D02*
G75*
G02*
X210227324Y-107549780I2000004J-4D01*
G01*
X211818178Y-113439780D02*
G75*
G02*
X214112500Y-111599780I2294320J-510409D01*
G01*
%TO.C,C3*%
X122540000Y-143090000D02*
X123460000Y-143090000D01*
X123460000Y-144910000D01*
X122540000Y-144910000D01*
X122540000Y-143090000D01*
%TO.C,SW49*%
X81802324Y-91499780D02*
X81802324Y-93949780D01*
X81802324Y-93949780D02*
X84402324Y-93949780D01*
X84402324Y-91499780D02*
X81802324Y-91499780D01*
X84402324Y-91499780D02*
X84402324Y-90499780D01*
X84402324Y-93949780D02*
X84402324Y-94389780D01*
X84402324Y-94389780D02*
X87993178Y-94389780D01*
X86402324Y-88499780D02*
X95352324Y-88499780D01*
X95352324Y-88499780D02*
X95352324Y-88929780D01*
X95352324Y-91379780D02*
X95352324Y-92549780D01*
X95352324Y-91379780D02*
X97902324Y-91379780D01*
X95352324Y-92549780D02*
X90287500Y-92549780D01*
X97902324Y-88929780D02*
X95352324Y-88929780D01*
X97902324Y-91379780D02*
X97902324Y-88929780D01*
X84402324Y-90499780D02*
G75*
G02*
X86402324Y-88499780I2000004J-4D01*
G01*
X87993178Y-94389780D02*
G75*
G02*
X90287500Y-92549780I2294320J-510409D01*
G01*
%TO.C,SW73*%
X296114824Y-110549780D02*
X296114824Y-112999780D01*
X296114824Y-112999780D02*
X298714824Y-112999780D01*
X298714824Y-110549780D02*
X296114824Y-110549780D01*
X298714824Y-110549780D02*
X298714824Y-109549780D01*
X298714824Y-112999780D02*
X298714824Y-113439780D01*
X298714824Y-113439780D02*
X302305678Y-113439780D01*
X300714824Y-107549780D02*
X309664824Y-107549780D01*
X309664824Y-107549780D02*
X309664824Y-107979780D01*
X309664824Y-110429780D02*
X309664824Y-111599780D01*
X309664824Y-110429780D02*
X312214824Y-110429780D01*
X309664824Y-111599780D02*
X304600000Y-111599780D01*
X312214824Y-107979780D02*
X309664824Y-107979780D01*
X312214824Y-110429780D02*
X312214824Y-107979780D01*
X298714824Y-109549780D02*
G75*
G02*
X300714824Y-107549780I2000004J-4D01*
G01*
X302305678Y-113439780D02*
G75*
G02*
X304600000Y-111599780I2294320J-510409D01*
G01*
%TO.C,SW72*%
X269921074Y-110549780D02*
X269921074Y-112999780D01*
X269921074Y-112999780D02*
X272521074Y-112999780D01*
X272521074Y-110549780D02*
X269921074Y-110549780D01*
X272521074Y-110549780D02*
X272521074Y-109549780D01*
X272521074Y-112999780D02*
X272521074Y-113439780D01*
X272521074Y-113439780D02*
X276111928Y-113439780D01*
X274521074Y-107549780D02*
X283471074Y-107549780D01*
X283471074Y-107549780D02*
X283471074Y-107979780D01*
X283471074Y-110429780D02*
X283471074Y-111599780D01*
X283471074Y-110429780D02*
X286021074Y-110429780D01*
X283471074Y-111599780D02*
X278406250Y-111599780D01*
X286021074Y-107979780D02*
X283471074Y-107979780D01*
X286021074Y-110429780D02*
X286021074Y-107979780D01*
X272521074Y-109549780D02*
G75*
G02*
X274521074Y-107549780I2000004J-4D01*
G01*
X276111928Y-113439780D02*
G75*
G02*
X278406250Y-111599780I2294320J-510409D01*
G01*
%TO.C,SW34*%
X77039824Y-72449780D02*
X77039824Y-74899780D01*
X77039824Y-74899780D02*
X79639824Y-74899780D01*
X79639824Y-72449780D02*
X77039824Y-72449780D01*
X79639824Y-72449780D02*
X79639824Y-71449780D01*
X79639824Y-74899780D02*
X79639824Y-75339780D01*
X79639824Y-75339780D02*
X83230678Y-75339780D01*
X81639824Y-69449780D02*
X90589824Y-69449780D01*
X90589824Y-69449780D02*
X90589824Y-69879780D01*
X90589824Y-72329780D02*
X90589824Y-73499780D01*
X90589824Y-72329780D02*
X93139824Y-72329780D01*
X90589824Y-73499780D02*
X85525000Y-73499780D01*
X93139824Y-69879780D02*
X90589824Y-69879780D01*
X93139824Y-72329780D02*
X93139824Y-69879780D01*
X79639824Y-71449780D02*
G75*
G02*
X81639824Y-69449780I2000004J-4D01*
G01*
X83230678Y-75339780D02*
G75*
G02*
X85525000Y-73499780I2294320J-510409D01*
G01*
%TO.C,SW39*%
X172289824Y-72449780D02*
X172289824Y-74899780D01*
X172289824Y-74899780D02*
X174889824Y-74899780D01*
X174889824Y-72449780D02*
X172289824Y-72449780D01*
X174889824Y-72449780D02*
X174889824Y-71449780D01*
X174889824Y-74899780D02*
X174889824Y-75339780D01*
X174889824Y-75339780D02*
X178480678Y-75339780D01*
X176889824Y-69449780D02*
X185839824Y-69449780D01*
X185839824Y-69449780D02*
X185839824Y-69879780D01*
X185839824Y-72329780D02*
X185839824Y-73499780D01*
X185839824Y-72329780D02*
X188389824Y-72329780D01*
X185839824Y-73499780D02*
X180775000Y-73499780D01*
X188389824Y-69879780D02*
X185839824Y-69879780D01*
X188389824Y-72329780D02*
X188389824Y-69879780D01*
X174889824Y-71449780D02*
G75*
G02*
X176889824Y-69449780I2000004J-4D01*
G01*
X178480678Y-75339780D02*
G75*
G02*
X180775000Y-73499780I2294320J-510409D01*
G01*
%TO.C,C2*%
X117313881Y-142964903D02*
X118233881Y-142964903D01*
X118233881Y-144784903D01*
X117313881Y-144784903D01*
X117313881Y-142964903D01*
%TO.C,D45*%
X278875000Y-77800000D02*
X278875000Y-80100000D01*
X278875000Y-80100000D02*
X283575000Y-80100000D01*
X283575000Y-77800000D02*
X278875000Y-77800000D01*
X283575000Y-77800000D02*
X283575000Y-80100000D01*
%TO.C,C14*%
X117971404Y-134929849D02*
X116684470Y-136216783D01*
X116033932Y-135566245D01*
X117320866Y-134279311D01*
X117971404Y-134929849D01*
%TO.C,D31*%
X326500000Y-58750000D02*
X326500000Y-61050000D01*
X326500000Y-61050000D02*
X331200000Y-61050000D01*
X331200000Y-58750000D02*
X326500000Y-58750000D01*
X331200000Y-58750000D02*
X331200000Y-61050000D01*
%TO.C,SW41*%
X210389824Y-72449780D02*
X210389824Y-74899780D01*
X210389824Y-74899780D02*
X212989824Y-74899780D01*
X212989824Y-72449780D02*
X210389824Y-72449780D01*
X212989824Y-72449780D02*
X212989824Y-71449780D01*
X212989824Y-74899780D02*
X212989824Y-75339780D01*
X212989824Y-75339780D02*
X216580678Y-75339780D01*
X214989824Y-69449780D02*
X223939824Y-69449780D01*
X223939824Y-69449780D02*
X223939824Y-69879780D01*
X223939824Y-72329780D02*
X223939824Y-73499780D01*
X223939824Y-72329780D02*
X226489824Y-72329780D01*
X223939824Y-73499780D02*
X218875000Y-73499780D01*
X226489824Y-69879780D02*
X223939824Y-69879780D01*
X226489824Y-72329780D02*
X226489824Y-69879780D01*
X212989824Y-71449780D02*
G75*
G02*
X214989824Y-69449780I2000004J-4D01*
G01*
X216580678Y-75339780D02*
G75*
G02*
X218875000Y-73499780I2294320J-510409D01*
G01*
%TO.C,D51*%
X112187500Y-96850000D02*
X112187500Y-99150000D01*
X112187500Y-99150000D02*
X116887500Y-99150000D01*
X116887500Y-96850000D02*
X112187500Y-96850000D01*
X116887500Y-96850000D02*
X116887500Y-99150000D01*
%TO.C,R3*%
X108542894Y-132110000D02*
X109462894Y-132110000D01*
X109462894Y-133930000D01*
X108542894Y-133930000D01*
X108542894Y-132110000D01*
%TO.C,D61*%
X197912500Y-115900000D02*
X197912500Y-118200000D01*
X197912500Y-118200000D02*
X202612500Y-118200000D01*
X202612500Y-115900000D02*
X197912500Y-115900000D01*
X202612500Y-115900000D02*
X202612500Y-118200000D01*
%TO.C,F1*%
X59585000Y-35030000D02*
X61445000Y-35030000D01*
X61445000Y-35970000D01*
X59585000Y-35970000D01*
X59585000Y-35030000D01*
%TO.C,R4*%
X109540000Y-131860540D02*
X110460000Y-131860540D01*
X110460000Y-133680540D01*
X109540000Y-133680540D01*
X109540000Y-131860540D01*
%TO.C,SW25*%
X181814824Y-53399780D02*
X181814824Y-55849780D01*
X181814824Y-55849780D02*
X184414824Y-55849780D01*
X184414824Y-53399780D02*
X181814824Y-53399780D01*
X184414824Y-53399780D02*
X184414824Y-52399780D01*
X184414824Y-55849780D02*
X184414824Y-56289780D01*
X184414824Y-56289780D02*
X188005678Y-56289780D01*
X186414824Y-50399780D02*
X195364824Y-50399780D01*
X195364824Y-50399780D02*
X195364824Y-50829780D01*
X195364824Y-53279780D02*
X195364824Y-54449780D01*
X195364824Y-53279780D02*
X197914824Y-53279780D01*
X195364824Y-54449780D02*
X190300000Y-54449780D01*
X197914824Y-50829780D02*
X195364824Y-50829780D01*
X197914824Y-53279780D02*
X197914824Y-50829780D01*
X184414824Y-52399780D02*
G75*
G02*
X186414824Y-50399780I2000004J-4D01*
G01*
X188005678Y-56289780D02*
G75*
G02*
X190300000Y-54449780I2294320J-510409D01*
G01*
%TO.C,SW64*%
X110377324Y-110549780D02*
X110377324Y-112999780D01*
X110377324Y-112999780D02*
X112977324Y-112999780D01*
X112977324Y-110549780D02*
X110377324Y-110549780D01*
X112977324Y-110549780D02*
X112977324Y-109549780D01*
X112977324Y-112999780D02*
X112977324Y-113439780D01*
X112977324Y-113439780D02*
X116568178Y-113439780D01*
X114977324Y-107549780D02*
X123927324Y-107549780D01*
X123927324Y-107549780D02*
X123927324Y-107979780D01*
X123927324Y-110429780D02*
X123927324Y-111599780D01*
X123927324Y-110429780D02*
X126477324Y-110429780D01*
X123927324Y-111599780D02*
X118862500Y-111599780D01*
X126477324Y-107979780D02*
X123927324Y-107979780D01*
X126477324Y-110429780D02*
X126477324Y-107979780D01*
X112977324Y-109549780D02*
G75*
G02*
X114977324Y-107549780I2000004J-4D01*
G01*
X116568178Y-113439780D02*
G75*
G02*
X118862500Y-111599780I2294320J-510409D01*
G01*
%TO.C,D69*%
X281256250Y-115900000D02*
X281256250Y-118200000D01*
X281256250Y-118200000D02*
X285956250Y-118200000D01*
X285956250Y-115900000D02*
X281256250Y-115900000D01*
X285956250Y-115900000D02*
X285956250Y-118200000D01*
%TO.C,U3*%
X59450000Y-44500000D02*
X59450000Y-45610000D01*
X59450000Y-45610000D02*
X60450000Y-45610000D01*
X59450000Y-46390000D02*
X59450000Y-47500000D01*
X59450000Y-47500000D02*
X60450000Y-47500000D01*
X60450000Y-44300000D02*
X60450000Y-44500000D01*
X60450000Y-44500000D02*
X59450000Y-44500000D01*
X60450000Y-45610000D02*
X60450000Y-46390000D01*
X60450000Y-46390000D02*
X59450000Y-46390000D01*
X60450000Y-47500000D02*
X60450000Y-47700000D01*
X60450000Y-47700000D02*
X62550000Y-47700000D01*
X62550000Y-44300000D02*
X60450000Y-44300000D01*
X62550000Y-45450000D02*
X62550000Y-44300000D01*
X62550000Y-46550000D02*
X63550000Y-46550000D01*
X62550000Y-47700000D02*
X62550000Y-46550000D01*
X63550000Y-45450000D02*
X62550000Y-45450000D01*
X63550000Y-46550000D02*
X63550000Y-45450000D01*
%TO.C,D35*%
X164575000Y-77800000D02*
X164575000Y-80100000D01*
X164575000Y-80100000D02*
X169275000Y-80100000D01*
X169275000Y-77800000D02*
X164575000Y-77800000D01*
X169275000Y-77800000D02*
X169275000Y-80100000D01*
%TO.C,C16*%
X59520000Y-42770000D02*
X62480000Y-42770000D01*
X62480000Y-44230000D01*
X59520000Y-44230000D01*
X59520000Y-42770000D01*
%TO.C,D7*%
X59800000Y-40350000D02*
X59800000Y-42650000D01*
X59800000Y-42650000D02*
X64500000Y-42650000D01*
X64500000Y-40350000D02*
X59800000Y-40350000D01*
X64500000Y-40350000D02*
X64500000Y-42650000D01*
%TO.C,D39*%
X88375000Y-77800000D02*
X88375000Y-80100000D01*
X88375000Y-80100000D02*
X93075000Y-80100000D01*
X93075000Y-77800000D02*
X88375000Y-77800000D01*
X93075000Y-77800000D02*
X93075000Y-80100000D01*
%TO.C,SW71*%
X243727324Y-110549780D02*
X243727324Y-112999780D01*
X243727324Y-112999780D02*
X246327324Y-112999780D01*
X246327324Y-110549780D02*
X243727324Y-110549780D01*
X246327324Y-110549780D02*
X246327324Y-109549780D01*
X246327324Y-112999780D02*
X246327324Y-113439780D01*
X246327324Y-113439780D02*
X249918178Y-113439780D01*
X248327324Y-107549780D02*
X257277324Y-107549780D01*
X257277324Y-107549780D02*
X257277324Y-107979780D01*
X257277324Y-110429780D02*
X257277324Y-111599780D01*
X257277324Y-110429780D02*
X259827324Y-110429780D01*
X257277324Y-111599780D02*
X252212500Y-111599780D01*
X259827324Y-107979780D02*
X257277324Y-107979780D01*
X259827324Y-110429780D02*
X259827324Y-107979780D01*
X246327324Y-109549780D02*
G75*
G02*
X248327324Y-107549780I2000004J-4D01*
G01*
X249918178Y-113439780D02*
G75*
G02*
X252212500Y-111599780I2294320J-510409D01*
G01*
%TO.C,SW84*%
X315164824Y-129599780D02*
X315164824Y-132049780D01*
X315164824Y-132049780D02*
X317764824Y-132049780D01*
X317764824Y-129599780D02*
X315164824Y-129599780D01*
X317764824Y-129599780D02*
X317764824Y-128599780D01*
X317764824Y-132049780D02*
X317764824Y-132489780D01*
X317764824Y-132489780D02*
X321355678Y-132489780D01*
X319764824Y-126599780D02*
X328714824Y-126599780D01*
X328714824Y-126599780D02*
X328714824Y-127029780D01*
X328714824Y-129479780D02*
X328714824Y-130649780D01*
X328714824Y-129479780D02*
X331264824Y-129479780D01*
X328714824Y-130649780D02*
X323650000Y-130649780D01*
X331264824Y-127029780D02*
X328714824Y-127029780D01*
X331264824Y-129479780D02*
X331264824Y-127029780D01*
X317764824Y-128599780D02*
G75*
G02*
X319764824Y-126599780I2000004J-4D01*
G01*
X321355678Y-132489780D02*
G75*
G02*
X323650000Y-130649780I2294320J-510409D01*
G01*
%TO.C,C1*%
X116110000Y-125040000D02*
X117930000Y-125040000D01*
X117930000Y-125960000D01*
X116110000Y-125960000D01*
X116110000Y-125040000D01*
%TO.C,SW4*%
X86564824Y-34349780D02*
X86564824Y-36799780D01*
X86564824Y-36799780D02*
X89164824Y-36799780D01*
X89164824Y-34349780D02*
X86564824Y-34349780D01*
X89164824Y-34349780D02*
X89164824Y-33349780D01*
X89164824Y-36799780D02*
X89164824Y-37239780D01*
X89164824Y-37239780D02*
X92755678Y-37239780D01*
X91164824Y-31349780D02*
X100114824Y-31349780D01*
X100114824Y-31349780D02*
X100114824Y-31779780D01*
X100114824Y-34229780D02*
X100114824Y-35399780D01*
X100114824Y-34229780D02*
X102664824Y-34229780D01*
X100114824Y-35399780D02*
X95050000Y-35399780D01*
X102664824Y-31779780D02*
X100114824Y-31779780D01*
X102664824Y-34229780D02*
X102664824Y-31779780D01*
X89164824Y-33349780D02*
G75*
G02*
X91164824Y-31349780I2000004J-4D01*
G01*
X92755678Y-37239780D02*
G75*
G02*
X95050000Y-35399780I2294320J-510409D01*
G01*
%TO.C,SW77*%
X79421074Y-129599780D02*
X79421074Y-132049780D01*
X79421074Y-132049780D02*
X82021074Y-132049780D01*
X82021074Y-129599780D02*
X79421074Y-129599780D01*
X82021074Y-129599780D02*
X82021074Y-128599780D01*
X82021074Y-132049780D02*
X82021074Y-132489780D01*
X82021074Y-132489780D02*
X85611928Y-132489780D01*
X84021074Y-126599780D02*
X92971074Y-126599780D01*
X92971074Y-126599780D02*
X92971074Y-127029780D01*
X92971074Y-129479780D02*
X92971074Y-130649780D01*
X92971074Y-129479780D02*
X95521074Y-129479780D01*
X92971074Y-130649780D02*
X87906250Y-130649780D01*
X95521074Y-127029780D02*
X92971074Y-127029780D01*
X95521074Y-129479780D02*
X95521074Y-127029780D01*
X82021074Y-128599780D02*
G75*
G02*
X84021074Y-126599780I2000004J-4D01*
G01*
X85611928Y-132489780D02*
G75*
G02*
X87906250Y-130649780I2294320J-510409D01*
G01*
%TD*%
M02*
