%TF.GenerationSoftware,KiCad,Pcbnew,10.0.6*%
%TF.CreationDate,2026-09-21T13:05:56-04:00*%
%TF.ProjectId,KBoard,4b426f61-7264-42e6-9b69-6361645f7063,rev?*%
%TF.SameCoordinates,Original*%
%TF.FileFunction,Paste,Bot*%
%TF.FilePolarity,Positive*%
%FSLAX46Y46*%
G04 Gerber Fmt 4.6, Leading zero omitted, Abs format (unit mm)*
G04 Created by KiCad (PCBNEW 10.0.6) date 2026-09-21 13:05:56*
%MOMM*%
%LPD*%
G01*
G04 APERTURE LIST*
G04 Aperture macros list*
%AMRoundRect*
0 Rectangle with rounded corners*
0 $1 Rounding radius*
0 $2 $3 $4 $5 $6 $7 $8 $9 X,Y pos of 4 corners*
0 Add a 4 corners polygon primitive as box body*
4,1,4,$2,$3,$4,$5,$6,$7,$8,$9,$2,$3,0*
0 Add four circle primitives for the rounded corners*
1,1,$1+$1,$2,$3*
1,1,$1+$1,$4,$5*
1,1,$1+$1,$6,$7*
1,1,$1+$1,$8,$9*
0 Add four rect primitives between the rounded corners*
20,1,$1+$1,$2,$3,$4,$5,0*
20,1,$1+$1,$4,$5,$6,$7,0*
20,1,$1+$1,$6,$7,$8,$9,0*
20,1,$1+$1,$8,$9,$2,$3,0*%
G04 Aperture macros list end*
%ADD10RoundRect,0.225000X0.225000X0.375000X-0.225000X0.375000X-0.225000X-0.375000X0.225000X-0.375000X0*%
%ADD11RoundRect,0.250000X1.025000X1.000000X-1.025000X1.000000X-1.025000X-1.000000X1.025000X-1.000000X0*%
%ADD12RoundRect,0.225000X-0.225000X-0.250000X0.225000X-0.250000X0.225000X0.250000X-0.225000X0.250000X0*%
%ADD13RoundRect,0.140000X0.021213X-0.219203X0.219203X-0.021213X-0.021213X0.219203X-0.219203X0.021213X0*%
%ADD14RoundRect,0.140000X0.140000X0.170000X-0.140000X0.170000X-0.140000X-0.170000X0.140000X-0.170000X0*%
%ADD15RoundRect,0.225000X0.225000X0.250000X-0.225000X0.250000X-0.225000X-0.250000X0.225000X-0.250000X0*%
%ADD16R,1.500000X1.500000*%
%ADD17RoundRect,0.140000X-0.170000X0.140000X-0.170000X-0.140000X0.170000X-0.140000X0.170000X0.140000X0*%
%ADD18R,0.600000X1.150000*%
%ADD19R,0.300000X1.150000*%
%ADD20RoundRect,0.162500X0.650000X0.162500X-0.650000X0.162500X-0.650000X-0.162500X0.650000X-0.162500X0*%
%ADD21RoundRect,0.140000X-0.140000X-0.170000X0.140000X-0.170000X0.140000X0.170000X-0.140000X0.170000X0*%
%ADD22RoundRect,0.140000X0.170000X-0.140000X0.170000X0.140000X-0.170000X0.140000X-0.170000X-0.140000X0*%
%ADD23RoundRect,0.249999X0.395001X0.395001X-0.395001X0.395001X-0.395001X-0.395001X0.395001X-0.395001X0*%
%ADD24RoundRect,0.050000X0.387500X0.050000X-0.387500X0.050000X-0.387500X-0.050000X0.387500X-0.050000X0*%
%ADD25RoundRect,0.050000X0.050000X0.387500X-0.050000X0.387500X-0.050000X-0.387500X0.050000X-0.387500X0*%
%ADD26RoundRect,0.150000X0.512500X0.150000X-0.512500X0.150000X-0.512500X-0.150000X0.512500X-0.150000X0*%
%ADD27RoundRect,0.250000X-1.000000X1.025000X-1.000000X-1.025000X1.000000X-1.025000X1.000000X1.025000X0*%
%ADD28RoundRect,0.250000X-0.450000X-0.350000X0.450000X-0.350000X0.450000X0.350000X-0.450000X0.350000X0*%
%ADD29RoundRect,0.147500X0.147500X0.172500X-0.147500X0.172500X-0.147500X-0.172500X0.147500X-0.172500X0*%
%ADD30RoundRect,0.150000X-0.512500X-0.150000X0.512500X-0.150000X0.512500X0.150000X-0.512500X0.150000X0*%
G04 APERTURE END LIST*
D10*
%TO.C,D53*%
X78087500Y-98000000D03*
X74787500Y-98000000D03*
%TD*%
%TO.C,D10*%
X311450000Y-40850000D03*
X308150000Y-40850000D03*
%TD*%
D11*
%TO.C,SW31*%
X316490000Y-54610000D03*
X329940000Y-52070000D03*
%TD*%
D10*
%TO.C,D74*%
X330500000Y-117050000D03*
X327200000Y-117050000D03*
%TD*%
%TO.C,D84*%
X273350000Y-136100000D03*
X270050000Y-136100000D03*
%TD*%
%TO.C,D26*%
X120950000Y-59900000D03*
X117650000Y-59900000D03*
%TD*%
D11*
%TO.C,SW82*%
X278390000Y-130810000D03*
X291840000Y-128270000D03*
%TD*%
D10*
%TO.C,D65*%
X125712500Y-117050000D03*
X122412500Y-117050000D03*
%TD*%
%TO.C,D27*%
X101900000Y-59900000D03*
X98600000Y-59900000D03*
%TD*%
%TO.C,D3*%
X140000000Y-40850000D03*
X136700000Y-40850000D03*
%TD*%
D11*
%TO.C,SW15*%
X297440000Y-35560000D03*
X310890000Y-33020000D03*
%TD*%
%TO.C,SW53*%
X159327500Y-92710000D03*
X172777500Y-90170000D03*
%TD*%
%TO.C,SW10*%
X202190000Y-35560000D03*
X215640000Y-33020000D03*
%TD*%
D10*
%TO.C,D23*%
X178100000Y-59900000D03*
X174800000Y-59900000D03*
%TD*%
D11*
%TO.C,SW5*%
X106940000Y-35560000D03*
X120390000Y-33020000D03*
%TD*%
D10*
%TO.C,D43*%
X244775000Y-78950000D03*
X241475000Y-78950000D03*
%TD*%
D11*
%TO.C,SW14*%
X278390000Y-35560000D03*
X291840000Y-33020000D03*
%TD*%
D12*
%TO.C,C17*%
X63288575Y-44353394D03*
X64838575Y-44353394D03*
%TD*%
D11*
%TO.C,SW22*%
X125990000Y-54610000D03*
X139440000Y-52070000D03*
%TD*%
D10*
%TO.C,D1*%
X178100000Y-40850000D03*
X174800000Y-40850000D03*
%TD*%
%TO.C,D80*%
X254300000Y-136100000D03*
X251000000Y-136100000D03*
%TD*%
D11*
%TO.C,SW44*%
X268865000Y-73660000D03*
X282315000Y-71120000D03*
%TD*%
D13*
%TO.C,C9*%
X115742708Y-135122689D03*
X116421530Y-134443867D03*
%TD*%
D11*
%TO.C,SW52*%
X140277500Y-92710000D03*
X153727500Y-90170000D03*
%TD*%
%TO.C,SW38*%
X154565000Y-73660000D03*
X168015000Y-71120000D03*
%TD*%
%TO.C,SW56*%
X216477500Y-92710000D03*
X229927500Y-90170000D03*
%TD*%
D10*
%TO.C,D83*%
X292400000Y-136100000D03*
X289100000Y-136100000D03*
%TD*%
%TO.C,D20*%
X235250000Y-59900000D03*
X231950000Y-59900000D03*
%TD*%
%TO.C,D28*%
X82850000Y-59900000D03*
X79550000Y-59900000D03*
%TD*%
%TO.C,D58*%
X211437500Y-98000000D03*
X208137500Y-98000000D03*
%TD*%
D11*
%TO.C,SW26*%
X202190000Y-54610000D03*
X215640000Y-52070000D03*
%TD*%
D14*
%TO.C,C5*%
X106609048Y-132587749D03*
X105649048Y-132587749D03*
%TD*%
D11*
%TO.C,SW80*%
X240290000Y-130810000D03*
X253740000Y-128270000D03*
%TD*%
%TO.C,SW54*%
X178377500Y-92710000D03*
X191827500Y-90170000D03*
%TD*%
%TO.C,SW20*%
X87890000Y-54610000D03*
X101340000Y-52070000D03*
%TD*%
D10*
%TO.C,D16*%
X197150000Y-40850000D03*
X193850000Y-40850000D03*
%TD*%
%TO.C,D73*%
X311450000Y-117050000D03*
X308150000Y-117050000D03*
%TD*%
%TO.C,D40*%
X73325000Y-78950000D03*
X70025000Y-78950000D03*
%TD*%
%TO.C,D33*%
X206675000Y-78950000D03*
X203375000Y-78950000D03*
%TD*%
D15*
%TO.C,C6*%
X106424587Y-133802028D03*
X104874587Y-133802028D03*
%TD*%
D11*
%TO.C,SW70*%
X226002500Y-111760000D03*
X239452500Y-109220000D03*
%TD*%
%TO.C,SW37*%
X135515000Y-73660000D03*
X148965000Y-71120000D03*
%TD*%
D10*
%TO.C,D62*%
X182862500Y-117050000D03*
X179562500Y-117050000D03*
%TD*%
D16*
%TO.C,SW85*%
X128200000Y-126000000D03*
X136000000Y-126000000D03*
%TD*%
D10*
%TO.C,D25*%
X140000000Y-59900000D03*
X136700000Y-59900000D03*
%TD*%
%TO.C,D48*%
X173337500Y-98000000D03*
X170037500Y-98000000D03*
%TD*%
%TO.C,D70*%
X259062500Y-117050000D03*
X255762500Y-117050000D03*
%TD*%
D11*
%TO.C,SW35*%
X97415000Y-73660000D03*
X110865000Y-71120000D03*
%TD*%
D10*
%TO.C,D36*%
X149525000Y-78950000D03*
X146225000Y-78950000D03*
%TD*%
D11*
%TO.C,SW11*%
X221240000Y-35560000D03*
X234690000Y-33020000D03*
%TD*%
%TO.C,SW36*%
X116465000Y-73660000D03*
X129915000Y-71120000D03*
%TD*%
D10*
%TO.C,D59*%
X299543750Y-98000000D03*
X296243750Y-98000000D03*
%TD*%
D11*
%TO.C,SW60*%
X316490000Y-92710000D03*
X329940000Y-90170000D03*
%TD*%
D10*
%TO.C,D55*%
X268587500Y-98000000D03*
X265287500Y-98000000D03*
%TD*%
D11*
%TO.C,SW9*%
X183140000Y-35560000D03*
X196590000Y-33020000D03*
%TD*%
%TO.C,SW13*%
X259340000Y-35560000D03*
X272790000Y-33020000D03*
%TD*%
D10*
%TO.C,D38*%
X111425000Y-78950000D03*
X108125000Y-78950000D03*
%TD*%
%TO.C,D21*%
X216200000Y-59900000D03*
X212900000Y-59900000D03*
%TD*%
D17*
%TO.C,C15*%
X110194622Y-143272523D03*
X110194622Y-144232523D03*
%TD*%
D10*
%TO.C,D63*%
X163812500Y-117050000D03*
X160512500Y-117050000D03*
%TD*%
D17*
%TO.C,R2*%
X126500000Y-125520000D03*
X126500000Y-126480000D03*
%TD*%
D11*
%TO.C,SW45*%
X292677500Y-73660000D03*
X306127500Y-71120000D03*
%TD*%
%TO.C,SW81*%
X259340000Y-130810000D03*
X272790000Y-128270000D03*
%TD*%
%TO.C,SW12*%
X240290000Y-35560000D03*
X253740000Y-33020000D03*
%TD*%
D10*
%TO.C,D13*%
X254300000Y-40850000D03*
X251000000Y-40850000D03*
%TD*%
D11*
%TO.C,SW58*%
X254577500Y-92710000D03*
X268027500Y-90170000D03*
%TD*%
%TO.C,SW79*%
X221240000Y-130810000D03*
X234690000Y-128270000D03*
%TD*%
%TO.C,SW47*%
X37883750Y-92710000D03*
X51333750Y-90170000D03*
%TD*%
%TO.C,SW24*%
X164090000Y-54610000D03*
X177540000Y-52070000D03*
%TD*%
D12*
%TO.C,C7*%
X112296127Y-131832411D03*
X113846127Y-131832411D03*
%TD*%
D11*
%TO.C,SW50*%
X102177500Y-92710000D03*
X115627500Y-90170000D03*
%TD*%
D10*
%TO.C,D71*%
X240012500Y-117050000D03*
X236712500Y-117050000D03*
%TD*%
%TO.C,D19*%
X254300000Y-59900000D03*
X251000000Y-59900000D03*
%TD*%
D15*
%TO.C,C8*%
X58500000Y-45000000D03*
X56950000Y-45000000D03*
%TD*%
D18*
%TO.C,J2*%
X60400000Y-30500000D03*
X61200000Y-30500000D03*
D19*
X62350000Y-30500000D03*
X63350000Y-30500000D03*
X63850000Y-30500000D03*
X64850000Y-30500000D03*
D18*
X66800000Y-30500000D03*
X66000000Y-30500000D03*
D19*
X65350000Y-30500000D03*
X64350000Y-30500000D03*
X62850000Y-30500000D03*
X61850000Y-30500000D03*
%TD*%
D11*
%TO.C,SW6*%
X125990000Y-35560000D03*
X139440000Y-33020000D03*
%TD*%
D10*
%TO.C,D41*%
X49512500Y-78950000D03*
X46212500Y-78950000D03*
%TD*%
D20*
%TO.C,U2*%
X124587500Y-126595000D03*
X124587500Y-127865000D03*
X124587500Y-129135000D03*
X124587500Y-130405000D03*
X117412500Y-130405000D03*
X117412500Y-129135000D03*
X117412500Y-127865000D03*
X117412500Y-126595000D03*
%TD*%
D17*
%TO.C,R6*%
X65920995Y-34775271D03*
X65920995Y-35735271D03*
%TD*%
D21*
%TO.C,C10*%
X115540000Y-139000000D03*
X116500000Y-139000000D03*
%TD*%
D10*
%TO.C,D4*%
X120950000Y-40850000D03*
X117650000Y-40850000D03*
%TD*%
%TO.C,D44*%
X306687500Y-78950000D03*
X303387500Y-78950000D03*
%TD*%
%TO.C,D60*%
X330500000Y-98000000D03*
X327200000Y-98000000D03*
%TD*%
%TO.C,D52*%
X97137500Y-98000000D03*
X93837500Y-98000000D03*
%TD*%
D22*
%TO.C,C13*%
X108000000Y-133000000D03*
X108000000Y-132040000D03*
%TD*%
D11*
%TO.C,SW43*%
X249815000Y-73660000D03*
X263265000Y-71120000D03*
%TD*%
D10*
%TO.C,D14*%
X235250000Y-40850000D03*
X231950000Y-40850000D03*
%TD*%
%TO.C,D8*%
X44750000Y-40850000D03*
X41450000Y-40850000D03*
%TD*%
D11*
%TO.C,SW63*%
X92652500Y-111760000D03*
X106102500Y-109220000D03*
%TD*%
D10*
%TO.C,D66*%
X106662500Y-117050000D03*
X103362500Y-117050000D03*
%TD*%
D11*
%TO.C,SW55*%
X197427500Y-92710000D03*
X210877500Y-90170000D03*
%TD*%
D17*
%TO.C,R1*%
X111179769Y-143270321D03*
X111179769Y-144230321D03*
%TD*%
D11*
%TO.C,SW59*%
X285533750Y-92710000D03*
X298983750Y-90170000D03*
%TD*%
D10*
%TO.C,D82*%
X311450000Y-136100000D03*
X308150000Y-136100000D03*
%TD*%
%TO.C,D77*%
X94756250Y-136100000D03*
X91456250Y-136100000D03*
%TD*%
%TO.C,D34*%
X187625000Y-78950000D03*
X184325000Y-78950000D03*
%TD*%
D11*
%TO.C,SW57*%
X235527500Y-92710000D03*
X248977500Y-90170000D03*
%TD*%
%TO.C,SW61*%
X42646250Y-111760000D03*
X56096250Y-109220000D03*
%TD*%
%TO.C,SW19*%
X68840000Y-54610000D03*
X82290000Y-52070000D03*
%TD*%
D10*
%TO.C,D2*%
X159050000Y-40850000D03*
X155750000Y-40850000D03*
%TD*%
%TO.C,D30*%
X44750000Y-59900000D03*
X41450000Y-59900000D03*
%TD*%
D23*
%TO.C,U1*%
X111700000Y-139362500D03*
X111700000Y-137762500D03*
X110100000Y-139362500D03*
X110100000Y-137762500D03*
D24*
X114337500Y-135962500D03*
X114337500Y-136362500D03*
X114337500Y-136762500D03*
X114337500Y-137162500D03*
X114337500Y-137562500D03*
X114337500Y-137962500D03*
X114337500Y-138362500D03*
X114337500Y-138762500D03*
X114337500Y-139162500D03*
X114337500Y-139562500D03*
X114337500Y-139962500D03*
X114337500Y-140362500D03*
X114337500Y-140762500D03*
X114337500Y-141162500D03*
D25*
X113500000Y-142000000D03*
X113100000Y-142000000D03*
X112700000Y-142000000D03*
X112300000Y-142000000D03*
X111900000Y-142000000D03*
X111500000Y-142000000D03*
X111100000Y-142000000D03*
X110700000Y-142000000D03*
X110300000Y-142000000D03*
X109900000Y-142000000D03*
X109500000Y-142000000D03*
X109100000Y-142000000D03*
X108700000Y-142000000D03*
X108300000Y-142000000D03*
D24*
X107462500Y-141162500D03*
X107462500Y-140762500D03*
X107462500Y-140362500D03*
X107462500Y-139962500D03*
X107462500Y-139562500D03*
X107462500Y-139162500D03*
X107462500Y-138762500D03*
X107462500Y-138362500D03*
X107462500Y-137962500D03*
X107462500Y-137562500D03*
X107462500Y-137162500D03*
X107462500Y-136762500D03*
X107462500Y-136362500D03*
X107462500Y-135962500D03*
D25*
X108300000Y-135125000D03*
X108700000Y-135125000D03*
X109100000Y-135125000D03*
X109500000Y-135125000D03*
X109900000Y-135125000D03*
X110300000Y-135125000D03*
X110700000Y-135125000D03*
X111100000Y-135125000D03*
X111500000Y-135125000D03*
X111900000Y-135125000D03*
X112300000Y-135125000D03*
X112700000Y-135125000D03*
X113100000Y-135125000D03*
X113500000Y-135125000D03*
%TD*%
D10*
%TO.C,D46*%
X330500000Y-78950000D03*
X327200000Y-78950000D03*
%TD*%
%TO.C,D6*%
X82850000Y-40850000D03*
X79550000Y-40850000D03*
%TD*%
%TO.C,D18*%
X273350000Y-59900000D03*
X270050000Y-59900000D03*
%TD*%
D11*
%TO.C,SW42*%
X230765000Y-73660000D03*
X244215000Y-71120000D03*
%TD*%
%TO.C,SW78*%
X152183750Y-130810000D03*
X165633750Y-128270000D03*
%TD*%
D10*
%TO.C,D75*%
X47131250Y-136100000D03*
X43831250Y-136100000D03*
%TD*%
%TO.C,D29*%
X63800000Y-59900000D03*
X60500000Y-59900000D03*
%TD*%
D11*
%TO.C,SW3*%
X68840000Y-35560000D03*
X82290000Y-33020000D03*
%TD*%
%TO.C,SW66*%
X149802500Y-111760000D03*
X163252500Y-109220000D03*
%TD*%
D10*
%TO.C,D81*%
X330500000Y-136100000D03*
X327200000Y-136100000D03*
%TD*%
%TO.C,D22*%
X197150000Y-59900000D03*
X193850000Y-59900000D03*
%TD*%
%TO.C,D56*%
X249537500Y-98000000D03*
X246237500Y-98000000D03*
%TD*%
D11*
%TO.C,SW83*%
X297440000Y-130810000D03*
X310890000Y-128270000D03*
%TD*%
%TO.C,SW29*%
X259340000Y-54610000D03*
X272790000Y-52070000D03*
%TD*%
D10*
%TO.C,D50*%
X135237500Y-98000000D03*
X131937500Y-98000000D03*
%TD*%
D26*
%TO.C,U4*%
X65309726Y-36751902D03*
X65309726Y-37701902D03*
X65309726Y-38651902D03*
X63034726Y-38651902D03*
X63034726Y-37701902D03*
X63034726Y-36751902D03*
%TD*%
D14*
%TO.C,C11*%
X106198553Y-136862211D03*
X105238553Y-136862211D03*
%TD*%
D11*
%TO.C,SW27*%
X221240000Y-54610000D03*
X234690000Y-52070000D03*
%TD*%
%TO.C,SW51*%
X121227500Y-92710000D03*
X134677500Y-90170000D03*
%TD*%
D10*
%TO.C,D76*%
X70943750Y-136100000D03*
X67643750Y-136100000D03*
%TD*%
D11*
%TO.C,SW67*%
X168852500Y-111760000D03*
X182302500Y-109220000D03*
%TD*%
D10*
%TO.C,D42*%
X263825000Y-78950000D03*
X260525000Y-78950000D03*
%TD*%
D11*
%TO.C,SW46*%
X316490000Y-73660000D03*
X329940000Y-71120000D03*
%TD*%
D10*
%TO.C,D12*%
X273350000Y-40850000D03*
X270050000Y-40850000D03*
%TD*%
D11*
%TO.C,SW28*%
X240290000Y-54610000D03*
X253740000Y-52070000D03*
%TD*%
D10*
%TO.C,D57*%
X230487500Y-98000000D03*
X227187500Y-98000000D03*
%TD*%
%TO.C,D68*%
X56656250Y-117050000D03*
X53356250Y-117050000D03*
%TD*%
D11*
%TO.C,SW30*%
X287915000Y-54610000D03*
X301365000Y-52070000D03*
%TD*%
D10*
%TO.C,D5*%
X101900000Y-40850000D03*
X98600000Y-40850000D03*
%TD*%
%TO.C,D32*%
X225725000Y-78950000D03*
X222425000Y-78950000D03*
%TD*%
%TO.C,D79*%
X235250000Y-136100000D03*
X231950000Y-136100000D03*
%TD*%
%TO.C,D47*%
X192387500Y-98000000D03*
X189087500Y-98000000D03*
%TD*%
D22*
%TO.C,R5*%
X62484379Y-35771720D03*
X62484379Y-34811720D03*
%TD*%
D10*
%TO.C,D24*%
X159050000Y-59900000D03*
X155750000Y-59900000D03*
%TD*%
D11*
%TO.C,SW18*%
X49790000Y-54610000D03*
X63240000Y-52070000D03*
%TD*%
D14*
%TO.C,C4*%
X106672102Y-135035430D03*
X105712102Y-135035430D03*
%TD*%
D10*
%TO.C,D72*%
X220962500Y-117050000D03*
X217662500Y-117050000D03*
%TD*%
D27*
%TO.C,SW2*%
X54610000Y-45460000D03*
X52070000Y-32010000D03*
%TD*%
D11*
%TO.C,SW32*%
X35502500Y-73660000D03*
X48952500Y-71120000D03*
%TD*%
D10*
%TO.C,D49*%
X154287500Y-98000000D03*
X150987500Y-98000000D03*
%TD*%
D11*
%TO.C,SW33*%
X59315000Y-73660000D03*
X72765000Y-71120000D03*
%TD*%
%TO.C,SW65*%
X130752500Y-111760000D03*
X144202500Y-109220000D03*
%TD*%
%TO.C,SW7*%
X145040000Y-35560000D03*
X158490000Y-33020000D03*
%TD*%
D10*
%TO.C,D64*%
X144762500Y-117050000D03*
X141462500Y-117050000D03*
%TD*%
%TO.C,D17*%
X301925000Y-59900000D03*
X298625000Y-59900000D03*
%TD*%
D28*
%TO.C,Y1*%
X119300000Y-143300000D03*
X121500000Y-143300000D03*
X121500000Y-145000000D03*
X119300000Y-145000000D03*
%TD*%
D10*
%TO.C,D11*%
X292400000Y-40850000D03*
X289100000Y-40850000D03*
%TD*%
D11*
%TO.C,SW48*%
X64077500Y-92710000D03*
X77527500Y-90170000D03*
%TD*%
D10*
%TO.C,D54*%
X51893750Y-98000000D03*
X48593750Y-98000000D03*
%TD*%
D11*
%TO.C,SW68*%
X187902500Y-111760000D03*
X201352500Y-109220000D03*
%TD*%
%TO.C,SW75*%
X33121250Y-130810000D03*
X46571250Y-128270000D03*
%TD*%
D10*
%TO.C,D9*%
X330500000Y-40850000D03*
X327200000Y-40850000D03*
%TD*%
D11*
%TO.C,SW21*%
X106940000Y-54610000D03*
X120390000Y-52070000D03*
%TD*%
%TO.C,SW76*%
X56933750Y-130810000D03*
X70383750Y-128270000D03*
%TD*%
%TO.C,SW16*%
X316490000Y-35560000D03*
X329940000Y-33020000D03*
%TD*%
%TO.C,SW23*%
X145040000Y-54610000D03*
X158490000Y-52070000D03*
%TD*%
D10*
%TO.C,D67*%
X87612500Y-117050000D03*
X84312500Y-117050000D03*
%TD*%
D11*
%TO.C,SW74*%
X316490000Y-111760000D03*
X329940000Y-109220000D03*
%TD*%
%TO.C,SW17*%
X30740000Y-54610000D03*
X44190000Y-52070000D03*
%TD*%
D10*
%TO.C,D78*%
X166193750Y-136100000D03*
X162893750Y-136100000D03*
%TD*%
%TO.C,D37*%
X130475000Y-78950000D03*
X127175000Y-78950000D03*
%TD*%
D11*
%TO.C,SW40*%
X192665000Y-73660000D03*
X206115000Y-71120000D03*
%TD*%
D10*
%TO.C,D15*%
X216200000Y-40850000D03*
X212900000Y-40850000D03*
%TD*%
D11*
%TO.C,SW1*%
X30740000Y-35560000D03*
X44190000Y-33020000D03*
%TD*%
%TO.C,SW62*%
X73602500Y-111760000D03*
X87052500Y-109220000D03*
%TD*%
D14*
%TO.C,C12*%
X105724956Y-139843088D03*
X104764956Y-139843088D03*
%TD*%
D11*
%TO.C,SW8*%
X164090000Y-35560000D03*
X177540000Y-33020000D03*
%TD*%
%TO.C,SW69*%
X206952500Y-111760000D03*
X220402500Y-109220000D03*
%TD*%
D22*
%TO.C,C3*%
X123000000Y-144480000D03*
X123000000Y-143520000D03*
%TD*%
D11*
%TO.C,SW49*%
X83127500Y-92710000D03*
X96577500Y-90170000D03*
%TD*%
%TO.C,SW73*%
X297440000Y-111760000D03*
X310890000Y-109220000D03*
%TD*%
%TO.C,SW72*%
X271246250Y-111760000D03*
X284696250Y-109220000D03*
%TD*%
%TO.C,SW34*%
X78365000Y-73660000D03*
X91815000Y-71120000D03*
%TD*%
%TO.C,SW39*%
X173615000Y-73660000D03*
X187065000Y-71120000D03*
%TD*%
D17*
%TO.C,C2*%
X117773881Y-143394903D03*
X117773881Y-144354903D03*
%TD*%
D10*
%TO.C,D45*%
X282875000Y-78950000D03*
X279575000Y-78950000D03*
%TD*%
D13*
%TO.C,C14*%
X116663257Y-135587458D03*
X117342079Y-134908636D03*
%TD*%
D10*
%TO.C,D31*%
X330500000Y-59900000D03*
X327200000Y-59900000D03*
%TD*%
D11*
%TO.C,SW41*%
X211715000Y-73660000D03*
X225165000Y-71120000D03*
%TD*%
D10*
%TO.C,D51*%
X116187500Y-98000000D03*
X112887500Y-98000000D03*
%TD*%
D17*
%TO.C,R3*%
X109002894Y-132540000D03*
X109002894Y-133500000D03*
%TD*%
D10*
%TO.C,D61*%
X201912500Y-117050000D03*
X198612500Y-117050000D03*
%TD*%
D29*
%TO.C,F1*%
X61000000Y-35500000D03*
X60030000Y-35500000D03*
%TD*%
D17*
%TO.C,R4*%
X110000000Y-132290540D03*
X110000000Y-133250540D03*
%TD*%
D11*
%TO.C,SW25*%
X183140000Y-54610000D03*
X196590000Y-52070000D03*
%TD*%
%TO.C,SW64*%
X111702500Y-111760000D03*
X125152500Y-109220000D03*
%TD*%
D10*
%TO.C,D69*%
X285256250Y-117050000D03*
X281956250Y-117050000D03*
%TD*%
D30*
%TO.C,U3*%
X60362500Y-46950000D03*
X60362500Y-45050000D03*
X62637500Y-46000000D03*
%TD*%
D10*
%TO.C,D35*%
X168575000Y-78950000D03*
X165275000Y-78950000D03*
%TD*%
D12*
%TO.C,C16*%
X60225000Y-43500000D03*
X61775000Y-43500000D03*
%TD*%
D10*
%TO.C,D7*%
X63800000Y-41500000D03*
X60500000Y-41500000D03*
%TD*%
%TO.C,D39*%
X92375000Y-78950000D03*
X89075000Y-78950000D03*
%TD*%
D11*
%TO.C,SW71*%
X245052500Y-111760000D03*
X258502500Y-109220000D03*
%TD*%
%TO.C,SW84*%
X316490000Y-130810000D03*
X329940000Y-128270000D03*
%TD*%
D14*
%TO.C,C1*%
X117500000Y-125500000D03*
X116540000Y-125500000D03*
%TD*%
D11*
%TO.C,SW4*%
X87890000Y-35560000D03*
X101340000Y-33020000D03*
%TD*%
%TO.C,SW77*%
X80746250Y-130810000D03*
X94196250Y-128270000D03*
%TD*%
M02*
