%TF.GenerationSoftware,KiCad,Pcbnew,10.0.6*%
%TF.CreationDate,2026-09-21T13:05:56-04:00*%
%TF.ProjectId,KBoard,4b426f61-7264-42e6-9b69-6361645f7063,rev?*%
%TF.SameCoordinates,Original*%
%TF.FileFunction,Soldermask,Top*%
%TF.FilePolarity,Negative*%
%FSLAX46Y46*%
G04 Gerber Fmt 4.6, Leading zero omitted, Abs format (unit mm)*
G04 Created by KiCad (PCBNEW 10.0.6) date 2026-09-21 13:05:56*
%MOMM*%
%LPD*%
G01*
G04 APERTURE LIST*
%ADD10C,2.600000*%
%ADD11C,3.800000*%
%ADD12C,1.750000*%
%ADD13C,3.987800*%
%ADD14C,3.300000*%
%ADD15C,0.650000*%
%ADD16O,1.204000X2.304000*%
%ADD17O,1.204000X2.004000*%
G04 APERTURE END LIST*
D10*
%TO.C,REF\u002A\u002A*%
X182000000Y-27500000D03*
D11*
X182000000Y-27500000D03*
%TD*%
D10*
%TO.C,REF\u002A\u002A*%
X36000000Y-144000000D03*
D11*
X36000000Y-144000000D03*
%TD*%
D10*
%TO.C,REF\u002A\u002A*%
X183000000Y-144000000D03*
D11*
X183000000Y-144000000D03*
%TD*%
D10*
%TO.C,REF\u002A\u002A*%
X330000000Y-144000000D03*
D11*
X330000000Y-144000000D03*
%TD*%
D10*
%TO.C,REF\u002A\u002A*%
X330000000Y-27000000D03*
D11*
X330000000Y-27000000D03*
%TD*%
D10*
%TO.C,REF\u002A\u002A*%
X36000000Y-27000000D03*
D11*
X36000000Y-27000000D03*
%TD*%
D10*
%TO.C,REF\u002A\u002A*%
X184500000Y-85500000D03*
D11*
X184500000Y-85500000D03*
%TD*%
D12*
%TO.C,SW31*%
X328930000Y-57150000D03*
D13*
X323850000Y-57150000D03*
D12*
X318770000Y-57150000D03*
D14*
X320040000Y-54610000D03*
X326390000Y-52070000D03*
%TD*%
D12*
%TO.C,SW82*%
X290830000Y-133350000D03*
D13*
X285750000Y-133350000D03*
D12*
X280670000Y-133350000D03*
D14*
X281940000Y-130810000D03*
X288290000Y-128270000D03*
%TD*%
D12*
%TO.C,SW15*%
X309880000Y-38100000D03*
D13*
X304800000Y-38100000D03*
D12*
X299720000Y-38100000D03*
D14*
X300990000Y-35560000D03*
X307340000Y-33020000D03*
%TD*%
D12*
%TO.C,SW53*%
X171767500Y-95250000D03*
D13*
X166687500Y-95250000D03*
D12*
X161607500Y-95250000D03*
D14*
X162877500Y-92710000D03*
X169227500Y-90170000D03*
%TD*%
D12*
%TO.C,SW10*%
X214630000Y-38100000D03*
D13*
X209550000Y-38100000D03*
D12*
X204470000Y-38100000D03*
D14*
X205740000Y-35560000D03*
X212090000Y-33020000D03*
%TD*%
D12*
%TO.C,SW5*%
X119380000Y-38100000D03*
D13*
X114300000Y-38100000D03*
D12*
X109220000Y-38100000D03*
D14*
X110490000Y-35560000D03*
X116840000Y-33020000D03*
%TD*%
D12*
%TO.C,SW14*%
X290830000Y-38100000D03*
D13*
X285750000Y-38100000D03*
D12*
X280670000Y-38100000D03*
D14*
X281940000Y-35560000D03*
X288290000Y-33020000D03*
%TD*%
D12*
%TO.C,SW22*%
X138430000Y-57150000D03*
D13*
X133350000Y-57150000D03*
D12*
X128270000Y-57150000D03*
D14*
X129540000Y-54610000D03*
X135890000Y-52070000D03*
%TD*%
D12*
%TO.C,SW44*%
X281305000Y-76200000D03*
D13*
X276225000Y-76200000D03*
D12*
X271145000Y-76200000D03*
D14*
X272415000Y-73660000D03*
X278765000Y-71120000D03*
%TD*%
D12*
%TO.C,SW52*%
X152717500Y-95250000D03*
D13*
X147637500Y-95250000D03*
D12*
X142557500Y-95250000D03*
D14*
X143827500Y-92710000D03*
X150177500Y-90170000D03*
%TD*%
D12*
%TO.C,SW38*%
X167005000Y-76200000D03*
D13*
X161925000Y-76200000D03*
D12*
X156845000Y-76200000D03*
D14*
X158115000Y-73660000D03*
X164465000Y-71120000D03*
%TD*%
D12*
%TO.C,SW56*%
X228917500Y-95250000D03*
D13*
X223837500Y-95250000D03*
D12*
X218757500Y-95250000D03*
D14*
X220027500Y-92710000D03*
X226377500Y-90170000D03*
%TD*%
D12*
%TO.C,SW26*%
X214630000Y-57150000D03*
D13*
X209550000Y-57150000D03*
D12*
X204470000Y-57150000D03*
D14*
X205740000Y-54610000D03*
X212090000Y-52070000D03*
%TD*%
D12*
%TO.C,SW80*%
X252730000Y-133350000D03*
D13*
X247650000Y-133350000D03*
D12*
X242570000Y-133350000D03*
D14*
X243840000Y-130810000D03*
X250190000Y-128270000D03*
%TD*%
D12*
%TO.C,SW54*%
X190817500Y-95250000D03*
D13*
X185737500Y-95250000D03*
D12*
X180657500Y-95250000D03*
D14*
X181927500Y-92710000D03*
X188277500Y-90170000D03*
%TD*%
D12*
%TO.C,SW20*%
X100330000Y-57150000D03*
D13*
X95250000Y-57150000D03*
D12*
X90170000Y-57150000D03*
D14*
X91440000Y-54610000D03*
X97790000Y-52070000D03*
%TD*%
D12*
%TO.C,SW70*%
X238442500Y-114300000D03*
D13*
X233362500Y-114300000D03*
D12*
X228282500Y-114300000D03*
D14*
X229552500Y-111760000D03*
X235902500Y-109220000D03*
%TD*%
D12*
%TO.C,SW37*%
X147955000Y-76200000D03*
D13*
X142875000Y-76200000D03*
D12*
X137795000Y-76200000D03*
D14*
X139065000Y-73660000D03*
X145415000Y-71120000D03*
%TD*%
D12*
%TO.C,SW35*%
X109855000Y-76200000D03*
D13*
X104775000Y-76200000D03*
D12*
X99695000Y-76200000D03*
D14*
X100965000Y-73660000D03*
X107315000Y-71120000D03*
%TD*%
D12*
%TO.C,SW11*%
X233680000Y-38100000D03*
D13*
X228600000Y-38100000D03*
D12*
X223520000Y-38100000D03*
D14*
X224790000Y-35560000D03*
X231140000Y-33020000D03*
%TD*%
D12*
%TO.C,SW36*%
X128905000Y-76200000D03*
D13*
X123825000Y-76200000D03*
D12*
X118745000Y-76200000D03*
D14*
X120015000Y-73660000D03*
X126365000Y-71120000D03*
%TD*%
D12*
%TO.C,SW60*%
X328930000Y-95250000D03*
D13*
X323850000Y-95250000D03*
D12*
X318770000Y-95250000D03*
D14*
X320040000Y-92710000D03*
X326390000Y-90170000D03*
%TD*%
D12*
%TO.C,SW9*%
X195580000Y-38100000D03*
D13*
X190500000Y-38100000D03*
D12*
X185420000Y-38100000D03*
D14*
X186690000Y-35560000D03*
X193040000Y-33020000D03*
%TD*%
D12*
%TO.C,SW13*%
X271780000Y-38100000D03*
D13*
X266700000Y-38100000D03*
D12*
X261620000Y-38100000D03*
D14*
X262890000Y-35560000D03*
X269240000Y-33020000D03*
%TD*%
D12*
%TO.C,SW45*%
X305117500Y-76200000D03*
D13*
X300037500Y-76200000D03*
D12*
X294957500Y-76200000D03*
D14*
X296227500Y-73660000D03*
X302577500Y-71120000D03*
%TD*%
D12*
%TO.C,SW81*%
X271780000Y-133350000D03*
D13*
X266700000Y-133350000D03*
D12*
X261620000Y-133350000D03*
D14*
X262890000Y-130810000D03*
X269240000Y-128270000D03*
%TD*%
D12*
%TO.C,SW12*%
X252730000Y-38100000D03*
D13*
X247650000Y-38100000D03*
D12*
X242570000Y-38100000D03*
D14*
X243840000Y-35560000D03*
X250190000Y-33020000D03*
%TD*%
D12*
%TO.C,SW58*%
X267017500Y-95250000D03*
D13*
X261937500Y-95250000D03*
D12*
X256857500Y-95250000D03*
D14*
X258127500Y-92710000D03*
X264477500Y-90170000D03*
%TD*%
D12*
%TO.C,SW79*%
X233680000Y-133350000D03*
D13*
X228600000Y-133350000D03*
D12*
X223520000Y-133350000D03*
D14*
X224790000Y-130810000D03*
X231140000Y-128270000D03*
%TD*%
D12*
%TO.C,SW47*%
X50323750Y-95250000D03*
D13*
X45243750Y-95250000D03*
D12*
X40163750Y-95250000D03*
D14*
X41433750Y-92710000D03*
X47783750Y-90170000D03*
%TD*%
D12*
%TO.C,SW24*%
X176530000Y-57150000D03*
D13*
X171450000Y-57150000D03*
D12*
X166370000Y-57150000D03*
D14*
X167640000Y-54610000D03*
X173990000Y-52070000D03*
%TD*%
D12*
%TO.C,SW50*%
X114617500Y-95250000D03*
D13*
X109537500Y-95250000D03*
D12*
X104457500Y-95250000D03*
D14*
X105727500Y-92710000D03*
X112077500Y-90170000D03*
%TD*%
D15*
%TO.C,J2*%
X60710000Y-29425000D03*
X66490000Y-29425000D03*
D16*
X59280000Y-29925000D03*
X67920000Y-29925000D03*
D17*
X59280000Y-25745000D03*
X67920000Y-25745000D03*
%TD*%
D12*
%TO.C,SW6*%
X138430000Y-38100000D03*
D13*
X133350000Y-38100000D03*
D12*
X128270000Y-38100000D03*
D14*
X129540000Y-35560000D03*
X135890000Y-33020000D03*
%TD*%
D12*
%TO.C,SW43*%
X262255000Y-76200000D03*
D13*
X257175000Y-76200000D03*
D12*
X252095000Y-76200000D03*
D14*
X253365000Y-73660000D03*
X259715000Y-71120000D03*
%TD*%
D12*
%TO.C,SW63*%
X105092500Y-114300000D03*
D13*
X100012500Y-114300000D03*
D12*
X94932500Y-114300000D03*
D14*
X96202500Y-111760000D03*
X102552500Y-109220000D03*
%TD*%
D12*
%TO.C,SW55*%
X209867500Y-95250000D03*
D13*
X204787500Y-95250000D03*
D12*
X199707500Y-95250000D03*
D14*
X200977500Y-92710000D03*
X207327500Y-90170000D03*
%TD*%
D12*
%TO.C,SW59*%
X297973750Y-95250000D03*
D13*
X292893750Y-95250000D03*
D12*
X287813750Y-95250000D03*
D14*
X289083750Y-92710000D03*
X295433750Y-90170000D03*
%TD*%
D12*
%TO.C,SW57*%
X247967500Y-95250000D03*
D13*
X242887500Y-95250000D03*
D12*
X237807500Y-95250000D03*
D14*
X239077500Y-92710000D03*
X245427500Y-90170000D03*
%TD*%
D12*
%TO.C,SW61*%
X55086250Y-114300000D03*
D13*
X50006250Y-114300000D03*
D12*
X44926250Y-114300000D03*
D14*
X46196250Y-111760000D03*
X52546250Y-109220000D03*
%TD*%
D12*
%TO.C,SW19*%
X81280000Y-57150000D03*
D13*
X76200000Y-57150000D03*
D12*
X71120000Y-57150000D03*
D14*
X72390000Y-54610000D03*
X78740000Y-52070000D03*
%TD*%
D12*
%TO.C,SW42*%
X243205000Y-76200000D03*
D13*
X238125000Y-76200000D03*
D12*
X233045000Y-76200000D03*
D14*
X234315000Y-73660000D03*
X240665000Y-71120000D03*
%TD*%
D12*
%TO.C,SW78*%
X164623750Y-133350000D03*
D13*
X159543750Y-133350000D03*
D12*
X154463750Y-133350000D03*
D14*
X155733750Y-130810000D03*
X162083750Y-128270000D03*
%TD*%
D12*
%TO.C,SW3*%
X81280000Y-38100000D03*
D13*
X76200000Y-38100000D03*
D12*
X71120000Y-38100000D03*
D14*
X72390000Y-35560000D03*
X78740000Y-33020000D03*
%TD*%
D12*
%TO.C,SW66*%
X162242500Y-114300000D03*
D13*
X157162500Y-114300000D03*
D12*
X152082500Y-114300000D03*
D14*
X153352500Y-111760000D03*
X159702500Y-109220000D03*
%TD*%
D12*
%TO.C,SW83*%
X309880000Y-133350000D03*
D13*
X304800000Y-133350000D03*
D12*
X299720000Y-133350000D03*
D14*
X300990000Y-130810000D03*
X307340000Y-128270000D03*
%TD*%
D12*
%TO.C,SW29*%
X271780000Y-57150000D03*
D13*
X266700000Y-57150000D03*
D12*
X261620000Y-57150000D03*
D14*
X262890000Y-54610000D03*
X269240000Y-52070000D03*
%TD*%
D12*
%TO.C,SW27*%
X233680000Y-57150000D03*
D13*
X228600000Y-57150000D03*
D12*
X223520000Y-57150000D03*
D14*
X224790000Y-54610000D03*
X231140000Y-52070000D03*
%TD*%
D12*
%TO.C,SW51*%
X133667500Y-95250000D03*
D13*
X128587500Y-95250000D03*
D12*
X123507500Y-95250000D03*
D14*
X124777500Y-92710000D03*
X131127500Y-90170000D03*
%TD*%
D12*
%TO.C,SW67*%
X181292500Y-114300000D03*
D13*
X176212500Y-114300000D03*
D12*
X171132500Y-114300000D03*
D14*
X172402500Y-111760000D03*
X178752500Y-109220000D03*
%TD*%
D12*
%TO.C,SW46*%
X328930000Y-76200000D03*
D13*
X323850000Y-76200000D03*
D12*
X318770000Y-76200000D03*
D14*
X320040000Y-73660000D03*
X326390000Y-71120000D03*
%TD*%
D12*
%TO.C,SW28*%
X252730000Y-57150000D03*
D13*
X247650000Y-57150000D03*
D12*
X242570000Y-57150000D03*
D14*
X243840000Y-54610000D03*
X250190000Y-52070000D03*
%TD*%
D12*
%TO.C,SW30*%
X300355000Y-57150000D03*
D13*
X295275000Y-57150000D03*
D12*
X290195000Y-57150000D03*
D14*
X291465000Y-54610000D03*
X297815000Y-52070000D03*
%TD*%
D12*
%TO.C,SW18*%
X62230000Y-57150000D03*
D13*
X57150000Y-57150000D03*
D12*
X52070000Y-57150000D03*
D14*
X53340000Y-54610000D03*
X59690000Y-52070000D03*
%TD*%
D12*
%TO.C,SW2*%
X57150000Y-33020000D03*
D13*
X57150000Y-38100000D03*
D12*
X57150000Y-43180000D03*
D14*
X54610000Y-41910000D03*
X52070000Y-35560000D03*
%TD*%
D12*
%TO.C,SW32*%
X47942500Y-76200000D03*
D13*
X42862500Y-76200000D03*
D12*
X37782500Y-76200000D03*
D14*
X39052500Y-73660000D03*
X45402500Y-71120000D03*
%TD*%
D12*
%TO.C,SW33*%
X71755000Y-76200000D03*
D13*
X66675000Y-76200000D03*
D12*
X61595000Y-76200000D03*
D14*
X62865000Y-73660000D03*
X69215000Y-71120000D03*
%TD*%
D12*
%TO.C,SW65*%
X143192500Y-114300000D03*
D13*
X138112500Y-114300000D03*
D12*
X133032500Y-114300000D03*
D14*
X134302500Y-111760000D03*
X140652500Y-109220000D03*
%TD*%
D12*
%TO.C,SW7*%
X157480000Y-38100000D03*
D13*
X152400000Y-38100000D03*
D12*
X147320000Y-38100000D03*
D14*
X148590000Y-35560000D03*
X154940000Y-33020000D03*
%TD*%
D12*
%TO.C,SW48*%
X76517500Y-95250000D03*
D13*
X71437500Y-95250000D03*
D12*
X66357500Y-95250000D03*
D14*
X67627500Y-92710000D03*
X73977500Y-90170000D03*
%TD*%
D12*
%TO.C,SW68*%
X200342500Y-114300000D03*
D13*
X195262500Y-114300000D03*
D12*
X190182500Y-114300000D03*
D14*
X191452500Y-111760000D03*
X197802500Y-109220000D03*
%TD*%
D12*
%TO.C,SW75*%
X45561250Y-133350000D03*
D13*
X40481250Y-133350000D03*
D12*
X35401250Y-133350000D03*
D14*
X36671250Y-130810000D03*
X43021250Y-128270000D03*
%TD*%
D12*
%TO.C,SW21*%
X119380000Y-57150000D03*
D13*
X114300000Y-57150000D03*
D12*
X109220000Y-57150000D03*
D14*
X110490000Y-54610000D03*
X116840000Y-52070000D03*
%TD*%
D12*
%TO.C,SW76*%
X69373750Y-133350000D03*
D13*
X64293750Y-133350000D03*
D12*
X59213750Y-133350000D03*
D14*
X60483750Y-130810000D03*
X66833750Y-128270000D03*
%TD*%
D12*
%TO.C,SW16*%
X328930000Y-38100000D03*
D13*
X323850000Y-38100000D03*
D12*
X318770000Y-38100000D03*
D14*
X320040000Y-35560000D03*
X326390000Y-33020000D03*
%TD*%
D12*
%TO.C,SW23*%
X157480000Y-57150000D03*
D13*
X152400000Y-57150000D03*
D12*
X147320000Y-57150000D03*
D14*
X148590000Y-54610000D03*
X154940000Y-52070000D03*
%TD*%
D12*
%TO.C,SW74*%
X328930000Y-114300000D03*
D13*
X323850000Y-114300000D03*
D12*
X318770000Y-114300000D03*
D14*
X320040000Y-111760000D03*
X326390000Y-109220000D03*
%TD*%
D12*
%TO.C,SW17*%
X43180000Y-57150000D03*
D13*
X38100000Y-57150000D03*
D12*
X33020000Y-57150000D03*
D14*
X34290000Y-54610000D03*
X40640000Y-52070000D03*
%TD*%
D12*
%TO.C,SW40*%
X205105000Y-76200000D03*
D13*
X200025000Y-76200000D03*
D12*
X194945000Y-76200000D03*
D14*
X196215000Y-73660000D03*
X202565000Y-71120000D03*
%TD*%
D12*
%TO.C,SW1*%
X43180000Y-38100000D03*
D13*
X38100000Y-38100000D03*
D12*
X33020000Y-38100000D03*
D14*
X34290000Y-35560000D03*
X40640000Y-33020000D03*
%TD*%
D12*
%TO.C,SW62*%
X86042500Y-114300000D03*
D13*
X80962500Y-114300000D03*
D12*
X75882500Y-114300000D03*
D14*
X77152500Y-111760000D03*
X83502500Y-109220000D03*
%TD*%
D12*
%TO.C,SW8*%
X176530000Y-38100000D03*
D13*
X171450000Y-38100000D03*
D12*
X166370000Y-38100000D03*
D14*
X167640000Y-35560000D03*
X173990000Y-33020000D03*
%TD*%
D12*
%TO.C,SW69*%
X219392500Y-114300000D03*
D13*
X214312500Y-114300000D03*
D12*
X209232500Y-114300000D03*
D14*
X210502500Y-111760000D03*
X216852500Y-109220000D03*
%TD*%
D12*
%TO.C,SW49*%
X95567500Y-95250000D03*
D13*
X90487500Y-95250000D03*
D12*
X85407500Y-95250000D03*
D14*
X86677500Y-92710000D03*
X93027500Y-90170000D03*
%TD*%
D12*
%TO.C,SW73*%
X309880000Y-114300000D03*
D13*
X304800000Y-114300000D03*
D12*
X299720000Y-114300000D03*
D14*
X300990000Y-111760000D03*
X307340000Y-109220000D03*
%TD*%
D12*
%TO.C,SW72*%
X283686250Y-114300000D03*
D13*
X278606250Y-114300000D03*
D12*
X273526250Y-114300000D03*
D14*
X274796250Y-111760000D03*
X281146250Y-109220000D03*
%TD*%
D12*
%TO.C,SW34*%
X90805000Y-76200000D03*
D13*
X85725000Y-76200000D03*
D12*
X80645000Y-76200000D03*
D14*
X81915000Y-73660000D03*
X88265000Y-71120000D03*
%TD*%
D12*
%TO.C,SW39*%
X186055000Y-76200000D03*
D13*
X180975000Y-76200000D03*
D12*
X175895000Y-76200000D03*
D14*
X177165000Y-73660000D03*
X183515000Y-71120000D03*
%TD*%
D12*
%TO.C,SW41*%
X224155000Y-76200000D03*
D13*
X219075000Y-76200000D03*
D12*
X213995000Y-76200000D03*
D14*
X215265000Y-73660000D03*
X221615000Y-71120000D03*
%TD*%
D12*
%TO.C,SW25*%
X195580000Y-57150000D03*
D13*
X190500000Y-57150000D03*
D12*
X185420000Y-57150000D03*
D14*
X186690000Y-54610000D03*
X193040000Y-52070000D03*
%TD*%
D12*
%TO.C,SW64*%
X124142500Y-114300000D03*
D13*
X119062500Y-114300000D03*
D12*
X113982500Y-114300000D03*
D14*
X115252500Y-111760000D03*
X121602500Y-109220000D03*
%TD*%
D12*
%TO.C,SW71*%
X257492500Y-114300000D03*
D13*
X252412500Y-114300000D03*
D12*
X247332500Y-114300000D03*
D14*
X248602500Y-111760000D03*
X254952500Y-109220000D03*
%TD*%
D12*
%TO.C,SW84*%
X328930000Y-133350000D03*
D13*
X323850000Y-133350000D03*
D12*
X318770000Y-133350000D03*
D14*
X320040000Y-130810000D03*
X326390000Y-128270000D03*
%TD*%
D12*
%TO.C,SW4*%
X100330000Y-38100000D03*
D13*
X95250000Y-38100000D03*
D12*
X90170000Y-38100000D03*
D14*
X91440000Y-35560000D03*
X97790000Y-33020000D03*
%TD*%
D12*
%TO.C,SW77*%
X93186250Y-133350000D03*
D13*
X88106250Y-133350000D03*
D12*
X83026250Y-133350000D03*
D14*
X84296250Y-130810000D03*
X90646250Y-128270000D03*
%TD*%
M02*
