%TF.GenerationSoftware,KiCad,Pcbnew,10.0.6*%
%TF.CreationDate,2026-09-21T13:05:56-04:00*%
%TF.ProjectId,KBoard,4b426f61-7264-42e6-9b69-6361645f7063,rev?*%
%TF.SameCoordinates,Original*%
%TF.FileFunction,Legend,Top*%
%TF.FilePolarity,Positive*%
%FSLAX46Y46*%
G04 Gerber Fmt 4.6, Leading zero omitted, Abs format (unit mm)*
G04 Created by KiCad (PCBNEW 10.0.6) date 2026-09-21 13:05:56*
%MOMM*%
%LPD*%
G01*
G04 APERTURE LIST*
%ADD10C,0.150000*%
G04 APERTURE END LIST*
D10*
X180666666Y-25104819D02*
X180333333Y-24628628D01*
X180095238Y-25104819D02*
X180095238Y-24104819D01*
X180095238Y-24104819D02*
X180476190Y-24104819D01*
X180476190Y-24104819D02*
X180571428Y-24152438D01*
X180571428Y-24152438D02*
X180619047Y-24200057D01*
X180619047Y-24200057D02*
X180666666Y-24295295D01*
X180666666Y-24295295D02*
X180666666Y-24438152D01*
X180666666Y-24438152D02*
X180619047Y-24533390D01*
X180619047Y-24533390D02*
X180571428Y-24581009D01*
X180571428Y-24581009D02*
X180476190Y-24628628D01*
X180476190Y-24628628D02*
X180095238Y-24628628D01*
X181095238Y-24581009D02*
X181428571Y-24581009D01*
X181571428Y-25104819D02*
X181095238Y-25104819D01*
X181095238Y-25104819D02*
X181095238Y-24104819D01*
X181095238Y-24104819D02*
X181571428Y-24104819D01*
X182333333Y-24581009D02*
X182000000Y-24581009D01*
X182000000Y-25104819D02*
X182000000Y-24104819D01*
X182000000Y-24104819D02*
X182476190Y-24104819D01*
X183000000Y-24104819D02*
X183000000Y-24342914D01*
X182761905Y-24247676D02*
X183000000Y-24342914D01*
X183000000Y-24342914D02*
X183238095Y-24247676D01*
X182857143Y-24533390D02*
X183000000Y-24342914D01*
X183000000Y-24342914D02*
X183142857Y-24533390D01*
X183761905Y-24104819D02*
X183761905Y-24342914D01*
X183523810Y-24247676D02*
X183761905Y-24342914D01*
X183761905Y-24342914D02*
X184000000Y-24247676D01*
X183619048Y-24533390D02*
X183761905Y-24342914D01*
X183761905Y-24342914D02*
X183904762Y-24533390D01*
X181666666Y-141604819D02*
X181333333Y-141128628D01*
X181095238Y-141604819D02*
X181095238Y-140604819D01*
X181095238Y-140604819D02*
X181476190Y-140604819D01*
X181476190Y-140604819D02*
X181571428Y-140652438D01*
X181571428Y-140652438D02*
X181619047Y-140700057D01*
X181619047Y-140700057D02*
X181666666Y-140795295D01*
X181666666Y-140795295D02*
X181666666Y-140938152D01*
X181666666Y-140938152D02*
X181619047Y-141033390D01*
X181619047Y-141033390D02*
X181571428Y-141081009D01*
X181571428Y-141081009D02*
X181476190Y-141128628D01*
X181476190Y-141128628D02*
X181095238Y-141128628D01*
X182095238Y-141081009D02*
X182428571Y-141081009D01*
X182571428Y-141604819D02*
X182095238Y-141604819D01*
X182095238Y-141604819D02*
X182095238Y-140604819D01*
X182095238Y-140604819D02*
X182571428Y-140604819D01*
X183333333Y-141081009D02*
X183000000Y-141081009D01*
X183000000Y-141604819D02*
X183000000Y-140604819D01*
X183000000Y-140604819D02*
X183476190Y-140604819D01*
X184000000Y-140604819D02*
X184000000Y-140842914D01*
X183761905Y-140747676D02*
X184000000Y-140842914D01*
X184000000Y-140842914D02*
X184238095Y-140747676D01*
X183857143Y-141033390D02*
X184000000Y-140842914D01*
X184000000Y-140842914D02*
X184142857Y-141033390D01*
X184761905Y-140604819D02*
X184761905Y-140842914D01*
X184523810Y-140747676D02*
X184761905Y-140842914D01*
X184761905Y-140842914D02*
X185000000Y-140747676D01*
X184619048Y-141033390D02*
X184761905Y-140842914D01*
X184761905Y-140842914D02*
X184904762Y-141033390D01*
X56861275Y-24119048D02*
X57670798Y-24119048D01*
X57670798Y-24119048D02*
X57766036Y-24166667D01*
X57766036Y-24166667D02*
X57813656Y-24214286D01*
X57813656Y-24214286D02*
X57861275Y-24309524D01*
X57861275Y-24309524D02*
X57861275Y-24500000D01*
X57861275Y-24500000D02*
X57813656Y-24595238D01*
X57813656Y-24595238D02*
X57766036Y-24642857D01*
X57766036Y-24642857D02*
X57670798Y-24690476D01*
X57670798Y-24690476D02*
X56861275Y-24690476D01*
X57813656Y-25119048D02*
X57861275Y-25261905D01*
X57861275Y-25261905D02*
X57861275Y-25500000D01*
X57861275Y-25500000D02*
X57813656Y-25595238D01*
X57813656Y-25595238D02*
X57766036Y-25642857D01*
X57766036Y-25642857D02*
X57670798Y-25690476D01*
X57670798Y-25690476D02*
X57575560Y-25690476D01*
X57575560Y-25690476D02*
X57480322Y-25642857D01*
X57480322Y-25642857D02*
X57432703Y-25595238D01*
X57432703Y-25595238D02*
X57385084Y-25500000D01*
X57385084Y-25500000D02*
X57337465Y-25309524D01*
X57337465Y-25309524D02*
X57289846Y-25214286D01*
X57289846Y-25214286D02*
X57242227Y-25166667D01*
X57242227Y-25166667D02*
X57146989Y-25119048D01*
X57146989Y-25119048D02*
X57051751Y-25119048D01*
X57051751Y-25119048D02*
X56956513Y-25166667D01*
X56956513Y-25166667D02*
X56908894Y-25214286D01*
X56908894Y-25214286D02*
X56861275Y-25309524D01*
X56861275Y-25309524D02*
X56861275Y-25547619D01*
X56861275Y-25547619D02*
X56908894Y-25690476D01*
X57337465Y-26452381D02*
X57385084Y-26595238D01*
X57385084Y-26595238D02*
X57432703Y-26642857D01*
X57432703Y-26642857D02*
X57527941Y-26690476D01*
X57527941Y-26690476D02*
X57670798Y-26690476D01*
X57670798Y-26690476D02*
X57766036Y-26642857D01*
X57766036Y-26642857D02*
X57813656Y-26595238D01*
X57813656Y-26595238D02*
X57861275Y-26500000D01*
X57861275Y-26500000D02*
X57861275Y-26119048D01*
X57861275Y-26119048D02*
X56861275Y-26119048D01*
X56861275Y-26119048D02*
X56861275Y-26452381D01*
X56861275Y-26452381D02*
X56908894Y-26547619D01*
X56908894Y-26547619D02*
X56956513Y-26595238D01*
X56956513Y-26595238D02*
X57051751Y-26642857D01*
X57051751Y-26642857D02*
X57146989Y-26642857D01*
X57146989Y-26642857D02*
X57242227Y-26595238D01*
X57242227Y-26595238D02*
X57289846Y-26547619D01*
X57289846Y-26547619D02*
X57337465Y-26452381D01*
X57337465Y-26452381D02*
X57337465Y-26119048D01*
X57480322Y-27119048D02*
X57480322Y-27880953D01*
X57766036Y-28928571D02*
X57813656Y-28880952D01*
X57813656Y-28880952D02*
X57861275Y-28738095D01*
X57861275Y-28738095D02*
X57861275Y-28642857D01*
X57861275Y-28642857D02*
X57813656Y-28500000D01*
X57813656Y-28500000D02*
X57718417Y-28404762D01*
X57718417Y-28404762D02*
X57623179Y-28357143D01*
X57623179Y-28357143D02*
X57432703Y-28309524D01*
X57432703Y-28309524D02*
X57289846Y-28309524D01*
X57289846Y-28309524D02*
X57099370Y-28357143D01*
X57099370Y-28357143D02*
X57004132Y-28404762D01*
X57004132Y-28404762D02*
X56908894Y-28500000D01*
X56908894Y-28500000D02*
X56861275Y-28642857D01*
X56861275Y-28642857D02*
X56861275Y-28738095D01*
X56861275Y-28738095D02*
X56908894Y-28880952D01*
X56908894Y-28880952D02*
X56956513Y-28928571D01*
M02*
