%TF.GenerationSoftware,KiCad,Pcbnew,10.0.6*%
%TF.CreationDate,2026-09-21T13:05:56-04:00*%
%TF.ProjectId,KBoard,4b426f61-7264-42e6-9b69-6361645f7063,rev?*%
%TF.SameCoordinates,Original*%
%TF.FileFunction,Other,User*%
%FSLAX46Y46*%
G04 Gerber Fmt 4.6, Leading zero omitted, Abs format (unit mm)*
G04 Created by KiCad (PCBNEW 10.0.6) date 2026-09-21 13:05:56*
%MOMM*%
%LPD*%
G01*
G04 APERTURE LIST*
%ADD10C,0.050000*%
G04 APERTURE END LIST*
%TO.C,REF\u002A\u002A*%
D10*
X184150000Y-27500000D02*
G75*
G02*
X179850000Y-27500000I-2150000J0D01*
G01*
X179850000Y-27500000D02*
G75*
G02*
X184150000Y-27500000I2150000J0D01*
G01*
X38150000Y-144000000D02*
G75*
G02*
X33850000Y-144000000I-2150000J0D01*
G01*
X33850000Y-144000000D02*
G75*
G02*
X38150000Y-144000000I2150000J0D01*
G01*
X185150000Y-144000000D02*
G75*
G02*
X180850000Y-144000000I-2150000J0D01*
G01*
X180850000Y-144000000D02*
G75*
G02*
X185150000Y-144000000I2150000J0D01*
G01*
X332150000Y-144000000D02*
G75*
G02*
X327850000Y-144000000I-2150000J0D01*
G01*
X327850000Y-144000000D02*
G75*
G02*
X332150000Y-144000000I2150000J0D01*
G01*
X332150000Y-27000000D02*
G75*
G02*
X327850000Y-27000000I-2150000J0D01*
G01*
X327850000Y-27000000D02*
G75*
G02*
X332150000Y-27000000I2150000J0D01*
G01*
X38150000Y-27000000D02*
G75*
G02*
X33850000Y-27000000I-2150000J0D01*
G01*
X33850000Y-27000000D02*
G75*
G02*
X38150000Y-27000000I2150000J0D01*
G01*
X186650000Y-85500000D02*
G75*
G02*
X182350000Y-85500000I-2150000J0D01*
G01*
X182350000Y-85500000D02*
G75*
G02*
X186650000Y-85500000I2150000J0D01*
G01*
%TO.C,SW31*%
X316850000Y-50150000D02*
X330850000Y-50150000D01*
X330850000Y-64150000D01*
X316850000Y-64150000D01*
X316850000Y-50150000D01*
%TO.C,SW82*%
X278750000Y-126350000D02*
X292750000Y-126350000D01*
X292750000Y-140350000D01*
X278750000Y-140350000D01*
X278750000Y-126350000D01*
%TO.C,SW15*%
X297800000Y-31100000D02*
X311800000Y-31100000D01*
X311800000Y-45100000D01*
X297800000Y-45100000D01*
X297800000Y-31100000D01*
%TO.C,SW53*%
X159687500Y-88250000D02*
X173687500Y-88250000D01*
X173687500Y-102250000D01*
X159687500Y-102250000D01*
X159687500Y-88250000D01*
%TO.C,SW10*%
X202550000Y-31100000D02*
X216550000Y-31100000D01*
X216550000Y-45100000D01*
X202550000Y-45100000D01*
X202550000Y-31100000D01*
%TO.C,SW5*%
X107300000Y-31100000D02*
X121300000Y-31100000D01*
X121300000Y-45100000D01*
X107300000Y-45100000D01*
X107300000Y-31100000D01*
%TO.C,SW14*%
X278750000Y-31100000D02*
X292750000Y-31100000D01*
X292750000Y-45100000D01*
X278750000Y-45100000D01*
X278750000Y-31100000D01*
%TO.C,SW22*%
X126350000Y-50150000D02*
X140350000Y-50150000D01*
X140350000Y-64150000D01*
X126350000Y-64150000D01*
X126350000Y-50150000D01*
%TO.C,SW44*%
X269225000Y-69200000D02*
X283225000Y-69200000D01*
X283225000Y-83200000D01*
X269225000Y-83200000D01*
X269225000Y-69200000D01*
%TO.C,SW52*%
X140637500Y-88250000D02*
X154637500Y-88250000D01*
X154637500Y-102250000D01*
X140637500Y-102250000D01*
X140637500Y-88250000D01*
%TO.C,SW38*%
X154925000Y-69200000D02*
X168925000Y-69200000D01*
X168925000Y-83200000D01*
X154925000Y-83200000D01*
X154925000Y-69200000D01*
%TO.C,SW56*%
X216837500Y-88250000D02*
X230837500Y-88250000D01*
X230837500Y-102250000D01*
X216837500Y-102250000D01*
X216837500Y-88250000D01*
%TO.C,SW26*%
X202550000Y-50150000D02*
X216550000Y-50150000D01*
X216550000Y-64150000D01*
X202550000Y-64150000D01*
X202550000Y-50150000D01*
%TO.C,SW80*%
X240650000Y-126350000D02*
X254650000Y-126350000D01*
X254650000Y-140350000D01*
X240650000Y-140350000D01*
X240650000Y-126350000D01*
%TO.C,SW54*%
X178737500Y-88250000D02*
X192737500Y-88250000D01*
X192737500Y-102250000D01*
X178737500Y-102250000D01*
X178737500Y-88250000D01*
%TO.C,SW20*%
X88250000Y-50150000D02*
X102250000Y-50150000D01*
X102250000Y-64150000D01*
X88250000Y-64150000D01*
X88250000Y-50150000D01*
%TO.C,SW70*%
X226362500Y-107300000D02*
X240362500Y-107300000D01*
X240362500Y-121300000D01*
X226362500Y-121300000D01*
X226362500Y-107300000D01*
%TO.C,SW37*%
X135875000Y-69200000D02*
X149875000Y-69200000D01*
X149875000Y-83200000D01*
X135875000Y-83200000D01*
X135875000Y-69200000D01*
%TO.C,SW35*%
X97775000Y-69200000D02*
X111775000Y-69200000D01*
X111775000Y-83200000D01*
X97775000Y-83200000D01*
X97775000Y-69200000D01*
%TO.C,SW11*%
X221600000Y-31100000D02*
X235600000Y-31100000D01*
X235600000Y-45100000D01*
X221600000Y-45100000D01*
X221600000Y-31100000D01*
%TO.C,SW36*%
X116825000Y-69200000D02*
X130825000Y-69200000D01*
X130825000Y-83200000D01*
X116825000Y-83200000D01*
X116825000Y-69200000D01*
%TO.C,SW60*%
X316850000Y-88250000D02*
X330850000Y-88250000D01*
X330850000Y-102250000D01*
X316850000Y-102250000D01*
X316850000Y-88250000D01*
%TO.C,SW9*%
X183500000Y-31100000D02*
X197500000Y-31100000D01*
X197500000Y-45100000D01*
X183500000Y-45100000D01*
X183500000Y-31100000D01*
%TO.C,SW13*%
X259700000Y-31100000D02*
X273700000Y-31100000D01*
X273700000Y-45100000D01*
X259700000Y-45100000D01*
X259700000Y-31100000D01*
%TO.C,SW45*%
X293037500Y-69200000D02*
X307037500Y-69200000D01*
X307037500Y-83200000D01*
X293037500Y-83200000D01*
X293037500Y-69200000D01*
%TO.C,SW81*%
X259700000Y-126350000D02*
X273700000Y-126350000D01*
X273700000Y-140350000D01*
X259700000Y-140350000D01*
X259700000Y-126350000D01*
%TO.C,SW12*%
X240650000Y-31100000D02*
X254650000Y-31100000D01*
X254650000Y-45100000D01*
X240650000Y-45100000D01*
X240650000Y-31100000D01*
%TO.C,SW58*%
X254937500Y-88250000D02*
X268937500Y-88250000D01*
X268937500Y-102250000D01*
X254937500Y-102250000D01*
X254937500Y-88250000D01*
%TO.C,SW79*%
X221600000Y-126350000D02*
X235600000Y-126350000D01*
X235600000Y-140350000D01*
X221600000Y-140350000D01*
X221600000Y-126350000D01*
%TO.C,SW47*%
X38243750Y-88250000D02*
X52243750Y-88250000D01*
X52243750Y-102250000D01*
X38243750Y-102250000D01*
X38243750Y-88250000D01*
%TO.C,SW24*%
X164450000Y-50150000D02*
X178450000Y-50150000D01*
X178450000Y-64150000D01*
X164450000Y-64150000D01*
X164450000Y-50150000D01*
%TO.C,SW50*%
X102537500Y-88250000D02*
X116537500Y-88250000D01*
X116537500Y-102250000D01*
X102537500Y-102250000D01*
X102537500Y-88250000D01*
%TO.C,SW6*%
X126350000Y-31100000D02*
X140350000Y-31100000D01*
X140350000Y-45100000D01*
X126350000Y-45100000D01*
X126350000Y-31100000D01*
%TO.C,SW43*%
X250175000Y-69200000D02*
X264175000Y-69200000D01*
X264175000Y-83200000D01*
X250175000Y-83200000D01*
X250175000Y-69200000D01*
%TO.C,SW63*%
X93012500Y-107300000D02*
X107012500Y-107300000D01*
X107012500Y-121300000D01*
X93012500Y-121300000D01*
X93012500Y-107300000D01*
%TO.C,SW55*%
X197787500Y-88250000D02*
X211787500Y-88250000D01*
X211787500Y-102250000D01*
X197787500Y-102250000D01*
X197787500Y-88250000D01*
%TO.C,SW59*%
X285893750Y-88250000D02*
X299893750Y-88250000D01*
X299893750Y-102250000D01*
X285893750Y-102250000D01*
X285893750Y-88250000D01*
%TO.C,SW57*%
X235887500Y-88250000D02*
X249887500Y-88250000D01*
X249887500Y-102250000D01*
X235887500Y-102250000D01*
X235887500Y-88250000D01*
%TO.C,SW61*%
X43006250Y-107300000D02*
X57006250Y-107300000D01*
X57006250Y-121300000D01*
X43006250Y-121300000D01*
X43006250Y-107300000D01*
%TO.C,SW19*%
X69200000Y-50150000D02*
X83200000Y-50150000D01*
X83200000Y-64150000D01*
X69200000Y-64150000D01*
X69200000Y-50150000D01*
%TO.C,SW42*%
X231125000Y-69200000D02*
X245125000Y-69200000D01*
X245125000Y-83200000D01*
X231125000Y-83200000D01*
X231125000Y-69200000D01*
%TO.C,SW78*%
X152543750Y-126350000D02*
X166543750Y-126350000D01*
X166543750Y-140350000D01*
X152543750Y-140350000D01*
X152543750Y-126350000D01*
%TO.C,SW3*%
X69200000Y-31100000D02*
X83200000Y-31100000D01*
X83200000Y-45100000D01*
X69200000Y-45100000D01*
X69200000Y-31100000D01*
%TO.C,SW66*%
X150162500Y-107300000D02*
X164162500Y-107300000D01*
X164162500Y-121300000D01*
X150162500Y-121300000D01*
X150162500Y-107300000D01*
%TO.C,SW83*%
X297800000Y-126350000D02*
X311800000Y-126350000D01*
X311800000Y-140350000D01*
X297800000Y-140350000D01*
X297800000Y-126350000D01*
%TO.C,SW29*%
X259700000Y-50150000D02*
X273700000Y-50150000D01*
X273700000Y-64150000D01*
X259700000Y-64150000D01*
X259700000Y-50150000D01*
%TO.C,SW27*%
X221600000Y-50150000D02*
X235600000Y-50150000D01*
X235600000Y-64150000D01*
X221600000Y-64150000D01*
X221600000Y-50150000D01*
%TO.C,SW51*%
X121587500Y-88250000D02*
X135587500Y-88250000D01*
X135587500Y-102250000D01*
X121587500Y-102250000D01*
X121587500Y-88250000D01*
%TO.C,SW67*%
X169212500Y-107300000D02*
X183212500Y-107300000D01*
X183212500Y-121300000D01*
X169212500Y-121300000D01*
X169212500Y-107300000D01*
%TO.C,SW46*%
X316850000Y-69200000D02*
X330850000Y-69200000D01*
X330850000Y-83200000D01*
X316850000Y-83200000D01*
X316850000Y-69200000D01*
%TO.C,SW28*%
X240650000Y-50150000D02*
X254650000Y-50150000D01*
X254650000Y-64150000D01*
X240650000Y-64150000D01*
X240650000Y-50150000D01*
%TO.C,SW30*%
X288275000Y-50150000D02*
X302275000Y-50150000D01*
X302275000Y-64150000D01*
X288275000Y-64150000D01*
X288275000Y-50150000D01*
%TO.C,SW18*%
X50150000Y-50150000D02*
X64150000Y-50150000D01*
X64150000Y-64150000D01*
X50150000Y-64150000D01*
X50150000Y-50150000D01*
%TO.C,SW2*%
X50150000Y-31100000D02*
X64150000Y-31100000D01*
X64150000Y-45100000D01*
X50150000Y-45100000D01*
X50150000Y-31100000D01*
%TO.C,SW32*%
X35862500Y-69200000D02*
X49862500Y-69200000D01*
X49862500Y-83200000D01*
X35862500Y-83200000D01*
X35862500Y-69200000D01*
%TO.C,SW33*%
X59675000Y-69200000D02*
X73675000Y-69200000D01*
X73675000Y-83200000D01*
X59675000Y-83200000D01*
X59675000Y-69200000D01*
%TO.C,SW65*%
X131112500Y-107300000D02*
X145112500Y-107300000D01*
X145112500Y-121300000D01*
X131112500Y-121300000D01*
X131112500Y-107300000D01*
%TO.C,SW7*%
X145400000Y-31100000D02*
X159400000Y-31100000D01*
X159400000Y-45100000D01*
X145400000Y-45100000D01*
X145400000Y-31100000D01*
%TO.C,SW48*%
X64437500Y-88250000D02*
X78437500Y-88250000D01*
X78437500Y-102250000D01*
X64437500Y-102250000D01*
X64437500Y-88250000D01*
%TO.C,SW68*%
X188262500Y-107300000D02*
X202262500Y-107300000D01*
X202262500Y-121300000D01*
X188262500Y-121300000D01*
X188262500Y-107300000D01*
%TO.C,SW75*%
X33481250Y-126350000D02*
X47481250Y-126350000D01*
X47481250Y-140350000D01*
X33481250Y-140350000D01*
X33481250Y-126350000D01*
%TO.C,SW21*%
X107300000Y-50150000D02*
X121300000Y-50150000D01*
X121300000Y-64150000D01*
X107300000Y-64150000D01*
X107300000Y-50150000D01*
%TO.C,SW76*%
X57293750Y-126350000D02*
X71293750Y-126350000D01*
X71293750Y-140350000D01*
X57293750Y-140350000D01*
X57293750Y-126350000D01*
%TO.C,SW16*%
X316850000Y-31100000D02*
X330850000Y-31100000D01*
X330850000Y-45100000D01*
X316850000Y-45100000D01*
X316850000Y-31100000D01*
%TO.C,SW23*%
X145400000Y-50150000D02*
X159400000Y-50150000D01*
X159400000Y-64150000D01*
X145400000Y-64150000D01*
X145400000Y-50150000D01*
%TO.C,SW74*%
X316850000Y-107300000D02*
X330850000Y-107300000D01*
X330850000Y-121300000D01*
X316850000Y-121300000D01*
X316850000Y-107300000D01*
%TO.C,SW17*%
X31100000Y-50150000D02*
X45100000Y-50150000D01*
X45100000Y-64150000D01*
X31100000Y-64150000D01*
X31100000Y-50150000D01*
%TO.C,SW40*%
X193025000Y-69200000D02*
X207025000Y-69200000D01*
X207025000Y-83200000D01*
X193025000Y-83200000D01*
X193025000Y-69200000D01*
%TO.C,SW1*%
X31100000Y-31100000D02*
X45100000Y-31100000D01*
X45100000Y-45100000D01*
X31100000Y-45100000D01*
X31100000Y-31100000D01*
%TO.C,SW62*%
X73962500Y-107300000D02*
X87962500Y-107300000D01*
X87962500Y-121300000D01*
X73962500Y-121300000D01*
X73962500Y-107300000D01*
%TO.C,SW8*%
X164450000Y-31100000D02*
X178450000Y-31100000D01*
X178450000Y-45100000D01*
X164450000Y-45100000D01*
X164450000Y-31100000D01*
%TO.C,SW69*%
X207312500Y-107300000D02*
X221312500Y-107300000D01*
X221312500Y-121300000D01*
X207312500Y-121300000D01*
X207312500Y-107300000D01*
%TO.C,SW49*%
X83487500Y-88250000D02*
X97487500Y-88250000D01*
X97487500Y-102250000D01*
X83487500Y-102250000D01*
X83487500Y-88250000D01*
%TO.C,SW73*%
X297800000Y-107300000D02*
X311800000Y-107300000D01*
X311800000Y-121300000D01*
X297800000Y-121300000D01*
X297800000Y-107300000D01*
%TO.C,SW72*%
X271606250Y-107300000D02*
X285606250Y-107300000D01*
X285606250Y-121300000D01*
X271606250Y-121300000D01*
X271606250Y-107300000D01*
%TO.C,SW34*%
X78725000Y-69200000D02*
X92725000Y-69200000D01*
X92725000Y-83200000D01*
X78725000Y-83200000D01*
X78725000Y-69200000D01*
%TO.C,SW39*%
X173975000Y-69200000D02*
X187975000Y-69200000D01*
X187975000Y-83200000D01*
X173975000Y-83200000D01*
X173975000Y-69200000D01*
%TO.C,SW41*%
X212075000Y-69200000D02*
X226075000Y-69200000D01*
X226075000Y-83200000D01*
X212075000Y-83200000D01*
X212075000Y-69200000D01*
%TO.C,SW25*%
X183500000Y-50150000D02*
X197500000Y-50150000D01*
X197500000Y-64150000D01*
X183500000Y-64150000D01*
X183500000Y-50150000D01*
%TO.C,SW64*%
X112062500Y-107300000D02*
X126062500Y-107300000D01*
X126062500Y-121300000D01*
X112062500Y-121300000D01*
X112062500Y-107300000D01*
%TO.C,SW71*%
X245412500Y-107300000D02*
X259412500Y-107300000D01*
X259412500Y-121300000D01*
X245412500Y-121300000D01*
X245412500Y-107300000D01*
%TO.C,SW84*%
X316850000Y-126350000D02*
X330850000Y-126350000D01*
X330850000Y-140350000D01*
X316850000Y-140350000D01*
X316850000Y-126350000D01*
%TO.C,SW4*%
X88250000Y-31100000D02*
X102250000Y-31100000D01*
X102250000Y-45100000D01*
X88250000Y-45100000D01*
X88250000Y-31100000D01*
%TO.C,SW77*%
X81106250Y-126350000D02*
X95106250Y-126350000D01*
X95106250Y-140350000D01*
X81106250Y-140350000D01*
X81106250Y-126350000D01*
%TD*%
M02*
